G04*
G04 #@! TF.GenerationSoftware,Altium Limited,CircuitStudio,1.5.1 (13)*
G04*
G04 Layer_Color=13948096*
%FSLAX25Y25*%
%MOIN*%
G70*
G01*
G75*
G36*
X584611Y627881D02*
X584193D01*
X582953Y632315D01*
X583371D01*
X584611Y627881D01*
D02*
G37*
G36*
X580510Y589788D02*
X580648Y589775D01*
X580765Y589762D01*
X580869Y589742D01*
X580954Y589716D01*
X581020Y589703D01*
X581039Y589696D01*
X581059Y589690D01*
X581065Y589683D01*
X581072D01*
X581177Y589638D01*
X581268Y589585D01*
X581353Y589533D01*
X581418Y589487D01*
X581470Y589442D01*
X581503Y589402D01*
X581529Y589376D01*
X581536Y589370D01*
X581594Y589291D01*
X581640Y589200D01*
X581679Y589115D01*
X581712Y589030D01*
X581732Y588952D01*
X581751Y588893D01*
X581758Y588854D01*
X581764Y588847D01*
Y588841D01*
X581248Y588769D01*
X581216Y588880D01*
X581170Y588978D01*
X581131Y589056D01*
X581085Y589122D01*
X581046Y589167D01*
X581013Y589200D01*
X580994Y589220D01*
X580987Y589226D01*
X580915Y589272D01*
X580824Y589304D01*
X580739Y589324D01*
X580648Y589344D01*
X580563Y589350D01*
X580497Y589357D01*
X580439D01*
X580301Y589350D01*
X580177Y589331D01*
X580073Y589298D01*
X579988Y589265D01*
X579923Y589233D01*
X579877Y589200D01*
X579844Y589181D01*
X579838Y589174D01*
X579786Y589115D01*
X579753Y589050D01*
X579727Y588972D01*
X579707Y588900D01*
X579694Y588834D01*
X579688Y588776D01*
Y588736D01*
Y588730D01*
Y588723D01*
Y588710D01*
Y588691D01*
Y588645D01*
X579694Y588606D01*
Y588593D01*
Y588586D01*
X579753Y588567D01*
X579818Y588547D01*
X579968Y588508D01*
X580125Y588482D01*
X580275Y588456D01*
X580419Y588429D01*
X580478Y588423D01*
X580530Y588416D01*
X580576Y588410D01*
X580608D01*
X580628Y588403D01*
X580634D01*
X580746Y588390D01*
X580837Y588377D01*
X580922Y588364D01*
X580987Y588351D01*
X581039Y588338D01*
X581072Y588332D01*
X581098Y588325D01*
X581105D01*
X581183Y588299D01*
X581255Y588273D01*
X581314Y588247D01*
X581372Y588214D01*
X581418Y588188D01*
X581451Y588168D01*
X581477Y588155D01*
X581483Y588149D01*
X581542Y588103D01*
X581594Y588057D01*
X581647Y588005D01*
X581686Y587959D01*
X581718Y587914D01*
X581738Y587881D01*
X581751Y587855D01*
X581758Y587848D01*
X581790Y587777D01*
X581816Y587705D01*
X581830Y587633D01*
X581843Y587568D01*
X581849Y587515D01*
X581856Y587470D01*
Y587443D01*
Y587430D01*
X581843Y587293D01*
X581810Y587163D01*
X581771Y587058D01*
X581718Y586967D01*
X581666Y586888D01*
X581627Y586836D01*
X581594Y586803D01*
X581581Y586791D01*
X581470Y586706D01*
X581340Y586647D01*
X581216Y586601D01*
X581085Y586575D01*
X580974Y586555D01*
X580922Y586549D01*
X580883D01*
X580843Y586542D01*
X580798D01*
X580680Y586549D01*
X580576Y586562D01*
X580478Y586575D01*
X580386Y586595D01*
X580314Y586614D01*
X580262Y586634D01*
X580230Y586640D01*
X580217Y586647D01*
X580112Y586692D01*
X580014Y586745D01*
X579916Y586803D01*
X579831Y586869D01*
X579753Y586921D01*
X579701Y586967D01*
X579662Y586993D01*
X579648Y587006D01*
X579635Y586921D01*
X579622Y586849D01*
X579609Y586784D01*
X579590Y586725D01*
X579570Y586680D01*
X579557Y586640D01*
X579551Y586621D01*
X579544Y586614D01*
X578995D01*
X579054Y586745D01*
X579080Y586810D01*
X579100Y586862D01*
X579113Y586908D01*
X579119Y586947D01*
X579126Y586973D01*
Y586980D01*
X579133Y587026D01*
X579139Y587078D01*
Y587137D01*
X579146Y587208D01*
X579152Y587359D01*
Y587522D01*
X579159Y587672D01*
Y587737D01*
Y587796D01*
Y587842D01*
Y587881D01*
Y587907D01*
Y587914D01*
Y588619D01*
Y588743D01*
X579165Y588841D01*
X579172Y588926D01*
Y588991D01*
X579178Y589043D01*
X579185Y589076D01*
X579191Y589096D01*
Y589102D01*
X579211Y589181D01*
X579237Y589252D01*
X579263Y589311D01*
X579289Y589363D01*
X579315Y589409D01*
X579335Y589435D01*
X579348Y589455D01*
X579355Y589461D01*
X579407Y589513D01*
X579459Y589559D01*
X579524Y589598D01*
X579583Y589631D01*
X579635Y589657D01*
X579681Y589683D01*
X579707Y589690D01*
X579720Y589696D01*
X579818Y589729D01*
X579923Y589755D01*
X580034Y589768D01*
X580138Y589781D01*
X580230Y589788D01*
X580301Y589794D01*
X580367D01*
X580510Y589788D01*
D02*
G37*
G36*
X590821Y632308D02*
X590972Y632289D01*
X591102Y632269D01*
X591220Y632243D01*
X591311Y632210D01*
X591350Y632197D01*
X591383Y632191D01*
X591416Y632178D01*
X591435Y632171D01*
X591442Y632165D01*
X591448D01*
X591572Y632106D01*
X591683Y632034D01*
X591775Y631962D01*
X591847Y631897D01*
X591905Y631832D01*
X591951Y631779D01*
X591977Y631747D01*
X591984Y631740D01*
Y631734D01*
X592042Y631629D01*
X592088Y631518D01*
X592121Y631420D01*
X592140Y631322D01*
X592153Y631244D01*
X592167Y631185D01*
Y631159D01*
Y631139D01*
Y631133D01*
Y631126D01*
X592160Y631022D01*
X592140Y630917D01*
X592121Y630826D01*
X592088Y630748D01*
X592062Y630682D01*
X592042Y630637D01*
X592023Y630604D01*
X592016Y630591D01*
X591951Y630506D01*
X591879Y630428D01*
X591807Y630362D01*
X591729Y630303D01*
X591664Y630258D01*
X591611Y630225D01*
X591572Y630199D01*
X591566Y630193D01*
X591559D01*
X591513Y630166D01*
X591455Y630147D01*
X591331Y630101D01*
X591193Y630055D01*
X591056Y630010D01*
X590932Y629977D01*
X590880Y629964D01*
X590834Y629951D01*
X590795Y629938D01*
X590763Y629931D01*
X590743Y629925D01*
X590736D01*
X590632Y629899D01*
X590534Y629873D01*
X590443Y629853D01*
X590364Y629833D01*
X590299Y629814D01*
X590234Y629794D01*
X590181Y629781D01*
X590129Y629768D01*
X590090Y629755D01*
X590057Y629742D01*
X590005Y629729D01*
X589979Y629722D01*
X589972Y629716D01*
X589881Y629677D01*
X589796Y629631D01*
X589731Y629592D01*
X589678Y629553D01*
X589639Y629513D01*
X589607Y629487D01*
X589594Y629468D01*
X589587Y629461D01*
X589548Y629402D01*
X589522Y629344D01*
X589496Y629285D01*
X589483Y629226D01*
X589476Y629180D01*
X589470Y629141D01*
Y629115D01*
Y629109D01*
X589476Y629037D01*
X589489Y628971D01*
X589509Y628906D01*
X589528Y628854D01*
X589555Y628808D01*
X589574Y628776D01*
X589587Y628749D01*
X589594Y628743D01*
X589646Y628684D01*
X589705Y628632D01*
X589763Y628586D01*
X589829Y628547D01*
X589881Y628514D01*
X589927Y628495D01*
X589953Y628482D01*
X589966Y628475D01*
X590064Y628442D01*
X590162Y628423D01*
X590253Y628403D01*
X590345Y628397D01*
X590416Y628390D01*
X590482Y628384D01*
X590534D01*
X590665Y628390D01*
X590789Y628403D01*
X590906Y628423D01*
X590998Y628449D01*
X591082Y628469D01*
X591141Y628488D01*
X591181Y628501D01*
X591187Y628508D01*
X591193D01*
X591292Y628560D01*
X591383Y628612D01*
X591455Y628671D01*
X591513Y628723D01*
X591566Y628769D01*
X591598Y628808D01*
X591618Y628834D01*
X591624Y628841D01*
X591670Y628926D01*
X591709Y629011D01*
X591736Y629102D01*
X591762Y629187D01*
X591775Y629265D01*
X591788Y629324D01*
X591794Y629363D01*
Y629370D01*
Y629376D01*
X592330Y629331D01*
X592317Y629174D01*
X592290Y629030D01*
X592251Y628893D01*
X592212Y628782D01*
X592173Y628684D01*
X592153Y628645D01*
X592134Y628612D01*
X592121Y628586D01*
X592108Y628567D01*
X592101Y628560D01*
Y628553D01*
X592010Y628436D01*
X591905Y628332D01*
X591807Y628247D01*
X591703Y628175D01*
X591618Y628116D01*
X591546Y628077D01*
X591520Y628064D01*
X591500Y628051D01*
X591487Y628044D01*
X591481D01*
X591324Y627992D01*
X591161Y627953D01*
X590998Y627920D01*
X590847Y627901D01*
X590776Y627894D01*
X590710Y627887D01*
X590652D01*
X590606Y627881D01*
X590508D01*
X590338Y627887D01*
X590188Y627907D01*
X590044Y627933D01*
X589927Y627966D01*
X589822Y627992D01*
X589783Y628005D01*
X589750Y628018D01*
X589724Y628031D01*
X589705Y628038D01*
X589692Y628044D01*
X589685D01*
X589555Y628116D01*
X589437Y628188D01*
X589339Y628266D01*
X589261Y628344D01*
X589195Y628410D01*
X589156Y628462D01*
X589123Y628501D01*
X589117Y628514D01*
X589052Y628625D01*
X589006Y628743D01*
X588967Y628854D01*
X588947Y628952D01*
X588934Y629037D01*
X588921Y629102D01*
Y629128D01*
Y629148D01*
Y629154D01*
Y629161D01*
X588928Y629285D01*
X588947Y629402D01*
X588980Y629507D01*
X589012Y629592D01*
X589045Y629670D01*
X589078Y629722D01*
X589097Y629755D01*
X589104Y629768D01*
X589176Y629859D01*
X589261Y629944D01*
X589352Y630023D01*
X589443Y630088D01*
X589528Y630134D01*
X589594Y630173D01*
X589620Y630186D01*
X589633Y630199D01*
X589646Y630206D01*
X589652D01*
X589705Y630225D01*
X589770Y630251D01*
X589835Y630277D01*
X589914Y630297D01*
X590070Y630343D01*
X590227Y630388D01*
X590371Y630421D01*
X590436Y630441D01*
X590495Y630454D01*
X590541Y630467D01*
X590573Y630473D01*
X590599Y630480D01*
X590606D01*
X590730Y630513D01*
X590841Y630539D01*
X590939Y630565D01*
X591030Y630597D01*
X591109Y630623D01*
X591174Y630643D01*
X591233Y630669D01*
X591285Y630695D01*
X591331Y630715D01*
X591370Y630728D01*
X591396Y630748D01*
X591416Y630761D01*
X591448Y630780D01*
X591455Y630787D01*
X591507Y630845D01*
X591546Y630904D01*
X591579Y630970D01*
X591598Y631028D01*
X591611Y631081D01*
X591618Y631126D01*
Y631152D01*
Y631166D01*
X591605Y631263D01*
X591579Y631348D01*
X591546Y631427D01*
X591500Y631492D01*
X591461Y631551D01*
X591422Y631590D01*
X591396Y631616D01*
X591389Y631623D01*
X591344Y631655D01*
X591292Y631688D01*
X591174Y631734D01*
X591050Y631766D01*
X590926Y631786D01*
X590815Y631806D01*
X590763D01*
X590723Y631812D01*
X590638D01*
X590462Y631806D01*
X590312Y631779D01*
X590181Y631747D01*
X590077Y631707D01*
X589998Y631668D01*
X589940Y631636D01*
X589907Y631610D01*
X589894Y631603D01*
X589809Y631518D01*
X589737Y631420D01*
X589685Y631322D01*
X589646Y631224D01*
X589620Y631133D01*
X589607Y631061D01*
X589600Y631035D01*
X589594Y631015D01*
Y631002D01*
Y630996D01*
X589052Y631035D01*
X589065Y631172D01*
X589091Y631296D01*
X589130Y631414D01*
X589169Y631512D01*
X589202Y631590D01*
X589234Y631655D01*
X589261Y631694D01*
X589267Y631707D01*
X589346Y631812D01*
X589437Y631903D01*
X589528Y631982D01*
X589620Y632047D01*
X589705Y632093D01*
X589770Y632132D01*
X589796Y632145D01*
X589816Y632152D01*
X589822Y632158D01*
X589829D01*
X589966Y632210D01*
X590109Y632249D01*
X590253Y632276D01*
X590384Y632295D01*
X590495Y632308D01*
X590541D01*
X590586Y632315D01*
X590665D01*
X590821Y632308D01*
D02*
G37*
G36*
X567228Y631126D02*
X567339Y631113D01*
X567444Y631087D01*
X567535Y631054D01*
X567627Y631015D01*
X567705Y630970D01*
X567777Y630924D01*
X567849Y630878D01*
X567907Y630826D01*
X567953Y630780D01*
X567999Y630734D01*
X568032Y630695D01*
X568064Y630663D01*
X568084Y630637D01*
X568090Y630623D01*
X568097Y630617D01*
Y631061D01*
X568574D01*
Y627953D01*
X568045D01*
Y629651D01*
Y629755D01*
X568032Y629853D01*
X568025Y629944D01*
X568006Y630029D01*
X567986Y630101D01*
X567966Y630166D01*
X567947Y630225D01*
X567921Y630277D01*
X567901Y630323D01*
X567881Y630362D01*
X567842Y630415D01*
X567816Y630447D01*
X567803Y630460D01*
X567712Y630532D01*
X567607Y630584D01*
X567516Y630623D01*
X567424Y630650D01*
X567339Y630663D01*
X567281Y630676D01*
X567222D01*
X567143Y630669D01*
X567078Y630663D01*
X567013Y630643D01*
X566961Y630630D01*
X566915Y630611D01*
X566882Y630591D01*
X566863Y630584D01*
X566856Y630578D01*
X566804Y630539D01*
X566758Y630493D01*
X566719Y630454D01*
X566686Y630408D01*
X566667Y630375D01*
X566654Y630343D01*
X566641Y630323D01*
Y630317D01*
X566621Y630251D01*
X566602Y630180D01*
X566588Y630095D01*
X566582Y630023D01*
X566575Y629951D01*
Y629892D01*
Y629853D01*
Y629846D01*
Y629840D01*
Y627953D01*
X566046D01*
Y629859D01*
Y629990D01*
X566053Y630095D01*
X566059Y630186D01*
Y630258D01*
X566066Y630310D01*
X566073Y630349D01*
X566079Y630369D01*
Y630375D01*
X566099Y630454D01*
X566125Y630532D01*
X566151Y630597D01*
X566177Y630650D01*
X566203Y630695D01*
X566223Y630734D01*
X566236Y630754D01*
X566242Y630761D01*
X566288Y630819D01*
X566347Y630872D01*
X566406Y630917D01*
X566464Y630957D01*
X566517Y630989D01*
X566556Y631009D01*
X566582Y631022D01*
X566595Y631028D01*
X566686Y631061D01*
X566771Y631087D01*
X566863Y631107D01*
X566941Y631120D01*
X567006Y631126D01*
X567065Y631133D01*
X567111D01*
X567228Y631126D01*
D02*
G37*
G36*
X561919Y627953D02*
X561391D01*
Y632243D01*
X561919D01*
Y627953D01*
D02*
G37*
G36*
X568809Y586608D02*
X568828Y586549D01*
X568848Y586510D01*
X568854Y586484D01*
X568861Y586477D01*
X568900Y586373D01*
X568933Y586281D01*
X568959Y586216D01*
X568978Y586164D01*
X568998Y586124D01*
X569011Y586105D01*
X569018Y586092D01*
Y586085D01*
X569076Y586013D01*
X569135Y585961D01*
X569155Y585942D01*
X569174Y585928D01*
X569187Y585916D01*
X569194D01*
X569233Y585896D01*
X569279Y585883D01*
X569370Y585863D01*
X569416D01*
X569442Y585857D01*
X569475D01*
X569579Y585863D01*
X569671Y585883D01*
X569716Y585896D01*
X569749Y585902D01*
X569768Y585909D01*
X569775D01*
X569716Y585419D01*
X569586Y585380D01*
X569527Y585367D01*
X569475Y585360D01*
X569436D01*
X569403Y585354D01*
X569377D01*
X569285Y585360D01*
X569207Y585373D01*
X569129Y585393D01*
X569070Y585419D01*
X569018Y585439D01*
X568978Y585458D01*
X568952Y585471D01*
X568946Y585478D01*
X568881Y585530D01*
X568815Y585589D01*
X568763Y585654D01*
X568711Y585713D01*
X568672Y585772D01*
X568645Y585817D01*
X568626Y585844D01*
X568619Y585857D01*
X568600Y585896D01*
X568574Y585942D01*
X568528Y586053D01*
X568482Y586164D01*
X568430Y586281D01*
X568391Y586392D01*
X568371Y586438D01*
X568358Y586477D01*
X568345Y586516D01*
X568332Y586542D01*
X568325Y586555D01*
Y586562D01*
X567150Y589722D01*
X567672D01*
X568338Y587907D01*
X568384Y587777D01*
X568423Y587652D01*
X568463Y587535D01*
X568495Y587430D01*
X568521Y587346D01*
X568534Y587274D01*
X568547Y587248D01*
Y587228D01*
X568554Y587221D01*
Y587215D01*
X568593Y587352D01*
X568632Y587483D01*
X568672Y587607D01*
X568704Y587711D01*
X568737Y587803D01*
X568763Y587875D01*
X568770Y587901D01*
X568776Y587920D01*
X568783Y587927D01*
Y587933D01*
X569429Y589722D01*
X569991D01*
X568809Y586608D01*
D02*
G37*
G36*
X585630Y586614D02*
X583847D01*
X583717Y586627D01*
X583599Y586634D01*
X583495Y586647D01*
X583416Y586660D01*
X583357Y586666D01*
X583318Y586680D01*
X583305D01*
X583207Y586712D01*
X583116Y586745D01*
X583031Y586777D01*
X582966Y586810D01*
X582907Y586843D01*
X582868Y586869D01*
X582842Y586882D01*
X582835Y586888D01*
X582770Y586947D01*
X582704Y587012D01*
X582652Y587078D01*
X582607Y587143D01*
X582574Y587202D01*
X582541Y587248D01*
X582528Y587280D01*
X582522Y587293D01*
X582476Y587391D01*
X582443Y587489D01*
X582424Y587587D01*
X582404Y587672D01*
X582398Y587744D01*
X582391Y587803D01*
Y587842D01*
Y587855D01*
X582398Y587992D01*
X582424Y588116D01*
X582456Y588221D01*
X582495Y588318D01*
X582541Y588397D01*
X582574Y588456D01*
X582600Y588488D01*
X582607Y588501D01*
X582691Y588599D01*
X582789Y588678D01*
X582887Y588743D01*
X582985Y588802D01*
X583070Y588841D01*
X583142Y588873D01*
X583168Y588880D01*
X583188Y588887D01*
X583201Y588893D01*
X583207D01*
X583096Y588952D01*
X583005Y589017D01*
X582927Y589076D01*
X582861Y589141D01*
X582816Y589193D01*
X582776Y589239D01*
X582757Y589265D01*
X582750Y589278D01*
X582698Y589370D01*
X582665Y589468D01*
X582639Y589553D01*
X582620Y589631D01*
X582607Y589703D01*
X582600Y589755D01*
Y589788D01*
Y589801D01*
X582607Y589912D01*
X582626Y590016D01*
X582652Y590108D01*
X582685Y590193D01*
X582718Y590264D01*
X582744Y590323D01*
X582763Y590356D01*
X582770Y590369D01*
X582842Y590467D01*
X582913Y590545D01*
X582992Y590617D01*
X583070Y590676D01*
X583136Y590715D01*
X583188Y590748D01*
X583227Y590767D01*
X583233Y590774D01*
X583240D01*
X583357Y590820D01*
X583488Y590852D01*
X583619Y590872D01*
X583743Y590891D01*
X583854Y590898D01*
X583899D01*
X583945Y590904D01*
X585630D01*
Y586614D01*
D02*
G37*
G36*
X570611Y589788D02*
X570676Y589775D01*
X570735Y589762D01*
X570781Y589742D01*
X570826Y589716D01*
X570859Y589703D01*
X570879Y589690D01*
X570885Y589683D01*
X570944Y589638D01*
X570996Y589572D01*
X571055Y589500D01*
X571107Y589429D01*
X571146Y589363D01*
X571179Y589304D01*
X571205Y589265D01*
X571212Y589259D01*
Y589722D01*
X571688D01*
Y586614D01*
X571159D01*
Y588240D01*
X571153Y588364D01*
X571146Y588475D01*
X571133Y588580D01*
X571114Y588671D01*
X571101Y588750D01*
X571088Y588808D01*
X571081Y588841D01*
X571074Y588854D01*
X571048Y588919D01*
X571022Y588978D01*
X570990Y589030D01*
X570957Y589069D01*
X570931Y589102D01*
X570905Y589128D01*
X570892Y589141D01*
X570885Y589148D01*
X570833Y589181D01*
X570781Y589207D01*
X570728Y589226D01*
X570683Y589239D01*
X570637Y589246D01*
X570604Y589252D01*
X570578D01*
X570506Y589246D01*
X570435Y589233D01*
X570369Y589213D01*
X570310Y589193D01*
X570265Y589174D01*
X570226Y589154D01*
X570199Y589141D01*
X570193Y589135D01*
X570004Y589618D01*
X570108Y589677D01*
X570206Y589722D01*
X570297Y589749D01*
X570376Y589775D01*
X570448Y589788D01*
X570500Y589794D01*
X570546D01*
X570611Y589788D01*
D02*
G37*
G36*
X573863D02*
X573974Y589775D01*
X574078Y589755D01*
X574176Y589729D01*
X574274Y589690D01*
X574359Y589657D01*
X574438Y589618D01*
X574509Y589579D01*
X574575Y589533D01*
X574627Y589494D01*
X574679Y589461D01*
X574718Y589429D01*
X574751Y589396D01*
X574770Y589376D01*
X574784Y589363D01*
X574790Y589357D01*
X574862Y589272D01*
X574921Y589181D01*
X574973Y589082D01*
X575019Y588985D01*
X575058Y588880D01*
X575091Y588782D01*
X575136Y588586D01*
X575156Y588495D01*
X575169Y588410D01*
X575175Y588332D01*
X575182Y588266D01*
X575188Y588214D01*
Y588168D01*
Y588142D01*
Y588136D01*
X575182Y587998D01*
X575169Y587868D01*
X575149Y587744D01*
X575123Y587633D01*
X575097Y587528D01*
X575064Y587430D01*
X575025Y587346D01*
X574986Y587267D01*
X574953Y587195D01*
X574914Y587130D01*
X574882Y587078D01*
X574849Y587039D01*
X574829Y587006D01*
X574810Y586980D01*
X574797Y586967D01*
X574790Y586960D01*
X574712Y586888D01*
X574627Y586823D01*
X574542Y586764D01*
X574451Y586719D01*
X574366Y586680D01*
X574274Y586647D01*
X574104Y586595D01*
X574020Y586575D01*
X573948Y586562D01*
X573882Y586555D01*
X573824Y586549D01*
X573778Y586542D01*
X573713D01*
X573517Y586555D01*
X573347Y586582D01*
X573190Y586627D01*
X573066Y586673D01*
X573007Y586699D01*
X572962Y586719D01*
X572923Y586745D01*
X572890Y586764D01*
X572857Y586777D01*
X572838Y586791D01*
X572831Y586803D01*
X572825D01*
X572707Y586908D01*
X572603Y587032D01*
X572524Y587156D01*
X572459Y587274D01*
X572407Y587385D01*
X572387Y587430D01*
X572374Y587470D01*
X572361Y587502D01*
X572354Y587528D01*
X572348Y587541D01*
Y587548D01*
X572890Y587620D01*
X572942Y587502D01*
X572994Y587398D01*
X573047Y587313D01*
X573099Y587248D01*
X573145Y587189D01*
X573184Y587156D01*
X573210Y587130D01*
X573216Y587123D01*
X573295Y587071D01*
X573380Y587039D01*
X573464Y587012D01*
X573543Y586993D01*
X573608Y586980D01*
X573660Y586973D01*
X573713D01*
X573850Y586986D01*
X573974Y587012D01*
X574085Y587058D01*
X574183Y587111D01*
X574255Y587156D01*
X574313Y587202D01*
X574346Y587228D01*
X574359Y587241D01*
X574444Y587352D01*
X574516Y587483D01*
X574562Y587613D01*
X574601Y587737D01*
X574627Y587855D01*
X574633Y587901D01*
X574640Y587946D01*
Y587979D01*
X574647Y588012D01*
Y588025D01*
Y588031D01*
X572335D01*
X572328Y588090D01*
Y588136D01*
Y588162D01*
Y588168D01*
X572335Y588312D01*
X572348Y588443D01*
X572367Y588567D01*
X572387Y588678D01*
X572420Y588789D01*
X572452Y588887D01*
X572492Y588972D01*
X572524Y589056D01*
X572563Y589128D01*
X572603Y589187D01*
X572635Y589239D01*
X572661Y589285D01*
X572687Y589318D01*
X572707Y589344D01*
X572720Y589357D01*
X572727Y589363D01*
X572805Y589442D01*
X572883Y589507D01*
X572968Y589566D01*
X573053Y589611D01*
X573138Y589657D01*
X573223Y589690D01*
X573380Y589742D01*
X573458Y589762D01*
X573523Y589775D01*
X573589Y589781D01*
X573641Y589788D01*
X573687Y589794D01*
X573745D01*
X573863Y589788D01*
D02*
G37*
G36*
X578258Y590486D02*
Y589722D01*
X578649D01*
Y589311D01*
X578258D01*
Y587522D01*
Y587437D01*
Y587359D01*
X578251Y587287D01*
Y587221D01*
X578244Y587163D01*
X578238Y587117D01*
X578225Y587032D01*
X578218Y586967D01*
X578205Y586928D01*
X578199Y586902D01*
Y586895D01*
X578173Y586843D01*
X578133Y586797D01*
X578101Y586758D01*
X578062Y586725D01*
X578029Y586699D01*
X578003Y586680D01*
X577983Y586666D01*
X577977Y586660D01*
X577912Y586634D01*
X577840Y586614D01*
X577761Y586595D01*
X577689Y586588D01*
X577624Y586582D01*
X577572Y586575D01*
X577526D01*
X577389Y586582D01*
X577324Y586588D01*
X577265Y586601D01*
X577206Y586608D01*
X577167Y586614D01*
X577141Y586621D01*
X577128D01*
X577200Y587084D01*
X577298Y587071D01*
X577337D01*
X577369Y587065D01*
X577435D01*
X577513Y587071D01*
X577572Y587084D01*
X577605Y587091D01*
X577618Y587097D01*
X577657Y587130D01*
X577683Y587163D01*
X577696Y587189D01*
X577703Y587202D01*
X577709Y587234D01*
X577716Y587274D01*
X577722Y587372D01*
X577729Y587417D01*
Y587457D01*
Y587483D01*
Y587489D01*
Y589311D01*
X577200D01*
Y589722D01*
X577729D01*
Y590806D01*
X578258Y590486D01*
D02*
G37*
G36*
X576592D02*
Y589722D01*
X576984D01*
Y589311D01*
X576592D01*
Y587522D01*
Y587437D01*
Y587359D01*
X576586Y587287D01*
Y587221D01*
X576579Y587163D01*
X576573Y587117D01*
X576560Y587032D01*
X576553Y586967D01*
X576540Y586928D01*
X576534Y586902D01*
Y586895D01*
X576508Y586843D01*
X576468Y586797D01*
X576436Y586758D01*
X576397Y586725D01*
X576364Y586699D01*
X576338Y586680D01*
X576318Y586666D01*
X576312Y586660D01*
X576246Y586634D01*
X576174Y586614D01*
X576096Y586595D01*
X576024Y586588D01*
X575959Y586582D01*
X575907Y586575D01*
X575861D01*
X575724Y586582D01*
X575659Y586588D01*
X575600Y586601D01*
X575541Y586608D01*
X575502Y586614D01*
X575476Y586621D01*
X575463D01*
X575534Y587084D01*
X575632Y587071D01*
X575672D01*
X575704Y587065D01*
X575770D01*
X575848Y587071D01*
X575907Y587084D01*
X575939Y587091D01*
X575952Y587097D01*
X575992Y587130D01*
X576018Y587163D01*
X576031Y587189D01*
X576037Y587202D01*
X576044Y587234D01*
X576050Y587274D01*
X576057Y587372D01*
X576063Y587417D01*
Y587457D01*
Y587483D01*
Y587489D01*
Y589311D01*
X575534D01*
Y589722D01*
X576063D01*
Y590806D01*
X576592Y590486D01*
D02*
G37*
G36*
X569488Y631126D02*
X569553Y631113D01*
X569612Y631100D01*
X569658Y631081D01*
X569703Y631054D01*
X569736Y631041D01*
X569756Y631028D01*
X569762Y631022D01*
X569821Y630976D01*
X569873Y630911D01*
X569932Y630839D01*
X569984Y630767D01*
X570023Y630702D01*
X570056Y630643D01*
X570082Y630604D01*
X570089Y630597D01*
Y631061D01*
X570565D01*
Y627953D01*
X570036D01*
Y629579D01*
X570030Y629703D01*
X570023Y629814D01*
X570010Y629918D01*
X569991Y630010D01*
X569978Y630088D01*
X569965Y630147D01*
X569958Y630180D01*
X569951Y630193D01*
X569925Y630258D01*
X569899Y630317D01*
X569867Y630369D01*
X569834Y630408D01*
X569808Y630441D01*
X569782Y630467D01*
X569769Y630480D01*
X569762Y630486D01*
X569710Y630519D01*
X569658Y630545D01*
X569605Y630565D01*
X569560Y630578D01*
X569514Y630584D01*
X569481Y630591D01*
X569455D01*
X569383Y630584D01*
X569312Y630571D01*
X569246Y630552D01*
X569187Y630532D01*
X569142Y630513D01*
X569102Y630493D01*
X569076Y630480D01*
X569070Y630473D01*
X568881Y630957D01*
X568985Y631015D01*
X569083Y631061D01*
X569174Y631087D01*
X569253Y631113D01*
X569324Y631126D01*
X569377Y631133D01*
X569422D01*
X569488Y631126D01*
D02*
G37*
G36*
X575469Y631825D02*
Y631061D01*
X575861D01*
Y630650D01*
X575469D01*
Y628860D01*
Y628776D01*
Y628697D01*
X575463Y628625D01*
Y628560D01*
X575456Y628501D01*
X575450Y628456D01*
X575437Y628371D01*
X575430Y628305D01*
X575417Y628266D01*
X575411Y628240D01*
Y628233D01*
X575384Y628181D01*
X575345Y628136D01*
X575313Y628096D01*
X575273Y628064D01*
X575241Y628038D01*
X575215Y628018D01*
X575195Y628005D01*
X575188Y627998D01*
X575123Y627972D01*
X575051Y627953D01*
X574973Y627933D01*
X574901Y627927D01*
X574836Y627920D01*
X574784Y627914D01*
X574738D01*
X574601Y627920D01*
X574536Y627927D01*
X574477Y627940D01*
X574418Y627946D01*
X574379Y627953D01*
X574353Y627959D01*
X574340D01*
X574411Y628423D01*
X574509Y628410D01*
X574548D01*
X574581Y628403D01*
X574647D01*
X574725Y628410D01*
X574784Y628423D01*
X574816Y628429D01*
X574829Y628436D01*
X574868Y628469D01*
X574895Y628501D01*
X574908Y628527D01*
X574914Y628540D01*
X574921Y628573D01*
X574927Y628612D01*
X574934Y628710D01*
X574940Y628756D01*
Y628795D01*
Y628821D01*
Y628828D01*
Y630650D01*
X574411D01*
Y631061D01*
X574940D01*
Y632145D01*
X575469Y631825D01*
D02*
G37*
G36*
X596457Y629762D02*
Y629637D01*
X596450Y629520D01*
X596444Y629409D01*
X596431Y629305D01*
X596418Y629213D01*
X596404Y629122D01*
X596391Y629043D01*
X596372Y628971D01*
X596359Y628906D01*
X596346Y628847D01*
X596333Y628795D01*
X596320Y628756D01*
X596307Y628723D01*
X596300Y628704D01*
X596293Y628691D01*
Y628684D01*
X596222Y628547D01*
X596137Y628423D01*
X596052Y628325D01*
X595960Y628240D01*
X595882Y628168D01*
X595810Y628123D01*
X595784Y628103D01*
X595771Y628096D01*
X595758Y628083D01*
X595751D01*
X595601Y628018D01*
X595432Y627966D01*
X595268Y627933D01*
X595112Y627907D01*
X595040Y627901D01*
X594974Y627894D01*
X594916Y627887D01*
X594863D01*
X594824Y627881D01*
X594765D01*
X594543Y627894D01*
X594347Y627920D01*
X594256Y627933D01*
X594178Y627953D01*
X594099Y627979D01*
X594034Y627998D01*
X593975Y628018D01*
X593917Y628044D01*
X593871Y628064D01*
X593838Y628077D01*
X593806Y628096D01*
X593786Y628103D01*
X593773Y628116D01*
X593766D01*
X593636Y628214D01*
X593518Y628312D01*
X593427Y628416D01*
X593355Y628514D01*
X593303Y628606D01*
X593263Y628671D01*
X593251Y628697D01*
X593244Y628717D01*
X593237Y628730D01*
Y628736D01*
X593185Y628887D01*
X593153Y629056D01*
X593126Y629226D01*
X593107Y629389D01*
X593100Y629468D01*
X593094Y629539D01*
Y629598D01*
X593087Y629657D01*
Y629703D01*
Y629735D01*
Y629755D01*
Y629762D01*
Y632243D01*
X593655D01*
Y629762D01*
Y629618D01*
X593668Y629481D01*
X593681Y629363D01*
X593694Y629252D01*
X593714Y629148D01*
X593740Y629063D01*
X593766Y628984D01*
X593786Y628913D01*
X593812Y628854D01*
X593838Y628802D01*
X593858Y628762D01*
X593884Y628730D01*
X593897Y628704D01*
X593910Y628684D01*
X593923Y628678D01*
Y628671D01*
X593975Y628619D01*
X594041Y628580D01*
X594178Y628508D01*
X594321Y628462D01*
X594472Y628423D01*
X594602Y628403D01*
X594661Y628397D01*
X594713D01*
X594759Y628390D01*
X594818D01*
X594948Y628397D01*
X595066Y628410D01*
X595170Y628436D01*
X595262Y628462D01*
X595333Y628482D01*
X595386Y628508D01*
X595418Y628521D01*
X595432Y628527D01*
X595523Y628586D01*
X595595Y628652D01*
X595660Y628723D01*
X595706Y628789D01*
X595745Y628847D01*
X595771Y628893D01*
X595784Y628926D01*
X595791Y628939D01*
X595810Y628991D01*
X595823Y629050D01*
X595849Y629180D01*
X595862Y629318D01*
X595876Y629448D01*
X595882Y629572D01*
X595889Y629624D01*
Y629670D01*
Y629709D01*
Y629735D01*
Y629755D01*
Y629762D01*
Y632243D01*
X596457D01*
Y629762D01*
D02*
G37*
G36*
X564074Y631126D02*
X564212Y631113D01*
X564329Y631100D01*
X564434Y631081D01*
X564518Y631054D01*
X564584Y631041D01*
X564603Y631035D01*
X564623Y631028D01*
X564630Y631022D01*
X564636D01*
X564741Y630976D01*
X564832Y630924D01*
X564917Y630872D01*
X564982Y630826D01*
X565034Y630780D01*
X565067Y630741D01*
X565093Y630715D01*
X565100Y630708D01*
X565158Y630630D01*
X565204Y630539D01*
X565243Y630454D01*
X565276Y630369D01*
X565296Y630291D01*
X565315Y630232D01*
X565322Y630193D01*
X565328Y630186D01*
Y630180D01*
X564812Y630108D01*
X564780Y630219D01*
X564734Y630317D01*
X564695Y630395D01*
X564649Y630460D01*
X564610Y630506D01*
X564577Y630539D01*
X564558Y630558D01*
X564551Y630565D01*
X564479Y630611D01*
X564388Y630643D01*
X564303Y630663D01*
X564212Y630682D01*
X564127Y630689D01*
X564061Y630695D01*
X564003D01*
X563866Y630689D01*
X563741Y630669D01*
X563637Y630637D01*
X563552Y630604D01*
X563487Y630571D01*
X563441Y630539D01*
X563408Y630519D01*
X563402Y630513D01*
X563350Y630454D01*
X563317Y630388D01*
X563291Y630310D01*
X563271Y630238D01*
X563258Y630173D01*
X563252Y630114D01*
Y630075D01*
Y630068D01*
Y630062D01*
Y630049D01*
Y630029D01*
Y629984D01*
X563258Y629944D01*
Y629931D01*
Y629925D01*
X563317Y629905D01*
X563382Y629886D01*
X563532Y629846D01*
X563689Y629820D01*
X563839Y629794D01*
X563983Y629768D01*
X564042Y629762D01*
X564094Y629755D01*
X564140Y629748D01*
X564172D01*
X564192Y629742D01*
X564198D01*
X564310Y629729D01*
X564401Y629716D01*
X564486Y629703D01*
X564551Y629690D01*
X564603Y629677D01*
X564636Y629670D01*
X564662Y629664D01*
X564669D01*
X564747Y629637D01*
X564819Y629611D01*
X564878Y629585D01*
X564936Y629553D01*
X564982Y629527D01*
X565015Y629507D01*
X565041Y629494D01*
X565047Y629487D01*
X565106Y629442D01*
X565158Y629396D01*
X565211Y629344D01*
X565250Y629298D01*
X565282Y629252D01*
X565302Y629220D01*
X565315Y629193D01*
X565322Y629187D01*
X565354Y629115D01*
X565380Y629043D01*
X565393Y628971D01*
X565407Y628906D01*
X565413Y628854D01*
X565420Y628808D01*
Y628782D01*
Y628769D01*
X565407Y628632D01*
X565374Y628501D01*
X565335Y628397D01*
X565282Y628305D01*
X565230Y628227D01*
X565191Y628175D01*
X565158Y628142D01*
X565145Y628129D01*
X565034Y628044D01*
X564904Y627985D01*
X564780Y627940D01*
X564649Y627914D01*
X564538Y627894D01*
X564486Y627887D01*
X564447D01*
X564407Y627881D01*
X564362D01*
X564244Y627887D01*
X564140Y627901D01*
X564042Y627914D01*
X563950Y627933D01*
X563878Y627953D01*
X563826Y627972D01*
X563794Y627979D01*
X563781Y627985D01*
X563676Y628031D01*
X563578Y628083D01*
X563480Y628142D01*
X563395Y628207D01*
X563317Y628260D01*
X563265Y628305D01*
X563226Y628332D01*
X563212Y628344D01*
X563199Y628260D01*
X563186Y628188D01*
X563173Y628123D01*
X563154Y628064D01*
X563134Y628018D01*
X563121Y627979D01*
X563115Y627959D01*
X563108Y627953D01*
X562560D01*
X562618Y628083D01*
X562644Y628149D01*
X562664Y628201D01*
X562677Y628247D01*
X562683Y628286D01*
X562690Y628312D01*
Y628318D01*
X562697Y628364D01*
X562703Y628416D01*
Y628475D01*
X562710Y628547D01*
X562716Y628697D01*
Y628860D01*
X562723Y629011D01*
Y629076D01*
Y629135D01*
Y629180D01*
Y629220D01*
Y629246D01*
Y629252D01*
Y629957D01*
Y630082D01*
X562729Y630180D01*
X562736Y630264D01*
Y630330D01*
X562742Y630382D01*
X562749Y630415D01*
X562755Y630434D01*
Y630441D01*
X562775Y630519D01*
X562801Y630591D01*
X562827Y630650D01*
X562853Y630702D01*
X562879Y630748D01*
X562899Y630774D01*
X562912Y630793D01*
X562919Y630800D01*
X562971Y630852D01*
X563023Y630898D01*
X563088Y630937D01*
X563147Y630970D01*
X563199Y630996D01*
X563245Y631022D01*
X563271Y631028D01*
X563284Y631035D01*
X563382Y631068D01*
X563487Y631094D01*
X563598Y631107D01*
X563702Y631120D01*
X563794Y631126D01*
X563866Y631133D01*
X563931D01*
X564074Y631126D01*
D02*
G37*
G36*
X577781Y629559D02*
X578911Y627953D01*
X578271D01*
X577435Y629141D01*
X577291Y628913D01*
X576651Y627953D01*
X576005D01*
X577134Y629559D01*
X576077Y631061D01*
X576717D01*
X577239Y630323D01*
X577317Y630206D01*
X577356Y630147D01*
X577396Y630095D01*
X577428Y630049D01*
X577454Y630016D01*
X577467Y629990D01*
X577474Y629984D01*
X577539Y630095D01*
X577611Y630206D01*
X577644Y630251D01*
X577663Y630291D01*
X577683Y630317D01*
X577690Y630323D01*
X578179Y631061D01*
X578826D01*
X577781Y629559D01*
D02*
G37*
G36*
X582469Y627953D02*
X579270D01*
Y628456D01*
X581901D01*
Y629918D01*
X579531D01*
Y630421D01*
X581901D01*
Y631740D01*
X579368D01*
Y632243D01*
X582469D01*
Y627953D01*
D02*
G37*
G36*
X588170D02*
X586387D01*
X586257Y627966D01*
X586139Y627972D01*
X586035Y627985D01*
X585956Y627998D01*
X585898Y628005D01*
X585858Y628018D01*
X585845D01*
X585747Y628051D01*
X585656Y628083D01*
X585571Y628116D01*
X585506Y628149D01*
X585447Y628181D01*
X585408Y628207D01*
X585382Y628221D01*
X585375Y628227D01*
X585310Y628286D01*
X585245Y628351D01*
X585192Y628416D01*
X585147Y628482D01*
X585114Y628540D01*
X585081Y628586D01*
X585068Y628619D01*
X585062Y628632D01*
X585016Y628730D01*
X584983Y628828D01*
X584964Y628926D01*
X584944Y629011D01*
X584938Y629082D01*
X584931Y629141D01*
Y629180D01*
Y629193D01*
X584938Y629331D01*
X584964Y629455D01*
X584997Y629559D01*
X585036Y629657D01*
X585081Y629735D01*
X585114Y629794D01*
X585140Y629827D01*
X585147Y629840D01*
X585232Y629938D01*
X585330Y630016D01*
X585428Y630082D01*
X585526Y630140D01*
X585610Y630180D01*
X585682Y630212D01*
X585708Y630219D01*
X585728Y630225D01*
X585741Y630232D01*
X585747D01*
X585637Y630291D01*
X585545Y630356D01*
X585467Y630415D01*
X585401Y630480D01*
X585356Y630532D01*
X585317Y630578D01*
X585297Y630604D01*
X585290Y630617D01*
X585238Y630708D01*
X585206Y630806D01*
X585179Y630891D01*
X585160Y630970D01*
X585147Y631041D01*
X585140Y631094D01*
Y631126D01*
Y631139D01*
X585147Y631250D01*
X585166Y631355D01*
X585192Y631446D01*
X585225Y631531D01*
X585258Y631603D01*
X585284Y631662D01*
X585303Y631694D01*
X585310Y631707D01*
X585382Y631806D01*
X585454Y631884D01*
X585532Y631956D01*
X585610Y632014D01*
X585676Y632054D01*
X585728Y632086D01*
X585767Y632106D01*
X585774Y632112D01*
X585780D01*
X585898Y632158D01*
X586028Y632191D01*
X586159Y632210D01*
X586283Y632230D01*
X586394Y632236D01*
X586440D01*
X586485Y632243D01*
X588170D01*
Y627953D01*
D02*
G37*
G36*
X572740Y631126D02*
X572851Y631113D01*
X572955Y631094D01*
X573053Y631068D01*
X573151Y631028D01*
X573236Y630996D01*
X573314Y630957D01*
X573386Y630917D01*
X573452Y630872D01*
X573504Y630832D01*
X573556Y630800D01*
X573595Y630767D01*
X573628Y630734D01*
X573647Y630715D01*
X573661Y630702D01*
X573667Y630695D01*
X573739Y630611D01*
X573798Y630519D01*
X573850Y630421D01*
X573896Y630323D01*
X573935Y630219D01*
X573967Y630121D01*
X574013Y629925D01*
X574033Y629833D01*
X574046Y629748D01*
X574052Y629670D01*
X574059Y629605D01*
X574065Y629553D01*
Y629507D01*
Y629481D01*
Y629474D01*
X574059Y629337D01*
X574046Y629207D01*
X574026Y629082D01*
X574000Y628971D01*
X573974Y628867D01*
X573941Y628769D01*
X573902Y628684D01*
X573863Y628606D01*
X573830Y628534D01*
X573791Y628469D01*
X573758Y628416D01*
X573726Y628377D01*
X573706Y628344D01*
X573687Y628318D01*
X573673Y628305D01*
X573667Y628299D01*
X573589Y628227D01*
X573504Y628162D01*
X573419Y628103D01*
X573327Y628057D01*
X573243Y628018D01*
X573151Y627985D01*
X572981Y627933D01*
X572896Y627914D01*
X572825Y627901D01*
X572759Y627894D01*
X572701Y627887D01*
X572655Y627881D01*
X572589D01*
X572394Y627894D01*
X572224Y627920D01*
X572067Y627966D01*
X571943Y628012D01*
X571884Y628038D01*
X571839Y628057D01*
X571799Y628083D01*
X571767Y628103D01*
X571734Y628116D01*
X571714Y628129D01*
X571708Y628142D01*
X571701D01*
X571584Y628247D01*
X571479Y628371D01*
X571401Y628495D01*
X571336Y628612D01*
X571283Y628723D01*
X571264Y628769D01*
X571251Y628808D01*
X571238Y628841D01*
X571231Y628867D01*
X571225Y628880D01*
Y628887D01*
X571767Y628958D01*
X571819Y628841D01*
X571871Y628736D01*
X571923Y628652D01*
X571976Y628586D01*
X572021Y628527D01*
X572061Y628495D01*
X572087Y628469D01*
X572093Y628462D01*
X572172Y628410D01*
X572257Y628377D01*
X572341Y628351D01*
X572420Y628332D01*
X572485Y628318D01*
X572537Y628312D01*
X572589D01*
X572727Y628325D01*
X572851Y628351D01*
X572962Y628397D01*
X573060Y628449D01*
X573132Y628495D01*
X573190Y628540D01*
X573223Y628567D01*
X573236Y628580D01*
X573321Y628691D01*
X573393Y628821D01*
X573438Y628952D01*
X573478Y629076D01*
X573504Y629193D01*
X573510Y629239D01*
X573517Y629285D01*
Y629318D01*
X573523Y629350D01*
Y629363D01*
Y629370D01*
X571212D01*
X571205Y629428D01*
Y629474D01*
Y629500D01*
Y629507D01*
X571212Y629651D01*
X571225Y629781D01*
X571244Y629905D01*
X571264Y630016D01*
X571297Y630127D01*
X571329Y630225D01*
X571368Y630310D01*
X571401Y630395D01*
X571440Y630467D01*
X571479Y630526D01*
X571512Y630578D01*
X571538Y630623D01*
X571564Y630656D01*
X571584Y630682D01*
X571597Y630695D01*
X571603Y630702D01*
X571682Y630780D01*
X571760Y630845D01*
X571845Y630904D01*
X571930Y630950D01*
X572015Y630996D01*
X572100Y631028D01*
X572257Y631081D01*
X572335Y631100D01*
X572400Y631113D01*
X572466Y631120D01*
X572518Y631126D01*
X572563Y631133D01*
X572622D01*
X572740Y631126D01*
D02*
G37*
%LPC*%
G36*
X572648Y630702D02*
X572616D01*
X572544Y630695D01*
X572472Y630689D01*
X572348Y630656D01*
X572237Y630604D01*
X572139Y630545D01*
X572067Y630486D01*
X572008Y630441D01*
X571976Y630402D01*
X571963Y630395D01*
Y630388D01*
X571904Y630310D01*
X571865Y630212D01*
X571826Y630114D01*
X571799Y630023D01*
X571780Y629938D01*
X571767Y629866D01*
Y629840D01*
X571760Y629820D01*
Y629807D01*
Y629801D01*
X573497D01*
X573478Y629944D01*
X573445Y630075D01*
X573399Y630186D01*
X573353Y630277D01*
X573308Y630356D01*
X573269Y630408D01*
X573243Y630441D01*
X573230Y630454D01*
X573132Y630539D01*
X573027Y630597D01*
X572929Y630643D01*
X572831Y630669D01*
X572746Y630689D01*
X572674Y630695D01*
X572648Y630702D01*
D02*
G37*
G36*
X587602Y631740D02*
X586590D01*
X586453Y631727D01*
X586342Y631721D01*
X586250Y631707D01*
X586185Y631694D01*
X586139Y631688D01*
X586107Y631675D01*
X586100D01*
X586035Y631649D01*
X585976Y631616D01*
X585924Y631577D01*
X585885Y631544D01*
X585852Y631505D01*
X585826Y631479D01*
X585813Y631459D01*
X585806Y631453D01*
X585774Y631388D01*
X585747Y631322D01*
X585728Y631263D01*
X585715Y631205D01*
X585708Y631152D01*
X585702Y631113D01*
Y631081D01*
Y631074D01*
X585708Y630989D01*
X585721Y630917D01*
X585734Y630852D01*
X585754Y630800D01*
X585780Y630754D01*
X585793Y630722D01*
X585806Y630702D01*
X585813Y630695D01*
X585858Y630643D01*
X585911Y630597D01*
X585963Y630558D01*
X586015Y630532D01*
X586067Y630506D01*
X586107Y630493D01*
X586133Y630486D01*
X586139Y630480D01*
X586211Y630467D01*
X586290Y630454D01*
X586381Y630447D01*
X586472Y630441D01*
X586551Y630434D01*
X587602D01*
Y631740D01*
D02*
G37*
G36*
X579694Y588175D02*
Y587979D01*
X579701Y587855D01*
X579707Y587750D01*
X579720Y587659D01*
X579733Y587581D01*
X579753Y587522D01*
X579766Y587483D01*
X579773Y587457D01*
X579779Y587450D01*
X579825Y587365D01*
X579883Y587293D01*
X579942Y587228D01*
X579994Y587182D01*
X580047Y587137D01*
X580092Y587111D01*
X580119Y587091D01*
X580132Y587084D01*
X580223Y587039D01*
X580314Y587006D01*
X580406Y586986D01*
X580484Y586973D01*
X580563Y586960D01*
X580615Y586954D01*
X580667D01*
X580778Y586960D01*
X580869Y586973D01*
X580954Y586999D01*
X581020Y587026D01*
X581072Y587045D01*
X581105Y587071D01*
X581131Y587084D01*
X581137Y587091D01*
X581189Y587150D01*
X581229Y587208D01*
X581255Y587267D01*
X581274Y587319D01*
X581287Y587372D01*
X581294Y587411D01*
Y587437D01*
Y587443D01*
X581287Y587496D01*
X581281Y587541D01*
X581255Y587620D01*
X581242Y587652D01*
X581235Y587672D01*
X581222Y587685D01*
Y587692D01*
X581157Y587770D01*
X581092Y587822D01*
X581065Y587842D01*
X581039Y587855D01*
X581026Y587868D01*
X581020D01*
X580961Y587887D01*
X580889Y587907D01*
X580739Y587940D01*
X580667Y587953D01*
X580608Y587966D01*
X580569Y587972D01*
X580556D01*
X580452Y587992D01*
X580354Y588005D01*
X580262Y588025D01*
X580177Y588038D01*
X580099Y588057D01*
X580034Y588077D01*
X579968Y588090D01*
X579910Y588103D01*
X579857Y588123D01*
X579818Y588136D01*
X579779Y588142D01*
X579746Y588155D01*
X579727Y588162D01*
X579707Y588168D01*
X579694Y588175D01*
D02*
G37*
G36*
X573771Y589363D02*
X573739D01*
X573667Y589357D01*
X573595Y589350D01*
X573471Y589318D01*
X573360Y589265D01*
X573262Y589207D01*
X573190Y589148D01*
X573132Y589102D01*
X573099Y589063D01*
X573086Y589056D01*
Y589050D01*
X573027Y588972D01*
X572988Y588873D01*
X572949Y588776D01*
X572923Y588684D01*
X572903Y588599D01*
X572890Y588527D01*
Y588501D01*
X572883Y588482D01*
Y588469D01*
Y588462D01*
X574620D01*
X574601Y588606D01*
X574568Y588736D01*
X574522Y588847D01*
X574477Y588939D01*
X574431Y589017D01*
X574392Y589069D01*
X574366Y589102D01*
X574353Y589115D01*
X574255Y589200D01*
X574150Y589259D01*
X574052Y589304D01*
X573954Y589331D01*
X573869Y589350D01*
X573798Y589357D01*
X573771Y589363D01*
D02*
G37*
G36*
X585062Y590402D02*
X584050D01*
X583913Y590388D01*
X583802Y590382D01*
X583710Y590369D01*
X583645Y590356D01*
X583599Y590349D01*
X583566Y590336D01*
X583560D01*
X583495Y590310D01*
X583436Y590277D01*
X583384Y590238D01*
X583344Y590206D01*
X583312Y590167D01*
X583286Y590140D01*
X583273Y590121D01*
X583266Y590114D01*
X583233Y590049D01*
X583207Y589984D01*
X583188Y589925D01*
X583175Y589866D01*
X583168Y589814D01*
X583162Y589775D01*
Y589742D01*
Y589736D01*
X583168Y589651D01*
X583181Y589579D01*
X583194Y589513D01*
X583214Y589461D01*
X583240Y589416D01*
X583253Y589383D01*
X583266Y589363D01*
X583273Y589357D01*
X583318Y589304D01*
X583370Y589259D01*
X583423Y589220D01*
X583475Y589193D01*
X583527Y589167D01*
X583566Y589154D01*
X583593Y589148D01*
X583599Y589141D01*
X583671Y589128D01*
X583749Y589115D01*
X583841Y589109D01*
X583932Y589102D01*
X584011Y589096D01*
X585062D01*
Y590402D01*
D02*
G37*
G36*
X563258Y629513D02*
Y629318D01*
X563265Y629193D01*
X563271Y629089D01*
X563284Y628998D01*
X563297Y628919D01*
X563317Y628860D01*
X563330Y628821D01*
X563337Y628795D01*
X563343Y628789D01*
X563389Y628704D01*
X563448Y628632D01*
X563506Y628567D01*
X563559Y628521D01*
X563611Y628475D01*
X563657Y628449D01*
X563683Y628429D01*
X563696Y628423D01*
X563787Y628377D01*
X563878Y628344D01*
X563970Y628325D01*
X564048Y628312D01*
X564127Y628299D01*
X564179Y628292D01*
X564231D01*
X564342Y628299D01*
X564434Y628312D01*
X564518Y628338D01*
X564584Y628364D01*
X564636Y628384D01*
X564669Y628410D01*
X564695Y628423D01*
X564701Y628429D01*
X564753Y628488D01*
X564793Y628547D01*
X564819Y628606D01*
X564838Y628658D01*
X564852Y628710D01*
X564858Y628749D01*
Y628776D01*
Y628782D01*
X564852Y628834D01*
X564845Y628880D01*
X564819Y628958D01*
X564806Y628991D01*
X564799Y629011D01*
X564786Y629024D01*
Y629030D01*
X564721Y629109D01*
X564656Y629161D01*
X564630Y629180D01*
X564603Y629193D01*
X564590Y629207D01*
X564584D01*
X564525Y629226D01*
X564453Y629246D01*
X564303Y629278D01*
X564231Y629291D01*
X564172Y629305D01*
X564133Y629311D01*
X564120D01*
X564016Y629331D01*
X563918Y629344D01*
X563826Y629363D01*
X563741Y629376D01*
X563663Y629396D01*
X563598Y629416D01*
X563532Y629428D01*
X563474Y629442D01*
X563421Y629461D01*
X563382Y629474D01*
X563343Y629481D01*
X563310Y629494D01*
X563291Y629500D01*
X563271Y629507D01*
X563258Y629513D01*
D02*
G37*
G36*
X587602Y629931D02*
X586472D01*
X586342Y629918D01*
X586237Y629912D01*
X586146Y629899D01*
X586081Y629886D01*
X586028Y629873D01*
X586002Y629866D01*
X585989Y629859D01*
X585911Y629827D01*
X585845Y629788D01*
X585787Y629748D01*
X585741Y629703D01*
X585702Y629664D01*
X585669Y629637D01*
X585656Y629611D01*
X585649Y629605D01*
X585604Y629539D01*
X585571Y629468D01*
X585552Y629396D01*
X585532Y629331D01*
X585526Y629278D01*
X585519Y629233D01*
Y629207D01*
Y629193D01*
X585526Y629115D01*
X585532Y629050D01*
X585545Y628984D01*
X585558Y628932D01*
X585578Y628887D01*
X585591Y628854D01*
X585597Y628834D01*
X585604Y628828D01*
X585637Y628776D01*
X585676Y628723D01*
X585708Y628684D01*
X585747Y628652D01*
X585780Y628619D01*
X585800Y628599D01*
X585819Y628593D01*
X585826Y628586D01*
X585930Y628534D01*
X586035Y628501D01*
X586081Y628488D01*
X586120Y628482D01*
X586146Y628475D01*
X586152D01*
X586198Y628469D01*
X586257Y628462D01*
X586387Y628456D01*
X587602D01*
Y629931D01*
D02*
G37*
G36*
X585062Y588593D02*
X583932D01*
X583802Y588580D01*
X583697Y588573D01*
X583606Y588560D01*
X583540Y588547D01*
X583488Y588534D01*
X583462Y588527D01*
X583449Y588521D01*
X583370Y588488D01*
X583305Y588449D01*
X583247Y588410D01*
X583201Y588364D01*
X583162Y588325D01*
X583129Y588299D01*
X583116Y588273D01*
X583109Y588266D01*
X583064Y588201D01*
X583031Y588129D01*
X583011Y588057D01*
X582992Y587992D01*
X582985Y587940D01*
X582979Y587894D01*
Y587868D01*
Y587855D01*
X582985Y587777D01*
X582992Y587711D01*
X583005Y587646D01*
X583018Y587594D01*
X583038Y587548D01*
X583051Y587515D01*
X583057Y587496D01*
X583064Y587489D01*
X583096Y587437D01*
X583136Y587385D01*
X583168Y587346D01*
X583207Y587313D01*
X583240Y587280D01*
X583259Y587261D01*
X583279Y587254D01*
X583286Y587248D01*
X583390Y587195D01*
X583495Y587163D01*
X583540Y587150D01*
X583579Y587143D01*
X583606Y587137D01*
X583612D01*
X583658Y587130D01*
X583717Y587123D01*
X583847Y587117D01*
X585062D01*
Y588593D01*
D02*
G37*
%LPD*%
M02*
