G04*
G04 #@! TF.GenerationSoftware,Altium Limited,CircuitStudio,1.5.1 (13)*
G04*
G04 Layer_Color=7318015*
%FSLAX25Y25*%
%MOIN*%
G70*
G01*
G75*
%ADD10O,0.01181X0.05118*%
%ADD11O,0.05118X0.01181*%
%ADD12R,0.05118X0.05906*%
%ADD13R,0.05906X0.05118*%
%ADD14R,0.04200X0.01200*%
%ADD15R,0.01200X0.04200*%
%ADD16R,0.07874X0.07874*%
%ADD17O,0.09843X0.02756*%
%ADD18R,0.06693X0.03937*%
%ADD19R,0.12598X0.07087*%
%ADD20R,0.07087X0.06299*%
%ADD21R,0.07874X0.04921*%
%ADD22R,0.06299X0.07087*%
%ADD23R,0.03347X0.03740*%
%ADD24R,0.06496X0.07874*%
%ADD25R,0.05118X0.02756*%
%ADD26R,0.19685X0.21260*%
%ADD27R,0.15748X0.07874*%
%ADD28R,0.07500X0.07100*%
%ADD29R,0.05600X0.01400*%
%ADD30R,0.03937X0.07874*%
%ADD31R,0.11811X0.03150*%
%ADD32O,0.01378X0.07087*%
%ADD33R,0.01378X0.07087*%
D10*
X787402Y541634D02*
D03*
X783465D02*
D03*
X785433D02*
D03*
X787402Y529429D02*
D03*
X783465D02*
D03*
X785433D02*
D03*
D11*
X791831Y539370D02*
D03*
Y537402D02*
D03*
Y535433D02*
D03*
Y533465D02*
D03*
Y531496D02*
D03*
X779035Y539370D02*
D03*
Y537402D02*
D03*
Y535433D02*
D03*
Y533465D02*
D03*
Y531496D02*
D03*
D12*
X602559Y496063D02*
D03*
X610039D02*
D03*
X745472Y498819D02*
D03*
X752953D02*
D03*
X602559Y511811D02*
D03*
X610039D02*
D03*
X630118D02*
D03*
X637598D02*
D03*
X837992Y462205D02*
D03*
X845472D02*
D03*
X602559Y464567D02*
D03*
X610039D02*
D03*
X917913Y494488D02*
D03*
X910433D02*
D03*
X865158Y462205D02*
D03*
X857677D02*
D03*
X825787D02*
D03*
X818307D02*
D03*
X665158Y488189D02*
D03*
X657677D02*
D03*
X665158Y476378D02*
D03*
X657677D02*
D03*
X637598Y425197D02*
D03*
X630118D02*
D03*
X877362Y462205D02*
D03*
X884842D02*
D03*
D13*
X740945Y458465D02*
D03*
Y465945D02*
D03*
X764567D02*
D03*
Y458465D02*
D03*
X780315D02*
D03*
Y465945D02*
D03*
X803937D02*
D03*
Y458465D02*
D03*
X977953Y497047D02*
D03*
Y489567D02*
D03*
X966142Y497047D02*
D03*
Y489567D02*
D03*
X954331Y497047D02*
D03*
Y489567D02*
D03*
X942520Y497047D02*
D03*
Y489567D02*
D03*
X753150Y568307D02*
D03*
Y560827D02*
D03*
X578740Y563189D02*
D03*
Y570669D02*
D03*
X665354Y456496D02*
D03*
Y449016D02*
D03*
Y432874D02*
D03*
Y425394D02*
D03*
X762598Y568307D02*
D03*
Y560827D02*
D03*
X953150Y550591D02*
D03*
Y543110D02*
D03*
X942913Y550591D02*
D03*
Y543110D02*
D03*
X796850Y560433D02*
D03*
Y552953D02*
D03*
X762992Y535630D02*
D03*
Y543110D02*
D03*
X743701Y560827D02*
D03*
Y568307D02*
D03*
D14*
X623721Y494095D02*
D03*
Y492126D02*
D03*
Y490158D02*
D03*
Y488189D02*
D03*
Y486221D02*
D03*
Y484252D02*
D03*
Y482283D02*
D03*
X643996D02*
D03*
Y484252D02*
D03*
Y486221D02*
D03*
Y488189D02*
D03*
Y490158D02*
D03*
Y492126D02*
D03*
Y494095D02*
D03*
D15*
X627953Y478052D02*
D03*
X629921D02*
D03*
X631890D02*
D03*
X633858D02*
D03*
X635827D02*
D03*
X637795D02*
D03*
X639764D02*
D03*
Y498326D02*
D03*
X637795D02*
D03*
X635827D02*
D03*
X633858D02*
D03*
X631890D02*
D03*
X629921D02*
D03*
X627953D02*
D03*
D16*
X633858Y488189D02*
D03*
D17*
X923819Y463366D02*
D03*
Y468366D02*
D03*
Y473366D02*
D03*
Y478366D02*
D03*
X904528Y463366D02*
D03*
Y468366D02*
D03*
Y473366D02*
D03*
Y478366D02*
D03*
D18*
X776756Y442126D02*
D03*
Y427165D02*
D03*
X803559Y442126D02*
D03*
Y427165D02*
D03*
X737386Y442126D02*
D03*
Y427165D02*
D03*
X764189Y442126D02*
D03*
Y427165D02*
D03*
D19*
X850787Y478346D02*
D03*
Y500394D02*
D03*
X819291Y478346D02*
D03*
Y500394D02*
D03*
D20*
X977953Y460236D02*
D03*
Y471260D02*
D03*
X966142Y460236D02*
D03*
Y471260D02*
D03*
X954331Y460236D02*
D03*
Y471260D02*
D03*
X942520Y460236D02*
D03*
Y471260D02*
D03*
X566929Y561417D02*
D03*
Y572441D02*
D03*
D21*
X733858Y574016D02*
D03*
Y559055D02*
D03*
D22*
X666929Y503937D02*
D03*
X655905D02*
D03*
X666929Y515748D02*
D03*
X655905D02*
D03*
D23*
X649606Y465256D02*
D03*
X653346Y456004D02*
D03*
X645866D02*
D03*
X792126Y466831D02*
D03*
X795866Y457579D02*
D03*
X788386D02*
D03*
X752756Y466831D02*
D03*
X756496Y457579D02*
D03*
X749016D02*
D03*
D24*
X629921Y441732D02*
D03*
Y461811D02*
D03*
D25*
X644882Y444685D02*
D03*
Y440945D02*
D03*
Y437205D02*
D03*
X654331D02*
D03*
Y444685D02*
D03*
D26*
X773622Y499606D02*
D03*
X723228D02*
D03*
D27*
X831890Y519291D02*
D03*
Y566535D02*
D03*
D28*
X567126Y456641D02*
D03*
Y488189D02*
D03*
D29*
X577626Y469841D02*
D03*
Y472441D02*
D03*
Y475000D02*
D03*
Y467241D02*
D03*
Y477559D02*
D03*
D30*
X562008Y539173D02*
D03*
Y508071D02*
D03*
X572638Y539173D02*
D03*
Y508071D02*
D03*
D31*
X580118Y532480D02*
D03*
Y520669D02*
D03*
Y514764D02*
D03*
D32*
X838976Y498228D02*
D03*
X837008D02*
D03*
X835039D02*
D03*
X833071D02*
D03*
X831102D02*
D03*
X838976Y478543D02*
D03*
X837008D02*
D03*
X835039D02*
D03*
X833071D02*
D03*
X807480Y498228D02*
D03*
X805512D02*
D03*
X803543D02*
D03*
X801575D02*
D03*
X799606D02*
D03*
X807480Y478543D02*
D03*
X805512D02*
D03*
X803543D02*
D03*
X801575D02*
D03*
D33*
X831102D02*
D03*
X799606D02*
D03*
M02*
