G04*
G04 #@! TF.GenerationSoftware,Altium Limited,CircuitStudio,1.5.1 (13)*
G04*
G04 Layer_Color=8150272*
%FSLAX25Y25*%
%MOIN*%
G70*
G01*
G75*
%ADD42C,0.07087*%
%ADD79C,0.07493*%
%ADD80C,0.07887*%
%ADD81C,0.06706*%
%ADD82R,0.06706X0.06706*%
%ADD83C,0.10642*%
%ADD84C,0.06800*%
%ADD85R,0.06706X0.06706*%
%ADD86C,0.13398*%
%ADD87C,0.03950*%
%ADD88R,0.05918X0.05918*%
D42*
X832480Y437008D02*
D03*
X822638D02*
D03*
X871850D02*
D03*
X862008D02*
D03*
X607283D02*
D03*
X597441D02*
D03*
D79*
X793976Y574803D02*
D03*
X783976D02*
D03*
X773976D02*
D03*
X803976D02*
D03*
D80*
X713937Y571260D02*
D03*
X703937D02*
D03*
X698189Y497638D02*
D03*
X688189D02*
D03*
D81*
X869685Y502756D02*
D03*
Y494882D02*
D03*
Y487008D02*
D03*
X576772Y609094D02*
D03*
Y599094D02*
D03*
X862598Y578110D02*
D03*
X872598D02*
D03*
X882598D02*
D03*
X892598D02*
D03*
X902598D02*
D03*
X912598D02*
D03*
X922598D02*
D03*
X932598D02*
D03*
X942598D02*
D03*
X952598D02*
D03*
X962598D02*
D03*
X972598D02*
D03*
X982598D02*
D03*
X992598D02*
D03*
Y518110D02*
D03*
X982598D02*
D03*
X972598D02*
D03*
X962598D02*
D03*
X952598D02*
D03*
X942598D02*
D03*
X932598D02*
D03*
X922598D02*
D03*
X912598D02*
D03*
X902598D02*
D03*
X892598D02*
D03*
X882598D02*
D03*
X872598D02*
D03*
X892520Y440315D02*
D03*
X902520Y430315D02*
D03*
Y440315D02*
D03*
X912520Y430315D02*
D03*
Y440315D02*
D03*
X922520Y430315D02*
D03*
Y440315D02*
D03*
X932520Y430315D02*
D03*
Y440315D02*
D03*
X942520Y430315D02*
D03*
Y440315D02*
D03*
X952520Y430315D02*
D03*
Y440315D02*
D03*
X962520Y430315D02*
D03*
Y440315D02*
D03*
X972520Y430315D02*
D03*
Y440315D02*
D03*
X982520Y430315D02*
D03*
Y440315D02*
D03*
X678937Y572638D02*
D03*
X671063D02*
D03*
X663189D02*
D03*
X678937Y542913D02*
D03*
X671063D02*
D03*
X663189D02*
D03*
X721850D02*
D03*
X713976D02*
D03*
X706102D02*
D03*
X992126Y463543D02*
D03*
Y473543D02*
D03*
Y483543D02*
D03*
Y493543D02*
D03*
Y503543D02*
D03*
X991929Y624764D02*
D03*
D82*
X869685Y479134D02*
D03*
X576772Y619095D02*
D03*
X992126Y453543D02*
D03*
X991929Y614764D02*
D03*
D83*
X797244Y618110D02*
D03*
X974409D02*
D03*
X596457D02*
D03*
X773622D02*
D03*
D84*
X633858Y488189D02*
D03*
D85*
X862598Y518110D02*
D03*
X892520Y430315D02*
D03*
X655315Y572638D02*
D03*
Y542913D02*
D03*
X698228D02*
D03*
D86*
X570866Y641732D02*
D03*
X1000000D02*
D03*
X570866Y429134D02*
D03*
X1000000D02*
D03*
D87*
X567323Y529528D02*
D03*
Y517717D02*
D03*
D88*
X835039Y488386D02*
D03*
X803543D02*
D03*
M02*
