M48
;Layer_Color=6321
;FILE_FORMAT=2:5
INCH,LZ
;TYPE=PLATED
T1F00S00C0.01575
T2F00S00C0.03543
T3F00S00C0.03937
T4F00S00C0.04724
T5F00S00C0.05512
T6F00S00C0.12598
;TYPE=NON_PLATED
T7F00S00C0.03150
%
T01
X0601968Y0455118
X0629134Y0461811
X0628346Y0425197
X067185Y0425394
X0657874Y0449213
X0733858Y0456693
X0744095Y0441339
X0770079Y0446063
Y0458268
X0756693Y0461417
X0779921Y0466929
X0792913Y0467323
X0785433Y0442126
X081811Y045748
X0825984Y0456299
X0837795Y0462402
X0858268Y0456693
X0865748Y0456299
X0933071Y046063
X093622Y0453543
X094252Y047126
X0954331
X0966142
X0977953
X0977953Y048937
X0976378Y0498622
X0966142Y0497047
X0965748Y0489764
X0954331Y048937
X0954331Y0497047
X0941339Y0497638
X0942913Y0488976
X0943307Y0509055
X095Y0506299
X0953937Y0540551
X0957874Y0537402
X0966142Y0544882
X0970866Y0546457
X0942598Y0539449
X0985827Y0571654
X0982677Y0600787
X093189Y0533071
X0932677Y0483465
X0915354Y0478346
X0912205Y0472835
X0902362Y0486221
X0850787Y0499606
X0837008Y0505512
X0822441Y0509842
X0819291Y0501181
X0811024Y0492913
X0797638Y049685
X0794488Y0509842
X0795276Y0517323
X0784252Y0521654
X0801575Y0472835
X0835827Y0470079
X0842126Y0472835
X0835039Y0553937
X0831102Y0550787
X0822835Y0597244
X081378Y0598032
X0866535Y0607874
X0870866Y0609055
X0764567Y0600787
Y0573228
X0754724Y0570472
X0745276Y057874
X074252Y051811
X0727165Y0516929
X0703937Y0527953
X0676772Y0505905
X0667323Y0514961
X0655118
X0648819Y0555512
X065Y0607087
X0657087Y0609449
X0643701Y0623622
X0664567Y0476378
X0779921Y0484252
X077874Y0523228
X0775787Y0529528
X0772835Y053937
X0624409Y0502362
X0614173Y0497244
X0621654Y0477559
X0601968Y0480315
X0591929Y0483071
X0590551Y0520472
X0580709Y0533071
X0579134Y0555512
X0624803Y06
X0765748Y0629134
X0861024
T02
X089252Y0430315
Y0440315
X090252
Y0430315
X091252
Y0440315
X092252
Y0430315
X093252
Y0440315
X094252
Y0430315
X095252
Y0440315
X096252
Y0430315
X097252
Y0440315
X098252
Y0430315
X0992126Y0453543
Y0463543
Y0473543
Y0483543
Y0493543
Y0503543
X0992598Y051811
X0982598
X0972598
X0962598
X0952598
X0942598
Y057811
X0952598
X0962598
X0972598
X0982598
X0992598
X0991929Y0614764
Y0624764
X0932598Y057811
X0922598
X0912598
X0902598
X0892598
X0882598
X0872598
X0862598
Y051811
X0872598
X0882598
X0892598
X0902598
X0912598
X0922598
X0932598
X0869685Y0502756
Y0494882
Y0487008
Y0479134
X0698189Y0497638
X0688189
X0678937Y0542913
X0671063
X0663189
X0655315
Y0572638
X0663189
X0671063
X0678937
X0703937Y057126
X0713937
X0713976Y0542913
X0706102
X0698228
X072185
X0576772Y0599094
Y0609094
Y0619095
T03
X0597441Y0437008
X0607283
X0822638
X083248
X0862008
X087185
X0803976Y0574803
X0793976
X0783976
X0773976
T04
X0803543Y0488386
X0835039
X0633858Y0488189
T05
X0974409Y061811
X0797244
X0773622
X0596457
T06
X0570866Y0429134
X1
X0570866Y0641732
X1
T07
X0567323Y0517717
Y0529528
M30
