G04*
G04 #@! TF.GenerationSoftware,Altium Limited,CircuitStudio,1.5.1 (13)*
G04*
G04 Layer_Physical_Order=1*
G04 Layer_Color=255*
%FSLAX25Y25*%
%MOIN*%
G70*
G01*
G75*
%ADD10O,0.01181X0.05118*%
%ADD11O,0.05118X0.01181*%
%ADD12R,0.05118X0.05906*%
%ADD13R,0.05906X0.05118*%
%ADD14R,0.04200X0.01200*%
%ADD15R,0.01200X0.04200*%
%ADD16R,0.07874X0.07874*%
%ADD17O,0.09843X0.02756*%
%ADD18R,0.06693X0.03937*%
%ADD19R,0.12598X0.07087*%
%ADD20R,0.07087X0.06299*%
%ADD21R,0.07874X0.04921*%
%ADD22R,0.06299X0.07087*%
%ADD23R,0.03347X0.03740*%
%ADD24R,0.06496X0.07874*%
%ADD25R,0.05118X0.02756*%
%ADD26R,0.19685X0.21260*%
%ADD27R,0.15748X0.07874*%
%ADD28R,0.07500X0.07100*%
%ADD29R,0.05600X0.01400*%
%ADD30R,0.03937X0.07874*%
%ADD31R,0.11811X0.03150*%
%ADD32O,0.01378X0.07087*%
%ADD33R,0.01378X0.07087*%
%ADD34C,0.00600*%
%ADD35C,0.01181*%
%ADD36C,0.03937*%
%ADD37C,0.01575*%
%ADD38C,0.01000*%
%ADD39C,0.00800*%
%ADD40R,0.05906X0.05906*%
%ADD41C,0.05906*%
%ADD42C,0.06693*%
%ADD43C,0.07087*%
%ADD44R,0.05906X0.05906*%
%ADD45C,0.09843*%
%ADD46C,0.06000*%
%ADD47C,0.12598*%
%ADD48C,0.06299*%
%ADD49C,0.03150*%
%ADD50R,0.05118X0.05118*%
%ADD51C,0.02756*%
G36*
X775590Y532149D02*
X775569Y532117D01*
X775545Y531996D01*
X779036D01*
Y531496D01*
X779535D01*
Y529874D01*
X781004D01*
X781625Y529998D01*
X781853Y530150D01*
X782353Y529883D01*
Y527461D01*
X782437Y527035D01*
X782649Y526718D01*
Y522835D01*
X782649Y522835D01*
X782680Y522681D01*
X782483Y522386D01*
X782337Y521654D01*
X782377Y521452D01*
X781917Y521206D01*
X780529Y522593D01*
X780655Y523228D01*
X780509Y523961D01*
X780094Y524582D01*
X779473Y524997D01*
X778740Y525143D01*
X778105Y525017D01*
X774241Y528881D01*
Y532142D01*
X774747Y532649D01*
X775323D01*
X775590Y532149D01*
D02*
G37*
G36*
X997638Y648121D02*
X997386Y648044D01*
X996204Y647413D01*
X995169Y646563D01*
X994319Y645528D01*
X993688Y644347D01*
X993299Y643065D01*
X993168Y641732D01*
X993299Y640399D01*
X993688Y639118D01*
X994319Y637937D01*
X995169Y636901D01*
X996204Y636052D01*
X997386Y635420D01*
X997638Y635344D01*
Y521152D01*
X997138Y520945D01*
X991522Y526561D01*
X991257Y526738D01*
X990945Y526800D01*
X990945Y526800D01*
X920473D01*
X920473Y526800D01*
X920160Y526738D01*
X919896Y526561D01*
X919896Y526561D01*
X914408Y521074D01*
X914340Y521126D01*
X913500Y521474D01*
X912598Y521593D01*
X911697Y521474D01*
X910857Y521126D01*
X910789Y521074D01*
X891801Y540061D01*
X891993Y540523D01*
X923284D01*
X930101Y533706D01*
X929975Y533071D01*
X930121Y532338D01*
X930536Y531717D01*
X931157Y531302D01*
X931890Y531156D01*
X932623Y531302D01*
X933244Y531717D01*
X933659Y532338D01*
X933805Y533071D01*
X933659Y533804D01*
X933244Y534425D01*
X932623Y534840D01*
X931890Y534986D01*
X931255Y534859D01*
X924199Y541915D01*
X923934Y542092D01*
X923622Y542154D01*
X923622Y542154D01*
X891264D01*
X888434Y544984D01*
X888169Y545161D01*
X887857Y545223D01*
X887857Y545223D01*
X881518D01*
X881326Y545685D01*
X910789Y575147D01*
X910857Y575094D01*
X911697Y574746D01*
X912598Y574628D01*
X913500Y574746D01*
X914340Y575094D01*
X915061Y575648D01*
X915614Y576369D01*
X915962Y577209D01*
X916081Y578110D01*
X915962Y579012D01*
X915614Y579851D01*
X915061Y580573D01*
X914340Y581126D01*
X913500Y581474D01*
X912598Y581593D01*
X911697Y581474D01*
X910857Y581126D01*
X910136Y580573D01*
X909583Y579851D01*
X909235Y579012D01*
X909116Y578110D01*
X909235Y577209D01*
X909583Y576369D01*
X909635Y576300D01*
X879657Y546323D01*
X872672D01*
X872464Y546823D01*
X900789Y575147D01*
X900857Y575094D01*
X901697Y574746D01*
X902598Y574628D01*
X903500Y574746D01*
X904340Y575094D01*
X905061Y575648D01*
X905614Y576369D01*
X905962Y577209D01*
X906081Y578110D01*
X905962Y579012D01*
X905614Y579851D01*
X905061Y580573D01*
X904340Y581126D01*
X903500Y581474D01*
X902598Y581593D01*
X901697Y581474D01*
X900857Y581126D01*
X900136Y580573D01*
X899582Y579851D01*
X899234Y579012D01*
X899116Y578110D01*
X899234Y577209D01*
X899582Y576369D01*
X899635Y576300D01*
X871394Y548060D01*
X828194D01*
X828002Y548522D01*
X829136Y549655D01*
X829633Y549606D01*
X829748Y549434D01*
X830370Y549018D01*
X831102Y548873D01*
X831835Y549018D01*
X832456Y549434D01*
X832871Y550055D01*
X833017Y550787D01*
X832871Y551520D01*
X832456Y552141D01*
X831835Y552556D01*
X831509Y552621D01*
X831558Y553121D01*
X833326D01*
X833685Y552583D01*
X834307Y552168D01*
X835039Y552022D01*
X835772Y552168D01*
X836393Y552583D01*
X836808Y553204D01*
X836954Y553937D01*
X836808Y554670D01*
X836393Y555291D01*
X835772Y555706D01*
X835039Y555852D01*
X834307Y555706D01*
X833685Y555291D01*
X833326Y554753D01*
X830709D01*
X830709Y554753D01*
X830396Y554691D01*
X830132Y554514D01*
X830132Y554514D01*
X798284Y522666D01*
X785834D01*
X785606Y523007D01*
X784985Y523422D01*
X784280Y523563D01*
Y525717D01*
X784780Y525984D01*
X784812Y525962D01*
X784933Y525938D01*
Y529429D01*
Y532920D01*
X784812Y532896D01*
X784286Y532544D01*
X784109Y532279D01*
X783890Y532425D01*
X783465Y532510D01*
X783039Y532425D01*
X782910Y532338D01*
X782655Y532200D01*
X782269Y532466D01*
X782151Y532643D01*
X781885Y532820D01*
X782031Y533039D01*
X782116Y533465D01*
X782031Y533890D01*
X781885Y534109D01*
X781825Y534449D01*
X781885Y534789D01*
X782031Y535008D01*
X782116Y535433D01*
X782031Y535859D01*
X781885Y536077D01*
X781825Y536417D01*
X781885Y536757D01*
X781912Y536798D01*
X782492Y536925D01*
X782592Y536825D01*
X782592Y536825D01*
X782857Y536648D01*
X783169Y536586D01*
X783169Y536586D01*
X786122D01*
X786122Y536586D01*
X786434Y536648D01*
X786699Y536825D01*
X787844Y537970D01*
X787971Y537902D01*
X791831D01*
X795322D01*
X795297Y538022D01*
X794946Y538548D01*
X794680Y538726D01*
X794827Y538945D01*
X794911Y539370D01*
X794827Y539796D01*
X794586Y540156D01*
X794225Y540397D01*
X793799Y540482D01*
X789862D01*
X789437Y540397D01*
X789076Y540156D01*
X789013Y540063D01*
X788514Y540214D01*
Y543602D01*
X788429Y544028D01*
X788217Y544345D01*
Y554387D01*
X792936Y559105D01*
X793398Y558914D01*
Y557374D01*
X800303D01*
Y563492D01*
X793398D01*
Y561612D01*
X793110Y561249D01*
X792798Y561187D01*
X792533Y561010D01*
X792533Y561010D01*
X786825Y555301D01*
X786648Y555036D01*
X786586Y554724D01*
X786586Y554724D01*
Y544699D01*
X786525Y544648D01*
X786091Y544480D01*
X786077Y544484D01*
X785859Y544630D01*
X785433Y544714D01*
X785008Y544630D01*
X784789Y544484D01*
X784449Y544423D01*
X784109Y544484D01*
X783890Y544630D01*
X783465Y544714D01*
X783039Y544630D01*
X782678Y544389D01*
X782437Y544028D01*
X782353Y543602D01*
Y540214D01*
X781853Y540063D01*
X781790Y540156D01*
X781429Y540397D01*
X781004Y540482D01*
X777067D01*
X776641Y540397D01*
X776325Y540186D01*
X774548D01*
X774189Y540724D01*
X773567Y541139D01*
X772835Y541285D01*
X772102Y541139D01*
X771481Y540724D01*
X771066Y540103D01*
X770920Y539370D01*
X771066Y538637D01*
X771481Y538016D01*
X772102Y537601D01*
X772313Y537559D01*
X772477Y537017D01*
X771906Y536446D01*
X766445D01*
Y538689D01*
X759539D01*
Y532571D01*
X766445D01*
Y534814D01*
X772244D01*
X772244Y534814D01*
X772556Y534876D01*
X772821Y535053D01*
X774354Y536586D01*
X775970D01*
X776021Y536525D01*
X776190Y536091D01*
X776186Y536077D01*
X776040Y535859D01*
X775955Y535433D01*
X776040Y535008D01*
X776186Y534789D01*
X776190Y534775D01*
X776021Y534341D01*
X775970Y534280D01*
X774409D01*
X774409Y534280D01*
X774097Y534218D01*
X773833Y534041D01*
X773833Y534041D01*
X772848Y533057D01*
X772672Y532793D01*
X772610Y532480D01*
X772610Y532480D01*
Y528543D01*
X772610Y528543D01*
X772672Y528231D01*
X772848Y527966D01*
X776952Y523863D01*
X776825Y523228D01*
X776971Y522496D01*
X777386Y521874D01*
X778007Y521459D01*
X778740Y521314D01*
X779375Y521440D01*
X781050Y519765D01*
X780803Y519305D01*
X780728Y519320D01*
X780728Y519320D01*
X743970D01*
X743874Y519464D01*
X743252Y519879D01*
X742520Y520025D01*
X741787Y519879D01*
X741166Y519464D01*
X740751Y518843D01*
X740605Y518110D01*
X740751Y517378D01*
X741166Y516756D01*
X741787Y516341D01*
X742520Y516195D01*
X743252Y516341D01*
X743874Y516756D01*
X744289Y517378D01*
X744350Y517688D01*
X780390D01*
X780464Y517615D01*
X780464Y517615D01*
X780622Y517509D01*
X780728Y517438D01*
X781040Y517376D01*
X791026D01*
X791026Y517376D01*
X791338Y517438D01*
X791603Y517615D01*
X792823Y518835D01*
X793426D01*
X793693Y518335D01*
X793507Y518056D01*
X793361Y517323D01*
X793507Y516590D01*
X793922Y515969D01*
X794543Y515554D01*
X795276Y515408D01*
X796008Y515554D01*
X796629Y515969D01*
X797045Y516590D01*
X797190Y517323D01*
X797185Y517348D01*
X797503Y517735D01*
X799358D01*
X799565Y517235D01*
X796186Y513856D01*
X796158Y513874D01*
X795846Y513936D01*
X795846Y513936D01*
X741548D01*
X726955Y528530D01*
X726690Y528706D01*
X726378Y528768D01*
X726378Y528768D01*
X705651D01*
X705291Y529307D01*
X704670Y529722D01*
X703937Y529868D01*
X703204Y529722D01*
X702583Y529307D01*
X702168Y528686D01*
X702022Y527953D01*
X702168Y527220D01*
X702583Y526599D01*
X703204Y526184D01*
X703937Y526038D01*
X704670Y526184D01*
X705291Y526599D01*
X705651Y527137D01*
X726040D01*
X727884Y525293D01*
X727693Y524831D01*
X697504D01*
X697313Y525293D01*
X706679Y534659D01*
X706679Y534659D01*
X706856Y534924D01*
X706918Y535236D01*
Y539538D01*
X707004Y539549D01*
X707844Y539897D01*
X708565Y540451D01*
X709118Y541172D01*
X709466Y542012D01*
X709585Y542913D01*
X709566Y543057D01*
X710040Y543291D01*
X710505Y542825D01*
X710612Y542012D01*
X710960Y541172D01*
X711514Y540451D01*
X712235Y539897D01*
X713075Y539549D01*
X713976Y539431D01*
X714878Y539549D01*
X715718Y539897D01*
X716439Y540451D01*
X716992Y541172D01*
X717340Y542012D01*
X717409Y542535D01*
X717913D01*
X717999Y541882D01*
X718398Y540920D01*
X719031Y540094D01*
X719857Y539461D01*
X720819Y539062D01*
X721350Y538992D01*
Y542913D01*
Y546834D01*
X720819Y546764D01*
X719857Y546366D01*
X719031Y545732D01*
X718398Y544907D01*
X717999Y543945D01*
X717913Y543292D01*
X717409D01*
X717340Y543815D01*
X716992Y544655D01*
X716439Y545376D01*
X715718Y545929D01*
X714878Y546277D01*
X714065Y546384D01*
X703158Y557292D01*
X702341Y557837D01*
X701378Y558029D01*
X581651D01*
Y560130D01*
X582193D01*
Y566248D01*
X575287D01*
Y560130D01*
X576617D01*
Y555512D01*
X576809Y554549D01*
X577354Y553732D01*
X578171Y553187D01*
X579134Y552995D01*
X657422D01*
X663566Y546851D01*
X663333Y546377D01*
X663189Y546396D01*
X662288Y546277D01*
X661448Y545929D01*
X660726Y545376D01*
X660173Y544655D01*
X659825Y543815D01*
X659706Y542913D01*
X659825Y542012D01*
X660173Y541172D01*
X660726Y540451D01*
X661448Y539897D01*
X662288Y539549D01*
X663189Y539431D01*
X664090Y539549D01*
X664930Y539897D01*
X665652Y540451D01*
X666205Y541172D01*
X666553Y542012D01*
X666672Y542913D01*
X666653Y543057D01*
X667126Y543291D01*
X667592Y542825D01*
X667699Y542012D01*
X668047Y541172D01*
X668601Y540451D01*
X669322Y539897D01*
X670162Y539549D01*
X671063Y539431D01*
X671964Y539549D01*
X672804Y539897D01*
X673525Y540451D01*
X674079Y541172D01*
X674427Y542012D01*
X674496Y542535D01*
X675000D01*
X675086Y541882D01*
X675484Y540920D01*
X676118Y540094D01*
X676944Y539461D01*
X677905Y539062D01*
X678437Y538992D01*
Y542913D01*
Y546834D01*
X677905Y546764D01*
X676944Y546366D01*
X676118Y545732D01*
X675484Y544907D01*
X675086Y543945D01*
X675000Y543292D01*
X674496D01*
X674427Y543815D01*
X674079Y544655D01*
X673525Y545376D01*
X672804Y545929D01*
X671964Y546277D01*
X671151Y546384D01*
X665003Y552533D01*
X665194Y552995D01*
X700335D01*
X706480Y546851D01*
X706246Y546377D01*
X706102Y546396D01*
X705201Y546277D01*
X704361Y545929D01*
X703640Y545376D01*
X703086Y544655D01*
X702739Y543815D01*
X702620Y542913D01*
X702739Y542012D01*
X703086Y541172D01*
X703640Y540451D01*
X704361Y539897D01*
X705201Y539549D01*
X705287Y539538D01*
Y535574D01*
X694699Y524986D01*
X694595Y524831D01*
X649803D01*
X649803Y524831D01*
X649491Y524769D01*
X649226Y524592D01*
X639898Y515264D01*
X634539D01*
Y508358D01*
X640658D01*
Y513717D01*
X650141Y523200D01*
X728009D01*
X739765Y511444D01*
X739765Y511444D01*
X739924Y511338D01*
X740030Y511267D01*
X740342Y511205D01*
X763204D01*
X763279Y510736D01*
X763279Y510705D01*
Y501336D01*
X756012D01*
Y502272D01*
X749894D01*
Y495366D01*
X756012D01*
Y496302D01*
X763279D01*
Y488476D01*
X763279Y488476D01*
X763279D01*
X763178Y487997D01*
X761162Y485981D01*
X703405D01*
X696513Y492873D01*
X696796Y493297D01*
X697003Y493211D01*
X697689Y493121D01*
Y497138D01*
X693672D01*
X693763Y496452D01*
X693848Y496245D01*
X693424Y495962D01*
X692207Y497179D01*
X692267Y497638D01*
X692128Y498693D01*
X691721Y499677D01*
X691073Y500522D01*
X690228Y501170D01*
X689245Y501577D01*
X688189Y501716D01*
X687134Y501577D01*
X686150Y501170D01*
X685305Y500522D01*
X684657Y499677D01*
X684250Y498693D01*
X684111Y497638D01*
X684250Y496582D01*
X684657Y495599D01*
X685305Y494754D01*
X686150Y494106D01*
X687134Y493699D01*
X688189Y493560D01*
X688647Y493620D01*
X700583Y481685D01*
X701399Y481139D01*
X702362Y480948D01*
X762205D01*
X763168Y481139D01*
X763984Y481685D01*
X770776Y488476D01*
X779106D01*
Y485965D01*
X778567Y485606D01*
X778152Y484985D01*
X778007Y484252D01*
X778152Y483519D01*
X778567Y482898D01*
X779188Y482483D01*
X779921Y482337D01*
X780654Y482483D01*
X781275Y482898D01*
X781690Y483519D01*
X781836Y484252D01*
X781690Y484985D01*
X781275Y485606D01*
X780737Y485965D01*
Y488476D01*
X783965D01*
Y510705D01*
X783965Y510736D01*
X784040Y511205D01*
X792538D01*
X792806Y510705D01*
X792719Y510575D01*
X792573Y509842D01*
X792719Y509110D01*
X793134Y508489D01*
X793755Y508074D01*
X794488Y507928D01*
X795221Y508074D01*
X795842Y508489D01*
X796202Y509027D01*
X796906D01*
X800759Y505174D01*
Y502329D01*
X800274Y502084D01*
X800223Y502100D01*
X800070Y502203D01*
X799606Y502295D01*
X799142Y502203D01*
X798749Y501940D01*
X798486Y501547D01*
X798394Y501083D01*
Y499124D01*
X797894Y498714D01*
X797638Y498765D01*
X796905Y498619D01*
X796284Y498204D01*
X795869Y497583D01*
X795723Y496850D01*
X795869Y496118D01*
X796058Y495834D01*
X780961Y480737D01*
X778543D01*
X778543Y480737D01*
X778231Y480675D01*
X777966Y480498D01*
X777966Y480498D01*
X766472Y469004D01*
X761114D01*
Y467646D01*
X754929D01*
Y469201D01*
X750583D01*
Y465299D01*
X750121Y465107D01*
X748707Y466522D01*
X748442Y466699D01*
X748130Y466761D01*
X748130Y466760D01*
X744398D01*
Y469004D01*
X737492D01*
Y462886D01*
X744398D01*
Y465129D01*
X747792D01*
X754323Y458598D01*
Y456484D01*
X753861Y456293D01*
X751189Y458965D01*
Y459949D01*
X750205D01*
X749910Y460244D01*
X749093Y460790D01*
X748130Y460981D01*
X744398D01*
Y461524D01*
X737492D01*
Y459210D01*
X733858D01*
X732895Y459018D01*
X732079Y458473D01*
X731533Y457656D01*
X731341Y456693D01*
X731533Y455730D01*
X732079Y454913D01*
X732895Y454368D01*
X733858Y454176D01*
X739173D01*
X740136Y454368D01*
X740953Y454913D01*
X741445Y455406D01*
X744398D01*
Y455948D01*
X746842D01*
Y455209D01*
X747826D01*
X754027Y449008D01*
X754844Y448462D01*
X755807Y448271D01*
X769171D01*
X769190Y448224D01*
X769254Y447771D01*
X768725Y447417D01*
X768310Y446796D01*
X768164Y446063D01*
X768310Y445330D01*
X768725Y444709D01*
X769346Y444294D01*
X770079Y444148D01*
X770812Y444294D01*
X771433Y444709D01*
X771848Y445330D01*
X771988Y446035D01*
X792323D01*
X792323Y446035D01*
X792635Y446097D01*
X792900Y446274D01*
X802032Y455406D01*
X805842D01*
X810250Y450998D01*
X810250Y450998D01*
X810409Y450892D01*
X810515Y450821D01*
X810827Y450759D01*
X842913D01*
X842913Y450759D01*
X842913Y450759D01*
X869291D01*
X869291Y450759D01*
X869604Y450821D01*
X869868Y450998D01*
X877622Y458752D01*
X880421D01*
Y465658D01*
X874303D01*
Y458752D01*
X874662D01*
X874853Y458290D01*
X868954Y452390D01*
X843251D01*
X838808Y456834D01*
Y458752D01*
X841051D01*
Y465658D01*
X836105D01*
X836069Y465711D01*
X836336Y466211D01*
X841436D01*
X841913Y466157D01*
X841913Y465711D01*
Y462705D01*
X845473D01*
X849032D01*
Y465711D01*
X849032Y466157D01*
X849509Y466211D01*
X852098D01*
X854618Y463691D01*
Y458752D01*
X856565D01*
Y457525D01*
X856499Y457426D01*
X856353Y456693D01*
X856499Y455960D01*
X856914Y455339D01*
X857535Y454924D01*
X858268Y454778D01*
X859000Y454924D01*
X859622Y455339D01*
X860037Y455960D01*
X860182Y456693D01*
X860037Y457426D01*
X859622Y458047D01*
X859315Y458252D01*
X859466Y458752D01*
X860736D01*
Y464400D01*
X861198Y464592D01*
X862098Y463691D01*
Y458752D01*
X864046D01*
Y457131D01*
X863979Y457032D01*
X863833Y456299D01*
X863979Y455567D01*
X864394Y454945D01*
X865015Y454530D01*
X865748Y454385D01*
X866481Y454530D01*
X867102Y454945D01*
X867517Y455567D01*
X867663Y456299D01*
X867517Y457032D01*
X867102Y457653D01*
X866481Y458068D01*
X866269Y458110D01*
Y458752D01*
X868217D01*
Y465658D01*
X863277D01*
X858463Y470471D01*
X858103Y470712D01*
X857677Y470797D01*
X857677Y470797D01*
X843357D01*
X843205Y471297D01*
X843480Y471481D01*
X843895Y472102D01*
X844041Y472835D01*
X843948Y473303D01*
X844293Y473803D01*
X850288D01*
Y477846D01*
X843488D01*
Y474784D01*
X842988Y474517D01*
X842859Y474604D01*
X842126Y474749D01*
X841393Y474604D01*
X840772Y474189D01*
X840601Y473932D01*
X840096Y473919D01*
X840189Y474468D01*
X840194Y474471D01*
X840567Y475030D01*
X840698Y475689D01*
Y478043D01*
X838976D01*
Y478543D01*
X838476D01*
Y483020D01*
X838317Y482989D01*
X837759Y482615D01*
X837625Y482415D01*
X837472Y482518D01*
X837008Y482610D01*
X836544Y482518D01*
X836391Y482415D01*
X836024Y482296D01*
X835657Y482415D01*
X835503Y482518D01*
X835039Y482610D01*
X834575Y482518D01*
X834422Y482415D01*
X834055Y482296D01*
X833688Y482415D01*
X833535Y482518D01*
X833071Y482610D01*
X832791Y482554D01*
X832291Y482587D01*
X832291Y482587D01*
X832291Y482587D01*
X829913D01*
Y474500D01*
X829990D01*
Y471745D01*
X829731Y471299D01*
X829515Y471288D01*
X813330D01*
X811207Y473411D01*
X810942Y473588D01*
X810630Y473650D01*
X810630Y473650D01*
X808301D01*
X808244Y473807D01*
X808218Y474150D01*
X808698Y474471D01*
X809071Y475030D01*
X809202Y475689D01*
Y478043D01*
X807480D01*
Y478543D01*
X806980D01*
Y483020D01*
X806821Y482989D01*
X806263Y482615D01*
X806129Y482415D01*
X805976Y482518D01*
X805512Y482610D01*
X805048Y482518D01*
X804895Y482415D01*
X804528Y482296D01*
X804160Y482415D01*
X804007Y482518D01*
X803543Y482610D01*
X803079Y482518D01*
X802926Y482415D01*
X802559Y482296D01*
X802192Y482415D01*
X802039Y482518D01*
X801575Y482610D01*
X801295Y482554D01*
X800795Y482587D01*
X800795Y482587D01*
X800795Y482587D01*
X798417D01*
Y474741D01*
X798320Y474643D01*
X798079Y474283D01*
X797994Y473857D01*
X797994Y473857D01*
Y471812D01*
X797994Y471812D01*
X798079Y471387D01*
X798320Y471026D01*
X800369Y468977D01*
X800484Y468900D01*
Y467646D01*
X794764D01*
X794682Y468056D01*
X794299Y468629D01*
Y469201D01*
X793098D01*
X792913Y469238D01*
X792729Y469201D01*
X789953D01*
Y464461D01*
X794299D01*
Y466015D01*
X800484D01*
Y462886D01*
X807390D01*
Y468651D01*
X807926D01*
X815159Y461418D01*
X815159Y461418D01*
X815248Y461359D01*
Y458752D01*
X816171D01*
X816407Y458311D01*
X816341Y458213D01*
X816195Y457480D01*
X816341Y456748D01*
X816756Y456126D01*
X817377Y455711D01*
X818110Y455566D01*
X818843Y455711D01*
X819464Y456126D01*
X819879Y456748D01*
X820025Y457480D01*
X819879Y458213D01*
X819814Y458311D01*
X820049Y458752D01*
X821366D01*
Y464400D01*
X821828Y464592D01*
X822728Y463691D01*
Y458752D01*
X824675D01*
Y457683D01*
X824630Y457653D01*
X824215Y457032D01*
X824069Y456299D01*
X824215Y455567D01*
X824630Y454945D01*
X825251Y454530D01*
X825984Y454385D01*
X826717Y454530D01*
X827338Y454945D01*
X827753Y455567D01*
X827899Y456299D01*
X827753Y457032D01*
X827338Y457653D01*
X826899Y457946D01*
Y458752D01*
X828846D01*
Y465658D01*
X823907D01*
X820408Y469157D01*
X820597Y469657D01*
X829387D01*
X834933Y464110D01*
Y458752D01*
X837176D01*
Y456496D01*
X837176Y456496D01*
X837239Y456184D01*
X837415Y455919D01*
X840482Y452852D01*
X840291Y452390D01*
X811165D01*
X807390Y456165D01*
Y461524D01*
X800484D01*
Y456165D01*
X791985Y447666D01*
X771378D01*
X771281Y447771D01*
X771498Y448271D01*
X772638D01*
X773601Y448462D01*
X774417Y449008D01*
X780593Y455183D01*
X781201Y455062D01*
X788386D01*
X789124Y455209D01*
X790559D01*
Y456388D01*
X790711Y456616D01*
X790903Y457579D01*
X790711Y458542D01*
X790559Y458769D01*
Y459949D01*
X789124D01*
X788386Y460096D01*
X784121D01*
X783768Y460449D01*
X783768Y461149D01*
Y461172D01*
D01*
X783768Y461232D01*
Y461247D01*
X783771Y461249D01*
X783782Y461254D01*
X783798Y461262D01*
X783803Y461265D01*
X783894Y461310D01*
X783917Y461321D01*
X783917D01*
X784268Y461495D01*
X784334Y461451D01*
X784646Y461389D01*
X790902D01*
X793693Y458598D01*
Y455209D01*
X798039D01*
Y459949D01*
X794650D01*
X791817Y462781D01*
X791552Y462958D01*
X791240Y463020D01*
X791240Y463020D01*
X784983D01*
X783768Y464236D01*
Y469004D01*
X776862D01*
Y462886D01*
X782811D01*
X783673Y462024D01*
X783530Y461677D01*
X783530Y461677D01*
X783522Y461659D01*
X783483Y461563D01*
X783474Y461543D01*
X783468Y461529D01*
X783466Y461524D01*
X783453D01*
X783396Y461524D01*
X783396Y461524D01*
X783382Y461524D01*
X776862D01*
Y458571D01*
X771595Y453304D01*
X756850D01*
X755407Y454747D01*
X755598Y455209D01*
X758669D01*
Y459949D01*
X758572D01*
X758304Y460449D01*
X758462Y460685D01*
X758608Y461417D01*
X758462Y462150D01*
X758047Y462771D01*
X757426Y463186D01*
X756693Y463332D01*
X755960Y463186D01*
X755339Y462771D01*
X754924Y462150D01*
X754778Y461417D01*
X754843Y461093D01*
X754382Y460846D01*
X751230Y463999D01*
X751421Y464461D01*
X754929D01*
Y466015D01*
X761114D01*
Y462886D01*
X768020D01*
Y468244D01*
X778881Y479106D01*
X781299D01*
X781299Y479106D01*
X781611Y479168D01*
X781876Y479345D01*
X797496Y494964D01*
X797638Y494936D01*
X798371Y495081D01*
X798649Y494666D01*
X798749Y494517D01*
X799142Y494254D01*
X799606Y494162D01*
X800070Y494254D01*
X800223Y494356D01*
X800591Y494476D01*
X800958Y494356D01*
X801111Y494254D01*
X801575Y494162D01*
X802039Y494254D01*
X802192Y494356D01*
X802326Y494156D01*
X802884Y493783D01*
X803043Y493751D01*
Y498228D01*
Y502705D01*
X802884Y502674D01*
X802831Y502638D01*
X802390Y502874D01*
Y505512D01*
X802390Y505512D01*
X802328Y505824D01*
X802152Y506089D01*
X802152Y506089D01*
X799675Y508565D01*
X799867Y509027D01*
X820727D01*
X821087Y508489D01*
X821708Y508074D01*
X822441Y507928D01*
X823174Y508074D01*
X823795Y508489D01*
X824154Y509027D01*
X829190D01*
X832255Y505961D01*
Y502329D01*
X831770Y502084D01*
X831719Y502100D01*
X831566Y502203D01*
X831102Y502295D01*
X830639Y502203D01*
X830245Y501940D01*
X829982Y501547D01*
X829890Y501083D01*
Y498170D01*
X825449Y493729D01*
X812737D01*
X812377Y494267D01*
X811756Y494682D01*
X811024Y494828D01*
X810291Y494682D01*
X809670Y494267D01*
X809255Y493646D01*
X809109Y492913D01*
X809255Y492181D01*
X809670Y491560D01*
X810291Y491144D01*
X811024Y490999D01*
X811756Y491144D01*
X812377Y491560D01*
X812737Y492098D01*
X825787D01*
X825787Y492098D01*
X826100Y492160D01*
X826364Y492337D01*
X829424Y495396D01*
X829926Y495192D01*
X829982Y494910D01*
X830245Y494517D01*
X830639Y494254D01*
X831102Y494162D01*
X831566Y494254D01*
X831719Y494356D01*
X832087Y494476D01*
X832454Y494356D01*
X832607Y494254D01*
X833071Y494162D01*
X833535Y494254D01*
X833688Y494356D01*
X833822Y494156D01*
X834380Y493783D01*
X834539Y493751D01*
Y498228D01*
Y502705D01*
X834380Y502674D01*
X834328Y502638D01*
X833887Y502874D01*
Y506299D01*
X833887Y506299D01*
X833825Y506611D01*
X833648Y506876D01*
X833648Y506876D01*
X830104Y510419D01*
X829840Y510596D01*
X829528Y510658D01*
X829527Y510658D01*
X824154D01*
X823795Y511196D01*
X823174Y511612D01*
X822441Y511757D01*
X821708Y511612D01*
X821087Y511196D01*
X820727Y510658D01*
X797416D01*
X797258Y511117D01*
X797262Y511151D01*
X797508Y511315D01*
X828684Y542491D01*
X887064D01*
X909635Y519920D01*
X909583Y519851D01*
X909235Y519012D01*
X909116Y518110D01*
X909235Y517209D01*
X909583Y516369D01*
X910136Y515648D01*
X910857Y515094D01*
X911697Y514746D01*
X912598Y514628D01*
X913500Y514746D01*
X914340Y515094D01*
X915061Y515648D01*
X915614Y516369D01*
X915962Y517209D01*
X916081Y518110D01*
X915962Y519012D01*
X915614Y519851D01*
X915562Y519920D01*
X920810Y525169D01*
X990607D01*
X993262Y522514D01*
X993098Y522184D01*
Y518110D01*
Y514189D01*
X993630Y514259D01*
X994592Y514657D01*
X995418Y515291D01*
X995561Y515478D01*
X996035Y515318D01*
Y505734D01*
X995735Y505604D01*
X995535Y505594D01*
X994945Y506362D01*
X994119Y506996D01*
X993158Y507394D01*
X992626Y507464D01*
Y503543D01*
Y499622D01*
X993158Y499692D01*
X994119Y500091D01*
X994945Y500724D01*
X995535Y501493D01*
X995735Y501482D01*
X996035Y501353D01*
Y495734D01*
X995735Y495604D01*
X995535Y495594D01*
X994945Y496362D01*
X994119Y496996D01*
X993158Y497394D01*
X992626Y497464D01*
Y493543D01*
Y489622D01*
X993158Y489692D01*
X994119Y490091D01*
X994945Y490724D01*
X995535Y491493D01*
X995735Y491482D01*
X996035Y491353D01*
Y484137D01*
X995535Y484104D01*
X995490Y484445D01*
X995142Y485285D01*
X994588Y486006D01*
X993867Y486559D01*
X993027Y486907D01*
X992126Y487026D01*
X991225Y486907D01*
X990385Y486559D01*
X989664Y486006D01*
X989110Y485285D01*
X988762Y484445D01*
X988643Y483543D01*
X988762Y482642D01*
X988940Y482213D01*
X986405Y479679D01*
X928744D01*
X928716Y479720D01*
X928095Y480135D01*
X927362Y480281D01*
X923761D01*
X917476Y486566D01*
X917408Y487205D01*
X918841Y488639D01*
X919126Y489065D01*
X919226Y489567D01*
Y491035D01*
X920972D01*
Y497941D01*
X914854D01*
Y491035D01*
X916601D01*
Y490111D01*
X913630Y487139D01*
X904007D01*
X903716Y487574D01*
X903095Y487990D01*
X902362Y488135D01*
X901985Y488060D01*
X894235Y495810D01*
X893809Y496095D01*
X893307Y496195D01*
X872879D01*
X872701Y496623D01*
X872148Y497344D01*
X871426Y497898D01*
X870586Y498246D01*
X870064Y498315D01*
Y498819D01*
X870717Y498905D01*
X871679Y499303D01*
X872504Y499937D01*
X873138Y500763D01*
X873536Y501724D01*
X873606Y502256D01*
X869685D01*
X865764D01*
X865834Y501724D01*
X866232Y500763D01*
X866866Y499937D01*
X867692Y499303D01*
X868653Y498905D01*
X869306Y498819D01*
Y498315D01*
X868784Y498246D01*
X867944Y497898D01*
X867222Y497344D01*
X866669Y496623D01*
X866321Y495783D01*
X866203Y494882D01*
X866321Y493981D01*
X866669Y493141D01*
X867222Y492419D01*
X867944Y491866D01*
X868784Y491518D01*
X869685Y491399D01*
X870586Y491518D01*
X871426Y491866D01*
X872148Y492419D01*
X872701Y493141D01*
X872879Y493569D01*
X892763D01*
X900531Y485802D01*
X900593Y485488D01*
X901008Y484867D01*
X901630Y484451D01*
X902362Y484306D01*
X903095Y484451D01*
X903189Y484514D01*
X915815D01*
X919711Y480618D01*
X919585Y480204D01*
X919509Y480113D01*
X918922Y479720D01*
X918507Y479099D01*
X918361Y478366D01*
X918507Y477633D01*
X918922Y477012D01*
X919543Y476597D01*
X920276Y476451D01*
X927362D01*
X928095Y476597D01*
X928716Y477012D01*
X928744Y477053D01*
X986949D01*
X987451Y477153D01*
X987877Y477438D01*
X990796Y480357D01*
X991225Y480179D01*
X992126Y480061D01*
X993027Y480179D01*
X993867Y480527D01*
X994588Y481081D01*
X995142Y481802D01*
X995490Y482642D01*
X995535Y482983D01*
X996035Y482950D01*
Y474137D01*
X995535Y474104D01*
X995490Y474445D01*
X995142Y475285D01*
X994588Y476006D01*
X993867Y476559D01*
X993027Y476907D01*
X992126Y477026D01*
X991225Y476907D01*
X990385Y476559D01*
X989664Y476006D01*
X989110Y475285D01*
X988762Y474445D01*
X988643Y473543D01*
X988762Y472642D01*
X989110Y471802D01*
X989163Y471734D01*
X984856Y467427D01*
X984680Y467163D01*
X984617Y466850D01*
X984617Y466850D01*
Y458212D01*
X982958Y456553D01*
X982496Y456744D01*
Y459736D01*
X973409D01*
Y456087D01*
X972973Y455934D01*
X971122D01*
X970685Y456087D01*
X970685Y456434D01*
Y459736D01*
X961598D01*
Y456434D01*
X961598Y456087D01*
X961162Y455934D01*
D01*
X959311D01*
X958874Y456087D01*
X958874Y456434D01*
Y459736D01*
X949787D01*
Y456434D01*
X949787Y456087D01*
X949351Y455934D01*
D01*
X947500D01*
X947063Y456087D01*
Y459736D01*
X937976D01*
Y457531D01*
X937514Y457340D01*
X934859Y459995D01*
X934986Y460630D01*
X934840Y461363D01*
X934425Y461984D01*
X933804Y462399D01*
X933071Y462545D01*
X932338Y462399D01*
X931717Y461984D01*
X931302Y461363D01*
X931156Y460630D01*
X931302Y459897D01*
X931717Y459276D01*
X932338Y458861D01*
X933071Y458715D01*
X933706Y458842D01*
X936668Y455879D01*
X936422Y455418D01*
X936220Y455458D01*
X935488Y455312D01*
X934867Y454897D01*
X934451Y454276D01*
X934306Y453543D01*
X934451Y452811D01*
X934867Y452189D01*
X935488Y451774D01*
X936220Y451629D01*
X936953Y451774D01*
X937574Y452189D01*
X937934Y452728D01*
X964623D01*
X971704Y445646D01*
Y443690D01*
X971618Y443679D01*
X970778Y443331D01*
X970057Y442777D01*
X969504Y442056D01*
X969156Y441216D01*
X969037Y440315D01*
X969156Y439414D01*
X969504Y438574D01*
X970057Y437852D01*
X970778Y437299D01*
X971618Y436951D01*
X972520Y436832D01*
X973421Y436951D01*
X974261Y437299D01*
X974982Y437852D01*
X975536Y438574D01*
X975884Y439414D01*
X976002Y440315D01*
X975884Y441216D01*
X975536Y442056D01*
X974982Y442777D01*
X974261Y443331D01*
X973421Y443679D01*
X973335Y443690D01*
Y445984D01*
X973335Y445984D01*
X973273Y446296D01*
X973096Y446561D01*
X973096Y446561D01*
X965855Y453802D01*
X966062Y454302D01*
X982677D01*
X982677Y454302D01*
X982989Y454364D01*
X983254Y454541D01*
X986010Y457297D01*
X986010Y457297D01*
X986116Y457456D01*
X986187Y457562D01*
X986249Y457874D01*
X986249Y457874D01*
Y466512D01*
X990316Y470580D01*
X990385Y470527D01*
X991225Y470179D01*
X992126Y470061D01*
X993027Y470179D01*
X993867Y470527D01*
X994588Y471081D01*
X995142Y471802D01*
X995490Y472642D01*
X995535Y472983D01*
X996035Y472950D01*
Y468606D01*
X993936Y466507D01*
X993867Y466559D01*
X993027Y466907D01*
X992126Y467026D01*
X991225Y466907D01*
X990385Y466559D01*
X989664Y466006D01*
X989110Y465285D01*
X988762Y464445D01*
X988643Y463543D01*
X988762Y462642D01*
X989110Y461802D01*
X989664Y461081D01*
X990385Y460527D01*
X991225Y460179D01*
X992126Y460061D01*
X993027Y460179D01*
X993867Y460527D01*
X994588Y461081D01*
X995142Y461802D01*
X995490Y462642D01*
X995609Y463543D01*
X995490Y464445D01*
X995142Y465285D01*
X995089Y465353D01*
X997138Y467402D01*
X997638Y467195D01*
Y435523D01*
X997386Y435446D01*
X996204Y434815D01*
X995169Y433965D01*
X994319Y432930D01*
X993688Y431748D01*
X993299Y430467D01*
X993168Y429134D01*
X993299Y427801D01*
X993688Y426519D01*
X994319Y425338D01*
X995169Y424303D01*
X996204Y423453D01*
X997386Y422822D01*
X997638Y422745D01*
Y418435D01*
X560167D01*
Y503134D01*
X561508D01*
Y508071D01*
Y513008D01*
X560167D01*
Y534236D01*
X561508D01*
Y539173D01*
Y544110D01*
X560167D01*
Y652431D01*
X997638D01*
Y648121D01*
D02*
G37*
%LPC*%
G36*
X581426Y466741D02*
X578126D01*
Y465541D01*
X581426D01*
Y466741D01*
D02*
G37*
G36*
X908071Y470281D02*
X900984D01*
X900251Y470135D01*
X899630Y469720D01*
X899215Y469099D01*
X899069Y468366D01*
X899215Y467633D01*
X899630Y467012D01*
X900251Y466597D01*
X900984Y466451D01*
X908071D01*
X908804Y466597D01*
X909425Y467012D01*
X909840Y467633D01*
X909986Y468366D01*
X909840Y469099D01*
X909425Y469720D01*
X908804Y470135D01*
X908071Y470281D01*
D02*
G37*
G36*
X946563Y474909D02*
X938476D01*
Y467610D01*
X946563D01*
Y474909D01*
D02*
G37*
G36*
X577126Y466741D02*
X573826D01*
Y465541D01*
X577126D01*
Y466741D01*
D02*
G37*
G36*
X606118Y468520D02*
X603059D01*
Y465067D01*
X606118D01*
Y468520D01*
D02*
G37*
G36*
X602059D02*
X599000D01*
Y465067D01*
X602059D01*
Y468520D01*
D02*
G37*
G36*
X908071Y465791D02*
X905027D01*
Y463866D01*
X910396D01*
X910311Y464294D01*
X909785Y465081D01*
X908999Y465606D01*
X908071Y465791D01*
D02*
G37*
G36*
X818791Y477846D02*
X811992D01*
Y473803D01*
X818791D01*
Y477846D01*
D02*
G37*
G36*
X668217Y479831D02*
X662098D01*
Y472925D01*
X668217D01*
Y479831D01*
D02*
G37*
G36*
X858087Y477846D02*
X851287D01*
Y473803D01*
X858087D01*
Y477846D01*
D02*
G37*
G36*
X826591D02*
X819791D01*
Y473803D01*
X826591D01*
Y477846D01*
D02*
G37*
G36*
X873138Y482587D02*
X866232D01*
Y475681D01*
X873138D01*
Y478318D01*
X891788D01*
X897317Y472789D01*
X897317Y472789D01*
X897476Y472683D01*
X897582Y472613D01*
X897894Y472550D01*
X899271D01*
X899630Y472012D01*
X900251Y471597D01*
X900984Y471451D01*
X908071D01*
X908804Y471597D01*
X909425Y472012D01*
X909784Y472550D01*
X910347D01*
X910436Y472102D01*
X910851Y471481D01*
X911472Y471066D01*
X912205Y470920D01*
X912938Y471066D01*
X913559Y471481D01*
X913974Y472102D01*
X914120Y472835D01*
X913974Y473567D01*
X913559Y474189D01*
X912938Y474604D01*
X912205Y474749D01*
X911472Y474604D01*
X910851Y474189D01*
X910846Y474182D01*
X909784D01*
X909425Y474720D01*
X908804Y475135D01*
X908071Y475281D01*
X900984D01*
X900251Y475135D01*
X899630Y474720D01*
X899271Y474182D01*
X898232D01*
X892703Y479711D01*
X892438Y479887D01*
X892126Y479950D01*
X892126Y479950D01*
X873138D01*
Y482587D01*
D02*
G37*
G36*
X970185Y474909D02*
X962098D01*
Y467610D01*
X970185D01*
Y474909D01*
D02*
G37*
G36*
X958374D02*
X950287D01*
Y467610D01*
X958374D01*
Y474909D01*
D02*
G37*
G36*
X929687Y472866D02*
X923819D01*
X917951D01*
X918036Y472438D01*
X918561Y471652D01*
X919348Y471126D01*
X919374Y471121D01*
Y470611D01*
X919348Y470606D01*
X918561Y470081D01*
X918036Y469294D01*
X917951Y468866D01*
X923819D01*
X929687D01*
X929602Y469294D01*
X929077Y470081D01*
X928290Y470606D01*
X928264Y470611D01*
Y471121D01*
X928290Y471126D01*
X929077Y471652D01*
X929602Y472438D01*
X929687Y472866D01*
D02*
G37*
G36*
X981996Y474909D02*
X973909D01*
Y467610D01*
X981996D01*
Y474909D01*
D02*
G37*
G36*
X904027Y465791D02*
X900984D01*
X900056Y465606D01*
X899270Y465081D01*
X898744Y464294D01*
X898659Y463866D01*
X904027D01*
Y465791D01*
D02*
G37*
G36*
X958874Y464386D02*
X954831D01*
Y460736D01*
X958874D01*
Y464386D01*
D02*
G37*
G36*
X953831D02*
X949787D01*
Y460736D01*
X953831D01*
Y464386D01*
D02*
G37*
G36*
X970685D02*
X966642D01*
Y460736D01*
X970685D01*
Y464386D01*
D02*
G37*
G36*
X965642D02*
X961598D01*
Y460736D01*
X965642D01*
Y464386D01*
D02*
G37*
G36*
X606118Y464067D02*
X603059D01*
Y460614D01*
X606118D01*
Y464067D01*
D02*
G37*
G36*
X602059D02*
X599000D01*
Y460614D01*
X602059D01*
Y464067D01*
D02*
G37*
G36*
X947063Y464386D02*
X943020D01*
Y460736D01*
X947063D01*
Y464386D01*
D02*
G37*
G36*
X942020D02*
X937976D01*
Y460736D01*
X942020D01*
Y464386D01*
D02*
G37*
G36*
X977453D02*
X973409D01*
Y460736D01*
X977453D01*
Y464386D01*
D02*
G37*
G36*
X884343Y466157D02*
X881283D01*
Y462705D01*
X884343D01*
Y466157D01*
D02*
G37*
G36*
X929687Y462866D02*
X924319D01*
Y460942D01*
X927362D01*
X928290Y461126D01*
X929077Y461652D01*
X929602Y462438D01*
X929687Y462866D01*
D02*
G37*
G36*
Y467866D02*
X923819D01*
X917951D01*
X918036Y467438D01*
X918561Y466652D01*
X919348Y466126D01*
X919374Y466121D01*
Y465611D01*
X919348Y465606D01*
X918561Y465081D01*
X918036Y464294D01*
X917951Y463866D01*
X923819D01*
X929687D01*
X929602Y464294D01*
X929077Y465081D01*
X928290Y465606D01*
X928264Y465611D01*
Y466121D01*
X928290Y466126D01*
X929077Y466652D01*
X929602Y467438D01*
X929687Y467866D01*
D02*
G37*
G36*
X888402Y466157D02*
X885343D01*
Y462705D01*
X888402D01*
Y466157D01*
D02*
G37*
G36*
X904027Y462866D02*
X898659D01*
X898744Y462438D01*
X899270Y461652D01*
X900056Y461126D01*
X900984Y460942D01*
X904027D01*
Y462866D01*
D02*
G37*
G36*
X982496Y464386D02*
X978453D01*
Y460736D01*
X982496D01*
Y464386D01*
D02*
G37*
G36*
X923319Y462866D02*
X917951D01*
X918036Y462438D01*
X918561Y461652D01*
X919348Y461126D01*
X920276Y460942D01*
X923319D01*
Y462866D01*
D02*
G37*
G36*
X910396Y462866D02*
X905027D01*
Y460942D01*
X908071D01*
X908999Y461126D01*
X909785Y461652D01*
X910311Y462438D01*
X910396Y462866D01*
D02*
G37*
G36*
X981406Y492626D02*
X974500D01*
Y486508D01*
X981406D01*
Y492626D01*
D02*
G37*
G36*
X969594D02*
X962689D01*
Y486508D01*
X969594D01*
Y492626D01*
D02*
G37*
G36*
X633358Y493126D02*
X628921D01*
Y488689D01*
X633358D01*
Y493126D01*
D02*
G37*
G36*
X566626Y492739D02*
X562376D01*
Y488689D01*
X566626D01*
Y492739D01*
D02*
G37*
G36*
X838598Y487886D02*
X835539D01*
Y484827D01*
X838598D01*
Y487886D01*
D02*
G37*
G36*
X834539D02*
X831480D01*
Y484827D01*
X834539D01*
Y487886D01*
D02*
G37*
G36*
X957784Y492626D02*
X950878D01*
Y486508D01*
X957784D01*
Y492626D01*
D02*
G37*
G36*
X945972D02*
X939067D01*
Y486508D01*
X945972D01*
Y492626D01*
D02*
G37*
G36*
X638795Y493126D02*
X634358D01*
Y488689D01*
X638795D01*
Y493126D01*
D02*
G37*
G36*
X991626Y493043D02*
X988205D01*
X988275Y492511D01*
X988673Y491550D01*
X989307Y490724D01*
X990133Y490091D01*
X991094Y489692D01*
X991626Y489622D01*
Y493043D01*
D02*
G37*
G36*
X807102Y491945D02*
X804043D01*
Y488886D01*
X807102D01*
Y491945D01*
D02*
G37*
G36*
X913992Y493988D02*
X910933D01*
Y490535D01*
X913992D01*
Y493988D01*
D02*
G37*
G36*
X909933D02*
X906874D01*
Y490535D01*
X909933D01*
Y493988D01*
D02*
G37*
G36*
X834539Y491945D02*
X831480D01*
Y488886D01*
X834539D01*
Y491945D01*
D02*
G37*
G36*
X571876Y492739D02*
X567626D01*
Y488689D01*
X571876D01*
Y492739D01*
D02*
G37*
G36*
X803043Y491945D02*
X799984D01*
Y488886D01*
X803043D01*
Y491945D01*
D02*
G37*
G36*
X838598D02*
X835539D01*
Y488886D01*
X838598D01*
Y491945D01*
D02*
G37*
G36*
X807102Y487886D02*
X804043D01*
Y484827D01*
X807102D01*
Y487886D01*
D02*
G37*
G36*
X826591Y482890D02*
X819791D01*
Y478847D01*
X826591D01*
Y482890D01*
D02*
G37*
G36*
X818791D02*
X811992D01*
Y478847D01*
X818791D01*
Y482890D01*
D02*
G37*
G36*
X839476Y483020D02*
Y479043D01*
X840698D01*
Y481398D01*
X840567Y482057D01*
X840194Y482615D01*
X839635Y482989D01*
X839476Y483020D01*
D02*
G37*
G36*
X858087Y482890D02*
X851287D01*
Y478847D01*
X858087D01*
Y482890D01*
D02*
G37*
G36*
X927362Y475791D02*
X924319D01*
Y473866D01*
X929687D01*
X929602Y474294D01*
X929077Y475081D01*
X928290Y475606D01*
X927362Y475791D01*
D02*
G37*
G36*
X923319D02*
X920276D01*
X919348Y475606D01*
X918561Y475081D01*
X918036Y474294D01*
X917951Y473866D01*
X923319D01*
Y475791D01*
D02*
G37*
G36*
X850288Y482890D02*
X843488D01*
Y478847D01*
X850288D01*
Y482890D01*
D02*
G37*
G36*
X869685Y490490D02*
X868784Y490372D01*
X867944Y490024D01*
X867222Y489470D01*
X866669Y488749D01*
X866321Y487909D01*
X866203Y487008D01*
X866321Y486106D01*
X866669Y485267D01*
X867222Y484545D01*
X867944Y483992D01*
X868784Y483644D01*
X869685Y483525D01*
X870586Y483644D01*
X871426Y483992D01*
X872148Y484545D01*
X872701Y485267D01*
X873049Y486106D01*
X873060Y486192D01*
X895548D01*
X900989Y480751D01*
X900791Y480242D01*
X900251Y480135D01*
X899630Y479720D01*
X899215Y479099D01*
X899069Y478366D01*
X899215Y477633D01*
X899630Y477012D01*
X900251Y476597D01*
X900984Y476451D01*
X908071D01*
X908804Y476597D01*
X909425Y477012D01*
X909784Y477551D01*
X913628D01*
X914000Y476993D01*
X914622Y476578D01*
X915354Y476432D01*
X916087Y476578D01*
X916708Y476993D01*
X917123Y477614D01*
X917269Y478346D01*
X917123Y479079D01*
X916708Y479700D01*
X916087Y480115D01*
X915354Y480261D01*
X914622Y480115D01*
X914000Y479700D01*
X913654Y479182D01*
X909784D01*
X909425Y479720D01*
X908804Y480135D01*
X908071Y480281D01*
X903766D01*
X896463Y487585D01*
X896198Y487761D01*
X895886Y487823D01*
X895886Y487823D01*
X873060D01*
X873049Y487909D01*
X872701Y488749D01*
X872148Y489470D01*
X871426Y490024D01*
X870586Y490372D01*
X869685Y490490D01*
D02*
G37*
G36*
X807980Y483020D02*
Y479043D01*
X809202D01*
Y481398D01*
X809071Y482057D01*
X808698Y482615D01*
X808139Y482989D01*
X807980Y483020D01*
D02*
G37*
G36*
X646596Y495194D02*
X641396D01*
Y492994D01*
Y491026D01*
Y489057D01*
Y487089D01*
Y485120D01*
Y483152D01*
Y481183D01*
X646596D01*
Y483152D01*
Y485120D01*
Y487089D01*
Y487373D01*
X648875D01*
X655955Y480293D01*
X655764Y479831D01*
X654618D01*
Y472925D01*
X660736D01*
Y479831D01*
X658472D01*
X658431Y480037D01*
X658360Y480143D01*
X658254Y480301D01*
X658254Y480301D01*
X649789Y488766D01*
X649676Y488842D01*
X649827Y489342D01*
X654618D01*
Y484736D01*
X660736D01*
Y491642D01*
X654618D01*
Y490973D01*
X646596D01*
Y491026D01*
Y492994D01*
Y495194D01*
D02*
G37*
G36*
X626821Y489657D02*
X623721D01*
X620621D01*
Y489005D01*
X577953D01*
X577641Y488943D01*
X577535Y488872D01*
X577376Y488766D01*
X577376Y488766D01*
X572376Y483766D01*
X571876Y483973D01*
Y487689D01*
X567626D01*
Y483639D01*
X571542D01*
X571749Y483139D01*
X569108Y480498D01*
X568931Y480233D01*
X568869Y479921D01*
X568869Y479921D01*
Y474409D01*
X568869Y474409D01*
X568931Y474097D01*
X569108Y473833D01*
X571077Y471864D01*
X571341Y471687D01*
X571654Y471625D01*
X571654Y471625D01*
X573861D01*
X574317Y471249D01*
X574326Y471125D01*
Y471041D01*
X574326Y470741D01*
Y468941D01*
X573826D01*
Y467741D01*
X581426D01*
Y468941D01*
X581280D01*
X580926Y469295D01*
Y470741D01*
X580926Y471041D01*
Y471141D01*
Y471241D01*
X580926Y471541D01*
Y473641D01*
X580926D01*
Y473684D01*
X581205Y474184D01*
X612795D01*
X612795Y474184D01*
X613107Y474246D01*
X613372Y474423D01*
X615258Y476309D01*
X615720Y476118D01*
Y471401D01*
X612339Y468020D01*
X606980D01*
Y461114D01*
X613098D01*
Y466472D01*
X617112Y470486D01*
X617112Y470486D01*
X617289Y470751D01*
X617351Y471063D01*
X617351Y471063D01*
Y480371D01*
X620417Y483436D01*
X621121D01*
Y483152D01*
Y481183D01*
X622609D01*
Y480087D01*
X621939Y479417D01*
X621654Y479474D01*
X620921Y479328D01*
X620300Y478913D01*
X619885Y478292D01*
X619739Y477559D01*
X619885Y476826D01*
X620300Y476205D01*
X620921Y475790D01*
X621654Y475644D01*
X622386Y475790D01*
X623007Y476205D01*
X623169Y476447D01*
X626841D01*
Y466248D01*
X626173D01*
Y459635D01*
X622768Y456230D01*
X603484D01*
X603322Y456472D01*
X602701Y456887D01*
X601968Y457033D01*
X601236Y456887D01*
X600615Y456472D01*
X600200Y455851D01*
X600054Y455118D01*
X600200Y454385D01*
X600615Y453764D01*
X601236Y453349D01*
X601968Y453203D01*
X602701Y453349D01*
X603322Y453764D01*
X603484Y454006D01*
X623228D01*
X623228Y454006D01*
X623654Y454091D01*
X624015Y454332D01*
X627057Y457374D01*
X633669D01*
Y460699D01*
X639599D01*
X643693Y456605D01*
Y453634D01*
X646874D01*
X647141Y453134D01*
X647105Y453080D01*
X622244D01*
X622244Y453080D01*
X621819Y452996D01*
X621458Y452755D01*
X621458Y452755D01*
X608965Y440262D01*
X608236Y440563D01*
X607283Y440689D01*
X606331Y440563D01*
X605443Y440196D01*
X604681Y439611D01*
X604096Y438848D01*
X603728Y437961D01*
X603602Y437008D01*
X603728Y436055D01*
X604096Y435167D01*
X604681Y434405D01*
X605443Y433820D01*
X606331Y433452D01*
X607283Y433327D01*
X608236Y433452D01*
X609124Y433820D01*
X609886Y434405D01*
X610471Y435167D01*
X610839Y436055D01*
X610965Y437008D01*
X610839Y437961D01*
X610537Y438689D01*
X622705Y450857D01*
X648032D01*
X648032Y450857D01*
X648221Y450894D01*
X648467Y450433D01*
X644597Y446563D01*
X641823D01*
Y445797D01*
X638779D01*
X638354Y445712D01*
X638209Y445616D01*
X637993Y445471D01*
X637993Y445471D01*
X635366Y442844D01*
X633669D01*
Y446169D01*
X626173D01*
Y437295D01*
X632786D01*
X633663Y436418D01*
X633663Y436418D01*
X633879Y436274D01*
X634023Y436177D01*
X634449Y436093D01*
X641823D01*
Y435327D01*
X645187D01*
X655907Y424608D01*
X655907Y424607D01*
X656123Y424463D01*
X656267Y424366D01*
X656693Y424282D01*
X661902D01*
Y422335D01*
X668807D01*
Y422877D01*
X671850D01*
X672814Y423068D01*
X673630Y423614D01*
X682145Y432129D01*
X809587D01*
X816724Y424992D01*
X817541Y424446D01*
X818504Y424255D01*
X878976D01*
X879939Y424446D01*
X880756Y424992D01*
X888605Y432841D01*
X889067Y432650D01*
Y426862D01*
X895972D01*
Y433768D01*
X890185D01*
X889994Y434230D01*
X892608Y436844D01*
X893421Y436951D01*
X894261Y437299D01*
X894982Y437852D01*
X895536Y438574D01*
X895884Y439414D01*
X896002Y440315D01*
X895884Y441216D01*
X895536Y442056D01*
X894982Y442777D01*
X894261Y443331D01*
X893421Y443679D01*
X892520Y443797D01*
X891618Y443679D01*
X890778Y443331D01*
X890057Y442777D01*
X889504Y442056D01*
X889156Y441216D01*
X889049Y440403D01*
X877934Y429288D01*
X819547D01*
X812410Y436425D01*
X811593Y436971D01*
X810630Y437162D01*
X681102D01*
X680139Y436971D01*
X679323Y436425D01*
X670808Y427911D01*
X668807D01*
Y428453D01*
X661902D01*
Y426506D01*
X657154D01*
X647941Y435718D01*
Y438567D01*
X648441D01*
Y440445D01*
X644882D01*
X641323D01*
Y438567D01*
X640927Y438317D01*
X634909D01*
X633669Y439557D01*
Y440620D01*
X635827D01*
X635827Y440620D01*
X636252Y440705D01*
X636613Y440946D01*
X639240Y443573D01*
X640927D01*
X641323Y443323D01*
Y441445D01*
X644882D01*
X648441D01*
Y443323D01*
X647941D01*
Y446563D01*
X647941Y446563D01*
X647941D01*
X648153Y446975D01*
X654133Y452954D01*
X654133Y452954D01*
X654374Y453315D01*
X654437Y453634D01*
X655520D01*
Y458374D01*
X651612D01*
X651173Y458374D01*
X651112Y458849D01*
Y462886D01*
X651780D01*
Y467626D01*
X647433D01*
Y462886D01*
X648888D01*
Y454398D01*
X648539Y454049D01*
X648039Y454256D01*
Y458374D01*
X645069D01*
X640845Y462597D01*
X640485Y462838D01*
X640059Y462923D01*
X640059Y462923D01*
X633669D01*
Y466248D01*
X629065D01*
Y475452D01*
X640864D01*
Y480652D01*
X626853D01*
Y478671D01*
X624995D01*
X624728Y479171D01*
X624748Y479201D01*
X624833Y479626D01*
X624833Y479626D01*
Y481183D01*
X626321D01*
Y483152D01*
Y485120D01*
Y487089D01*
Y488557D01*
X626821D01*
Y489657D01*
D02*
G37*
G36*
X803043Y487886D02*
X799984D01*
Y484827D01*
X803043D01*
Y487886D01*
D02*
G37*
G36*
X670579Y507980D02*
X663279D01*
Y499894D01*
X664342D01*
Y491642D01*
X662098D01*
Y484736D01*
X668217D01*
Y491642D01*
X665973D01*
Y499894D01*
X670579D01*
Y507980D01*
D02*
G37*
G36*
X633358Y487689D02*
X628921D01*
Y483252D01*
X633358D01*
Y487689D01*
D02*
G37*
G36*
X932598Y521593D02*
X931697Y521474D01*
X930857Y521126D01*
X930136Y520573D01*
X929583Y519851D01*
X929235Y519012D01*
X929116Y518110D01*
X929235Y517209D01*
X929583Y516369D01*
X930136Y515648D01*
X930857Y515094D01*
X931697Y514746D01*
X931783Y514735D01*
Y485125D01*
X931323Y484819D01*
X930908Y484197D01*
X930762Y483465D01*
X930908Y482732D01*
X931323Y482111D01*
X931944Y481696D01*
X932677Y481550D01*
X933410Y481696D01*
X934031Y482111D01*
X934446Y482732D01*
X934592Y483465D01*
X934446Y484197D01*
X934031Y484819D01*
X933414Y485231D01*
Y514735D01*
X933500Y514746D01*
X934340Y515094D01*
X935061Y515648D01*
X935614Y516369D01*
X935962Y517209D01*
X936081Y518110D01*
X935962Y519012D01*
X935614Y519851D01*
X935061Y520573D01*
X934340Y521126D01*
X933500Y521474D01*
X932598Y521593D01*
D02*
G37*
G36*
X566626Y487689D02*
X562376D01*
Y483639D01*
X566626D01*
Y487689D01*
D02*
G37*
G36*
X638795D02*
X634358D01*
Y483252D01*
X638795D01*
Y487689D01*
D02*
G37*
G36*
X888402Y461705D02*
X885343D01*
Y458252D01*
X888402D01*
Y461705D01*
D02*
G37*
G36*
X741732Y430134D02*
X737886D01*
Y427665D01*
X741732D01*
Y430134D01*
D02*
G37*
G36*
X736886D02*
X733039D01*
Y427665D01*
X736886D01*
Y430134D01*
D02*
G37*
G36*
X781102D02*
X777256D01*
Y427665D01*
X781102D01*
Y430134D01*
D02*
G37*
G36*
X776256D02*
X772409D01*
Y427665D01*
X776256D01*
Y430134D01*
D02*
G37*
G36*
X952520Y433798D02*
X951618Y433679D01*
X950778Y433331D01*
X950057Y432778D01*
X949504Y432056D01*
X949156Y431216D01*
X949037Y430315D01*
X949156Y429414D01*
X949504Y428574D01*
X950057Y427852D01*
X950778Y427299D01*
X951618Y426951D01*
X952520Y426832D01*
X953421Y426951D01*
X954261Y427299D01*
X954982Y427852D01*
X955536Y428574D01*
X955884Y429414D01*
X956002Y430315D01*
X955884Y431216D01*
X955536Y432056D01*
X954982Y432778D01*
X954261Y433331D01*
X953421Y433679D01*
X952520Y433798D01*
D02*
G37*
G36*
X942520D02*
X941618Y433679D01*
X940778Y433331D01*
X940057Y432778D01*
X939504Y432056D01*
X939156Y431216D01*
X939037Y430315D01*
X939156Y429414D01*
X939504Y428574D01*
X940057Y427852D01*
X940778Y427299D01*
X941618Y426951D01*
X942520Y426832D01*
X943421Y426951D01*
X944261Y427299D01*
X944982Y427852D01*
X945536Y428574D01*
X945884Y429414D01*
X946002Y430315D01*
X945884Y431216D01*
X945536Y432056D01*
X944982Y432778D01*
X944261Y433331D01*
X943421Y433679D01*
X942520Y433798D01*
D02*
G37*
G36*
X972520D02*
X971618Y433679D01*
X970778Y433331D01*
X970057Y432778D01*
X969504Y432056D01*
X969156Y431216D01*
X969037Y430315D01*
X969156Y429414D01*
X969504Y428574D01*
X970057Y427852D01*
X970778Y427299D01*
X971618Y426951D01*
X972520Y426832D01*
X973421Y426951D01*
X974261Y427299D01*
X974982Y427852D01*
X975536Y428574D01*
X975884Y429414D01*
X976002Y430315D01*
X975884Y431216D01*
X975536Y432056D01*
X974982Y432778D01*
X974261Y433331D01*
X973421Y433679D01*
X972520Y433798D01*
D02*
G37*
G36*
X962520D02*
X961618Y433679D01*
X960778Y433331D01*
X960057Y432778D01*
X959504Y432056D01*
X959156Y431216D01*
X959037Y430315D01*
X959156Y429414D01*
X959504Y428574D01*
X960057Y427852D01*
X960778Y427299D01*
X961618Y426951D01*
X962520Y426832D01*
X963421Y426951D01*
X964261Y427299D01*
X964982Y427852D01*
X965536Y428574D01*
X965884Y429414D01*
X966002Y430315D01*
X965884Y431216D01*
X965536Y432056D01*
X964982Y432778D01*
X964261Y433331D01*
X963421Y433679D01*
X962520Y433798D01*
D02*
G37*
G36*
X664854Y432374D02*
X661402D01*
Y429315D01*
X664854D01*
Y432374D01*
D02*
G37*
G36*
X822638Y440689D02*
X821685Y440563D01*
X820797Y440196D01*
X820035Y439611D01*
X819450Y438848D01*
X819082Y437961D01*
X818957Y437008D01*
X819082Y436055D01*
X819450Y435167D01*
X820035Y434405D01*
X820797Y433820D01*
X821685Y433452D01*
X822638Y433327D01*
X823590Y433452D01*
X824478Y433820D01*
X825241Y434405D01*
X825826Y435167D01*
X826194Y436055D01*
X826319Y437008D01*
X826194Y437961D01*
X825826Y438848D01*
X825241Y439611D01*
X824478Y440196D01*
X823590Y440563D01*
X822638Y440689D01*
D02*
G37*
G36*
X601560Y436508D02*
X597941D01*
Y432888D01*
X598524Y432965D01*
X599534Y433383D01*
X600400Y434048D01*
X601066Y434915D01*
X601484Y435925D01*
X601560Y436508D01*
D02*
G37*
G36*
X862008Y440689D02*
X861055Y440563D01*
X860167Y440196D01*
X859405Y439611D01*
X858820Y438848D01*
X858452Y437961D01*
X858327Y437008D01*
X858452Y436055D01*
X858820Y435167D01*
X859405Y434405D01*
X860167Y433820D01*
X861055Y433452D01*
X862008Y433327D01*
X862961Y433452D01*
X863848Y433820D01*
X864611Y434405D01*
X865196Y435167D01*
X865563Y436055D01*
X865689Y437008D01*
X865563Y437961D01*
X865196Y438848D01*
X864611Y439611D01*
X863848Y440196D01*
X862961Y440563D01*
X862008Y440689D01*
D02*
G37*
G36*
X832480D02*
X831528Y440563D01*
X830640Y440196D01*
X829877Y439611D01*
X829292Y438848D01*
X828925Y437961D01*
X828799Y437008D01*
X828925Y436055D01*
X829292Y435167D01*
X829877Y434405D01*
X830640Y433820D01*
X831528Y433452D01*
X832480Y433327D01*
X833433Y433452D01*
X834321Y433820D01*
X835083Y434405D01*
X835668Y435167D01*
X836036Y436055D01*
X836161Y437008D01*
X836036Y437961D01*
X835668Y438848D01*
X835083Y439611D01*
X834321Y440196D01*
X833433Y440563D01*
X832480Y440689D01*
D02*
G37*
G36*
X982020Y434236D02*
X981488Y434166D01*
X980526Y433768D01*
X979700Y433134D01*
X979067Y432308D01*
X978669Y431347D01*
X978599Y430815D01*
X982020D01*
Y434236D01*
D02*
G37*
G36*
X669307Y432374D02*
X665854D01*
Y429315D01*
X669307D01*
Y432374D01*
D02*
G37*
G36*
X596941Y436508D02*
X593321D01*
X593398Y435925D01*
X593816Y434915D01*
X594481Y434048D01*
X595348Y433383D01*
X596358Y432965D01*
X596941Y432888D01*
Y436508D01*
D02*
G37*
G36*
X983020Y434236D02*
Y430815D01*
X986441D01*
X986371Y431347D01*
X985972Y432308D01*
X985339Y433134D01*
X984513Y433768D01*
X983552Y434166D01*
X983020Y434236D01*
D02*
G37*
G36*
X932520Y433798D02*
X931618Y433679D01*
X930778Y433331D01*
X930057Y432778D01*
X929504Y432056D01*
X929156Y431216D01*
X929037Y430315D01*
X929156Y429414D01*
X929504Y428574D01*
X930057Y427852D01*
X930778Y427299D01*
X931618Y426951D01*
X932520Y426832D01*
X933421Y426951D01*
X934261Y427299D01*
X934982Y427852D01*
X935536Y428574D01*
X935884Y429414D01*
X936002Y430315D01*
X935884Y431216D01*
X935536Y432056D01*
X934982Y432778D01*
X934261Y433331D01*
X933421Y433679D01*
X932520Y433798D01*
D02*
G37*
G36*
X741732Y426665D02*
X737886D01*
Y424197D01*
X741732D01*
Y426665D01*
D02*
G37*
G36*
X736886D02*
X733039D01*
Y424197D01*
X736886D01*
Y426665D01*
D02*
G37*
G36*
X781102D02*
X777256D01*
Y424197D01*
X781102D01*
Y426665D01*
D02*
G37*
G36*
X776256D02*
X772409D01*
Y424197D01*
X776256D01*
Y426665D01*
D02*
G37*
G36*
X641157Y424697D02*
X638098D01*
Y421244D01*
X641157D01*
Y424697D01*
D02*
G37*
G36*
X637098D02*
X634039D01*
Y421244D01*
X637098D01*
Y424697D01*
D02*
G37*
G36*
X570866Y435966D02*
X569533Y435835D01*
X568252Y435446D01*
X567070Y434815D01*
X566035Y433965D01*
X565185Y432930D01*
X564554Y431748D01*
X564165Y430467D01*
X564034Y429134D01*
X564165Y427801D01*
X564554Y426519D01*
X565185Y425338D01*
X566035Y424303D01*
X567070Y423453D01*
X568252Y422822D01*
X569533Y422433D01*
X570866Y422302D01*
X572199Y422433D01*
X573481Y422822D01*
X574662Y423453D01*
X575697Y424303D01*
X576547Y425338D01*
X577178Y426519D01*
X577567Y427801D01*
X577698Y429134D01*
X577567Y430467D01*
X577178Y431748D01*
X576547Y432930D01*
X575697Y433965D01*
X574662Y434815D01*
X573481Y435446D01*
X572199Y435835D01*
X570866Y435966D01*
D02*
G37*
G36*
X633177Y428650D02*
X627059D01*
Y426595D01*
X626993Y426551D01*
X626578Y425930D01*
X626432Y425197D01*
X626578Y424464D01*
X626993Y423843D01*
X627059Y423799D01*
Y421744D01*
X633177D01*
Y428650D01*
D02*
G37*
G36*
X768035Y429634D02*
X760343D01*
Y424697D01*
X768035D01*
Y429634D01*
D02*
G37*
G36*
X902520Y433798D02*
X901618Y433679D01*
X900778Y433331D01*
X900057Y432778D01*
X899504Y432056D01*
X899156Y431216D01*
X899037Y430315D01*
X899156Y429414D01*
X899504Y428574D01*
X900057Y427852D01*
X900778Y427299D01*
X901618Y426951D01*
X902520Y426832D01*
X903421Y426951D01*
X904261Y427299D01*
X904982Y427852D01*
X905536Y428574D01*
X905884Y429414D01*
X906002Y430315D01*
X905884Y431216D01*
X905536Y432056D01*
X904982Y432778D01*
X904261Y433331D01*
X903421Y433679D01*
X902520Y433798D01*
D02*
G37*
G36*
X986441Y429815D02*
X983020D01*
Y426394D01*
X983552Y426464D01*
X984513Y426862D01*
X985339Y427496D01*
X985972Y428322D01*
X986371Y429283D01*
X986441Y429815D01*
D02*
G37*
G36*
X922520Y433798D02*
X921618Y433679D01*
X920778Y433331D01*
X920057Y432778D01*
X919504Y432056D01*
X919156Y431216D01*
X919037Y430315D01*
X919156Y429414D01*
X919504Y428574D01*
X920057Y427852D01*
X920778Y427299D01*
X921618Y426951D01*
X922520Y426832D01*
X923421Y426951D01*
X924261Y427299D01*
X924982Y427852D01*
X925536Y428574D01*
X925884Y429414D01*
X926002Y430315D01*
X925884Y431216D01*
X925536Y432056D01*
X924982Y432778D01*
X924261Y433331D01*
X923421Y433679D01*
X922520Y433798D01*
D02*
G37*
G36*
X912520D02*
X911618Y433679D01*
X910778Y433331D01*
X910057Y432778D01*
X909504Y432056D01*
X909156Y431216D01*
X909037Y430315D01*
X909156Y429414D01*
X909504Y428574D01*
X910057Y427852D01*
X910778Y427299D01*
X911618Y426951D01*
X912520Y426832D01*
X913421Y426951D01*
X914261Y427299D01*
X914982Y427852D01*
X915536Y428574D01*
X915884Y429414D01*
X916002Y430315D01*
X915884Y431216D01*
X915536Y432056D01*
X914982Y432778D01*
X914261Y433331D01*
X913421Y433679D01*
X912520Y433798D01*
D02*
G37*
G36*
X637098Y429150D02*
X634039D01*
Y425697D01*
X637098D01*
Y429150D01*
D02*
G37*
G36*
X807405Y429634D02*
X799713D01*
Y424697D01*
X807405D01*
Y429634D01*
D02*
G37*
G36*
X982020Y429815D02*
X978599D01*
X978669Y429283D01*
X979067Y428322D01*
X979700Y427496D01*
X980526Y426862D01*
X981488Y426464D01*
X982020Y426394D01*
Y429815D01*
D02*
G37*
G36*
X641157Y429150D02*
X638098D01*
Y425697D01*
X641157D01*
Y429150D01*
D02*
G37*
G36*
X566626Y456141D02*
X562376D01*
Y452091D01*
X566626D01*
Y456141D01*
D02*
G37*
G36*
X995579Y456996D02*
X988673D01*
Y450091D01*
X995579D01*
Y456996D01*
D02*
G37*
G36*
X664854Y455996D02*
X661402D01*
Y452937D01*
X664854D01*
Y455996D01*
D02*
G37*
G36*
X571876Y456141D02*
X567626D01*
Y452091D01*
X571876D01*
Y456141D01*
D02*
G37*
G36*
X982020Y444236D02*
X981488Y444166D01*
X980526Y443768D01*
X979700Y443134D01*
X979067Y442308D01*
X978669Y441347D01*
X978599Y440815D01*
X982020D01*
Y444236D01*
D02*
G37*
G36*
X780602Y444594D02*
X772909D01*
Y439657D01*
X780602D01*
Y441310D01*
X783719D01*
X784079Y440772D01*
X784700Y440357D01*
X785433Y440211D01*
X786166Y440357D01*
X786787Y440772D01*
X787202Y441393D01*
X787348Y442126D01*
X787202Y442859D01*
X786787Y443480D01*
X786166Y443895D01*
X785433Y444041D01*
X784700Y443895D01*
X784079Y443480D01*
X783719Y442942D01*
X780602D01*
Y444594D01*
D02*
G37*
G36*
X668807Y452075D02*
X661902D01*
Y449933D01*
X659645D01*
X659643Y449945D01*
X659228Y450566D01*
X658607Y450982D01*
X657874Y451127D01*
X657141Y450982D01*
X656520Y450566D01*
X656105Y449945D01*
X655959Y449213D01*
X656105Y448480D01*
X656520Y447859D01*
X657141Y447444D01*
X657874Y447298D01*
X658607Y447444D01*
X659228Y447859D01*
X659388Y448098D01*
X661902D01*
Y446861D01*
X660643Y445603D01*
X657390D01*
Y446563D01*
X651272D01*
Y442807D01*
X657390D01*
Y443767D01*
X661024D01*
X661375Y443837D01*
X661672Y444036D01*
X663593Y445957D01*
X668807D01*
Y452075D01*
D02*
G37*
G36*
X983020Y444236D02*
Y440815D01*
X986441D01*
X986371Y441347D01*
X985972Y442308D01*
X985339Y443134D01*
X984513Y443768D01*
X983552Y444166D01*
X983020Y444236D01*
D02*
G37*
G36*
X669307Y455996D02*
X665854D01*
Y452937D01*
X669307D01*
Y455996D01*
D02*
G37*
G36*
X844973Y461705D02*
X841913D01*
Y458252D01*
X844973D01*
Y461705D01*
D02*
G37*
G36*
X571876Y461191D02*
X567626D01*
Y457141D01*
X571876D01*
Y461191D01*
D02*
G37*
G36*
X884343Y461705D02*
X881283D01*
Y458252D01*
X884343D01*
Y461705D01*
D02*
G37*
G36*
X849032D02*
X845973D01*
Y458252D01*
X849032D01*
Y461705D01*
D02*
G37*
G36*
X664854Y460055D02*
X661402D01*
Y456996D01*
X664854D01*
Y460055D01*
D02*
G37*
G36*
X768020Y461524D02*
X761114D01*
Y455406D01*
X768020D01*
Y457069D01*
X768520Y457221D01*
X768725Y456914D01*
X769346Y456499D01*
X770079Y456353D01*
X770812Y456499D01*
X771433Y456914D01*
X771848Y457535D01*
X771993Y458268D01*
X771848Y459000D01*
X771433Y459622D01*
X770812Y460037D01*
X770079Y460182D01*
X769346Y460037D01*
X768725Y459622D01*
X768520Y459315D01*
X768020Y459466D01*
Y461524D01*
D02*
G37*
G36*
X566626Y461191D02*
X562376D01*
Y457141D01*
X566626D01*
Y461191D01*
D02*
G37*
G36*
X669307Y460055D02*
X665854D01*
Y456996D01*
X669307D01*
Y460055D01*
D02*
G37*
G36*
X807405Y444594D02*
X799713D01*
Y439657D01*
X807405D01*
Y444594D01*
D02*
G37*
G36*
X986441Y439815D02*
X983020D01*
Y436394D01*
X983552Y436464D01*
X984513Y436862D01*
X985339Y437496D01*
X985972Y438321D01*
X986371Y439283D01*
X986441Y439815D01*
D02*
G37*
G36*
X982020D02*
X978599D01*
X978669Y439283D01*
X979067Y438321D01*
X979700Y437496D01*
X980526Y436862D01*
X981488Y436464D01*
X982020Y436394D01*
Y439815D01*
D02*
G37*
G36*
X912520Y443797D02*
X911618Y443679D01*
X910778Y443331D01*
X910057Y442777D01*
X909504Y442056D01*
X909156Y441216D01*
X909037Y440315D01*
X909156Y439414D01*
X909504Y438574D01*
X910057Y437852D01*
X910778Y437299D01*
X911618Y436951D01*
X912520Y436832D01*
X913421Y436951D01*
X914261Y437299D01*
X914982Y437852D01*
X915536Y438574D01*
X915884Y439414D01*
X916002Y440315D01*
X915884Y441216D01*
X915536Y442056D01*
X914982Y442777D01*
X914261Y443331D01*
X913421Y443679D01*
X912520Y443797D01*
D02*
G37*
G36*
X902520D02*
X901618Y443679D01*
X900778Y443331D01*
X900057Y442777D01*
X899504Y442056D01*
X899156Y441216D01*
X899037Y440315D01*
X899156Y439414D01*
X899504Y438574D01*
X900057Y437852D01*
X900778Y437299D01*
X901618Y436951D01*
X902520Y436832D01*
X903421Y436951D01*
X904261Y437299D01*
X904982Y437852D01*
X905536Y438574D01*
X905884Y439414D01*
X906002Y440315D01*
X905884Y441216D01*
X905536Y442056D01*
X904982Y442777D01*
X904261Y443331D01*
X903421Y443679D01*
X902520Y443797D01*
D02*
G37*
G36*
X664854Y436433D02*
X661402D01*
Y433374D01*
X664854D01*
Y436433D01*
D02*
G37*
G36*
X871850Y440689D02*
X870898Y440563D01*
X870010Y440196D01*
X869248Y439611D01*
X868662Y438848D01*
X868295Y437961D01*
X868169Y437008D01*
X868295Y436055D01*
X868662Y435167D01*
X869248Y434405D01*
X870010Y433820D01*
X870898Y433452D01*
X871850Y433327D01*
X872803Y433452D01*
X873691Y433820D01*
X874453Y434405D01*
X875038Y435167D01*
X875406Y436055D01*
X875531Y437008D01*
X875406Y437961D01*
X875038Y438848D01*
X874453Y439611D01*
X873691Y440196D01*
X872803Y440563D01*
X871850Y440689D01*
D02*
G37*
G36*
X657390Y439083D02*
X651272D01*
Y435327D01*
X657390D01*
Y439083D01*
D02*
G37*
G36*
X669307Y436433D02*
X665854D01*
Y433374D01*
X669307D01*
Y436433D01*
D02*
G37*
G36*
X922520Y443797D02*
X921618Y443679D01*
X920778Y443331D01*
X920057Y442777D01*
X919504Y442056D01*
X919156Y441216D01*
X919037Y440315D01*
X919156Y439414D01*
X919504Y438574D01*
X920057Y437852D01*
X920778Y437299D01*
X921618Y436951D01*
X922520Y436832D01*
X923421Y436951D01*
X924261Y437299D01*
X924982Y437852D01*
X925536Y438574D01*
X925884Y439414D01*
X926002Y440315D01*
X925884Y441216D01*
X925536Y442056D01*
X924982Y442777D01*
X924261Y443331D01*
X923421Y443679D01*
X922520Y443797D01*
D02*
G37*
G36*
X597941Y441127D02*
Y437508D01*
X601560D01*
X601484Y438091D01*
X601066Y439101D01*
X600400Y439967D01*
X599534Y440632D01*
X598524Y441051D01*
X597941Y441127D01*
D02*
G37*
G36*
X596941Y441127D02*
X596358Y441051D01*
X595348Y440632D01*
X594481Y439967D01*
X593816Y439101D01*
X593398Y438091D01*
X593321Y437508D01*
X596941D01*
Y441127D01*
D02*
G37*
G36*
X768035Y444594D02*
X760343D01*
Y439657D01*
X768035D01*
Y444594D01*
D02*
G37*
G36*
X741232D02*
X733539D01*
Y439657D01*
X741232D01*
Y441310D01*
X742185D01*
X742325Y440606D01*
X742741Y439985D01*
X743362Y439570D01*
X744095Y439424D01*
X744827Y439570D01*
X745448Y439985D01*
X745863Y440606D01*
X746009Y441339D01*
X745863Y442071D01*
X745448Y442693D01*
X744827Y443108D01*
X744095Y443253D01*
X743362Y443108D01*
X743113Y442942D01*
X741232D01*
Y444594D01*
D02*
G37*
G36*
X942520Y443797D02*
X941618Y443679D01*
X940778Y443331D01*
X940057Y442777D01*
X939504Y442056D01*
X939156Y441216D01*
X939037Y440315D01*
X939156Y439414D01*
X939504Y438574D01*
X940057Y437852D01*
X940778Y437299D01*
X941618Y436951D01*
X942520Y436832D01*
X943421Y436951D01*
X944261Y437299D01*
X944982Y437852D01*
X945536Y438574D01*
X945884Y439414D01*
X946002Y440315D01*
X945884Y441216D01*
X945536Y442056D01*
X944982Y442777D01*
X944261Y443331D01*
X943421Y443679D01*
X942520Y443797D01*
D02*
G37*
G36*
X932520D02*
X931618Y443679D01*
X930778Y443331D01*
X930057Y442777D01*
X929504Y442056D01*
X929156Y441216D01*
X929037Y440315D01*
X929156Y439414D01*
X929504Y438574D01*
X930057Y437852D01*
X930778Y437299D01*
X931618Y436951D01*
X932520Y436832D01*
X933421Y436951D01*
X934261Y437299D01*
X934982Y437852D01*
X935536Y438574D01*
X935884Y439414D01*
X936002Y440315D01*
X935884Y441216D01*
X935536Y442056D01*
X934982Y442777D01*
X934261Y443331D01*
X933421Y443679D01*
X932520Y443797D01*
D02*
G37*
G36*
X962520D02*
X961618Y443679D01*
X960778Y443331D01*
X960057Y442777D01*
X959504Y442056D01*
X959156Y441216D01*
X959037Y440315D01*
X959156Y439414D01*
X959504Y438574D01*
X960057Y437852D01*
X960778Y437299D01*
X961618Y436951D01*
X962520Y436832D01*
X963421Y436951D01*
X964261Y437299D01*
X964982Y437852D01*
X965536Y438574D01*
X965884Y439414D01*
X966002Y440315D01*
X965884Y441216D01*
X965536Y442056D01*
X964982Y442777D01*
X964261Y443331D01*
X963421Y443679D01*
X962520Y443797D01*
D02*
G37*
G36*
X952520D02*
X951618Y443679D01*
X950778Y443331D01*
X950057Y442777D01*
X949504Y442056D01*
X949156Y441216D01*
X949037Y440315D01*
X949156Y439414D01*
X949504Y438574D01*
X950057Y437852D01*
X950778Y437299D01*
X951618Y436951D01*
X952520Y436832D01*
X953421Y436951D01*
X954261Y437299D01*
X954982Y437852D01*
X955536Y438574D01*
X955884Y439414D01*
X956002Y440315D01*
X955884Y441216D01*
X955536Y442056D01*
X954982Y442777D01*
X954261Y443331D01*
X953421Y443679D01*
X952520Y443797D01*
D02*
G37*
G36*
X626321Y495194D02*
X621121D01*
Y492994D01*
Y491757D01*
X620621D01*
Y490658D01*
X623721D01*
X626821D01*
Y491757D01*
X626321D01*
Y492994D01*
Y495194D01*
D02*
G37*
G36*
X571472Y560917D02*
X567429D01*
Y557268D01*
X571472D01*
Y560917D01*
D02*
G37*
G36*
X566429D02*
X562386D01*
Y557268D01*
X566429D01*
Y560917D01*
D02*
G37*
G36*
X733358Y562516D02*
X728921D01*
Y559555D01*
X733358D01*
Y562516D01*
D02*
G37*
G36*
X872598Y581593D02*
X871697Y581474D01*
X870857Y581126D01*
X870136Y580573D01*
X869582Y579851D01*
X869234Y579012D01*
X869116Y578110D01*
X869234Y577209D01*
X869582Y576369D01*
X870136Y575648D01*
X870857Y575094D01*
X871697Y574746D01*
X871783Y574735D01*
Y572936D01*
X857536Y558690D01*
X816873D01*
X808451Y567112D01*
X808186Y567289D01*
X807874Y567351D01*
X807874Y567351D01*
X791732D01*
X791732Y567351D01*
X791420Y567289D01*
X791155Y567112D01*
X791155Y567112D01*
X785686Y561642D01*
X766051D01*
Y563886D01*
X759146D01*
Y557768D01*
X766051D01*
Y560011D01*
X786024D01*
X786024Y560011D01*
X786336Y560073D01*
X786600Y560250D01*
X792070Y565720D01*
X807536D01*
X815959Y557297D01*
X815959Y557297D01*
X816223Y557120D01*
X816535Y557058D01*
X816535Y557058D01*
X857874D01*
X857874Y557058D01*
X858186Y557120D01*
X858451Y557297D01*
X873175Y572022D01*
X873175Y572022D01*
X873352Y572286D01*
X873414Y572598D01*
Y574735D01*
X873500Y574746D01*
X874340Y575094D01*
X875061Y575648D01*
X875614Y576369D01*
X875962Y577209D01*
X876081Y578110D01*
X875962Y579012D01*
X875614Y579851D01*
X875061Y580573D01*
X874340Y581126D01*
X873500Y581474D01*
X872598Y581593D01*
D02*
G37*
G36*
X962598D02*
X961697Y581474D01*
X960857Y581126D01*
X960136Y580573D01*
X959583Y579851D01*
X959235Y579012D01*
X959116Y578110D01*
X959235Y577209D01*
X959583Y576369D01*
X960136Y575648D01*
X960857Y575094D01*
X961697Y574746D01*
X961783Y574735D01*
Y555791D01*
X961321Y555600D01*
X953414Y563507D01*
Y574735D01*
X953500Y574746D01*
X954340Y575094D01*
X955061Y575648D01*
X955614Y576369D01*
X955962Y577209D01*
X956081Y578110D01*
X955962Y579012D01*
X955614Y579851D01*
X955061Y580573D01*
X954340Y581126D01*
X953500Y581474D01*
X952598Y581593D01*
X951697Y581474D01*
X950857Y581126D01*
X950136Y580573D01*
X949582Y579851D01*
X949234Y579012D01*
X949116Y578110D01*
X949234Y577209D01*
X949582Y576369D01*
X950136Y575648D01*
X950857Y575094D01*
X951697Y574746D01*
X951783Y574735D01*
Y563169D01*
X951783Y563169D01*
X951845Y562857D01*
X952022Y562592D01*
X965326Y549288D01*
Y546595D01*
X964788Y546236D01*
X964373Y545615D01*
X964227Y544882D01*
X964373Y544149D01*
X964788Y543528D01*
X965409Y543113D01*
X966142Y542967D01*
X966875Y543113D01*
X967496Y543528D01*
X967911Y544149D01*
X968056Y544882D01*
X967911Y545615D01*
X967496Y546236D01*
X966957Y546595D01*
Y548559D01*
X967419Y548750D01*
X969078Y547092D01*
X968951Y546457D01*
X969097Y545724D01*
X969512Y545103D01*
X970133Y544688D01*
X970866Y544542D01*
X971599Y544688D01*
X972220Y545103D01*
X972635Y545724D01*
X972781Y546457D01*
X972635Y547189D01*
X972220Y547811D01*
X971599Y548226D01*
X970866Y548371D01*
X970231Y548245D01*
X963414Y555062D01*
Y574735D01*
X963500Y574746D01*
X964340Y575094D01*
X965061Y575648D01*
X965614Y576369D01*
X965962Y577209D01*
X966081Y578110D01*
X965962Y579012D01*
X965614Y579851D01*
X965061Y580573D01*
X964340Y581126D01*
X963500Y581474D01*
X962598Y581593D01*
D02*
G37*
G36*
X800803Y556512D02*
X797350D01*
Y553453D01*
X800803D01*
Y556512D01*
D02*
G37*
G36*
X796350D02*
X792898D01*
Y553453D01*
X796350D01*
Y556512D01*
D02*
G37*
G36*
X738795Y558555D02*
X734358D01*
Y555594D01*
X738795D01*
Y558555D01*
D02*
G37*
G36*
X733358D02*
X728921D01*
Y555594D01*
X733358D01*
Y558555D01*
D02*
G37*
G36*
X713437Y570760D02*
X709420D01*
X709511Y570074D01*
X709969Y568969D01*
X710697Y568019D01*
X711646Y567291D01*
X712751Y566833D01*
X713437Y566743D01*
Y570760D01*
D02*
G37*
G36*
X764567Y575143D02*
X763834Y574997D01*
X763213Y574582D01*
X762798Y573961D01*
X762652Y573228D01*
X762779Y572593D01*
X762022Y571837D01*
X761845Y571572D01*
X761804Y571366D01*
X759146D01*
Y565248D01*
X766051D01*
Y571366D01*
X766051Y571366D01*
X766051D01*
X765908Y571866D01*
X765921Y571874D01*
X766336Y572496D01*
X766482Y573228D01*
X766336Y573961D01*
X765921Y574582D01*
X765300Y574997D01*
X764567Y575143D01*
D02*
G37*
G36*
X703937Y575338D02*
X702881Y575199D01*
X701898Y574792D01*
X701053Y574144D01*
X700405Y573299D01*
X699998Y572315D01*
X699859Y571260D01*
X699998Y570204D01*
X700405Y569221D01*
X701053Y568376D01*
X701898Y567728D01*
X702881Y567321D01*
X703937Y567182D01*
X704992Y567321D01*
X705976Y567728D01*
X706821Y568376D01*
X707469Y569221D01*
X707876Y570204D01*
X708015Y571260D01*
X707876Y572315D01*
X707469Y573299D01*
X706821Y574144D01*
X705976Y574792D01*
X704992Y575199D01*
X703937Y575338D01*
D02*
G37*
G36*
X718454Y570760D02*
X714437D01*
Y566743D01*
X715123Y566833D01*
X716228Y567291D01*
X717177Y568019D01*
X717906Y568969D01*
X718363Y570074D01*
X718454Y570760D01*
D02*
G37*
G36*
X817323Y581918D02*
X817323Y581918D01*
X765945D01*
X765633Y581856D01*
X765527Y581785D01*
X765368Y581679D01*
X765368Y581679D01*
X755741Y572052D01*
X755457Y572241D01*
X754724Y572387D01*
X753992Y572241D01*
X753371Y571826D01*
X753063Y571366D01*
X749697D01*
Y565248D01*
X756602D01*
Y570287D01*
X756639Y570472D01*
X756611Y570615D01*
X766283Y580287D01*
X816985D01*
X825837Y571434D01*
X825646Y570972D01*
X823516D01*
Y562098D01*
X840264D01*
Y570972D01*
X828606D01*
X817900Y581679D01*
X817635Y581856D01*
X817323Y581918D01*
D02*
G37*
G36*
X756602Y563886D02*
X749697D01*
Y561642D01*
X747154D01*
Y563886D01*
X740248D01*
Y557768D01*
X747154D01*
Y560011D01*
X749697D01*
Y557768D01*
X756602D01*
Y563886D01*
D02*
G37*
G36*
X738795Y562516D02*
X734358D01*
Y559555D01*
X738795D01*
Y562516D01*
D02*
G37*
G36*
X571472Y565567D02*
X567429D01*
Y561917D01*
X571472D01*
Y565567D01*
D02*
G37*
G36*
X566429D02*
X562386D01*
Y561917D01*
X566429D01*
Y565567D01*
D02*
G37*
G36*
X762492Y546669D02*
X759039D01*
Y543610D01*
X762492D01*
Y546669D01*
D02*
G37*
G36*
X722350Y546834D02*
Y543413D01*
X725771D01*
X725701Y543945D01*
X725303Y544907D01*
X724670Y545732D01*
X723844Y546366D01*
X722882Y546764D01*
X722350Y546834D01*
D02*
G37*
G36*
X942413Y550091D02*
X938961D01*
Y547031D01*
X942413D01*
Y550091D01*
D02*
G37*
G36*
X766945Y546669D02*
X763492D01*
Y543610D01*
X766945D01*
Y546669D01*
D02*
G37*
G36*
X679437Y546834D02*
Y543413D01*
X682858D01*
X682788Y543945D01*
X682390Y544907D01*
X681756Y545732D01*
X680930Y546366D01*
X679969Y546764D01*
X679437Y546834D01*
D02*
G37*
G36*
X572138Y544110D02*
X569669D01*
Y539673D01*
X572138D01*
Y544110D01*
D02*
G37*
G36*
X766945Y542610D02*
X763492D01*
Y539551D01*
X766945D01*
Y542610D01*
D02*
G37*
G36*
X575606Y544110D02*
X573138D01*
Y539673D01*
X575606D01*
Y544110D01*
D02*
G37*
G36*
X564976D02*
X562508D01*
Y539673D01*
X564976D01*
Y544110D01*
D02*
G37*
G36*
X946866Y554150D02*
X943413D01*
Y551090D01*
X946866D01*
Y554150D01*
D02*
G37*
G36*
X942413D02*
X938961D01*
Y551090D01*
X942413D01*
Y554150D01*
D02*
G37*
G36*
X957102D02*
X953650D01*
Y551090D01*
X957102D01*
Y554150D01*
D02*
G37*
G36*
X952650D02*
X949197D01*
Y551090D01*
X952650D01*
Y554150D01*
D02*
G37*
G36*
X800803Y552453D02*
X797350D01*
Y549394D01*
X800803D01*
Y552453D01*
D02*
G37*
G36*
X952650Y550091D02*
X949197D01*
Y547031D01*
X952650D01*
Y550091D01*
D02*
G37*
G36*
X946866D02*
X943413D01*
Y547031D01*
X946866D01*
Y550091D01*
D02*
G37*
G36*
X796350Y552453D02*
X792898D01*
Y549394D01*
X796350D01*
Y552453D01*
D02*
G37*
G36*
X957102Y550091D02*
X953650D01*
Y547031D01*
X957102D01*
Y550091D01*
D02*
G37*
G36*
X982677Y602702D02*
X981944Y602556D01*
X981323Y602141D01*
X980964Y601603D01*
X766281D01*
X765921Y602141D01*
X765300Y602556D01*
X764567Y602702D01*
X763834Y602556D01*
X763213Y602141D01*
X762853Y601603D01*
X625784D01*
X625536Y601769D01*
X624803Y601915D01*
X624070Y601769D01*
X623449Y601354D01*
X623034Y600733D01*
X622888Y600000D01*
X623034Y599267D01*
X623449Y598646D01*
X624070Y598231D01*
X624803Y598085D01*
X625536Y598231D01*
X626157Y598646D01*
X626572Y599267D01*
X626712Y599972D01*
X762853D01*
X763213Y599434D01*
X763834Y599018D01*
X764567Y598873D01*
X765300Y599018D01*
X765921Y599434D01*
X766281Y599972D01*
X812403D01*
X812555Y599472D01*
X812426Y599385D01*
X812010Y598764D01*
X811865Y598032D01*
X811991Y597397D01*
X811473Y596879D01*
X678740D01*
X678740Y596879D01*
X678428Y596817D01*
X678163Y596640D01*
X678163Y596640D01*
X657614Y576090D01*
X651862D01*
Y569185D01*
X658768D01*
Y574937D01*
X679078Y595247D01*
X683938D01*
X684145Y594747D01*
X664999Y575601D01*
X664930Y575654D01*
X664090Y576002D01*
X663189Y576120D01*
X662288Y576002D01*
X661448Y575654D01*
X660726Y575100D01*
X660173Y574379D01*
X659825Y573539D01*
X659706Y572638D01*
X659825Y571736D01*
X660173Y570896D01*
X660726Y570175D01*
X661448Y569622D01*
X662288Y569274D01*
X663189Y569155D01*
X664090Y569274D01*
X664930Y569622D01*
X665652Y570175D01*
X666205Y570896D01*
X666553Y571736D01*
X666672Y572638D01*
X666553Y573539D01*
X666205Y574379D01*
X666152Y574448D01*
X685377Y593673D01*
X820079D01*
X820079Y593673D01*
X820391Y593735D01*
X820656Y593911D01*
X822200Y595456D01*
X822835Y595329D01*
X823567Y595475D01*
X824189Y595890D01*
X824604Y596511D01*
X824749Y597244D01*
X824604Y597977D01*
X824189Y598598D01*
X823567Y599013D01*
X822835Y599159D01*
X822102Y599013D01*
X821481Y598598D01*
X821066Y597977D01*
X820920Y597244D01*
X821046Y596609D01*
X819741Y595304D01*
X812912D01*
X812705Y595804D01*
X813145Y596243D01*
X813780Y596117D01*
X814512Y596263D01*
X815133Y596678D01*
X815549Y597299D01*
X815694Y598032D01*
X815549Y598764D01*
X815133Y599385D01*
X815004Y599472D01*
X815156Y599972D01*
X980964D01*
X981323Y599434D01*
X981944Y599018D01*
X982677Y598873D01*
X983410Y599018D01*
X984031Y599434D01*
X984446Y600055D01*
X984592Y600787D01*
X984446Y601520D01*
X984031Y602141D01*
X983410Y602556D01*
X982677Y602702D01*
D02*
G37*
G36*
X576772Y602577D02*
X575870Y602458D01*
X575030Y602110D01*
X574309Y601557D01*
X573756Y600836D01*
X573408Y599996D01*
X573289Y599094D01*
X573408Y598193D01*
X573756Y597353D01*
X574309Y596632D01*
X575030Y596078D01*
X575870Y595731D01*
X576772Y595612D01*
X577673Y595731D01*
X578513Y596078D01*
X579234Y596632D01*
X579788Y597353D01*
X580135Y598193D01*
X580254Y599094D01*
X580135Y599996D01*
X579788Y600836D01*
X579234Y601557D01*
X578513Y602110D01*
X577673Y602458D01*
X576772Y602577D01*
D02*
G37*
G36*
X995382Y618217D02*
X988476D01*
Y611311D01*
X995382D01*
Y618217D01*
D02*
G37*
G36*
X657087Y611364D02*
X656354Y611218D01*
X655733Y610803D01*
X655318Y610182D01*
X655172Y609449D01*
X655318Y608716D01*
X655527Y608402D01*
X655260Y607902D01*
X651714D01*
X651354Y608440D01*
X650733Y608856D01*
X650000Y609001D01*
X649267Y608856D01*
X648646Y608440D01*
X648231Y607819D01*
X648085Y607087D01*
X648231Y606354D01*
X648646Y605733D01*
X649267Y605318D01*
X650000Y605172D01*
X650733Y605318D01*
X651354Y605733D01*
X651714Y606271D01*
X865554D01*
X865803Y606105D01*
X866535Y605959D01*
X867268Y606105D01*
X867889Y606520D01*
X868304Y607141D01*
X868450Y607874D01*
X868311Y608575D01*
X868342Y608668D01*
X868576Y609053D01*
X868934Y609077D01*
X868951Y609055D01*
X869097Y608322D01*
X869512Y607701D01*
X870133Y607286D01*
X870866Y607140D01*
X871599Y607286D01*
X872220Y607701D01*
X872635Y608322D01*
X872781Y609055D01*
X872635Y609788D01*
X872220Y610409D01*
X871599Y610824D01*
X870866Y610970D01*
X870133Y610824D01*
X870123Y610817D01*
X869869Y610868D01*
X869869Y610868D01*
X658343D01*
X657819Y611218D01*
X657087Y611364D01*
D02*
G37*
G36*
X914488Y587036D02*
X914488Y587036D01*
X761614D01*
X761614Y587036D01*
X761302Y586974D01*
X761037Y586797D01*
X745606Y571366D01*
X740248D01*
Y565248D01*
X747154D01*
Y570606D01*
X761952Y585405D01*
X914150D01*
X919635Y579920D01*
X919582Y579851D01*
X919234Y579012D01*
X919116Y578110D01*
X919234Y577209D01*
X919582Y576369D01*
X920136Y575648D01*
X920857Y575094D01*
X921697Y574746D01*
X922598Y574628D01*
X923500Y574746D01*
X924340Y575094D01*
X925061Y575648D01*
X925614Y576369D01*
X925962Y577209D01*
X926081Y578110D01*
X925962Y579012D01*
X925614Y579851D01*
X925061Y580573D01*
X924340Y581126D01*
X923500Y581474D01*
X922598Y581593D01*
X921697Y581474D01*
X920857Y581126D01*
X920789Y581074D01*
X915065Y586797D01*
X914800Y586974D01*
X914488Y587036D01*
D02*
G37*
G36*
X745276Y580655D02*
X744543Y580509D01*
X743922Y580094D01*
X743507Y579473D01*
X743361Y578740D01*
X743487Y578105D01*
X740213Y574831D01*
X738295D01*
Y576976D01*
X729421D01*
Y571055D01*
X738295D01*
Y573200D01*
X740551D01*
X740551Y573200D01*
X740863Y573262D01*
X741128Y573439D01*
X744641Y576952D01*
X745276Y576825D01*
X746008Y576971D01*
X746629Y577386D01*
X747045Y578007D01*
X747190Y578740D01*
X747045Y579473D01*
X746629Y580094D01*
X746008Y580509D01*
X745276Y580655D01*
D02*
G37*
G36*
X992598Y581593D02*
X991697Y581474D01*
X990857Y581126D01*
X990136Y580573D01*
X989583Y579851D01*
X989235Y579012D01*
X989116Y578110D01*
X989235Y577209D01*
X989526Y576506D01*
X986462Y573442D01*
X985827Y573568D01*
X985094Y573422D01*
X984473Y573007D01*
X984058Y572386D01*
X983912Y571654D01*
X984058Y570921D01*
X984473Y570300D01*
X985094Y569885D01*
X985827Y569739D01*
X986559Y569885D01*
X987181Y570300D01*
X987596Y570921D01*
X987741Y571654D01*
X987615Y572289D01*
X990610Y575284D01*
X990857Y575094D01*
X991697Y574746D01*
X992598Y574628D01*
X993500Y574746D01*
X994340Y575094D01*
X995061Y575648D01*
X995614Y576369D01*
X995962Y577209D01*
X996081Y578110D01*
X995962Y579012D01*
X995614Y579851D01*
X995061Y580573D01*
X994340Y581126D01*
X993500Y581474D01*
X992598Y581593D01*
D02*
G37*
G36*
X774476Y579121D02*
Y575303D01*
X778295D01*
X778211Y575938D01*
X777773Y576995D01*
X777076Y577903D01*
X776168Y578600D01*
X775111Y579038D01*
X774476Y579121D01*
D02*
G37*
G36*
X773476D02*
X772842Y579038D01*
X771784Y578600D01*
X770877Y577903D01*
X770180Y576995D01*
X769742Y575938D01*
X769658Y575303D01*
X773476D01*
Y579121D01*
D02*
G37*
G36*
X991929Y628246D02*
X991028Y628128D01*
X990188Y627780D01*
X989467Y627226D01*
X988913Y626505D01*
X988565Y625665D01*
X988447Y624764D01*
X988565Y623862D01*
X988913Y623023D01*
X989467Y622301D01*
X990188Y621748D01*
X991028Y621400D01*
X991929Y621281D01*
X992830Y621400D01*
X993670Y621748D01*
X994392Y622301D01*
X994945Y623023D01*
X995293Y623862D01*
X995412Y624764D01*
X995293Y625665D01*
X994945Y626505D01*
X994392Y627226D01*
X993670Y627780D01*
X992830Y628128D01*
X991929Y628246D01*
D02*
G37*
G36*
X974909Y624011D02*
Y618610D01*
X980310D01*
X980245Y619271D01*
X979906Y620387D01*
X979357Y621416D01*
X978617Y622318D01*
X977715Y623057D01*
X976686Y623607D01*
X975570Y623946D01*
X974909Y624011D01*
D02*
G37*
G36*
X570866Y648564D02*
X569533Y648433D01*
X568252Y648044D01*
X567070Y647413D01*
X566035Y646563D01*
X565185Y645528D01*
X564554Y644347D01*
X564165Y643065D01*
X564034Y641732D01*
X564165Y640399D01*
X564554Y639118D01*
X565185Y637937D01*
X566035Y636901D01*
X567070Y636052D01*
X568252Y635420D01*
X569533Y635032D01*
X570866Y634900D01*
X572199Y635032D01*
X573481Y635420D01*
X574662Y636052D01*
X575697Y636901D01*
X576547Y637937D01*
X577178Y639118D01*
X577567Y640399D01*
X577698Y641732D01*
X577567Y643065D01*
X577178Y644347D01*
X576547Y645528D01*
X575697Y646563D01*
X574662Y647413D01*
X573481Y648044D01*
X572199Y648433D01*
X570866Y648564D01*
D02*
G37*
G36*
X861024Y631651D02*
X570079D01*
X569116Y631459D01*
X568299Y630913D01*
X565149Y627764D01*
X564604Y626947D01*
X564412Y625984D01*
Y618937D01*
X564604Y617974D01*
X565149Y617157D01*
X573301Y609006D01*
X573408Y608193D01*
X573756Y607353D01*
X574309Y606632D01*
X575030Y606078D01*
X575870Y605731D01*
X576772Y605612D01*
X577673Y605731D01*
X578513Y606078D01*
X579234Y606632D01*
X579788Y607353D01*
X580135Y608193D01*
X580254Y609094D01*
X580135Y609996D01*
X579788Y610836D01*
X579234Y611557D01*
X578513Y612111D01*
X577673Y612458D01*
X576860Y612565D01*
X574246Y615180D01*
X574437Y615642D01*
X580224D01*
Y621249D01*
X581989Y623014D01*
X593120D01*
X593290Y622514D01*
X592590Y621977D01*
X591721Y620844D01*
X591175Y619525D01*
X590989Y618110D01*
X591175Y616695D01*
X591721Y615376D01*
X592590Y614244D01*
X593723Y613375D01*
X595042Y612828D01*
X596457Y612642D01*
X597872Y612828D01*
X599191Y613375D01*
X600323Y614244D01*
X601192Y615376D01*
X601738Y616695D01*
X601925Y618110D01*
X601738Y619525D01*
X601192Y620844D01*
X600323Y621977D01*
X599623Y622514D01*
X599793Y623014D01*
X641907D01*
X641932Y622889D01*
X642347Y622268D01*
X642968Y621853D01*
X643701Y621707D01*
X644433Y621853D01*
X645055Y622268D01*
X645470Y622889D01*
X645615Y623622D01*
X645470Y624355D01*
X645055Y624976D01*
X644433Y625391D01*
X643701Y625537D01*
X642968Y625391D01*
X642347Y624976D01*
X642262Y624849D01*
X581609D01*
X581257Y624779D01*
X580960Y624580D01*
X578927Y622547D01*
X573319D01*
Y616760D01*
X572857Y616569D01*
X569446Y619979D01*
Y624942D01*
X571121Y626617D01*
X861024D01*
X861987Y626809D01*
X862803Y627354D01*
X863349Y628171D01*
X863540Y629134D01*
X863349Y630097D01*
X862803Y630913D01*
X861987Y631459D01*
X861024Y631651D01*
D02*
G37*
G36*
X973909Y624011D02*
X973249Y623946D01*
X972132Y623607D01*
X971104Y623057D01*
X970202Y622318D01*
X969462Y621416D01*
X968912Y620387D01*
X968574Y619271D01*
X968509Y618610D01*
X973909D01*
Y624011D01*
D02*
G37*
G36*
X980310Y617610D02*
X974909D01*
Y612210D01*
X975570Y612275D01*
X976686Y612613D01*
X977715Y613163D01*
X978617Y613903D01*
X979357Y614805D01*
X979906Y615833D01*
X980245Y616950D01*
X980310Y617610D01*
D02*
G37*
G36*
X973909D02*
X968509D01*
X968574Y616950D01*
X968912Y615833D01*
X969462Y614805D01*
X970202Y613903D01*
X971104Y613163D01*
X972132Y612613D01*
X973249Y612275D01*
X973909Y612210D01*
Y617610D01*
D02*
G37*
G36*
X797244Y623578D02*
X795829Y623392D01*
X794510Y622846D01*
X793378Y621977D01*
X792509Y620844D01*
X791962Y619525D01*
X791776Y618110D01*
X791962Y616695D01*
X792509Y615376D01*
X793378Y614244D01*
X794510Y613375D01*
X795829Y612828D01*
X797244Y612642D01*
X798659Y612828D01*
X799978Y613375D01*
X801111Y614244D01*
X801980Y615376D01*
X802526Y616695D01*
X802712Y618110D01*
X802526Y619525D01*
X801980Y620844D01*
X801111Y621977D01*
X799978Y622846D01*
X798659Y623392D01*
X797244Y623578D01*
D02*
G37*
G36*
X773622D02*
X772207Y623392D01*
X770888Y622846D01*
X769756Y621977D01*
X768887Y620844D01*
X768340Y619525D01*
X768154Y618110D01*
X768340Y616695D01*
X768887Y615376D01*
X769756Y614244D01*
X770888Y613375D01*
X772207Y612828D01*
X773622Y612642D01*
X775037Y612828D01*
X776356Y613375D01*
X777489Y614244D01*
X778358Y615376D01*
X778904Y616695D01*
X779090Y618110D01*
X778904Y619525D01*
X778358Y620844D01*
X777489Y621977D01*
X776356Y622846D01*
X775037Y623392D01*
X773622Y623578D01*
D02*
G37*
G36*
X803976Y578683D02*
X802972Y578551D01*
X802037Y578163D01*
X801233Y577547D01*
X800616Y576743D01*
X800229Y575807D01*
X800097Y574803D01*
X800229Y573799D01*
X800616Y572863D01*
X801233Y572060D01*
X802037Y571443D01*
X802972Y571056D01*
X803976Y570924D01*
X804980Y571056D01*
X805916Y571443D01*
X806720Y572060D01*
X807336Y572863D01*
X807724Y573799D01*
X807856Y574803D01*
X807724Y575807D01*
X807336Y576743D01*
X806720Y577547D01*
X805916Y578163D01*
X804980Y578551D01*
X803976Y578683D01*
D02*
G37*
G36*
X793976D02*
X792972Y578551D01*
X792037Y578163D01*
X791233Y577547D01*
X790617Y576743D01*
X790229Y575807D01*
X790097Y574803D01*
X790229Y573799D01*
X790617Y572863D01*
X791233Y572060D01*
X792037Y571443D01*
X792972Y571056D01*
X793976Y570924D01*
X794980Y571056D01*
X795916Y571443D01*
X796720Y572060D01*
X797336Y572863D01*
X797724Y573799D01*
X797856Y574803D01*
X797724Y575807D01*
X797336Y576743D01*
X796720Y577547D01*
X795916Y578163D01*
X794980Y578551D01*
X793976Y578683D01*
D02*
G37*
G36*
X714437Y575776D02*
Y571760D01*
X718454D01*
X718363Y572446D01*
X717906Y573551D01*
X717177Y574500D01*
X716228Y575228D01*
X715123Y575686D01*
X714437Y575776D01*
D02*
G37*
G36*
X713437D02*
X712751Y575686D01*
X711646Y575228D01*
X710697Y574500D01*
X709969Y573551D01*
X709511Y572446D01*
X709420Y571760D01*
X713437D01*
Y575776D01*
D02*
G37*
G36*
X783976Y578683D02*
X782972Y578551D01*
X782037Y578163D01*
X781233Y577547D01*
X780617Y576743D01*
X780229Y575807D01*
X780097Y574803D01*
X780229Y573799D01*
X780617Y572863D01*
X781233Y572060D01*
X782037Y571443D01*
X782972Y571056D01*
X783976Y570924D01*
X784980Y571056D01*
X785916Y571443D01*
X786720Y572060D01*
X787336Y572863D01*
X787724Y573799D01*
X787856Y574803D01*
X787724Y575807D01*
X787336Y576743D01*
X786720Y577547D01*
X785916Y578163D01*
X784980Y578551D01*
X783976Y578683D01*
D02*
G37*
G36*
X682858Y572138D02*
X679437D01*
Y568717D01*
X679969Y568787D01*
X680930Y569185D01*
X681756Y569819D01*
X682390Y570644D01*
X682788Y571606D01*
X682858Y572138D01*
D02*
G37*
G36*
X570972Y576090D02*
X562886D01*
Y568791D01*
X570972D01*
Y571625D01*
X575287D01*
Y567610D01*
X582193D01*
Y573728D01*
X575287D01*
Y573257D01*
X570972D01*
Y576090D01*
D02*
G37*
G36*
X778295Y574303D02*
X774476D01*
Y570485D01*
X775111Y570569D01*
X776168Y571006D01*
X777076Y571703D01*
X777773Y572611D01*
X778211Y573668D01*
X778295Y574303D01*
D02*
G37*
G36*
X773476D02*
X769658D01*
X769742Y573668D01*
X770180Y572611D01*
X770877Y571703D01*
X771784Y571006D01*
X772842Y570569D01*
X773476Y570485D01*
Y574303D01*
D02*
G37*
G36*
X942598Y581593D02*
X941697Y581474D01*
X940857Y581126D01*
X940136Y580573D01*
X939583Y579851D01*
X939235Y579012D01*
X939116Y578110D01*
X939235Y577209D01*
X939583Y576369D01*
X940136Y575648D01*
X940857Y575094D01*
X941697Y574746D01*
X942598Y574628D01*
X943500Y574746D01*
X944340Y575094D01*
X945061Y575648D01*
X945614Y576369D01*
X945962Y577209D01*
X946081Y578110D01*
X945962Y579012D01*
X945614Y579851D01*
X945061Y580573D01*
X944340Y581126D01*
X943500Y581474D01*
X942598Y581593D01*
D02*
G37*
G36*
X932598D02*
X931697Y581474D01*
X930857Y581126D01*
X930136Y580573D01*
X929583Y579851D01*
X929235Y579012D01*
X929116Y578110D01*
X929235Y577209D01*
X929583Y576369D01*
X930136Y575648D01*
X930857Y575094D01*
X931697Y574746D01*
X932598Y574628D01*
X933500Y574746D01*
X934340Y575094D01*
X935061Y575648D01*
X935614Y576369D01*
X935962Y577209D01*
X936081Y578110D01*
X935962Y579012D01*
X935614Y579851D01*
X935061Y580573D01*
X934340Y581126D01*
X933500Y581474D01*
X932598Y581593D01*
D02*
G37*
G36*
X982598D02*
X981697Y581474D01*
X980857Y581126D01*
X980136Y580573D01*
X979583Y579851D01*
X979235Y579012D01*
X979116Y578110D01*
X979235Y577209D01*
X979583Y576369D01*
X980136Y575648D01*
X980857Y575094D01*
X981697Y574746D01*
X982598Y574628D01*
X983500Y574746D01*
X984340Y575094D01*
X985061Y575648D01*
X985614Y576369D01*
X985962Y577209D01*
X986081Y578110D01*
X985962Y579012D01*
X985614Y579851D01*
X985061Y580573D01*
X984340Y581126D01*
X983500Y581474D01*
X982598Y581593D01*
D02*
G37*
G36*
X972598D02*
X971697Y581474D01*
X970857Y581126D01*
X970136Y580573D01*
X969582Y579851D01*
X969234Y579012D01*
X969116Y578110D01*
X969234Y577209D01*
X969582Y576369D01*
X970136Y575648D01*
X970857Y575094D01*
X971697Y574746D01*
X972598Y574628D01*
X973500Y574746D01*
X974340Y575094D01*
X975061Y575648D01*
X975614Y576369D01*
X975962Y577209D01*
X976081Y578110D01*
X975962Y579012D01*
X975614Y579851D01*
X975061Y580573D01*
X974340Y581126D01*
X973500Y581474D01*
X972598Y581593D01*
D02*
G37*
G36*
X892598D02*
X891697Y581474D01*
X890857Y581126D01*
X890136Y580573D01*
X889583Y579851D01*
X889235Y579012D01*
X889116Y578110D01*
X889235Y577209D01*
X889583Y576369D01*
X890136Y575648D01*
X890857Y575094D01*
X891697Y574746D01*
X892598Y574628D01*
X893500Y574746D01*
X894340Y575094D01*
X895061Y575648D01*
X895614Y576369D01*
X895962Y577209D01*
X896081Y578110D01*
X895962Y579012D01*
X895614Y579851D01*
X895061Y580573D01*
X894340Y581126D01*
X893500Y581474D01*
X892598Y581593D01*
D02*
G37*
G36*
X679437Y576559D02*
Y573138D01*
X682858D01*
X682788Y573670D01*
X682390Y574631D01*
X681756Y575457D01*
X680930Y576090D01*
X679969Y576489D01*
X679437Y576559D01*
D02*
G37*
G36*
X678437Y576559D02*
X677905Y576489D01*
X676944Y576090D01*
X676118Y575457D01*
X675484Y574631D01*
X675086Y573670D01*
X675000Y573016D01*
X674496D01*
X674427Y573539D01*
X674079Y574379D01*
X673525Y575100D01*
X672804Y575654D01*
X671964Y576002D01*
X671063Y576120D01*
X670162Y576002D01*
X669322Y575654D01*
X668601Y575100D01*
X668047Y574379D01*
X667699Y573539D01*
X667581Y572638D01*
X667699Y571736D01*
X668047Y570896D01*
X668601Y570175D01*
X669322Y569622D01*
X670162Y569274D01*
X671063Y569155D01*
X671964Y569274D01*
X672804Y569622D01*
X673525Y570175D01*
X674079Y570896D01*
X674427Y571736D01*
X674496Y572259D01*
X675000D01*
X675086Y571606D01*
X675484Y570644D01*
X676118Y569819D01*
X676944Y569185D01*
X677905Y568787D01*
X678437Y568717D01*
Y572638D01*
Y576559D01*
D02*
G37*
G36*
X882598Y581593D02*
X881697Y581474D01*
X880857Y581126D01*
X880136Y580573D01*
X879583Y579851D01*
X879235Y579012D01*
X879116Y578110D01*
X879235Y577209D01*
X879583Y576369D01*
X880136Y575648D01*
X880857Y575094D01*
X881697Y574746D01*
X882598Y574628D01*
X883500Y574746D01*
X884340Y575094D01*
X885061Y575648D01*
X885614Y576369D01*
X885962Y577209D01*
X886081Y578110D01*
X885962Y579012D01*
X885614Y579851D01*
X885061Y580573D01*
X884340Y581126D01*
X883500Y581474D01*
X882598Y581593D01*
D02*
G37*
G36*
X862598D02*
X861697Y581474D01*
X860857Y581126D01*
X860136Y580573D01*
X859583Y579851D01*
X859235Y579012D01*
X859116Y578110D01*
X859235Y577209D01*
X859583Y576369D01*
X860136Y575648D01*
X860857Y575094D01*
X861697Y574746D01*
X862598Y574628D01*
X863500Y574746D01*
X864340Y575094D01*
X865061Y575648D01*
X865614Y576369D01*
X865962Y577209D01*
X866081Y578110D01*
X865962Y579012D01*
X865614Y579851D01*
X865061Y580573D01*
X864340Y581126D01*
X863500Y581474D01*
X862598Y581593D01*
D02*
G37*
G36*
X762492Y542610D02*
X759039D01*
Y539551D01*
X762492D01*
Y542610D01*
D02*
G37*
G36*
X575606Y507571D02*
X573138D01*
Y503134D01*
X575606D01*
Y507571D01*
D02*
G37*
G36*
X572138D02*
X569669D01*
Y503134D01*
X572138D01*
Y507571D01*
D02*
G37*
G36*
X606118Y495563D02*
X603059D01*
Y492110D01*
X606118D01*
Y495563D01*
D02*
G37*
G36*
X702706Y497138D02*
X698689D01*
Y493121D01*
X699375Y493211D01*
X700480Y493669D01*
X701429Y494397D01*
X702157Y495346D01*
X702615Y496452D01*
X702706Y497138D01*
D02*
G37*
G36*
X945972Y500106D02*
X939067D01*
Y493988D01*
X945972D01*
Y500106D01*
D02*
G37*
G36*
X659555Y519791D02*
X652256D01*
Y511705D01*
X655090D01*
Y507980D01*
X652256D01*
Y499894D01*
X659555D01*
Y507980D01*
X656721D01*
Y511705D01*
X659555D01*
Y519791D01*
D02*
G37*
G36*
X564976Y507571D02*
X562508D01*
Y503134D01*
X564976D01*
Y507571D01*
D02*
G37*
G36*
X804043Y502705D02*
Y498228D01*
Y493751D01*
X804202Y493783D01*
X804528Y494000D01*
X804853Y493783D01*
X805012Y493751D01*
Y498228D01*
Y502705D01*
X804853Y502674D01*
X804528Y502456D01*
X804202Y502674D01*
X804043Y502705D01*
D02*
G37*
G36*
X564976Y513008D02*
X562508D01*
Y508571D01*
X564976D01*
Y513008D01*
D02*
G37*
G36*
X572138D02*
X569669D01*
Y508571D01*
X572138D01*
Y513008D01*
D02*
G37*
G36*
X586524Y516839D02*
X573713D01*
Y513008D01*
X573138D01*
Y508571D01*
X575606D01*
Y512689D01*
X586524D01*
Y516839D01*
D02*
G37*
G36*
X602059Y495563D02*
X599000D01*
Y492110D01*
X602059D01*
Y495563D01*
D02*
G37*
G36*
X870185Y506677D02*
Y503256D01*
X873606D01*
X873536Y503788D01*
X873138Y504749D01*
X872504Y505575D01*
X871679Y506209D01*
X870717Y506607D01*
X870185Y506677D01*
D02*
G37*
G36*
X869185Y506677D02*
X868653Y506607D01*
X867692Y506209D01*
X866866Y505575D01*
X866232Y504749D01*
X865834Y503788D01*
X865764Y503256D01*
X869185D01*
Y506677D01*
D02*
G37*
G36*
X633177Y515264D02*
X627059D01*
Y508358D01*
X629302D01*
Y507283D01*
X629302Y507283D01*
X629322Y507184D01*
X629059Y506981D01*
X628866Y506914D01*
X628659Y507053D01*
X628346Y507115D01*
X628346Y507115D01*
X607031D01*
X605618Y508528D01*
Y515264D01*
X599500D01*
Y508358D01*
X603480D01*
X606116Y505722D01*
X606381Y505546D01*
X606693Y505483D01*
X606693Y505483D01*
X628009D01*
X631074Y502418D01*
Y500926D01*
X626853D01*
X626853Y500926D01*
Y500926D01*
X626385Y501048D01*
X626028Y501404D01*
X626178Y501629D01*
X626324Y502362D01*
X626178Y503095D01*
X625763Y503716D01*
X625142Y504131D01*
X624409Y504277D01*
X623677Y504131D01*
X623056Y503716D01*
X622641Y503095D01*
X622495Y502362D01*
X622641Y501629D01*
X623056Y501008D01*
X623677Y500593D01*
X624409Y500448D01*
X624634Y500492D01*
X626853Y498273D01*
Y495726D01*
X640864D01*
Y500926D01*
X634674D01*
Y503543D01*
X634612Y503856D01*
X634435Y504120D01*
X634435Y504120D01*
X630934Y507621D01*
Y508358D01*
X633177D01*
Y515264D01*
D02*
G37*
G36*
X991626Y507464D02*
X991094Y507394D01*
X990133Y506996D01*
X989307Y506362D01*
X988673Y505537D01*
X988275Y504575D01*
X988205Y504043D01*
X991626D01*
Y507464D01*
D02*
G37*
G36*
Y503043D02*
X988205D01*
X988275Y502511D01*
X988673Y501550D01*
X989307Y500724D01*
X990133Y500091D01*
X991094Y499692D01*
X991626Y499622D01*
Y503043D01*
D02*
G37*
G36*
X837008Y507427D02*
X836275Y507281D01*
X835654Y506866D01*
X835239Y506245D01*
X835093Y505512D01*
X835239Y504779D01*
X835654Y504158D01*
X835713Y504119D01*
Y503181D01*
X835539Y503038D01*
Y498228D01*
Y493751D01*
X835698Y493783D01*
X836257Y494156D01*
X836391Y494356D01*
X836544Y494254D01*
X837008Y494162D01*
X837472Y494254D01*
X837625Y494356D01*
X837992Y494476D01*
X838359Y494356D01*
X838513Y494254D01*
X838976Y494162D01*
X839440Y494254D01*
X839834Y494517D01*
X840096Y494910D01*
X840189Y495374D01*
Y501083D01*
X840096Y501547D01*
X839834Y501940D01*
X839440Y502203D01*
X838976Y502295D01*
X838513Y502203D01*
X838359Y502100D01*
X837992Y501981D01*
X837625Y502100D01*
X837472Y502203D01*
X837344Y502228D01*
Y503664D01*
X837741Y503743D01*
X838362Y504158D01*
X838777Y504779D01*
X838923Y505512D01*
X838777Y506245D01*
X838362Y506866D01*
X837741Y507281D01*
X837008Y507427D01*
D02*
G37*
G36*
X806012Y502705D02*
Y498228D01*
Y493751D01*
X806171Y493783D01*
X806730Y494156D01*
X806863Y494356D01*
X807016Y494254D01*
X807480Y494162D01*
X807944Y494254D01*
X808337Y494517D01*
X808600Y494910D01*
X808693Y495374D01*
Y501083D01*
X808600Y501547D01*
X808337Y501940D01*
X807944Y502203D01*
X807480Y502295D01*
X807016Y502203D01*
X806863Y502100D01*
X806730Y502300D01*
X806171Y502674D01*
X806012Y502705D01*
D02*
G37*
G36*
X913992Y498441D02*
X910933D01*
Y494988D01*
X913992D01*
Y498441D01*
D02*
G37*
G36*
X909933D02*
X906874D01*
Y494988D01*
X909933D01*
Y498441D01*
D02*
G37*
G36*
X969594Y500106D02*
X962689D01*
Y493988D01*
X969594D01*
Y500106D01*
D02*
G37*
G36*
X957784D02*
X950878D01*
Y493988D01*
X957784D01*
Y500106D01*
D02*
G37*
G36*
X991626Y497464D02*
X991094Y497394D01*
X990133Y496996D01*
X989307Y496362D01*
X988673Y495537D01*
X988275Y494575D01*
X988205Y494043D01*
X991626D01*
Y497464D01*
D02*
G37*
G36*
X976378Y500537D02*
X975645Y500391D01*
X975219Y500106D01*
X974500D01*
Y498807D01*
X974463Y498622D01*
X974500Y498437D01*
Y493988D01*
X981406D01*
Y500106D01*
X977537D01*
X977111Y500391D01*
X976378Y500537D01*
D02*
G37*
G36*
X606118Y500016D02*
X603059D01*
Y496563D01*
X606118D01*
Y500016D01*
D02*
G37*
G36*
X602059D02*
X599000D01*
Y496563D01*
X602059D01*
Y500016D01*
D02*
G37*
G36*
X698689Y502154D02*
Y498138D01*
X702706D01*
X702615Y498824D01*
X702157Y499929D01*
X701429Y500878D01*
X700480Y501606D01*
X699375Y502064D01*
X698689Y502154D01*
D02*
G37*
G36*
X697689D02*
X697003Y502064D01*
X695898Y501606D01*
X694949Y500878D01*
X694220Y499929D01*
X693763Y498824D01*
X693672Y498138D01*
X697689D01*
Y502154D01*
D02*
G37*
G36*
X727165Y519446D02*
X726202Y519254D01*
X725386Y518709D01*
X721449Y514772D01*
X720903Y513955D01*
X720712Y512992D01*
Y510736D01*
X712886D01*
Y508422D01*
X676772D01*
X675808Y508231D01*
X674992Y507685D01*
X674446Y506869D01*
X674255Y505905D01*
X674446Y504942D01*
X674992Y504126D01*
X675808Y503580D01*
X676772Y503389D01*
X712886D01*
Y488476D01*
X733571D01*
Y497089D01*
X742413D01*
Y495366D01*
X748531D01*
Y502272D01*
X742413D01*
Y502123D01*
X733571D01*
Y510736D01*
X725745D01*
Y511950D01*
X728945Y515149D01*
X729491Y515966D01*
X729682Y516929D01*
X729491Y517892D01*
X728945Y518709D01*
X728128Y519254D01*
X727165Y519446D01*
D02*
G37*
G36*
X613098Y499516D02*
X606980D01*
Y492610D01*
X613098D01*
Y494972D01*
X613418Y495036D01*
X613778Y495277D01*
X613888Y495386D01*
X614173Y495329D01*
X614906Y495475D01*
X615527Y495890D01*
X615942Y496511D01*
X616088Y497244D01*
X615942Y497977D01*
X615527Y498598D01*
X614906Y499013D01*
X614173Y499159D01*
X613598Y499045D01*
X613098Y499340D01*
Y499516D01*
D02*
G37*
G36*
X857587Y504437D02*
X843988D01*
Y496350D01*
X857587D01*
Y504437D01*
D02*
G37*
G36*
X826091D02*
X812492D01*
Y496350D01*
X826091D01*
Y504437D01*
D02*
G37*
G36*
X670579Y519791D02*
X663279D01*
Y511705D01*
X670579D01*
Y519791D01*
D02*
G37*
G36*
X567323Y531643D02*
X566513Y531482D01*
X565827Y531023D01*
X565368Y530337D01*
X565207Y529528D01*
X565368Y528718D01*
X565827Y528032D01*
X566513Y527573D01*
X567323Y527412D01*
X568132Y527573D01*
X568819Y528032D01*
X569277Y528718D01*
X569438Y529528D01*
X569277Y530337D01*
X568819Y531023D01*
X568132Y531482D01*
X567323Y531643D01*
D02*
G37*
G36*
X701681Y546366D02*
X694776D01*
Y539461D01*
X697413D01*
Y537543D01*
X687064Y527194D01*
X633858D01*
X633858Y527194D01*
X633546Y527132D01*
X633282Y526955D01*
X618954Y512627D01*
X613098D01*
Y515264D01*
X606980D01*
Y508358D01*
X613098D01*
Y510995D01*
X619291D01*
X619291Y510995D01*
X619603Y511057D01*
X619868Y511234D01*
X634196Y525562D01*
X687401D01*
X687402Y525562D01*
X687714Y525624D01*
X687978Y525801D01*
X698805Y536628D01*
X698805Y536628D01*
X698982Y536893D01*
X699044Y537205D01*
Y539461D01*
X701681D01*
Y546366D01*
D02*
G37*
G36*
X575606Y538673D02*
X573138D01*
Y534236D01*
X573713D01*
Y530406D01*
X586524D01*
Y534555D01*
X581868D01*
X581441Y534840D01*
X580709Y534986D01*
X579976Y534840D01*
X579550Y534555D01*
X575606D01*
Y538673D01*
D02*
G37*
G36*
X778536Y530996D02*
X775545D01*
X775569Y530875D01*
X775920Y530349D01*
X776446Y529998D01*
X777067Y529874D01*
X778536D01*
Y530996D01*
D02*
G37*
G36*
X992098Y522031D02*
X991566Y521961D01*
X990605Y521563D01*
X989779Y520929D01*
X989146Y520104D01*
X988747Y519142D01*
X988677Y518610D01*
X992098D01*
Y522031D01*
D02*
G37*
G36*
X866551Y522063D02*
X863098D01*
Y518610D01*
X866551D01*
Y522063D01*
D02*
G37*
G36*
X840764Y524228D02*
X832390D01*
Y519791D01*
X840764D01*
Y524228D01*
D02*
G37*
G36*
X831390D02*
X823016D01*
Y519791D01*
X831390D01*
Y524228D01*
D02*
G37*
G36*
X725771Y542413D02*
X722350D01*
Y538992D01*
X722882Y539062D01*
X723844Y539461D01*
X724670Y540094D01*
X725303Y540920D01*
X725701Y541882D01*
X725771Y542413D01*
D02*
G37*
G36*
X956602Y546169D02*
X949697D01*
Y540051D01*
X952122D01*
X952168Y539818D01*
X952583Y539197D01*
X953204Y538782D01*
X953531Y538717D01*
X953482Y538217D01*
X948960D01*
X946366Y540811D01*
Y546169D01*
X939461D01*
Y540051D01*
X940409D01*
X940727Y539665D01*
X940684Y539449D01*
X940829Y538716D01*
X941245Y538095D01*
X941866Y537680D01*
X942598Y537534D01*
X943331Y537680D01*
X943952Y538095D01*
X944367Y538716D01*
X944513Y539449D01*
X944470Y539665D01*
X944517Y539722D01*
X944980Y539890D01*
X948045Y536825D01*
X948310Y536648D01*
X948622Y536586D01*
X948622Y536586D01*
X956160D01*
X956520Y536048D01*
X957141Y535633D01*
X957874Y535487D01*
X958607Y535633D01*
X959228Y536048D01*
X959643Y536669D01*
X959789Y537402D01*
X959643Y538134D01*
X959228Y538756D01*
X958607Y539171D01*
X957874Y539316D01*
X957141Y539171D01*
X956520Y538756D01*
X956160Y538217D01*
X954393D01*
X954343Y538717D01*
X954670Y538782D01*
X955291Y539197D01*
X955706Y539818D01*
X955752Y540051D01*
X956602D01*
Y546169D01*
D02*
G37*
G36*
X658768Y546366D02*
X651862D01*
Y539461D01*
X658768D01*
Y546366D01*
D02*
G37*
G36*
X682858Y542413D02*
X679437D01*
Y538992D01*
X679969Y539062D01*
X680930Y539461D01*
X681756Y540094D01*
X682390Y540920D01*
X682788Y541882D01*
X682858Y542413D01*
D02*
G37*
G36*
X795322Y536902D02*
X791831D01*
X788340D01*
X788364Y536781D01*
X788716Y536255D01*
X788981Y536077D01*
X788835Y535859D01*
X788750Y535433D01*
X788835Y535008D01*
X788981Y534789D01*
X788716Y534611D01*
X788364Y534085D01*
X788340Y533964D01*
X791831D01*
X795322D01*
X795297Y534085D01*
X794946Y534611D01*
X794680Y534789D01*
X794827Y535008D01*
X794911Y535433D01*
X794827Y535859D01*
X794680Y536077D01*
X794946Y536255D01*
X795297Y536781D01*
X795322Y536902D01*
D02*
G37*
G36*
Y532965D02*
X791831D01*
X788340D01*
X788364Y532844D01*
X788626Y532451D01*
X788625Y532430D01*
X788548Y532372D01*
X788025Y532293D01*
X787827Y532425D01*
X787402Y532510D01*
X786976Y532425D01*
X786757Y532279D01*
X786580Y532544D01*
X786054Y532896D01*
X785933Y532920D01*
Y529429D01*
Y525938D01*
X786054Y525962D01*
X786580Y526314D01*
X786757Y526580D01*
X786976Y526433D01*
X787402Y526349D01*
X787827Y526433D01*
X788188Y526674D01*
X788429Y527035D01*
X788514Y527461D01*
Y530652D01*
X789013Y530803D01*
X789076Y530710D01*
X789437Y530469D01*
X789862Y530384D01*
X793799D01*
X794225Y530469D01*
X794586Y530710D01*
X794827Y531071D01*
X794911Y531496D01*
X794827Y531922D01*
X794680Y532140D01*
X794946Y532318D01*
X795297Y532844D01*
X795322Y532965D01*
D02*
G37*
G36*
X572138Y538673D02*
X569669D01*
Y534236D01*
X572138D01*
Y538673D01*
D02*
G37*
G36*
X564976D02*
X562508D01*
Y534236D01*
X564976D01*
Y538673D01*
D02*
G37*
G36*
X862098Y522063D02*
X858646D01*
Y518610D01*
X862098D01*
Y522063D01*
D02*
G37*
G36*
X872598Y521593D02*
X871697Y521474D01*
X870857Y521126D01*
X870136Y520573D01*
X869582Y519851D01*
X869234Y519012D01*
X869116Y518110D01*
X869234Y517209D01*
X869582Y516369D01*
X870136Y515648D01*
X870857Y515094D01*
X871697Y514746D01*
X872598Y514628D01*
X873500Y514746D01*
X874340Y515094D01*
X875061Y515648D01*
X875614Y516369D01*
X875962Y517209D01*
X876081Y518110D01*
X875962Y519012D01*
X875614Y519851D01*
X875061Y520573D01*
X874340Y521126D01*
X873500Y521474D01*
X872598Y521593D01*
D02*
G37*
G36*
X840764Y518791D02*
X832390D01*
Y514354D01*
X840764D01*
Y518791D01*
D02*
G37*
G36*
X892598Y521593D02*
X891697Y521474D01*
X890857Y521126D01*
X890136Y520573D01*
X889583Y519851D01*
X889235Y519012D01*
X889116Y518110D01*
X889235Y517209D01*
X889583Y516369D01*
X890136Y515648D01*
X890857Y515094D01*
X891697Y514746D01*
X892598Y514628D01*
X893500Y514746D01*
X894340Y515094D01*
X895061Y515648D01*
X895614Y516369D01*
X895962Y517209D01*
X896081Y518110D01*
X895962Y519012D01*
X895614Y519851D01*
X895061Y520573D01*
X894340Y521126D01*
X893500Y521474D01*
X892598Y521593D01*
D02*
G37*
G36*
X882598D02*
X881697Y521474D01*
X880857Y521126D01*
X880136Y520573D01*
X879583Y519851D01*
X879235Y519012D01*
X879116Y518110D01*
X879235Y517209D01*
X879583Y516369D01*
X880136Y515648D01*
X880857Y515094D01*
X881697Y514746D01*
X882598Y514628D01*
X883500Y514746D01*
X884340Y515094D01*
X885061Y515648D01*
X885614Y516369D01*
X885962Y517209D01*
X886081Y518110D01*
X885962Y519012D01*
X885614Y519851D01*
X885061Y520573D01*
X884340Y521126D01*
X883500Y521474D01*
X882598Y521593D01*
D02*
G37*
G36*
X866551Y517610D02*
X863098D01*
Y514157D01*
X866551D01*
Y517610D01*
D02*
G37*
G36*
X862098D02*
X858646D01*
Y514157D01*
X862098D01*
Y517610D01*
D02*
G37*
G36*
X831390Y518791D02*
X823016D01*
Y514354D01*
X831390D01*
Y518791D01*
D02*
G37*
G36*
X992098Y517610D02*
X988677D01*
X988747Y517078D01*
X989146Y516117D01*
X989779Y515291D01*
X990605Y514657D01*
X991566Y514259D01*
X992098Y514189D01*
Y517610D01*
D02*
G37*
G36*
X982598Y521593D02*
X981697Y521474D01*
X980857Y521126D01*
X980136Y520573D01*
X979583Y519851D01*
X979235Y519012D01*
X979116Y518110D01*
X979235Y517209D01*
X979583Y516369D01*
X980136Y515648D01*
X980857Y515094D01*
X981201Y514952D01*
X981319Y514362D01*
X974072Y507115D01*
X951714D01*
X951354Y507653D01*
X951225Y507739D01*
X951376Y508239D01*
X963543D01*
X963543Y508239D01*
X963855Y508301D01*
X964120Y508478D01*
X970789Y515147D01*
X970857Y515094D01*
X971697Y514746D01*
X972598Y514628D01*
X973500Y514746D01*
X974340Y515094D01*
X975061Y515648D01*
X975614Y516369D01*
X975962Y517209D01*
X976081Y518110D01*
X975962Y519012D01*
X975614Y519851D01*
X975061Y520573D01*
X974340Y521126D01*
X973500Y521474D01*
X972598Y521593D01*
X971697Y521474D01*
X970857Y521126D01*
X970136Y520573D01*
X969582Y519851D01*
X969234Y519012D01*
X969116Y518110D01*
X969234Y517209D01*
X969582Y516369D01*
X969635Y516300D01*
X963205Y509871D01*
X945021D01*
X944661Y510409D01*
X944040Y510824D01*
X943307Y510970D01*
X942574Y510824D01*
X941953Y510409D01*
X941538Y509788D01*
X941392Y509055D01*
X941538Y508322D01*
X941953Y507701D01*
X942574Y507286D01*
X943307Y507140D01*
X944040Y507286D01*
X944661Y507701D01*
X945021Y508239D01*
X948624D01*
X948775Y507739D01*
X948646Y507653D01*
X948231Y507032D01*
X948085Y506299D01*
X948231Y505567D01*
X948646Y504945D01*
X949267Y504530D01*
X950000Y504385D01*
X950733Y504530D01*
X951354Y504945D01*
X951714Y505483D01*
X974409D01*
X974409Y505483D01*
X974722Y505546D01*
X974986Y505722D01*
X983175Y513911D01*
X983175Y513911D01*
X983352Y514176D01*
X983414Y514488D01*
X983500Y514746D01*
X984340Y515094D01*
X985061Y515648D01*
X985614Y516369D01*
X985962Y517209D01*
X986081Y518110D01*
X985962Y519012D01*
X985614Y519851D01*
X985061Y520573D01*
X984340Y521126D01*
X983500Y521474D01*
X982598Y521593D01*
D02*
G37*
G36*
X962598D02*
X961697Y521474D01*
X960857Y521126D01*
X960136Y520573D01*
X959583Y519851D01*
X959235Y519012D01*
X959116Y518110D01*
X959235Y517209D01*
X959583Y516369D01*
X960136Y515648D01*
X960857Y515094D01*
X961697Y514746D01*
X962598Y514628D01*
X963500Y514746D01*
X964340Y515094D01*
X965061Y515648D01*
X965614Y516369D01*
X965962Y517209D01*
X966081Y518110D01*
X965962Y519012D01*
X965614Y519851D01*
X965061Y520573D01*
X964340Y521126D01*
X963500Y521474D01*
X962598Y521593D01*
D02*
G37*
G36*
X590354Y523186D02*
X580118D01*
X579155Y522995D01*
X578780Y522744D01*
X573713D01*
Y518595D01*
X578780D01*
X579155Y518344D01*
X580118Y518152D01*
X589580D01*
X589588Y518147D01*
X590551Y517956D01*
X591514Y518147D01*
X592331Y518693D01*
X592876Y519509D01*
X593068Y520472D01*
X592876Y521436D01*
X592331Y522252D01*
X592134Y522449D01*
X591318Y522995D01*
X590354Y523186D01*
D02*
G37*
G36*
X567323Y519832D02*
X566513Y519671D01*
X565827Y519212D01*
X565368Y518526D01*
X565207Y517717D01*
X565368Y516907D01*
X565827Y516221D01*
X566513Y515762D01*
X567323Y515601D01*
X568132Y515762D01*
X568819Y516221D01*
X569277Y516907D01*
X569438Y517717D01*
X569277Y518526D01*
X568819Y519212D01*
X568132Y519671D01*
X567323Y519832D01*
D02*
G37*
G36*
X922598Y521593D02*
X921697Y521474D01*
X920857Y521126D01*
X920136Y520573D01*
X919582Y519851D01*
X919234Y519012D01*
X919116Y518110D01*
X919234Y517209D01*
X919582Y516369D01*
X920136Y515648D01*
X920857Y515094D01*
X921697Y514746D01*
X922598Y514628D01*
X923500Y514746D01*
X924340Y515094D01*
X925061Y515648D01*
X925614Y516369D01*
X925962Y517209D01*
X926081Y518110D01*
X925962Y519012D01*
X925614Y519851D01*
X925061Y520573D01*
X924340Y521126D01*
X923500Y521474D01*
X922598Y521593D01*
D02*
G37*
G36*
X902598D02*
X901697Y521474D01*
X900857Y521126D01*
X900136Y520573D01*
X899582Y519851D01*
X899234Y519012D01*
X899116Y518110D01*
X899234Y517209D01*
X899582Y516369D01*
X900136Y515648D01*
X900857Y515094D01*
X901697Y514746D01*
X902598Y514628D01*
X903500Y514746D01*
X904340Y515094D01*
X905061Y515648D01*
X905614Y516369D01*
X905962Y517209D01*
X906081Y518110D01*
X905962Y519012D01*
X905614Y519851D01*
X905061Y520573D01*
X904340Y521126D01*
X903500Y521474D01*
X902598Y521593D01*
D02*
G37*
G36*
X952598D02*
X951697Y521474D01*
X950857Y521126D01*
X950136Y520573D01*
X949582Y519851D01*
X949234Y519012D01*
X949116Y518110D01*
X949234Y517209D01*
X949582Y516369D01*
X950136Y515648D01*
X950857Y515094D01*
X951697Y514746D01*
X952598Y514628D01*
X953500Y514746D01*
X954340Y515094D01*
X955061Y515648D01*
X955614Y516369D01*
X955962Y517209D01*
X956081Y518110D01*
X955962Y519012D01*
X955614Y519851D01*
X955061Y520573D01*
X954340Y521126D01*
X953500Y521474D01*
X952598Y521593D01*
D02*
G37*
G36*
X942598D02*
X941697Y521474D01*
X940857Y521126D01*
X940136Y520573D01*
X939583Y519851D01*
X939235Y519012D01*
X939116Y518110D01*
X939235Y517209D01*
X939583Y516369D01*
X940136Y515648D01*
X940857Y515094D01*
X941697Y514746D01*
X942598Y514628D01*
X943500Y514746D01*
X944340Y515094D01*
X945061Y515648D01*
X945614Y516369D01*
X945962Y517209D01*
X946081Y518110D01*
X945962Y519012D01*
X945614Y519851D01*
X945061Y520573D01*
X944340Y521126D01*
X943500Y521474D01*
X942598Y521593D01*
D02*
G37*
%LPD*%
G36*
X618828Y486873D02*
X618715Y486797D01*
X614859Y482941D01*
X614682Y482677D01*
X614620Y482365D01*
X614620Y482365D01*
Y477978D01*
X612457Y475816D01*
X581408D01*
X581324Y475882D01*
X581312Y476122D01*
X581595Y476447D01*
X599803D01*
X599803Y476447D01*
X600229Y476532D01*
X600589Y476773D01*
X602279Y478462D01*
X602701Y478546D01*
X603322Y478961D01*
X603737Y479582D01*
X603883Y480315D01*
X603737Y481048D01*
X603322Y481669D01*
X602701Y482084D01*
X601968Y482230D01*
X601236Y482084D01*
X600615Y481669D01*
X600200Y481048D01*
X600054Y480315D01*
X600200Y479582D01*
X600221Y479550D01*
X599343Y478671D01*
X580926D01*
Y478759D01*
X574326D01*
Y476700D01*
X574326Y476359D01*
Y476279D01*
Y476200D01*
X574326Y475859D01*
Y473800D01*
X574326D01*
Y473757D01*
X574047Y473257D01*
X571991D01*
X570501Y474747D01*
Y479583D01*
X578291Y487373D01*
X618677D01*
X618828Y486873D01*
D02*
G37*
%LPC*%
G36*
X591429Y482571D02*
X589604D01*
X589689Y482143D01*
X590215Y481356D01*
X591001Y480831D01*
X591429Y480746D01*
Y482571D01*
D02*
G37*
G36*
X594254D02*
X592429D01*
Y480746D01*
X592857Y480831D01*
X593644Y481356D01*
X594169Y482143D01*
X594254Y482571D01*
D02*
G37*
G36*
X592429Y485396D02*
Y483571D01*
X594254D01*
X594169Y483999D01*
X593644Y484785D01*
X592857Y485311D01*
X592429Y485396D01*
D02*
G37*
G36*
X591429D02*
X591001Y485311D01*
X590215Y484785D01*
X589689Y483999D01*
X589604Y483571D01*
X591429D01*
Y485396D01*
D02*
G37*
%LPD*%
D10*
X787402Y541634D02*
D03*
X783465D02*
D03*
X785433D02*
D03*
X787402Y529429D02*
D03*
X783465D02*
D03*
X785433D02*
D03*
D11*
X791831Y539370D02*
D03*
Y537402D02*
D03*
Y535433D02*
D03*
Y533465D02*
D03*
Y531496D02*
D03*
X779035Y539370D02*
D03*
Y537402D02*
D03*
Y535433D02*
D03*
Y533465D02*
D03*
Y531496D02*
D03*
D12*
X602559Y496063D02*
D03*
X610039D02*
D03*
X745472Y498819D02*
D03*
X752953D02*
D03*
X602559Y511811D02*
D03*
X610039D02*
D03*
X630118D02*
D03*
X637598D02*
D03*
X837992Y462205D02*
D03*
X845472D02*
D03*
X602559Y464567D02*
D03*
X610039D02*
D03*
X917913Y494488D02*
D03*
X910433D02*
D03*
X865158Y462205D02*
D03*
X857677D02*
D03*
X825787D02*
D03*
X818307D02*
D03*
X665158Y488189D02*
D03*
X657677D02*
D03*
X665158Y476378D02*
D03*
X657677D02*
D03*
X637598Y425197D02*
D03*
X630118D02*
D03*
X877362Y462205D02*
D03*
X884842D02*
D03*
D13*
X740945Y458465D02*
D03*
Y465945D02*
D03*
X764567D02*
D03*
Y458465D02*
D03*
X780315D02*
D03*
Y465945D02*
D03*
X803937D02*
D03*
Y458465D02*
D03*
X977953Y497047D02*
D03*
Y489567D02*
D03*
X966142Y497047D02*
D03*
Y489567D02*
D03*
X954331Y497047D02*
D03*
Y489567D02*
D03*
X942520Y497047D02*
D03*
Y489567D02*
D03*
X753150Y568307D02*
D03*
Y560827D02*
D03*
X578740Y563189D02*
D03*
Y570669D02*
D03*
X665354Y456496D02*
D03*
Y449016D02*
D03*
Y432874D02*
D03*
Y425394D02*
D03*
X762598Y568307D02*
D03*
Y560827D02*
D03*
X953150Y550591D02*
D03*
Y543110D02*
D03*
X942913Y550591D02*
D03*
Y543110D02*
D03*
X796850Y560433D02*
D03*
Y552953D02*
D03*
X762992Y535630D02*
D03*
Y543110D02*
D03*
X743701Y560827D02*
D03*
Y568307D02*
D03*
D14*
X623721Y494095D02*
D03*
Y492126D02*
D03*
Y490158D02*
D03*
Y488189D02*
D03*
Y486221D02*
D03*
Y484252D02*
D03*
Y482283D02*
D03*
X643996D02*
D03*
Y484252D02*
D03*
Y486221D02*
D03*
Y488189D02*
D03*
Y490158D02*
D03*
Y492126D02*
D03*
Y494095D02*
D03*
D15*
X627953Y478052D02*
D03*
X629921D02*
D03*
X631890D02*
D03*
X633858D02*
D03*
X635827D02*
D03*
X637795D02*
D03*
X639764D02*
D03*
Y498326D02*
D03*
X637795D02*
D03*
X635827D02*
D03*
X633858D02*
D03*
X631890D02*
D03*
X629921D02*
D03*
X627953D02*
D03*
D16*
X633858Y488189D02*
D03*
D17*
X923819Y463366D02*
D03*
Y468366D02*
D03*
Y473366D02*
D03*
Y478366D02*
D03*
X904528Y463366D02*
D03*
Y468366D02*
D03*
Y473366D02*
D03*
Y478366D02*
D03*
D18*
X776756Y442126D02*
D03*
Y427165D02*
D03*
X803559Y442126D02*
D03*
Y427165D02*
D03*
X737386Y442126D02*
D03*
Y427165D02*
D03*
X764189Y442126D02*
D03*
Y427165D02*
D03*
D19*
X850787Y478346D02*
D03*
Y500394D02*
D03*
X819291Y478346D02*
D03*
Y500394D02*
D03*
D20*
X977953Y460236D02*
D03*
Y471260D02*
D03*
X966142Y460236D02*
D03*
Y471260D02*
D03*
X954331Y460236D02*
D03*
Y471260D02*
D03*
X942520Y460236D02*
D03*
Y471260D02*
D03*
X566929Y561417D02*
D03*
Y572441D02*
D03*
D21*
X733858Y574016D02*
D03*
Y559055D02*
D03*
D22*
X666929Y503937D02*
D03*
X655905D02*
D03*
X666929Y515748D02*
D03*
X655905D02*
D03*
D23*
X649606Y465256D02*
D03*
X653346Y456004D02*
D03*
X645866D02*
D03*
X792126Y466831D02*
D03*
X795866Y457579D02*
D03*
X788386D02*
D03*
X752756Y466831D02*
D03*
X756496Y457579D02*
D03*
X749016D02*
D03*
D24*
X629921Y441732D02*
D03*
Y461811D02*
D03*
D25*
X644882Y444685D02*
D03*
Y440945D02*
D03*
Y437205D02*
D03*
X654331D02*
D03*
Y444685D02*
D03*
D26*
X773622Y499606D02*
D03*
X723228D02*
D03*
D27*
X831890Y519291D02*
D03*
Y566535D02*
D03*
D28*
X567126Y456641D02*
D03*
Y488189D02*
D03*
D29*
X577626Y469841D02*
D03*
Y472441D02*
D03*
Y475000D02*
D03*
Y467241D02*
D03*
Y477559D02*
D03*
D30*
X562008Y539173D02*
D03*
Y508071D02*
D03*
X572638Y539173D02*
D03*
Y508071D02*
D03*
D31*
X580118Y532480D02*
D03*
Y520669D02*
D03*
Y514764D02*
D03*
D32*
X838976Y498228D02*
D03*
X837008D02*
D03*
X835039D02*
D03*
X833071D02*
D03*
X831102D02*
D03*
X838976Y478543D02*
D03*
X837008D02*
D03*
X835039D02*
D03*
X833071D02*
D03*
X807480Y498228D02*
D03*
X805512D02*
D03*
X803543D02*
D03*
X801575D02*
D03*
X799606D02*
D03*
X807480Y478543D02*
D03*
X805512D02*
D03*
X803543D02*
D03*
X801575D02*
D03*
D33*
X831102D02*
D03*
X799606D02*
D03*
D34*
X774409Y533464D02*
X778543D01*
X773425Y532480D02*
X774409Y533464D01*
X773425Y528543D02*
Y532480D01*
Y528543D02*
X778740Y523228D01*
X787402Y538681D02*
Y554724D01*
X786122Y537402D02*
X787402Y538681D01*
X783169Y537402D02*
X786122D01*
X781201Y539370D02*
X783169Y537402D01*
X655118Y514961D02*
X655905Y515748D01*
X571654Y472441D02*
X577626D01*
X569685Y474409D02*
X571654Y472441D01*
X569685Y474409D02*
Y479921D01*
X577953Y488189D01*
X601968Y480315D02*
X602559D01*
X649606Y465256D02*
X650000Y464862D01*
X627953Y463779D02*
X629528Y462205D01*
X762992Y535630D02*
X763779Y536417D01*
X756693Y457776D02*
Y461417D01*
X756496Y457579D02*
X756693Y457776D01*
X748130Y465945D02*
X756496Y457579D01*
X740945Y465945D02*
X748130D01*
X763681Y466831D02*
X764567Y465945D01*
X793110Y560433D02*
X796850D01*
X807874Y566535D02*
X816535Y557874D01*
X872598Y572598D02*
Y578110D01*
X743701Y560827D02*
X753150D01*
X914488Y586221D02*
X922598Y578110D01*
X791732Y566535D02*
X807874D01*
X817323Y581102D02*
X831890Y566535D01*
X761614Y586221D02*
X914488D01*
X743701Y568307D02*
X761614Y586221D01*
X765945Y581102D02*
X817323D01*
X762598Y568307D02*
Y571260D01*
X764567Y573228D01*
X624409Y501870D02*
Y502362D01*
X602559Y510433D02*
Y511811D01*
X610039Y496063D02*
X612992D01*
X615435Y477640D02*
Y482365D01*
X619291Y486221D02*
X623721D01*
X610039Y464567D02*
X616535Y471063D01*
Y480709D01*
X620079Y484252D01*
X623721D01*
X615435Y482365D02*
X619291Y486221D01*
X825787Y492913D02*
X831102Y498228D01*
X811024Y492913D02*
X825787D01*
X837008Y475197D02*
Y478543D01*
Y475197D02*
X839370Y472835D01*
X842126D01*
X836528Y498708D02*
X837008Y498228D01*
X877362Y459646D02*
Y462205D01*
X869291Y451575D02*
X877362Y459646D01*
X837992Y456496D02*
Y462205D01*
X803937Y458465D02*
X810827Y451575D01*
X770866Y446850D02*
X792323D01*
X770079Y446063D02*
X770866Y446850D01*
X764764Y458268D02*
X770079D01*
X764567Y458465D02*
X764764Y458268D01*
X772835Y498819D02*
X779921Y491732D01*
X786024Y560827D02*
X791732Y566535D01*
X762598Y560827D02*
X786024D01*
X952598Y518110D02*
X953150Y518661D01*
X942598Y539449D02*
X944488Y541339D01*
Y541535D01*
X942913Y543110D02*
X944488Y541535D01*
X904528Y478366D02*
X915335D01*
X915354Y478346D01*
X904528Y473366D02*
X911673D01*
X912205Y472835D01*
X897894Y473366D02*
X904528D01*
X976378Y498622D02*
X977953Y497047D01*
X966142Y544882D02*
Y549625D01*
X952598Y563169D02*
X966142Y549625D01*
X952598Y563169D02*
Y578110D01*
X962598Y554724D02*
X970866Y546457D01*
X962598Y554724D02*
Y578110D01*
X985827Y571654D02*
X992284Y578110D01*
X992598D01*
X972520Y440315D02*
Y445984D01*
X964961Y453543D02*
X972520Y445984D01*
X950000Y506299D02*
X974409D01*
X982598Y514488D01*
Y518110D01*
X943307Y509055D02*
X963543D01*
X972598Y518110D01*
X992126Y463543D02*
X996850Y468268D01*
Y520079D01*
X990945Y525984D02*
X996850Y520079D01*
X932598Y483543D02*
Y518110D01*
Y483543D02*
X932677Y483465D01*
X933071Y460630D02*
X938583Y455118D01*
X936220Y453543D02*
X964961D01*
X938583Y455118D02*
X982677D01*
X985433Y457874D01*
Y466850D01*
X992126Y473543D01*
X737386Y442126D02*
X743307D01*
X744095Y441339D01*
X816535Y557874D02*
X857874D01*
X872598Y572598D01*
X776756Y442126D02*
X785433D01*
X785433Y442126D01*
X655709Y490158D02*
X657677Y488189D01*
Y476378D02*
Y479724D01*
X665158Y488189D02*
Y502165D01*
X666929Y503937D01*
X664567Y476378D02*
X665158D01*
X655905Y503937D02*
Y514961D01*
X624409Y501870D02*
X627953Y498326D01*
X643996Y488189D02*
X649213D01*
X657677Y479724D01*
X643996Y490158D02*
X655709D01*
X602559Y510433D02*
X606693Y506299D01*
X706102Y535236D02*
Y542913D01*
X610039Y511811D02*
X619291D01*
X637598D02*
X649803Y524016D01*
X619291Y511811D02*
X633858Y526378D01*
X687402D01*
X698228Y537205D01*
Y542913D01*
X695276Y524409D02*
X706102Y535236D01*
X920473Y525984D02*
X990945D01*
X912598Y518110D02*
X920473Y525984D01*
X606693Y506299D02*
X628346D01*
X631890Y502756D01*
Y498326D02*
Y502756D01*
X633858Y498326D02*
Y503543D01*
X630118Y507283D02*
X633858Y503543D01*
X630118Y507283D02*
Y511811D01*
X649803Y524016D02*
X728346D01*
X703937Y527953D02*
X726378D01*
X794488Y509842D02*
X797244D01*
X740342Y512020D02*
X795390D01*
X795519Y511892D01*
X871732Y547244D02*
X902598Y578110D01*
X948622Y537402D02*
X957874D01*
X944488Y541535D02*
X948622Y537402D01*
X624803Y600000D02*
X625591Y600787D01*
X764567D01*
X663189Y572638D02*
X685039Y594488D01*
X655315Y572638D02*
X678740Y596063D01*
X820079Y594488D02*
X822835Y597244D01*
X685039Y594488D02*
X820079D01*
X678740Y596063D02*
X811811D01*
X813780Y598032D01*
X764567Y600787D02*
X982677D01*
X865748Y607087D02*
X866535Y607874D01*
X657087Y609449D02*
X657690Y610052D01*
X869869D01*
X870866Y609055D01*
X650000Y607087D02*
X865748D01*
X612795Y475000D02*
X615435Y477640D01*
X577626Y475000D02*
X612795D01*
X577953Y488189D02*
X623721D01*
X742520Y518110D02*
X742913Y518504D01*
X819291Y500394D02*
Y501181D01*
X836528Y498708D02*
Y505032D01*
X837008Y505512D01*
X797244Y509842D02*
X822441D01*
X829528D01*
X869685Y479134D02*
X892126D01*
X897894Y473366D01*
X869685Y487008D02*
X895886D01*
X904528Y478366D01*
X829528Y509842D02*
X833071Y506299D01*
Y498228D02*
Y506299D01*
X801575Y498228D02*
Y505512D01*
X797244Y509842D02*
X801575Y505512D01*
X779921Y484252D02*
Y491732D01*
X792323Y446850D02*
X803937Y458465D01*
X805512Y478543D02*
X805991Y478064D01*
X837992Y456496D02*
X842913Y451575D01*
X869291D01*
X810827D02*
X842913D01*
X764567Y465945D02*
X778543Y479921D01*
X781299D01*
X797933Y496555D01*
X779921Y466929D02*
X784646Y462205D01*
X791240D01*
X795866Y457579D01*
X803051Y466831D02*
X803937Y465945D01*
X805991Y474200D02*
Y478064D01*
Y474200D02*
X807357Y472835D01*
X810630D01*
X812992Y470472D01*
X829724D01*
X837795Y462402D01*
X792913Y466831D02*
X803051D01*
X752756D02*
X763681D01*
X778740Y523228D02*
X782677Y519291D01*
X742913Y518504D02*
X780728D01*
X781040Y518191D01*
X791026D01*
X782677Y519291D02*
X790158D01*
X830709Y553937D02*
X835039D01*
X790158Y519291D02*
X791617Y520750D01*
X829115Y550787D02*
X831102D01*
X791026Y518191D02*
X792485Y519650D01*
X827127Y547244D02*
X871732D01*
X795276Y517323D02*
X796503Y518550D01*
X784449Y521850D02*
X798622D01*
X830709Y553937D01*
X791617Y520750D02*
X799078D01*
X829115Y550787D01*
X792485Y519650D02*
X799533D01*
X827127Y547244D01*
X796503Y518550D02*
X799989D01*
X795519Y511892D02*
X796932D01*
X795974Y512992D02*
X796476D01*
X795846Y513121D02*
X795974Y512992D01*
X741210Y513121D02*
X795846D01*
X728346Y524016D02*
X740342Y512020D01*
X726378Y527953D02*
X741210Y513121D01*
X923622Y541339D02*
X931890Y533071D01*
X796932Y511892D02*
X828347Y543307D01*
X887402D01*
X912598Y518110D01*
X827891Y544407D02*
X887857D01*
X890926Y541339D01*
X923622D01*
X879995Y545507D02*
X912598Y578110D01*
X826946Y545507D02*
X879995D01*
X796476Y512992D02*
X827891Y544407D01*
X799989Y518550D02*
X826946Y545507D01*
X733858Y574016D02*
X740551D01*
X745276Y578740D01*
X755020Y570177D02*
X765945Y581102D01*
X566929Y572441D02*
X576968D01*
X578740Y570669D01*
X772835Y539370D02*
X781201D01*
X772835Y539370D02*
X772835Y539370D01*
X787402Y554724D02*
X787402Y554724D01*
X787402Y554724D02*
X793110Y560433D01*
X774016Y537401D02*
X778543D01*
X772244Y535630D02*
X774016Y537401D01*
X762992Y535630D02*
X772244D01*
X783465Y522835D02*
Y528543D01*
Y522835D02*
X784449Y521850D01*
D35*
X621654Y477559D02*
X623721Y479626D01*
Y482283D01*
X621654Y477559D02*
X627460D01*
X627953Y478052D01*
X601968Y455118D02*
X623228D01*
X627953Y463779D02*
Y478052D01*
X629921Y461811D02*
X640059D01*
X645866Y456004D01*
X607283Y437008D02*
X622244Y451968D01*
X648032D01*
X650000Y453937D01*
Y464862D01*
X629921Y441732D02*
X635827D01*
X638779Y444685D01*
X644882D01*
Y445276D02*
X653346Y453740D01*
Y456004D01*
X623228Y455118D02*
X629528Y461417D01*
X612992Y496063D02*
X614173Y497244D01*
X801575Y478543D02*
X801575Y478543D01*
X799606D02*
X799795Y478354D01*
X815945Y462205D02*
X818307D01*
X835039Y474409D02*
Y478543D01*
X833071Y472835D02*
X835827Y470079D01*
X833071Y472835D02*
Y478543D01*
X818307Y457677D02*
Y462205D01*
X818110Y457480D02*
X818307Y457677D01*
X825787Y456496D02*
Y462205D01*
Y456496D02*
X825984Y456299D01*
X857677Y457283D02*
Y462205D01*
Y457283D02*
X858268Y456693D01*
X865158Y456890D02*
Y462205D01*
Y456890D02*
X865748Y456299D01*
X599803Y477559D02*
X602559Y480315D01*
X577626Y477559D02*
X599803D01*
X644882Y437205D02*
X656693Y425394D01*
X665354D01*
X799795Y474546D02*
Y478354D01*
X803543Y474357D02*
X804043Y473857D01*
X803543Y474357D02*
Y478543D01*
X799106Y473857D02*
X799795Y474546D01*
X799106Y471812D02*
Y473857D01*
X801575Y472835D02*
Y478543D01*
X804043Y473122D02*
Y473857D01*
Y473122D02*
X805721Y471444D01*
X809658D01*
X799106Y471812D02*
X801155Y469763D01*
X808387D01*
X831102Y471312D02*
Y478543D01*
X835039Y474409D02*
X839764Y469685D01*
X857677D01*
X865158Y462205D01*
X852559Y467323D02*
X857677Y462205D01*
X835092Y467323D02*
X852559D01*
X831102Y471312D02*
X835092Y467323D01*
X809658Y471444D02*
X812598Y468504D01*
X819488D01*
X825787Y462205D01*
X808387Y469763D02*
X815945Y462205D01*
X634449Y437205D02*
X644882D01*
X629921Y441732D02*
X634449Y437205D01*
D36*
X590354Y520669D02*
X590551Y520472D01*
X580118Y520669D02*
X590354D01*
X733858Y456693D02*
X739173D01*
X740945Y458465D01*
X748130D01*
X749016Y457579D01*
X566929Y618937D02*
Y625984D01*
Y618937D02*
X576772Y609094D01*
X578740Y563189D02*
X579134Y562795D01*
Y555512D02*
Y562795D01*
X765748Y629134D02*
X861024D01*
X579134Y555512D02*
X648819D01*
X658465D01*
X665354Y425394D02*
X671850D01*
X723228Y499606D02*
X744685D01*
X745472Y498819D01*
X752953D02*
X772835D01*
X688189Y497638D02*
X702362Y483465D01*
X780315Y458465D02*
X781201Y457579D01*
X788386D01*
X658465Y555512D02*
X671063Y542913D01*
X658465Y555512D02*
X701378D01*
X713976Y542913D01*
X749016Y457579D02*
X755807Y450787D01*
X772638D02*
X780315Y458465D01*
X755807Y450787D02*
X772638D01*
X723228Y499606D02*
Y512992D01*
X727165Y516929D01*
X566929Y625984D02*
X570079Y629134D01*
X765748D01*
X878976Y426772D02*
X892520Y440315D01*
X818504Y426772D02*
X878976D01*
X810630Y434646D02*
X818504Y426772D01*
X681102Y434646D02*
X810630D01*
X671850Y425394D02*
X681102Y434646D01*
X762205Y483465D02*
X772835Y494095D01*
Y498819D01*
X702362Y483465D02*
X762205D01*
X676772Y505905D02*
X716929D01*
X723228Y499606D01*
D37*
X914173Y485827D02*
X917913Y489567D01*
Y494488D01*
X914173Y485827D02*
X916358D01*
X923819Y478366D01*
X902362Y485827D02*
X914173D01*
X893307Y494882D02*
X902165Y486024D01*
X986949Y478366D02*
X992126Y483543D01*
X923819Y478366D02*
X986949D01*
X869685Y494882D02*
X893307D01*
D38*
X644882Y444685D02*
Y445276D01*
D39*
X654331Y444685D02*
X661024D01*
X665354Y449016D01*
X658071D02*
X665354D01*
X657874Y449213D02*
X658071Y449016D01*
X643391Y623932D02*
X643701Y623622D01*
X581609Y623932D02*
X643391D01*
X576772Y619095D02*
X581609Y623932D01*
D40*
X892520Y430315D02*
D03*
X862598Y518110D02*
D03*
X655315Y572638D02*
D03*
Y542913D02*
D03*
X698228D02*
D03*
D41*
X892520Y440315D02*
D03*
X902520Y430315D02*
D03*
Y440315D02*
D03*
X912520Y430315D02*
D03*
Y440315D02*
D03*
X922520Y430315D02*
D03*
Y440315D02*
D03*
X932520Y430315D02*
D03*
Y440315D02*
D03*
X942520Y430315D02*
D03*
Y440315D02*
D03*
X952520Y430315D02*
D03*
Y440315D02*
D03*
X962520Y430315D02*
D03*
Y440315D02*
D03*
X972520Y430315D02*
D03*
Y440315D02*
D03*
X982520Y430315D02*
D03*
Y440315D02*
D03*
X869685Y502756D02*
D03*
Y494882D02*
D03*
Y487008D02*
D03*
X576772Y609094D02*
D03*
Y599094D02*
D03*
X862598Y578110D02*
D03*
X872598D02*
D03*
X882598D02*
D03*
X892598D02*
D03*
X902598D02*
D03*
X912598D02*
D03*
X922598D02*
D03*
X932598D02*
D03*
X942598D02*
D03*
X952598D02*
D03*
X962598D02*
D03*
X972598D02*
D03*
X982598D02*
D03*
X992598D02*
D03*
Y518110D02*
D03*
X982598D02*
D03*
X972598D02*
D03*
X962598D02*
D03*
X952598D02*
D03*
X942598D02*
D03*
X932598D02*
D03*
X922598D02*
D03*
X912598D02*
D03*
X902598D02*
D03*
X892598D02*
D03*
X882598D02*
D03*
X872598D02*
D03*
X678937Y572638D02*
D03*
X671063D02*
D03*
X663189D02*
D03*
X678937Y542913D02*
D03*
X671063D02*
D03*
X663189D02*
D03*
X721850D02*
D03*
X713976D02*
D03*
X706102D02*
D03*
X992126Y463543D02*
D03*
Y473543D02*
D03*
Y483543D02*
D03*
Y493543D02*
D03*
Y503543D02*
D03*
X991929Y624764D02*
D03*
D42*
X793976Y574803D02*
D03*
X783976D02*
D03*
X773976D02*
D03*
X803976D02*
D03*
D43*
X713937Y571260D02*
D03*
X703937D02*
D03*
X698189Y497638D02*
D03*
X688189D02*
D03*
D44*
X869685Y479134D02*
D03*
X576772Y619095D02*
D03*
X992126Y453543D02*
D03*
X991929Y614764D02*
D03*
D45*
X797244Y618110D02*
D03*
X974409D02*
D03*
X596457D02*
D03*
X773622D02*
D03*
D46*
X633858Y488189D02*
D03*
D47*
X570866Y641732D02*
D03*
X1000000D02*
D03*
X570866Y429134D02*
D03*
X1000000D02*
D03*
D48*
X832480Y437008D02*
D03*
X822638D02*
D03*
X871850D02*
D03*
X862008D02*
D03*
X607283D02*
D03*
X597441D02*
D03*
D49*
X567323Y529528D02*
D03*
Y517717D02*
D03*
D50*
X835039Y488386D02*
D03*
X803543D02*
D03*
D51*
X775787Y529528D02*
D03*
X591929Y483071D02*
D03*
X590551Y520472D02*
D03*
X580709Y533071D02*
D03*
X733858Y456693D02*
D03*
X579134Y555512D02*
D03*
X765748Y629134D02*
D03*
X861024D02*
D03*
X977953Y471260D02*
D03*
X977953Y489370D02*
D03*
X966142Y471260D02*
D03*
X965748Y489764D02*
D03*
X954331Y471260D02*
D03*
X954331Y489370D02*
D03*
X942520Y471260D02*
D03*
X942913Y488976D02*
D03*
X902362Y486221D02*
D03*
X655118Y514961D02*
D03*
X648819Y555512D02*
D03*
X601968Y480315D02*
D03*
X601968Y455118D02*
D03*
X628346Y425197D02*
D03*
X629134Y461811D02*
D03*
X671850Y425394D02*
D03*
X676772Y505905D02*
D03*
X727165Y516929D02*
D03*
X784252Y521654D02*
D03*
X779921Y466929D02*
D03*
X778740Y523228D02*
D03*
X756693Y461417D02*
D03*
X764567Y573228D02*
D03*
Y600787D02*
D03*
X982677D02*
D03*
X624803Y600000D02*
D03*
X624409Y502362D02*
D03*
X614173Y497244D02*
D03*
X621654Y477559D02*
D03*
X811024Y492913D02*
D03*
X797638Y496850D02*
D03*
X850787Y499606D02*
D03*
X842126Y472835D02*
D03*
X837795Y462402D02*
D03*
X835827Y470079D02*
D03*
X818110Y457480D02*
D03*
X825984Y456299D02*
D03*
X858268Y456693D02*
D03*
X865748Y456299D02*
D03*
X770079Y446063D02*
D03*
Y458268D02*
D03*
X779921Y484252D02*
D03*
X772835Y539370D02*
D03*
X953937Y540551D02*
D03*
X942598Y539449D02*
D03*
X915354Y478346D02*
D03*
X912205Y472835D02*
D03*
X954331Y497047D02*
D03*
X936220Y453543D02*
D03*
X941339Y497638D02*
D03*
X966142Y497047D02*
D03*
X966142Y544882D02*
D03*
X976378Y498622D02*
D03*
X970866Y546457D02*
D03*
X985827Y571654D02*
D03*
X950000Y506299D02*
D03*
X943307Y509055D02*
D03*
X932677Y483465D02*
D03*
X933071Y460630D02*
D03*
X744095Y441339D02*
D03*
X742520Y518110D02*
D03*
X785433Y442126D02*
D03*
X795276Y517323D02*
D03*
X664567Y476378D02*
D03*
X667323Y514961D02*
D03*
X703937Y527953D02*
D03*
X794488Y509842D02*
D03*
X957874Y537402D02*
D03*
X931890Y533071D02*
D03*
X822835Y597244D02*
D03*
X813780Y598032D02*
D03*
X866535Y607874D02*
D03*
X657087Y609449D02*
D03*
X870866Y609055D02*
D03*
X657874Y449213D02*
D03*
X650000Y607087D02*
D03*
X643701Y623622D02*
D03*
X819291Y501181D02*
D03*
X837008Y505512D02*
D03*
X822441Y509842D02*
D03*
X792913Y467323D02*
D03*
X801575Y472835D02*
D03*
X831102Y550787D02*
D03*
X835039Y553937D02*
D03*
X745276Y578740D02*
D03*
X754724Y570472D02*
D03*
M02*
