G04*
G04 #@! TF.GenerationSoftware,Altium Limited,CircuitStudio,1.5.1 (13)*
G04*
G04 Layer_Color=20142*
%FSLAX25Y25*%
%MOIN*%
G70*
G01*
G75*
%ADD29R,0.07493X0.04737*%
%ADD30R,0.08674X0.05721*%
%ADD31R,0.05918X0.06706*%
%ADD32R,0.06312X0.02375*%
%ADD33R,0.02375X0.04737*%
%ADD34R,0.03950X0.06312*%
%ADD35R,0.02375X0.06312*%
%ADD36R,0.07887X0.02965*%
%ADD37R,0.05131X0.04737*%
%ADD38C,0.06706*%
%ADD39R,0.06706X0.06706*%
%ADD40R,0.06706X0.06706*%
D29*
X212189Y267559D02*
D03*
Y252598D02*
D03*
X238992Y267559D02*
D03*
Y252598D02*
D03*
D30*
X251969Y252205D02*
D03*
Y267165D02*
D03*
D31*
X274130Y289114D02*
D03*
X266650D02*
D03*
D32*
X287008Y286457D02*
D03*
Y253386D02*
D03*
Y256142D02*
D03*
Y258898D02*
D03*
Y261654D02*
D03*
Y280945D02*
D03*
Y283701D02*
D03*
Y272677D02*
D03*
Y275433D02*
D03*
Y278189D02*
D03*
Y264409D02*
D03*
Y267165D02*
D03*
Y269921D02*
D03*
D33*
X331299Y258504D02*
D03*
X325787D02*
D03*
D34*
X333465Y250236D02*
D03*
Y289606D02*
D03*
D35*
X329921Y250236D02*
D03*
X327165D02*
D03*
X324410D02*
D03*
X321654D02*
D03*
X318898D02*
D03*
X316142D02*
D03*
X313386D02*
D03*
X310630D02*
D03*
X307874D02*
D03*
X305118D02*
D03*
X302362D02*
D03*
X299606D02*
D03*
X296850D02*
D03*
X294094D02*
D03*
X316142Y289606D02*
D03*
X318898D02*
D03*
X321654D02*
D03*
X307874D02*
D03*
X310630D02*
D03*
X313386D02*
D03*
X299606D02*
D03*
X302362D02*
D03*
X305118D02*
D03*
X296850D02*
D03*
D36*
X249803Y281831D02*
D03*
Y278484D02*
D03*
X223425D02*
D03*
Y281831D02*
D03*
D37*
X272736Y258504D02*
D03*
X266043D02*
D03*
X266043Y265886D02*
D03*
X272736D02*
D03*
X266043Y280551D02*
D03*
X272736D02*
D03*
X266043Y273268D02*
D03*
X272736D02*
D03*
X266043Y251122D02*
D03*
X272736D02*
D03*
D38*
X200000Y250000D02*
D03*
Y260000D02*
D03*
Y270000D02*
D03*
X210000Y240000D02*
D03*
X220000D02*
D03*
X230000D02*
D03*
X240000D02*
D03*
X250000D02*
D03*
X260000D02*
D03*
X270000D02*
D03*
X280000D02*
D03*
X290000D02*
D03*
X300000D02*
D03*
X310000D02*
D03*
X320000D02*
D03*
X330000D02*
D03*
Y300000D02*
D03*
X320000D02*
D03*
X310000D02*
D03*
X300000D02*
D03*
X290000D02*
D03*
X280000D02*
D03*
X270000D02*
D03*
X260000D02*
D03*
X250000D02*
D03*
X240000D02*
D03*
X230000D02*
D03*
X220000D02*
D03*
X210000D02*
D03*
X200000D02*
D03*
D39*
Y280000D02*
D03*
D40*
Y240000D02*
D03*
M02*
