G04*
G04 #@! TF.GenerationSoftware,Altium Limited,CircuitStudio,1.5.1 (13)*
G04*
G04 Layer_Color=13948096*
%FSLAX25Y25*%
%MOIN*%
G70*
G01*
G75*
G36*
X220832Y257868D02*
Y257747D01*
Y257626D01*
Y257505D01*
Y257384D01*
Y257263D01*
Y257142D01*
Y257021D01*
X221799D01*
Y256901D01*
Y256780D01*
Y256659D01*
Y256538D01*
Y256417D01*
Y256296D01*
Y256175D01*
Y256054D01*
X220832D01*
Y256175D01*
Y256296D01*
Y256417D01*
Y256538D01*
Y256659D01*
Y256780D01*
Y256901D01*
Y257021D01*
X219865D01*
Y256901D01*
Y256780D01*
Y256659D01*
Y256538D01*
Y256417D01*
Y256296D01*
Y256175D01*
Y256054D01*
X218898D01*
Y256175D01*
Y256296D01*
Y256417D01*
Y256538D01*
Y256659D01*
Y256780D01*
Y256901D01*
Y257021D01*
Y257142D01*
Y257263D01*
Y257384D01*
Y257505D01*
Y257626D01*
Y257747D01*
Y257868D01*
Y257989D01*
X220832D01*
Y257868D01*
D02*
G37*
G36*
X238243Y262704D02*
Y262583D01*
Y262462D01*
Y262341D01*
Y262220D01*
Y262100D01*
Y261979D01*
Y261858D01*
Y261737D01*
Y261616D01*
Y261495D01*
Y261374D01*
Y261253D01*
Y261132D01*
Y261011D01*
Y260890D01*
Y260770D01*
Y260649D01*
Y260528D01*
Y260407D01*
Y260286D01*
Y260165D01*
Y260044D01*
Y259923D01*
Y259802D01*
Y259681D01*
Y259560D01*
Y259440D01*
Y259319D01*
Y259198D01*
Y259077D01*
Y258956D01*
Y258835D01*
Y258714D01*
Y258593D01*
Y258472D01*
Y258351D01*
Y258230D01*
Y258110D01*
Y257989D01*
Y257868D01*
Y257747D01*
Y257626D01*
Y257505D01*
Y257384D01*
Y257263D01*
Y257142D01*
Y257021D01*
Y256901D01*
Y256780D01*
Y256659D01*
Y256538D01*
Y256417D01*
Y256296D01*
Y256175D01*
Y256054D01*
X231472D01*
Y256175D01*
Y256296D01*
Y256417D01*
Y256538D01*
Y256659D01*
Y256780D01*
Y256901D01*
Y257021D01*
Y257142D01*
Y257263D01*
Y257384D01*
Y257505D01*
Y257626D01*
Y257747D01*
Y257868D01*
Y257989D01*
Y258110D01*
Y258230D01*
Y258351D01*
Y258472D01*
Y258593D01*
Y258714D01*
Y258835D01*
Y258956D01*
Y259077D01*
Y259198D01*
Y259319D01*
Y259440D01*
Y259560D01*
Y259681D01*
Y259802D01*
Y259923D01*
Y260044D01*
Y260165D01*
Y260286D01*
Y260407D01*
Y260528D01*
Y260649D01*
Y260770D01*
Y260890D01*
Y261011D01*
Y261132D01*
Y261253D01*
Y261374D01*
Y261495D01*
Y261616D01*
Y261737D01*
Y261858D01*
Y261979D01*
Y262100D01*
Y262220D01*
Y262341D01*
Y262462D01*
Y262583D01*
Y262704D01*
Y262825D01*
X238243D01*
Y262704D01*
D02*
G37*
G36*
X228570Y257868D02*
Y257747D01*
Y257626D01*
Y257505D01*
Y257384D01*
Y257263D01*
Y257142D01*
Y257021D01*
X227603D01*
Y257142D01*
Y257263D01*
Y257384D01*
Y257505D01*
Y257626D01*
Y257747D01*
Y257868D01*
Y257989D01*
X228570D01*
Y257868D01*
D02*
G37*
G36*
X278429Y259938D02*
X278521Y259932D01*
X278694Y259897D01*
X278769Y259880D01*
X278844Y259857D01*
X278907Y259828D01*
X278965Y259805D01*
X279017Y259776D01*
X279063Y259753D01*
X279103Y259724D01*
X279138Y259707D01*
X279161Y259690D01*
X279178Y259673D01*
X279189Y259667D01*
X279195Y259661D01*
X279253Y259604D01*
X279299Y259546D01*
X279385Y259413D01*
X279449Y259281D01*
X279495Y259149D01*
X279529Y259033D01*
X279535Y258981D01*
X279546Y258935D01*
X279552Y258901D01*
X279558Y258872D01*
Y258855D01*
Y258849D01*
X279080Y258797D01*
X279068Y258924D01*
X279045Y259033D01*
X279017Y259125D01*
X278976Y259206D01*
X278942Y259269D01*
X278907Y259315D01*
X278884Y259338D01*
X278878Y259350D01*
X278798Y259419D01*
X278711Y259471D01*
X278619Y259506D01*
X278533Y259534D01*
X278458Y259546D01*
X278400Y259552D01*
X278377Y259557D01*
X278343D01*
X278227Y259552D01*
X278124Y259529D01*
X278037Y259500D01*
X277962Y259465D01*
X277905Y259425D01*
X277859Y259396D01*
X277836Y259373D01*
X277824Y259367D01*
X277755Y259293D01*
X277709Y259212D01*
X277675Y259137D01*
X277646Y259062D01*
X277634Y258999D01*
X277628Y258947D01*
X277623Y258912D01*
Y258907D01*
Y258901D01*
X277634Y258803D01*
X277657Y258699D01*
X277692Y258607D01*
X277732Y258521D01*
X277772Y258446D01*
X277807Y258388D01*
X277818Y258365D01*
X277830Y258348D01*
X277842Y258342D01*
Y258336D01*
X277888Y258279D01*
X277940Y258215D01*
X277997Y258152D01*
X278066Y258089D01*
X278204Y257956D01*
X278343Y257824D01*
X278469Y257714D01*
X278527Y257662D01*
X278579Y257622D01*
X278619Y257582D01*
X278648Y257559D01*
X278671Y257541D01*
X278677Y257536D01*
X278815Y257415D01*
X278942Y257305D01*
X279045Y257207D01*
X279132Y257127D01*
X279201Y257058D01*
X279247Y257006D01*
X279276Y256971D01*
X279287Y256965D01*
Y256960D01*
X279362Y256868D01*
X279420Y256781D01*
X279477Y256695D01*
X279518Y256620D01*
X279552Y256551D01*
X279575Y256505D01*
X279587Y256470D01*
X279593Y256464D01*
Y256458D01*
X279610Y256401D01*
X279627Y256343D01*
X279633Y256292D01*
X279639Y256245D01*
X279644Y256205D01*
Y256171D01*
Y256148D01*
Y256142D01*
X277139D01*
Y256585D01*
X278999D01*
X278936Y256677D01*
X278873Y256752D01*
X278844Y256787D01*
X278821Y256810D01*
X278809Y256827D01*
X278803Y256833D01*
X278775Y256862D01*
X278746Y256891D01*
X278671Y256960D01*
X278579Y257040D01*
X278492Y257121D01*
X278406Y257196D01*
X278337Y257253D01*
X278308Y257277D01*
X278285Y257294D01*
X278274Y257305D01*
X278268Y257311D01*
X278176Y257392D01*
X278095Y257461D01*
X278014Y257530D01*
X277945Y257593D01*
X277882Y257657D01*
X277824Y257708D01*
X277767Y257760D01*
X277721Y257806D01*
X277680Y257847D01*
X277646Y257881D01*
X277594Y257933D01*
X277565Y257968D01*
X277554Y257979D01*
X277479Y258071D01*
X277410Y258152D01*
X277358Y258233D01*
X277317Y258302D01*
X277283Y258359D01*
X277260Y258400D01*
X277248Y258429D01*
X277242Y258440D01*
X277208Y258521D01*
X277185Y258601D01*
X277168Y258676D01*
X277156Y258745D01*
X277150Y258803D01*
X277145Y258849D01*
Y258878D01*
Y258889D01*
X277150Y258970D01*
X277156Y259050D01*
X277197Y259194D01*
X277248Y259321D01*
X277306Y259431D01*
X277363Y259517D01*
X277392Y259552D01*
X277415Y259586D01*
X277438Y259609D01*
X277456Y259627D01*
X277461Y259632D01*
X277467Y259638D01*
X277531Y259690D01*
X277594Y259742D01*
X277663Y259782D01*
X277738Y259817D01*
X277882Y259868D01*
X278020Y259903D01*
X278083Y259920D01*
X278141Y259926D01*
X278193Y259932D01*
X278239Y259938D01*
X278279Y259943D01*
X278331D01*
X278429Y259938D01*
D02*
G37*
G36*
X287242D02*
X287334Y259932D01*
X287507Y259897D01*
X287582Y259880D01*
X287657Y259857D01*
X287720Y259828D01*
X287778Y259805D01*
X287829Y259776D01*
X287876Y259753D01*
X287916Y259724D01*
X287950Y259707D01*
X287973Y259690D01*
X287991Y259673D01*
X288002Y259667D01*
X288008Y259661D01*
X288066Y259604D01*
X288112Y259546D01*
X288198Y259413D01*
X288261Y259281D01*
X288307Y259149D01*
X288342Y259033D01*
X288348Y258981D01*
X288359Y258935D01*
X288365Y258901D01*
X288371Y258872D01*
Y258855D01*
Y258849D01*
X287893Y258797D01*
X287881Y258924D01*
X287858Y259033D01*
X287829Y259125D01*
X287789Y259206D01*
X287755Y259269D01*
X287720Y259315D01*
X287697Y259338D01*
X287691Y259350D01*
X287611Y259419D01*
X287524Y259471D01*
X287432Y259506D01*
X287346Y259534D01*
X287271Y259546D01*
X287213Y259552D01*
X287190Y259557D01*
X287156D01*
X287040Y259552D01*
X286937Y259529D01*
X286850Y259500D01*
X286775Y259465D01*
X286718Y259425D01*
X286672Y259396D01*
X286649Y259373D01*
X286637Y259367D01*
X286568Y259293D01*
X286522Y259212D01*
X286487Y259137D01*
X286458Y259062D01*
X286447Y258999D01*
X286441Y258947D01*
X286436Y258912D01*
Y258907D01*
Y258901D01*
X286447Y258803D01*
X286470Y258699D01*
X286505Y258607D01*
X286545Y258521D01*
X286585Y258446D01*
X286620Y258388D01*
X286631Y258365D01*
X286643Y258348D01*
X286654Y258342D01*
Y258336D01*
X286701Y258279D01*
X286752Y258215D01*
X286810Y258152D01*
X286879Y258089D01*
X287017Y257956D01*
X287156Y257824D01*
X287282Y257714D01*
X287340Y257662D01*
X287392Y257622D01*
X287432Y257582D01*
X287461Y257559D01*
X287484Y257541D01*
X287490Y257536D01*
X287628Y257415D01*
X287755Y257305D01*
X287858Y257207D01*
X287945Y257127D01*
X288014Y257058D01*
X288060Y257006D01*
X288089Y256971D01*
X288100Y256965D01*
Y256960D01*
X288175Y256868D01*
X288233Y256781D01*
X288290Y256695D01*
X288331Y256620D01*
X288365Y256551D01*
X288388Y256505D01*
X288400Y256470D01*
X288405Y256464D01*
Y256458D01*
X288423Y256401D01*
X288440Y256343D01*
X288446Y256292D01*
X288452Y256245D01*
X288457Y256205D01*
Y256171D01*
Y256148D01*
Y256142D01*
X285952D01*
Y256585D01*
X287812D01*
X287749Y256677D01*
X287685Y256752D01*
X287657Y256787D01*
X287634Y256810D01*
X287622Y256827D01*
X287616Y256833D01*
X287587Y256862D01*
X287559Y256891D01*
X287484Y256960D01*
X287392Y257040D01*
X287305Y257121D01*
X287219Y257196D01*
X287150Y257253D01*
X287121Y257277D01*
X287098Y257294D01*
X287086Y257305D01*
X287081Y257311D01*
X286988Y257392D01*
X286908Y257461D01*
X286827Y257530D01*
X286758Y257593D01*
X286695Y257657D01*
X286637Y257708D01*
X286579Y257760D01*
X286533Y257806D01*
X286493Y257847D01*
X286458Y257881D01*
X286407Y257933D01*
X286378Y257968D01*
X286366Y257979D01*
X286292Y258071D01*
X286222Y258152D01*
X286171Y258233D01*
X286130Y258302D01*
X286096Y258359D01*
X286073Y258400D01*
X286061Y258429D01*
X286055Y258440D01*
X286021Y258521D01*
X285998Y258601D01*
X285981Y258676D01*
X285969Y258745D01*
X285963Y258803D01*
X285957Y258849D01*
Y258878D01*
Y258889D01*
X285963Y258970D01*
X285969Y259050D01*
X286009Y259194D01*
X286061Y259321D01*
X286119Y259431D01*
X286176Y259517D01*
X286205Y259552D01*
X286228Y259586D01*
X286251Y259609D01*
X286268Y259627D01*
X286274Y259632D01*
X286280Y259638D01*
X286343Y259690D01*
X286407Y259742D01*
X286476Y259782D01*
X286551Y259817D01*
X286695Y259868D01*
X286833Y259903D01*
X286896Y259920D01*
X286954Y259926D01*
X287006Y259932D01*
X287052Y259938D01*
X287092Y259943D01*
X287144D01*
X287242Y259938D01*
D02*
G37*
G36*
X281493Y259932D02*
X281637Y259903D01*
X281770Y259863D01*
X281879Y259817D01*
X281966Y259765D01*
X282000Y259742D01*
X282029Y259724D01*
X282058Y259707D01*
X282075Y259696D01*
X282081Y259690D01*
X282087Y259684D01*
X282190Y259580D01*
X282271Y259465D01*
X282340Y259344D01*
X282386Y259229D01*
X282427Y259125D01*
X282438Y259079D01*
X282450Y259039D01*
X282455Y259010D01*
X282461Y258987D01*
X282467Y258970D01*
Y258964D01*
X282000Y258884D01*
X281977Y259004D01*
X281943Y259108D01*
X281908Y259194D01*
X281868Y259264D01*
X281833Y259321D01*
X281804Y259362D01*
X281781Y259385D01*
X281776Y259390D01*
X281701Y259448D01*
X281626Y259488D01*
X281551Y259523D01*
X281476Y259540D01*
X281418Y259552D01*
X281367Y259563D01*
X281321D01*
X281223Y259557D01*
X281136Y259534D01*
X281061Y259511D01*
X280998Y259477D01*
X280946Y259448D01*
X280906Y259419D01*
X280883Y259396D01*
X280877Y259390D01*
X280820Y259327D01*
X280779Y259252D01*
X280745Y259183D01*
X280727Y259120D01*
X280716Y259056D01*
X280704Y259010D01*
Y258981D01*
Y258976D01*
Y258970D01*
X280716Y258855D01*
X280745Y258757D01*
X280779Y258676D01*
X280825Y258613D01*
X280871Y258561D01*
X280906Y258521D01*
X280935Y258498D01*
X280946Y258492D01*
X281038Y258440D01*
X281131Y258405D01*
X281217Y258377D01*
X281298Y258359D01*
X281372Y258348D01*
X281424Y258342D01*
X281499D01*
X281522Y258348D01*
X281551D01*
X281603Y257939D01*
X281534Y257956D01*
X281470Y257968D01*
X281413Y257973D01*
X281367Y257979D01*
X281326Y257985D01*
X281275D01*
X281159Y257973D01*
X281061Y257950D01*
X280969Y257922D01*
X280894Y257881D01*
X280831Y257841D01*
X280785Y257812D01*
X280762Y257789D01*
X280750Y257778D01*
X280681Y257697D01*
X280629Y257611D01*
X280589Y257518D01*
X280566Y257438D01*
X280549Y257363D01*
X280543Y257305D01*
X280537Y257282D01*
Y257265D01*
Y257259D01*
Y257253D01*
X280549Y257133D01*
X280572Y257023D01*
X280606Y256925D01*
X280647Y256844D01*
X280693Y256775D01*
X280727Y256729D01*
X280750Y256700D01*
X280762Y256689D01*
X280848Y256614D01*
X280941Y256556D01*
X281033Y256522D01*
X281125Y256493D01*
X281200Y256476D01*
X281257Y256470D01*
X281280Y256464D01*
X281315D01*
X281413Y256470D01*
X281505Y256493D01*
X281586Y256522D01*
X281649Y256551D01*
X281707Y256585D01*
X281747Y256608D01*
X281770Y256631D01*
X281781Y256637D01*
X281845Y256712D01*
X281902Y256798D01*
X281948Y256896D01*
X281983Y256989D01*
X282012Y257075D01*
X282029Y257144D01*
X282041Y257167D01*
Y257190D01*
X282046Y257202D01*
Y257207D01*
X282513Y257144D01*
X282501Y257058D01*
X282484Y256977D01*
X282432Y256827D01*
X282375Y256695D01*
X282306Y256579D01*
X282277Y256533D01*
X282242Y256493D01*
X282213Y256458D01*
X282190Y256424D01*
X282167Y256401D01*
X282150Y256384D01*
X282144Y256378D01*
X282138Y256372D01*
X282075Y256320D01*
X282006Y256274D01*
X281943Y256234D01*
X281874Y256205D01*
X281735Y256148D01*
X281603Y256113D01*
X281545Y256101D01*
X281488Y256096D01*
X281442Y256090D01*
X281396Y256084D01*
X281361Y256078D01*
X281315D01*
X281217Y256084D01*
X281119Y256096D01*
X281027Y256107D01*
X280941Y256130D01*
X280860Y256159D01*
X280785Y256188D01*
X280716Y256217D01*
X280652Y256251D01*
X280601Y256280D01*
X280549Y256309D01*
X280503Y256338D01*
X280468Y256366D01*
X280439Y256389D01*
X280422Y256401D01*
X280411Y256412D01*
X280405Y256418D01*
X280341Y256487D01*
X280284Y256556D01*
X280238Y256626D01*
X280197Y256695D01*
X280157Y256764D01*
X280128Y256839D01*
X280088Y256971D01*
X280071Y257029D01*
X280059Y257086D01*
X280053Y257133D01*
X280048Y257178D01*
X280042Y257213D01*
Y257236D01*
Y257253D01*
Y257259D01*
X280048Y257392D01*
X280071Y257513D01*
X280100Y257616D01*
X280134Y257703D01*
X280174Y257772D01*
X280203Y257824D01*
X280226Y257858D01*
X280232Y257870D01*
X280307Y257956D01*
X280393Y258025D01*
X280480Y258083D01*
X280560Y258123D01*
X280635Y258158D01*
X280693Y258175D01*
X280716Y258187D01*
X280733D01*
X280745Y258192D01*
X280750D01*
X280658Y258238D01*
X280578Y258296D01*
X280514Y258348D01*
X280457Y258400D01*
X280416Y258446D01*
X280382Y258480D01*
X280364Y258503D01*
X280359Y258515D01*
X280313Y258590D01*
X280284Y258670D01*
X280261Y258745D01*
X280243Y258814D01*
X280232Y258872D01*
X280226Y258918D01*
Y258947D01*
Y258958D01*
X280232Y259056D01*
X280249Y259143D01*
X280272Y259223D01*
X280295Y259298D01*
X280318Y259356D01*
X280341Y259402D01*
X280359Y259431D01*
X280364Y259442D01*
X280422Y259523D01*
X280485Y259598D01*
X280555Y259661D01*
X280618Y259713D01*
X280676Y259753D01*
X280722Y259782D01*
X280756Y259799D01*
X280762Y259805D01*
X280768D01*
X280866Y259851D01*
X280963Y259886D01*
X281061Y259909D01*
X281148Y259926D01*
X281223Y259938D01*
X281280Y259943D01*
X281413D01*
X281493Y259932D01*
D02*
G37*
G36*
X329127Y283217D02*
X330511D01*
Y283044D01*
X331203D01*
Y282871D01*
X331895D01*
Y282698D01*
X332414D01*
Y282525D01*
X332932D01*
Y282352D01*
X333278D01*
Y282179D01*
X333624D01*
Y282006D01*
X333970D01*
Y281833D01*
X334316D01*
Y281660D01*
X334662D01*
Y281487D01*
X335008D01*
Y281314D01*
X335181D01*
Y281141D01*
X335527D01*
Y280968D01*
X335700D01*
Y280795D01*
X335873D01*
Y280622D01*
X336219D01*
Y280449D01*
X336392D01*
Y280276D01*
X336565D01*
Y280103D01*
X336738D01*
Y279930D01*
X336911D01*
Y279757D01*
X337084D01*
Y279584D01*
X337257D01*
Y279411D01*
X337430D01*
Y279238D01*
X337603D01*
Y279065D01*
X337776D01*
Y278892D01*
X337948D01*
Y278719D01*
X338122D01*
Y278547D01*
X338295D01*
Y278374D01*
Y278201D01*
X338468D01*
Y278028D01*
X338640D01*
Y277855D01*
X338813D01*
Y277682D01*
Y277509D01*
X338986D01*
Y277336D01*
X339159D01*
Y277163D01*
Y276990D01*
X339332D01*
Y276817D01*
Y276644D01*
X339505D01*
Y276471D01*
Y276298D01*
X339678D01*
Y276125D01*
Y275952D01*
X339851D01*
Y275779D01*
Y275606D01*
X340024D01*
Y275433D01*
Y275260D01*
X340197D01*
Y275087D01*
Y274914D01*
Y274741D01*
X340370D01*
Y274568D01*
Y274395D01*
Y274222D01*
X340543D01*
Y274049D01*
Y273876D01*
Y273703D01*
X340716D01*
Y273531D01*
Y273358D01*
Y273184D01*
Y273011D01*
Y272839D01*
X340889D01*
Y272666D01*
Y272493D01*
Y272320D01*
Y272147D01*
Y271974D01*
Y271801D01*
Y271628D01*
X341062D01*
Y271455D01*
Y271282D01*
Y271109D01*
Y270936D01*
Y270763D01*
Y270590D01*
Y270417D01*
Y270244D01*
Y270071D01*
Y269898D01*
Y269725D01*
Y269552D01*
Y269379D01*
Y269206D01*
X340889D01*
Y269033D01*
Y268860D01*
Y268687D01*
Y268514D01*
Y268341D01*
Y268168D01*
Y267996D01*
X340716D01*
Y267823D01*
Y267650D01*
Y267477D01*
Y267304D01*
Y267131D01*
X340543D01*
Y266958D01*
Y266785D01*
Y266612D01*
X340370D01*
Y266439D01*
Y266266D01*
Y266093D01*
X340197D01*
Y265920D01*
Y265747D01*
Y265574D01*
X340024D01*
Y265401D01*
Y265228D01*
X339851D01*
Y265055D01*
Y264882D01*
X339678D01*
Y264709D01*
Y264536D01*
X339505D01*
Y264363D01*
Y264190D01*
X339332D01*
Y264017D01*
Y263844D01*
X339159D01*
Y263671D01*
Y263498D01*
X338986D01*
Y263326D01*
X338813D01*
Y263153D01*
Y262980D01*
X338640D01*
Y262807D01*
X338468D01*
Y262634D01*
X338295D01*
Y262461D01*
Y262288D01*
X338122D01*
Y262115D01*
X337948D01*
Y261942D01*
X337776D01*
Y261769D01*
X337603D01*
Y261596D01*
X337430D01*
Y261423D01*
X337257D01*
Y261250D01*
X337084D01*
Y261077D01*
X336911D01*
Y260904D01*
X336738D01*
Y260731D01*
X336565D01*
Y260558D01*
X336392D01*
Y260385D01*
X336219D01*
Y260212D01*
X335873D01*
Y260039D01*
X335700D01*
Y259866D01*
X335527D01*
Y259693D01*
X335181D01*
Y259520D01*
X335008D01*
Y259347D01*
X334662D01*
Y259174D01*
X334316D01*
Y259001D01*
X333970D01*
Y258828D01*
X333624D01*
Y258655D01*
X333278D01*
Y258482D01*
X332932D01*
Y258310D01*
X332414D01*
Y258137D01*
X331895D01*
Y257963D01*
X331203D01*
Y257790D01*
X330511D01*
Y257618D01*
X329127D01*
Y257445D01*
X327052D01*
Y257618D01*
X325668D01*
Y257790D01*
X324976D01*
Y257963D01*
X324284D01*
Y258137D01*
X323765D01*
Y258310D01*
X323247D01*
Y258482D01*
X322901D01*
Y258655D01*
X322555D01*
Y258828D01*
X322209D01*
Y259001D01*
X321863D01*
Y259174D01*
X321517D01*
Y259347D01*
X321344D01*
Y259520D01*
X320998D01*
Y259693D01*
X320825D01*
Y259866D01*
X320479D01*
Y260039D01*
X320306D01*
Y260212D01*
X319960D01*
Y260385D01*
X319787D01*
Y260558D01*
X319614D01*
Y260731D01*
X319441D01*
Y260904D01*
X319268D01*
Y261077D01*
X319095D01*
Y261250D01*
X318922D01*
Y261423D01*
X318749D01*
Y261596D01*
X318576D01*
Y261769D01*
X318403D01*
Y261942D01*
X318231D01*
Y262115D01*
X318057D01*
Y262288D01*
Y262461D01*
X317884D01*
Y262634D01*
X317711D01*
Y262807D01*
X317539D01*
Y262980D01*
Y263153D01*
X317366D01*
Y263326D01*
X317193D01*
Y263498D01*
Y263671D01*
X317020D01*
Y263844D01*
X316847D01*
Y264017D01*
Y264190D01*
X316674D01*
Y264363D01*
Y264536D01*
X316501D01*
Y264709D01*
Y264882D01*
X316328D01*
Y265055D01*
Y265228D01*
X316155D01*
Y265401D01*
Y265574D01*
Y265747D01*
X315982D01*
Y265920D01*
Y266093D01*
X315809D01*
Y266266D01*
Y266439D01*
Y266612D01*
X315636D01*
Y266785D01*
Y266958D01*
Y267131D01*
Y267304D01*
X315463D01*
Y267477D01*
Y267650D01*
Y267823D01*
Y267996D01*
Y268168D01*
X315290D01*
Y268341D01*
Y268514D01*
Y268687D01*
Y268860D01*
Y269033D01*
Y269206D01*
Y269379D01*
Y269552D01*
X315117D01*
Y269725D01*
Y269898D01*
Y270071D01*
Y270244D01*
Y270417D01*
Y270590D01*
Y270763D01*
Y270936D01*
Y271109D01*
Y271282D01*
X315290D01*
Y271455D01*
Y271628D01*
Y271801D01*
Y271974D01*
Y272147D01*
Y272320D01*
Y272493D01*
Y272666D01*
X315463D01*
Y272839D01*
Y273011D01*
Y273184D01*
Y273358D01*
Y273531D01*
X315636D01*
Y273703D01*
Y273876D01*
Y274049D01*
Y274222D01*
X315809D01*
Y274395D01*
Y274568D01*
Y274741D01*
X315982D01*
Y274914D01*
Y275087D01*
X316155D01*
Y275260D01*
Y275433D01*
Y275606D01*
X316328D01*
Y275779D01*
Y275952D01*
X316501D01*
Y276125D01*
Y276298D01*
X316674D01*
Y276471D01*
Y276644D01*
X316847D01*
Y276817D01*
Y276990D01*
X317020D01*
Y277163D01*
X317193D01*
Y277336D01*
Y277509D01*
X317366D01*
Y277682D01*
X317539D01*
Y277855D01*
Y278028D01*
X317711D01*
Y278201D01*
X317884D01*
Y278374D01*
X318057D01*
Y278547D01*
Y278719D01*
X318231D01*
Y278892D01*
X318403D01*
Y279065D01*
X318576D01*
Y279238D01*
X318749D01*
Y279411D01*
X318922D01*
Y279584D01*
X319095D01*
Y279757D01*
X319268D01*
Y279930D01*
X319441D01*
Y280103D01*
X319614D01*
Y280276D01*
X319787D01*
Y280449D01*
X319960D01*
Y280622D01*
X320306D01*
Y280795D01*
X320479D01*
Y280968D01*
X320825D01*
Y281141D01*
X320998D01*
Y281314D01*
X321344D01*
Y281487D01*
X321517D01*
Y281660D01*
X321863D01*
Y281833D01*
X322209D01*
Y282006D01*
X322555D01*
Y282179D01*
X322901D01*
Y282352D01*
X323247D01*
Y282525D01*
X323765D01*
Y282698D01*
X324284D01*
Y282871D01*
X324976D01*
Y283044D01*
X325668D01*
Y283217D01*
X327052D01*
Y283389D01*
X329127D01*
Y283217D01*
D02*
G37*
G36*
X211160Y267540D02*
Y267419D01*
Y267298D01*
Y267178D01*
Y267057D01*
Y266936D01*
Y266815D01*
Y266694D01*
X210192D01*
Y266815D01*
Y266936D01*
Y267057D01*
Y267178D01*
Y267298D01*
Y267419D01*
Y267540D01*
Y267661D01*
X211160D01*
Y267540D01*
D02*
G37*
G36*
X215996Y269475D02*
Y269354D01*
Y269233D01*
Y269112D01*
Y268991D01*
Y268870D01*
Y268749D01*
Y268628D01*
X215029D01*
Y268749D01*
Y268870D01*
Y268991D01*
Y269112D01*
Y269233D01*
Y269354D01*
Y269475D01*
Y269596D01*
X215996D01*
Y269475D01*
D02*
G37*
G36*
X214061Y270442D02*
Y270321D01*
Y270200D01*
Y270079D01*
Y269958D01*
Y269837D01*
Y269717D01*
Y269596D01*
X212127D01*
Y269717D01*
Y269837D01*
Y269958D01*
Y270079D01*
Y270200D01*
Y270321D01*
Y270442D01*
Y270563D01*
X214061D01*
Y270442D01*
D02*
G37*
G36*
X226636Y258835D02*
Y258714D01*
Y258593D01*
Y258472D01*
Y258351D01*
Y258230D01*
Y258110D01*
Y257989D01*
X225668D01*
Y258110D01*
Y258230D01*
Y258351D01*
Y258472D01*
Y258593D01*
Y258714D01*
Y258835D01*
Y258956D01*
X226636D01*
Y258835D01*
D02*
G37*
G36*
X220832Y259802D02*
Y259681D01*
Y259560D01*
Y259440D01*
Y259319D01*
Y259198D01*
Y259077D01*
Y258956D01*
X219865D01*
Y259077D01*
Y259198D01*
Y259319D01*
Y259440D01*
Y259560D01*
Y259681D01*
Y259802D01*
Y259923D01*
X220832D01*
Y259802D01*
D02*
G37*
G36*
X238243Y276245D02*
Y276125D01*
Y276004D01*
Y275883D01*
Y275762D01*
Y275641D01*
Y275520D01*
Y275399D01*
Y275278D01*
Y275157D01*
Y275036D01*
Y274915D01*
Y274795D01*
Y274674D01*
Y274553D01*
Y274432D01*
Y274311D01*
Y274190D01*
Y274069D01*
Y273948D01*
Y273827D01*
Y273706D01*
Y273586D01*
Y273465D01*
X236308D01*
Y273344D01*
Y273223D01*
Y273102D01*
Y272981D01*
Y272860D01*
Y272739D01*
Y272618D01*
Y272497D01*
Y272376D01*
Y272255D01*
Y272135D01*
Y272014D01*
Y271893D01*
Y271772D01*
Y271651D01*
Y271530D01*
Y271409D01*
Y271288D01*
Y271167D01*
Y271046D01*
Y270926D01*
Y270805D01*
Y270684D01*
Y270563D01*
X237275D01*
Y270442D01*
Y270321D01*
Y270200D01*
Y270079D01*
Y269958D01*
Y269837D01*
Y269717D01*
Y269596D01*
X236308D01*
Y269475D01*
Y269354D01*
Y269233D01*
Y269112D01*
Y268991D01*
Y268870D01*
Y268749D01*
Y268628D01*
X238243D01*
Y268508D01*
Y268387D01*
Y268266D01*
Y268145D01*
Y268024D01*
Y267903D01*
Y267782D01*
Y267661D01*
Y267540D01*
Y267419D01*
Y267298D01*
Y267178D01*
Y267057D01*
Y266936D01*
Y266815D01*
Y266694D01*
Y266573D01*
Y266452D01*
Y266331D01*
Y266210D01*
Y266089D01*
Y265968D01*
Y265848D01*
Y265727D01*
Y265606D01*
Y265485D01*
Y265364D01*
Y265243D01*
Y265122D01*
Y265001D01*
Y264880D01*
Y264759D01*
Y264638D01*
Y264518D01*
Y264397D01*
Y264276D01*
Y264155D01*
Y264034D01*
Y263913D01*
Y263792D01*
X237275D01*
Y263913D01*
Y264034D01*
Y264155D01*
Y264276D01*
Y264397D01*
Y264518D01*
Y264638D01*
Y264759D01*
Y264880D01*
Y265001D01*
Y265122D01*
Y265243D01*
Y265364D01*
Y265485D01*
Y265606D01*
Y265727D01*
Y265848D01*
Y265968D01*
Y266089D01*
Y266210D01*
Y266331D01*
Y266452D01*
Y266573D01*
Y266694D01*
X236308D01*
Y266815D01*
Y266936D01*
Y267057D01*
Y267178D01*
Y267298D01*
Y267419D01*
Y267540D01*
Y267661D01*
Y267782D01*
Y267903D01*
Y268024D01*
Y268145D01*
Y268266D01*
Y268387D01*
Y268508D01*
Y268628D01*
X235341D01*
Y268749D01*
Y268870D01*
Y268991D01*
Y269112D01*
Y269233D01*
Y269354D01*
Y269475D01*
Y269596D01*
Y269717D01*
Y269837D01*
Y269958D01*
Y270079D01*
Y270200D01*
Y270321D01*
Y270442D01*
Y270563D01*
X234373D01*
Y270684D01*
Y270805D01*
Y270926D01*
Y271046D01*
Y271167D01*
Y271288D01*
Y271409D01*
Y271530D01*
X235341D01*
Y271651D01*
Y271772D01*
Y271893D01*
Y272014D01*
Y272135D01*
Y272255D01*
Y272376D01*
Y272497D01*
Y272618D01*
Y272739D01*
Y272860D01*
Y272981D01*
Y273102D01*
Y273223D01*
Y273344D01*
Y273465D01*
Y273586D01*
Y273706D01*
Y273827D01*
Y273948D01*
Y274069D01*
Y274190D01*
Y274311D01*
Y274432D01*
X234373D01*
Y274553D01*
Y274674D01*
Y274795D01*
Y274915D01*
Y275036D01*
Y275157D01*
Y275278D01*
Y275399D01*
X233406D01*
Y275520D01*
Y275641D01*
Y275762D01*
Y275883D01*
Y276004D01*
Y276125D01*
Y276245D01*
Y276366D01*
X238243D01*
Y276245D01*
D02*
G37*
G36*
X252077Y258941D02*
X252135Y258930D01*
X252186Y258918D01*
X252227Y258901D01*
X252267Y258878D01*
X252296Y258866D01*
X252313Y258855D01*
X252319Y258849D01*
X252371Y258809D01*
X252417Y258751D01*
X252469Y258688D01*
X252515Y258624D01*
X252549Y258567D01*
X252578Y258515D01*
X252601Y258480D01*
X252607Y258474D01*
Y258884D01*
X253028D01*
Y256142D01*
X252561D01*
Y257576D01*
X252555Y257685D01*
X252549Y257783D01*
X252538Y257875D01*
X252521Y257956D01*
X252509Y258025D01*
X252498Y258077D01*
X252492Y258106D01*
X252486Y258117D01*
X252463Y258175D01*
X252440Y258227D01*
X252411Y258273D01*
X252382Y258308D01*
X252359Y258336D01*
X252336Y258359D01*
X252325Y258371D01*
X252319Y258377D01*
X252273Y258405D01*
X252227Y258429D01*
X252181Y258446D01*
X252140Y258457D01*
X252100Y258463D01*
X252071Y258469D01*
X252048D01*
X251985Y258463D01*
X251922Y258452D01*
X251864Y258434D01*
X251812Y258417D01*
X251772Y258400D01*
X251737Y258382D01*
X251714Y258371D01*
X251709Y258365D01*
X251541Y258791D01*
X251634Y258843D01*
X251720Y258884D01*
X251801Y258907D01*
X251870Y258930D01*
X251933Y258941D01*
X251979Y258947D01*
X252020D01*
X252077Y258941D01*
D02*
G37*
G36*
X262387Y256142D02*
X260815D01*
X260700Y256153D01*
X260596Y256159D01*
X260504Y256171D01*
X260435Y256182D01*
X260383Y256188D01*
X260349Y256199D01*
X260337D01*
X260250Y256228D01*
X260170Y256257D01*
X260095Y256286D01*
X260037Y256314D01*
X259986Y256343D01*
X259951Y256366D01*
X259928Y256378D01*
X259922Y256384D01*
X259865Y256435D01*
X259807Y256493D01*
X259761Y256551D01*
X259721Y256608D01*
X259692Y256660D01*
X259663Y256700D01*
X259651Y256729D01*
X259646Y256741D01*
X259605Y256827D01*
X259577Y256914D01*
X259559Y257000D01*
X259542Y257075D01*
X259536Y257138D01*
X259530Y257190D01*
Y257225D01*
Y257236D01*
X259536Y257357D01*
X259559Y257467D01*
X259588Y257559D01*
X259623Y257645D01*
X259663Y257714D01*
X259692Y257766D01*
X259715Y257795D01*
X259721Y257806D01*
X259795Y257893D01*
X259882Y257962D01*
X259968Y258019D01*
X260055Y258071D01*
X260130Y258106D01*
X260193Y258135D01*
X260216Y258140D01*
X260233Y258146D01*
X260245Y258152D01*
X260250D01*
X260153Y258204D01*
X260072Y258261D01*
X260003Y258313D01*
X259945Y258371D01*
X259905Y258417D01*
X259870Y258457D01*
X259853Y258480D01*
X259847Y258492D01*
X259801Y258572D01*
X259772Y258659D01*
X259749Y258734D01*
X259732Y258803D01*
X259721Y258866D01*
X259715Y258912D01*
Y258941D01*
Y258953D01*
X259721Y259050D01*
X259738Y259143D01*
X259761Y259223D01*
X259790Y259298D01*
X259819Y259362D01*
X259842Y259413D01*
X259859Y259442D01*
X259865Y259454D01*
X259928Y259540D01*
X259991Y259609D01*
X260061Y259673D01*
X260130Y259724D01*
X260187Y259759D01*
X260233Y259788D01*
X260268Y259805D01*
X260274Y259811D01*
X260279D01*
X260383Y259851D01*
X260498Y259880D01*
X260613Y259897D01*
X260723Y259914D01*
X260821Y259920D01*
X260861D01*
X260901Y259926D01*
X262387D01*
Y256142D01*
D02*
G37*
G36*
X271171D02*
X270670D01*
Y257685D01*
X269703D01*
X269559Y257691D01*
X269426Y257697D01*
X269305Y257714D01*
X269190Y257737D01*
X269092Y257760D01*
X269000Y257789D01*
X268919Y257818D01*
X268850Y257852D01*
X268787Y257881D01*
X268735Y257910D01*
X268695Y257939D01*
X268654Y257962D01*
X268631Y257985D01*
X268614Y258002D01*
X268602Y258008D01*
X268597Y258014D01*
X268539Y258077D01*
X268493Y258146D01*
X268453Y258215D01*
X268418Y258284D01*
X268361Y258417D01*
X268326Y258549D01*
X268309Y258607D01*
X268303Y258659D01*
X268297Y258711D01*
X268291Y258751D01*
X268286Y258786D01*
Y258809D01*
Y258826D01*
Y258832D01*
X268291Y258935D01*
X268303Y259033D01*
X268320Y259120D01*
X268343Y259194D01*
X268366Y259258D01*
X268384Y259304D01*
X268395Y259333D01*
X268401Y259344D01*
X268447Y259431D01*
X268499Y259500D01*
X268551Y259563D01*
X268597Y259615D01*
X268637Y259655D01*
X268672Y259684D01*
X268701Y259701D01*
X268706Y259707D01*
X268781Y259753D01*
X268862Y259794D01*
X268937Y259822D01*
X269011Y259845D01*
X269075Y259863D01*
X269127Y259874D01*
X269161Y259886D01*
X269173D01*
X269253Y259897D01*
X269346Y259909D01*
X269443Y259914D01*
X269536Y259920D01*
X269622Y259926D01*
X271171D01*
Y256142D01*
D02*
G37*
G36*
X249531Y258567D02*
X249577Y258624D01*
X249629Y258682D01*
X249687Y258728D01*
X249733Y258763D01*
X249779Y258797D01*
X249813Y258820D01*
X249836Y258832D01*
X249848Y258837D01*
X249923Y258872D01*
X249998Y258901D01*
X250073Y258918D01*
X250136Y258935D01*
X250199Y258941D01*
X250245Y258947D01*
X250286D01*
X250407Y258941D01*
X250522Y258918D01*
X250626Y258889D01*
X250718Y258860D01*
X250793Y258826D01*
X250850Y258797D01*
X250885Y258774D01*
X250890Y258768D01*
X250896D01*
X250994Y258693D01*
X251075Y258613D01*
X251144Y258526D01*
X251202Y258440D01*
X251248Y258365D01*
X251276Y258308D01*
X251288Y258284D01*
X251300Y258267D01*
X251305Y258256D01*
Y258250D01*
X251351Y258123D01*
X251380Y257991D01*
X251403Y257870D01*
X251420Y257754D01*
X251432Y257657D01*
Y257611D01*
X251438Y257576D01*
Y257547D01*
Y257524D01*
Y257513D01*
Y257507D01*
X251432Y257351D01*
X251415Y257213D01*
X251392Y257086D01*
X251363Y256977D01*
X251334Y256885D01*
X251323Y256844D01*
X251311Y256816D01*
X251300Y256793D01*
X251294Y256775D01*
X251288Y256764D01*
Y256758D01*
X251225Y256643D01*
X251161Y256545D01*
X251086Y256458D01*
X251023Y256389D01*
X250960Y256332D01*
X250914Y256292D01*
X250879Y256263D01*
X250873Y256257D01*
X250868D01*
X250764Y256199D01*
X250654Y256153D01*
X250556Y256124D01*
X250459Y256101D01*
X250384Y256090D01*
X250320Y256084D01*
X250297Y256078D01*
X250263D01*
X250170Y256084D01*
X250084Y256096D01*
X250004Y256113D01*
X249929Y256142D01*
X249865Y256171D01*
X249802Y256205D01*
X249744Y256245D01*
X249693Y256280D01*
X249646Y256320D01*
X249606Y256355D01*
X249571Y256389D01*
X249549Y256418D01*
X249525Y256447D01*
X249508Y256464D01*
X249502Y256476D01*
X249497Y256482D01*
Y256142D01*
X249065D01*
Y259926D01*
X249531D01*
Y258567D01*
D02*
G37*
G36*
X257883Y258941D02*
X257975Y258935D01*
X258142Y258901D01*
X258292Y258849D01*
X258355Y258820D01*
X258413Y258797D01*
X258471Y258768D01*
X258517Y258739D01*
X258557Y258711D01*
X258592Y258688D01*
X258621Y258670D01*
X258638Y258653D01*
X258649Y258647D01*
X258655Y258642D01*
X258730Y258567D01*
X258793Y258486D01*
X258851Y258400D01*
X258897Y258308D01*
X258937Y258215D01*
X258972Y258123D01*
X259001Y258031D01*
X259024Y257939D01*
X259041Y257852D01*
X259052Y257772D01*
X259064Y257703D01*
X259070Y257639D01*
Y257588D01*
X259075Y257547D01*
Y257524D01*
Y257513D01*
X259070Y257386D01*
X259058Y257265D01*
X259041Y257155D01*
X259018Y257052D01*
X258995Y256960D01*
X258966Y256868D01*
X258931Y256793D01*
X258897Y256718D01*
X258868Y256654D01*
X258834Y256603D01*
X258805Y256556D01*
X258776Y256516D01*
X258759Y256487D01*
X258741Y256464D01*
X258730Y256453D01*
X258724Y256447D01*
X258655Y256384D01*
X258580Y256326D01*
X258505Y256274D01*
X258425Y256234D01*
X258350Y256199D01*
X258269Y256171D01*
X258125Y256124D01*
X258056Y256107D01*
X257993Y256096D01*
X257935Y256090D01*
X257889Y256084D01*
X257849Y256078D01*
X257791D01*
X257659Y256084D01*
X257538Y256107D01*
X257428Y256130D01*
X257330Y256165D01*
X257250Y256194D01*
X257186Y256222D01*
X257163Y256228D01*
X257146Y256240D01*
X257140Y256245D01*
X257134D01*
X257025Y256314D01*
X256933Y256389D01*
X256852Y256464D01*
X256789Y256539D01*
X256737Y256608D01*
X256697Y256660D01*
X256674Y256700D01*
X256668Y256706D01*
Y256712D01*
X256616Y256833D01*
X256576Y256971D01*
X256547Y257109D01*
X256524Y257242D01*
X256518Y257305D01*
X256512Y257363D01*
Y257415D01*
X256506Y257461D01*
Y257495D01*
Y257524D01*
Y257541D01*
Y257547D01*
X256512Y257668D01*
X256524Y257778D01*
X256541Y257887D01*
X256564Y257985D01*
X256593Y258077D01*
X256622Y258158D01*
X256656Y258238D01*
X256685Y258308D01*
X256720Y258365D01*
X256754Y258423D01*
X256783Y258469D01*
X256812Y258503D01*
X256835Y258532D01*
X256852Y258555D01*
X256864Y258567D01*
X256869Y258572D01*
X256939Y258636D01*
X257013Y258693D01*
X257088Y258745D01*
X257163Y258791D01*
X257244Y258826D01*
X257319Y258855D01*
X257463Y258901D01*
X257532Y258918D01*
X257595Y258930D01*
X257647Y258935D01*
X257699Y258941D01*
X257739Y258947D01*
X257791D01*
X257883Y258941D01*
D02*
G37*
G36*
X284322Y259938D02*
X284402Y259932D01*
X284558Y259897D01*
X284696Y259857D01*
X284805Y259805D01*
X284857Y259776D01*
X284898Y259753D01*
X284932Y259724D01*
X284967Y259707D01*
X284990Y259690D01*
X285007Y259673D01*
X285013Y259667D01*
X285018Y259661D01*
X285070Y259609D01*
X285117Y259552D01*
X285157Y259494D01*
X285186Y259431D01*
X285243Y259315D01*
X285278Y259206D01*
X285295Y259108D01*
X285301Y259068D01*
X285307Y259033D01*
X285312Y259004D01*
Y258981D01*
Y258970D01*
Y258964D01*
X285307Y258866D01*
X285289Y258780D01*
X285266Y258699D01*
X285243Y258630D01*
X285220Y258572D01*
X285197Y258532D01*
X285180Y258509D01*
X285174Y258498D01*
X285117Y258429D01*
X285047Y258371D01*
X284978Y258319D01*
X284903Y258273D01*
X284840Y258244D01*
X284788Y258215D01*
X284754Y258204D01*
X284748Y258198D01*
X284742D01*
X284863Y258158D01*
X284973Y258106D01*
X285065Y258048D01*
X285139Y257991D01*
X285197Y257939D01*
X285243Y257893D01*
X285266Y257864D01*
X285278Y257858D01*
Y257852D01*
X285341Y257754D01*
X285381Y257651D01*
X285416Y257547D01*
X285439Y257449D01*
X285451Y257369D01*
X285456Y257328D01*
Y257299D01*
X285462Y257271D01*
Y257253D01*
Y257242D01*
Y257236D01*
X285456Y257144D01*
X285445Y257058D01*
X285433Y256977D01*
X285410Y256896D01*
X285353Y256758D01*
X285324Y256695D01*
X285289Y256637D01*
X285261Y256585D01*
X285232Y256539D01*
X285203Y256499D01*
X285174Y256464D01*
X285151Y256441D01*
X285139Y256424D01*
X285128Y256412D01*
X285122Y256407D01*
X285053Y256349D01*
X284984Y256297D01*
X284909Y256257D01*
X284834Y256217D01*
X284759Y256188D01*
X284684Y256159D01*
X284541Y256119D01*
X284471Y256107D01*
X284414Y256096D01*
X284356Y256090D01*
X284310Y256084D01*
X284270Y256078D01*
X284218D01*
X284114Y256084D01*
X284016Y256090D01*
X283924Y256107D01*
X283843Y256130D01*
X283763Y256153D01*
X283688Y256182D01*
X283619Y256211D01*
X283556Y256245D01*
X283498Y256274D01*
X283452Y256303D01*
X283412Y256332D01*
X283377Y256355D01*
X283348Y256378D01*
X283331Y256395D01*
X283319Y256401D01*
X283314Y256407D01*
X283250Y256470D01*
X283198Y256533D01*
X283152Y256603D01*
X283112Y256672D01*
X283077Y256741D01*
X283054Y256810D01*
X283008Y256937D01*
X282985Y257052D01*
X282979Y257104D01*
X282974Y257144D01*
X282968Y257178D01*
Y257202D01*
Y257219D01*
Y257225D01*
X282974Y257351D01*
X282997Y257467D01*
X283026Y257570D01*
X283060Y257657D01*
X283095Y257732D01*
X283123Y257783D01*
X283147Y257818D01*
X283152Y257829D01*
X283227Y257916D01*
X283314Y257997D01*
X283400Y258060D01*
X283486Y258112D01*
X283561Y258146D01*
X283625Y258175D01*
X283648Y258187D01*
X283665Y258192D01*
X283677Y258198D01*
X283682D01*
X283584Y258238D01*
X283498Y258290D01*
X283423Y258336D01*
X283365Y258382D01*
X283319Y258429D01*
X283285Y258463D01*
X283267Y258486D01*
X283262Y258492D01*
X283216Y258567D01*
X283181Y258647D01*
X283158Y258722D01*
X283141Y258797D01*
X283129Y258860D01*
X283123Y258907D01*
Y258941D01*
Y258953D01*
X283129Y259028D01*
X283135Y259102D01*
X283170Y259235D01*
X283221Y259356D01*
X283273Y259459D01*
X283331Y259540D01*
X283360Y259575D01*
X283383Y259604D01*
X283400Y259627D01*
X283417Y259644D01*
X283423Y259650D01*
X283429Y259655D01*
X283486Y259707D01*
X283550Y259753D01*
X283613Y259788D01*
X283682Y259822D01*
X283815Y259874D01*
X283941Y259909D01*
X284057Y259926D01*
X284103Y259938D01*
X284149D01*
X284183Y259943D01*
X284229D01*
X284322Y259938D01*
D02*
G37*
G36*
X294344Y256142D02*
X293843D01*
Y257858D01*
X292069D01*
Y258302D01*
X293843D01*
Y259483D01*
X291792D01*
Y259926D01*
X294344D01*
Y256142D01*
D02*
G37*
G36*
X267641Y257737D02*
Y257628D01*
X267635Y257524D01*
X267629Y257426D01*
X267618Y257334D01*
X267606Y257253D01*
X267595Y257173D01*
X267583Y257104D01*
X267566Y257040D01*
X267554Y256983D01*
X267543Y256931D01*
X267531Y256885D01*
X267520Y256850D01*
X267508Y256821D01*
X267502Y256804D01*
X267497Y256793D01*
Y256787D01*
X267433Y256666D01*
X267358Y256556D01*
X267284Y256470D01*
X267203Y256395D01*
X267134Y256332D01*
X267070Y256292D01*
X267047Y256274D01*
X267036Y256268D01*
X267024Y256257D01*
X267019D01*
X266886Y256199D01*
X266736Y256153D01*
X266592Y256124D01*
X266454Y256101D01*
X266391Y256096D01*
X266333Y256090D01*
X266281Y256084D01*
X266235D01*
X266201Y256078D01*
X266149D01*
X265953Y256090D01*
X265780Y256113D01*
X265700Y256124D01*
X265630Y256142D01*
X265561Y256165D01*
X265504Y256182D01*
X265452Y256199D01*
X265400Y256222D01*
X265360Y256240D01*
X265331Y256251D01*
X265302Y256268D01*
X265285Y256274D01*
X265273Y256286D01*
X265267D01*
X265152Y256372D01*
X265049Y256458D01*
X264968Y256551D01*
X264905Y256637D01*
X264859Y256718D01*
X264824Y256775D01*
X264812Y256798D01*
X264807Y256816D01*
X264801Y256827D01*
Y256833D01*
X264755Y256965D01*
X264726Y257115D01*
X264703Y257265D01*
X264686Y257409D01*
X264680Y257478D01*
X264674Y257541D01*
Y257593D01*
X264668Y257645D01*
Y257685D01*
Y257714D01*
Y257732D01*
Y257737D01*
Y259926D01*
X265170D01*
Y257737D01*
Y257611D01*
X265181Y257490D01*
X265193Y257386D01*
X265204Y257288D01*
X265221Y257196D01*
X265245Y257121D01*
X265267Y257052D01*
X265285Y256989D01*
X265308Y256937D01*
X265331Y256891D01*
X265348Y256856D01*
X265371Y256827D01*
X265383Y256804D01*
X265394Y256787D01*
X265406Y256781D01*
Y256775D01*
X265452Y256729D01*
X265509Y256695D01*
X265630Y256631D01*
X265757Y256591D01*
X265890Y256556D01*
X266005Y256539D01*
X266057Y256533D01*
X266103D01*
X266143Y256528D01*
X266195D01*
X266310Y256533D01*
X266414Y256545D01*
X266506Y256568D01*
X266586Y256591D01*
X266650Y256608D01*
X266696Y256631D01*
X266725Y256643D01*
X266736Y256649D01*
X266817Y256700D01*
X266880Y256758D01*
X266938Y256821D01*
X266978Y256879D01*
X267013Y256931D01*
X267036Y256971D01*
X267047Y257000D01*
X267053Y257012D01*
X267070Y257058D01*
X267082Y257109D01*
X267105Y257225D01*
X267116Y257346D01*
X267128Y257461D01*
X267134Y257570D01*
X267140Y257616D01*
Y257657D01*
Y257691D01*
Y257714D01*
Y257732D01*
Y257737D01*
Y259926D01*
X267641D01*
Y257737D01*
D02*
G37*
G36*
X254934Y258941D02*
X255055Y258930D01*
X255159Y258918D01*
X255251Y258901D01*
X255326Y258878D01*
X255383Y258866D01*
X255401Y258860D01*
X255418Y258855D01*
X255424Y258849D01*
X255429D01*
X255522Y258809D01*
X255602Y258763D01*
X255677Y258716D01*
X255735Y258676D01*
X255781Y258636D01*
X255810Y258601D01*
X255833Y258578D01*
X255838Y258572D01*
X255890Y258503D01*
X255930Y258423D01*
X255965Y258348D01*
X255994Y258273D01*
X256011Y258204D01*
X256029Y258152D01*
X256034Y258117D01*
X256040Y258112D01*
Y258106D01*
X255585Y258043D01*
X255556Y258140D01*
X255516Y258227D01*
X255481Y258296D01*
X255441Y258354D01*
X255406Y258394D01*
X255378Y258423D01*
X255360Y258440D01*
X255354Y258446D01*
X255291Y258486D01*
X255210Y258515D01*
X255136Y258532D01*
X255055Y258549D01*
X254980Y258555D01*
X254923Y258561D01*
X254871D01*
X254750Y258555D01*
X254640Y258538D01*
X254548Y258509D01*
X254473Y258480D01*
X254416Y258452D01*
X254375Y258423D01*
X254346Y258405D01*
X254341Y258400D01*
X254295Y258348D01*
X254266Y258290D01*
X254243Y258221D01*
X254226Y258158D01*
X254214Y258100D01*
X254208Y258048D01*
Y258014D01*
Y258008D01*
Y258002D01*
Y257991D01*
Y257973D01*
Y257933D01*
X254214Y257898D01*
Y257887D01*
Y257881D01*
X254266Y257864D01*
X254324Y257847D01*
X254456Y257812D01*
X254594Y257789D01*
X254727Y257766D01*
X254853Y257743D01*
X254905Y257737D01*
X254951Y257732D01*
X254992Y257726D01*
X255020D01*
X255038Y257720D01*
X255044D01*
X255141Y257708D01*
X255222Y257697D01*
X255297Y257685D01*
X255354Y257674D01*
X255401Y257662D01*
X255429Y257657D01*
X255452Y257651D01*
X255458D01*
X255527Y257628D01*
X255591Y257605D01*
X255643Y257582D01*
X255694Y257553D01*
X255735Y257530D01*
X255764Y257513D01*
X255786Y257501D01*
X255792Y257495D01*
X255844Y257455D01*
X255890Y257415D01*
X255936Y257369D01*
X255971Y257328D01*
X256000Y257288D01*
X256017Y257259D01*
X256029Y257236D01*
X256034Y257230D01*
X256063Y257167D01*
X256086Y257104D01*
X256098Y257040D01*
X256109Y256983D01*
X256115Y256937D01*
X256121Y256896D01*
Y256873D01*
Y256862D01*
X256109Y256741D01*
X256080Y256626D01*
X256046Y256533D01*
X256000Y256453D01*
X255954Y256384D01*
X255919Y256338D01*
X255890Y256309D01*
X255879Y256297D01*
X255781Y256222D01*
X255666Y256171D01*
X255556Y256130D01*
X255441Y256107D01*
X255343Y256090D01*
X255297Y256084D01*
X255262D01*
X255228Y256078D01*
X255188D01*
X255084Y256084D01*
X254992Y256096D01*
X254905Y256107D01*
X254825Y256124D01*
X254761Y256142D01*
X254715Y256159D01*
X254686Y256165D01*
X254675Y256171D01*
X254583Y256211D01*
X254496Y256257D01*
X254410Y256309D01*
X254335Y256366D01*
X254266Y256412D01*
X254220Y256453D01*
X254185Y256476D01*
X254174Y256487D01*
X254162Y256412D01*
X254151Y256349D01*
X254139Y256292D01*
X254122Y256240D01*
X254105Y256199D01*
X254093Y256165D01*
X254087Y256148D01*
X254082Y256142D01*
X253598D01*
X253650Y256257D01*
X253673Y256314D01*
X253690Y256361D01*
X253701Y256401D01*
X253707Y256435D01*
X253713Y256458D01*
Y256464D01*
X253719Y256505D01*
X253725Y256551D01*
Y256603D01*
X253730Y256666D01*
X253736Y256798D01*
Y256942D01*
X253742Y257075D01*
Y257133D01*
Y257184D01*
Y257225D01*
Y257259D01*
Y257282D01*
Y257288D01*
Y257910D01*
Y258019D01*
X253748Y258106D01*
X253753Y258181D01*
Y258238D01*
X253759Y258284D01*
X253765Y258313D01*
X253770Y258330D01*
Y258336D01*
X253788Y258405D01*
X253811Y258469D01*
X253834Y258521D01*
X253857Y258567D01*
X253880Y258607D01*
X253897Y258630D01*
X253909Y258647D01*
X253914Y258653D01*
X253961Y258699D01*
X254007Y258739D01*
X254064Y258774D01*
X254116Y258803D01*
X254162Y258826D01*
X254203Y258849D01*
X254226Y258855D01*
X254237Y258860D01*
X254324Y258889D01*
X254416Y258912D01*
X254514Y258924D01*
X254606Y258935D01*
X254686Y258941D01*
X254750Y258947D01*
X254807D01*
X254934Y258941D01*
D02*
G37*
G36*
X291251Y257927D02*
X290813Y257864D01*
X290773Y257922D01*
X290727Y257973D01*
X290681Y258019D01*
X290640Y258060D01*
X290600Y258089D01*
X290565Y258112D01*
X290542Y258123D01*
X290537Y258129D01*
X290468Y258163D01*
X290398Y258192D01*
X290329Y258210D01*
X290266Y258227D01*
X290208Y258233D01*
X290168Y258238D01*
X290128D01*
X290001Y258227D01*
X289886Y258204D01*
X289782Y258163D01*
X289701Y258123D01*
X289632Y258083D01*
X289586Y258043D01*
X289557Y258019D01*
X289546Y258008D01*
X289471Y257916D01*
X289413Y257812D01*
X289373Y257708D01*
X289350Y257611D01*
X289333Y257518D01*
X289327Y257478D01*
Y257443D01*
X289321Y257420D01*
Y257397D01*
Y257386D01*
Y257380D01*
X289333Y257230D01*
X289356Y257098D01*
X289396Y256983D01*
X289437Y256885D01*
X289477Y256810D01*
X289517Y256752D01*
X289540Y256718D01*
X289552Y256712D01*
Y256706D01*
X289598Y256660D01*
X289644Y256626D01*
X289736Y256562D01*
X289834Y256522D01*
X289920Y256487D01*
X290001Y256470D01*
X290064Y256464D01*
X290087Y256458D01*
X290122D01*
X290220Y256464D01*
X290312Y256487D01*
X290393Y256516D01*
X290462Y256545D01*
X290519Y256579D01*
X290560Y256603D01*
X290583Y256626D01*
X290594Y256631D01*
X290663Y256706D01*
X290715Y256793D01*
X290761Y256879D01*
X290790Y256965D01*
X290813Y257046D01*
X290830Y257109D01*
X290836Y257133D01*
X290842Y257150D01*
Y257161D01*
Y257167D01*
X291332Y257133D01*
X291320Y257046D01*
X291303Y256960D01*
X291257Y256810D01*
X291193Y256677D01*
X291130Y256568D01*
X291095Y256522D01*
X291067Y256482D01*
X291038Y256447D01*
X291015Y256418D01*
X290992Y256395D01*
X290974Y256378D01*
X290969Y256372D01*
X290963Y256366D01*
X290899Y256314D01*
X290830Y256274D01*
X290761Y256234D01*
X290692Y256199D01*
X290554Y256148D01*
X290421Y256113D01*
X290358Y256101D01*
X290300Y256096D01*
X290249Y256090D01*
X290208Y256084D01*
X290174Y256078D01*
X290122D01*
X290007Y256084D01*
X289897Y256096D01*
X289799Y256119D01*
X289701Y256148D01*
X289615Y256182D01*
X289529Y256222D01*
X289454Y256263D01*
X289390Y256309D01*
X289327Y256349D01*
X289275Y256389D01*
X289229Y256430D01*
X289194Y256464D01*
X289166Y256493D01*
X289143Y256516D01*
X289131Y256528D01*
X289125Y256533D01*
X289074Y256603D01*
X289028Y256677D01*
X288987Y256752D01*
X288953Y256833D01*
X288901Y256977D01*
X288861Y257115D01*
X288849Y257178D01*
X288843Y257236D01*
X288837Y257288D01*
X288832Y257334D01*
X288826Y257369D01*
Y257397D01*
Y257415D01*
Y257420D01*
X288832Y257518D01*
X288843Y257616D01*
X288861Y257703D01*
X288878Y257789D01*
X288907Y257864D01*
X288935Y257939D01*
X288964Y258002D01*
X288999Y258066D01*
X289033Y258117D01*
X289062Y258163D01*
X289091Y258204D01*
X289120Y258238D01*
X289137Y258267D01*
X289154Y258284D01*
X289166Y258296D01*
X289172Y258302D01*
X289235Y258365D01*
X289304Y258417D01*
X289373Y258463D01*
X289448Y258503D01*
X289517Y258538D01*
X289586Y258561D01*
X289719Y258607D01*
X289776Y258618D01*
X289834Y258630D01*
X289880Y258636D01*
X289926Y258642D01*
X289961Y258647D01*
X290007D01*
X290145Y258636D01*
X290277Y258607D01*
X290398Y258572D01*
X290502Y258526D01*
X290594Y258480D01*
X290629Y258463D01*
X290663Y258446D01*
X290686Y258429D01*
X290704Y258417D01*
X290715Y258411D01*
X290721Y258405D01*
X290514Y259425D01*
X289004D01*
Y259868D01*
X290882D01*
X291251Y257927D01*
D02*
G37*
G36*
X298174Y256142D02*
X297673D01*
Y257824D01*
X297028D01*
X296971Y257818D01*
X296924D01*
X296884Y257812D01*
X296855Y257806D01*
X296832D01*
X296821Y257801D01*
X296815D01*
X296729Y257772D01*
X296659Y257737D01*
X296631Y257720D01*
X296608Y257708D01*
X296596Y257703D01*
X296590Y257697D01*
X296544Y257668D01*
X296504Y257628D01*
X296418Y257547D01*
X296389Y257507D01*
X296360Y257472D01*
X296343Y257449D01*
X296337Y257443D01*
X296279Y257369D01*
X296222Y257288D01*
X296158Y257202D01*
X296101Y257115D01*
X296049Y257040D01*
X296009Y256983D01*
X295997Y256960D01*
X295986Y256942D01*
X295974Y256931D01*
Y256925D01*
X295473Y256142D01*
X294845D01*
X295502Y257167D01*
X295577Y257277D01*
X295652Y257374D01*
X295721Y257461D01*
X295784Y257536D01*
X295836Y257593D01*
X295876Y257639D01*
X295905Y257662D01*
X295917Y257674D01*
X295957Y257708D01*
X296009Y257743D01*
X296107Y257806D01*
X296147Y257829D01*
X296181Y257847D01*
X296204Y257858D01*
X296216Y257864D01*
X296118Y257881D01*
X296026Y257898D01*
X295939Y257922D01*
X295865Y257950D01*
X295790Y257979D01*
X295726Y258008D01*
X295663Y258037D01*
X295611Y258066D01*
X295565Y258094D01*
X295525Y258117D01*
X295490Y258146D01*
X295461Y258163D01*
X295444Y258187D01*
X295427Y258198D01*
X295415Y258210D01*
X295369Y258261D01*
X295329Y258319D01*
X295260Y258434D01*
X295214Y258544D01*
X295185Y258653D01*
X295162Y258745D01*
X295156Y258786D01*
Y258820D01*
X295150Y258849D01*
Y258872D01*
Y258884D01*
Y258889D01*
X295156Y259004D01*
X295173Y259108D01*
X295202Y259206D01*
X295231Y259293D01*
X295260Y259362D01*
X295289Y259413D01*
X295306Y259448D01*
X295312Y259459D01*
X295375Y259552D01*
X295444Y259627D01*
X295513Y259690D01*
X295582Y259736D01*
X295640Y259776D01*
X295686Y259805D01*
X295721Y259817D01*
X295726Y259822D01*
X295732D01*
X295784Y259840D01*
X295842Y259857D01*
X295963Y259880D01*
X296089Y259903D01*
X296210Y259914D01*
X296325Y259920D01*
X296372D01*
X296418Y259926D01*
X298174D01*
Y256142D01*
D02*
G37*
G36*
X299994Y258941D02*
X300093Y258930D01*
X300185Y258907D01*
X300265Y258878D01*
X300346Y258843D01*
X300415Y258803D01*
X300478Y258763D01*
X300542Y258722D01*
X300594Y258676D01*
X300634Y258636D01*
X300674Y258595D01*
X300703Y258561D01*
X300732Y258532D01*
X300749Y258509D01*
X300755Y258498D01*
X300761Y258492D01*
Y258884D01*
X301181D01*
Y256142D01*
X300714D01*
Y257639D01*
Y257732D01*
X300703Y257818D01*
X300697Y257898D01*
X300680Y257973D01*
X300663Y258037D01*
X300645Y258094D01*
X300628Y258146D01*
X300605Y258192D01*
X300588Y258233D01*
X300571Y258267D01*
X300536Y258313D01*
X300513Y258342D01*
X300501Y258354D01*
X300421Y258417D01*
X300329Y258463D01*
X300248Y258498D01*
X300167Y258521D01*
X300093Y258532D01*
X300041Y258544D01*
X299989D01*
X299920Y258538D01*
X299862Y258532D01*
X299804Y258515D01*
X299758Y258503D01*
X299718Y258486D01*
X299689Y258469D01*
X299672Y258463D01*
X299666Y258457D01*
X299620Y258423D01*
X299580Y258382D01*
X299545Y258348D01*
X299517Y258308D01*
X299499Y258279D01*
X299488Y258250D01*
X299476Y258233D01*
Y258227D01*
X299459Y258169D01*
X299442Y258106D01*
X299430Y258031D01*
X299424Y257968D01*
X299418Y257904D01*
Y257852D01*
Y257818D01*
Y257812D01*
Y257806D01*
Y256142D01*
X298952D01*
Y257824D01*
Y257939D01*
X298958Y258031D01*
X298963Y258112D01*
Y258175D01*
X298969Y258221D01*
X298975Y258256D01*
X298981Y258273D01*
Y258279D01*
X298998Y258348D01*
X299021Y258417D01*
X299044Y258474D01*
X299067Y258521D01*
X299090Y258561D01*
X299108Y258595D01*
X299119Y258613D01*
X299125Y258618D01*
X299165Y258670D01*
X299217Y258716D01*
X299269Y258757D01*
X299321Y258791D01*
X299367Y258820D01*
X299401Y258837D01*
X299424Y258849D01*
X299436Y258855D01*
X299517Y258884D01*
X299591Y258907D01*
X299672Y258924D01*
X299741Y258935D01*
X299799Y258941D01*
X299851Y258947D01*
X299891D01*
X299994Y258941D01*
D02*
G37*
G36*
X273533Y259978D02*
X273706Y259955D01*
X273861Y259914D01*
X273931Y259897D01*
X273994Y259874D01*
X274051Y259851D01*
X274109Y259834D01*
X274155Y259811D01*
X274190Y259794D01*
X274224Y259782D01*
X274247Y259770D01*
X274259Y259759D01*
X274265D01*
X274409Y259667D01*
X274541Y259557D01*
X274651Y259448D01*
X274737Y259338D01*
X274812Y259241D01*
X274841Y259200D01*
X274864Y259166D01*
X274881Y259131D01*
X274892Y259108D01*
X274904Y259097D01*
Y259091D01*
X274979Y258924D01*
X275037Y258745D01*
X275071Y258572D01*
X275100Y258411D01*
X275111Y258336D01*
X275117Y258273D01*
X275123Y258210D01*
Y258158D01*
X275129Y258117D01*
Y258089D01*
Y258066D01*
Y258060D01*
X275123Y257858D01*
X275100Y257674D01*
X275065Y257501D01*
X275048Y257420D01*
X275031Y257351D01*
X275013Y257282D01*
X274996Y257225D01*
X274979Y257173D01*
X274962Y257127D01*
X274950Y257092D01*
X274939Y257069D01*
X274933Y257052D01*
Y257046D01*
X274852Y256879D01*
X274754Y256735D01*
X274662Y256608D01*
X274564Y256510D01*
X274483Y256430D01*
X274414Y256372D01*
X274386Y256355D01*
X274368Y256338D01*
X274357Y256332D01*
X274351Y256326D01*
X274276Y256280D01*
X274196Y256245D01*
X274034Y256182D01*
X273867Y256142D01*
X273706Y256107D01*
X273637Y256101D01*
X273568Y256090D01*
X273510Y256084D01*
X273458D01*
X273412Y256078D01*
X273355D01*
X273245Y256084D01*
X273141Y256090D01*
X272951Y256130D01*
X272865Y256153D01*
X272779Y256182D01*
X272704Y256211D01*
X272635Y256240D01*
X272571Y256268D01*
X272519Y256297D01*
X272473Y256326D01*
X272433Y256349D01*
X272398Y256372D01*
X272375Y256389D01*
X272364Y256395D01*
X272358Y256401D01*
X272283Y256464D01*
X272214Y256533D01*
X272099Y256683D01*
X271995Y256839D01*
X271920Y256994D01*
X271886Y257063D01*
X271863Y257127D01*
X271840Y257190D01*
X271817Y257236D01*
X271805Y257282D01*
X271794Y257311D01*
X271788Y257334D01*
Y257340D01*
X272289Y257467D01*
X272335Y257299D01*
X272393Y257150D01*
X272462Y257029D01*
X272525Y256925D01*
X272588Y256850D01*
X272640Y256793D01*
X272675Y256758D01*
X272681Y256752D01*
X272686Y256747D01*
X272802Y256666D01*
X272917Y256608D01*
X273038Y256562D01*
X273147Y256533D01*
X273245Y256516D01*
X273291Y256510D01*
X273326D01*
X273355Y256505D01*
X273395D01*
X273522Y256510D01*
X273642Y256533D01*
X273752Y256562D01*
X273844Y256591D01*
X273925Y256626D01*
X273988Y256649D01*
X274011Y256660D01*
X274028Y256672D01*
X274034Y256677D01*
X274040D01*
X274144Y256752D01*
X274230Y256839D01*
X274305Y256925D01*
X274368Y257017D01*
X274414Y257092D01*
X274443Y257161D01*
X274455Y257184D01*
X274466Y257202D01*
X274472Y257213D01*
Y257219D01*
X274518Y257357D01*
X274553Y257501D01*
X274576Y257645D01*
X274593Y257778D01*
X274599Y257835D01*
X274605Y257887D01*
Y257939D01*
X274610Y257979D01*
Y258014D01*
Y258037D01*
Y258054D01*
Y258060D01*
X274605Y258198D01*
X274593Y258330D01*
X274576Y258452D01*
X274553Y258561D01*
X274530Y258653D01*
X274524Y258693D01*
X274512Y258722D01*
X274506Y258751D01*
X274501Y258768D01*
X274495Y258780D01*
Y258786D01*
X274443Y258912D01*
X274380Y259028D01*
X274311Y259120D01*
X274247Y259200D01*
X274184Y259264D01*
X274132Y259310D01*
X274098Y259338D01*
X274092Y259350D01*
X274086D01*
X273971Y259419D01*
X273850Y259471D01*
X273729Y259511D01*
X273614Y259534D01*
X273510Y259552D01*
X273470Y259557D01*
X273429D01*
X273401Y259563D01*
X273360D01*
X273222Y259557D01*
X273101Y259534D01*
X272992Y259506D01*
X272905Y259471D01*
X272830Y259431D01*
X272779Y259402D01*
X272744Y259379D01*
X272732Y259373D01*
X272640Y259293D01*
X272565Y259200D01*
X272496Y259097D01*
X272445Y258999D01*
X272404Y258912D01*
X272387Y258872D01*
X272370Y258837D01*
X272358Y258809D01*
X272352Y258786D01*
X272346Y258774D01*
Y258768D01*
X271851Y258884D01*
X271920Y259068D01*
X271961Y259154D01*
X272001Y259229D01*
X272047Y259304D01*
X272093Y259373D01*
X272133Y259431D01*
X272180Y259488D01*
X272220Y259534D01*
X272260Y259575D01*
X272301Y259615D01*
X272329Y259644D01*
X272358Y259667D01*
X272375Y259684D01*
X272387Y259690D01*
X272393Y259696D01*
X272467Y259748D01*
X272542Y259794D01*
X272623Y259834D01*
X272704Y259868D01*
X272865Y259920D01*
X273015Y259955D01*
X273084Y259966D01*
X273147Y259972D01*
X273205Y259978D01*
X273251Y259984D01*
X273291Y259989D01*
X273349D01*
X273533Y259978D01*
D02*
G37*
G36*
X227603Y271409D02*
Y271288D01*
Y271167D01*
Y271046D01*
Y270926D01*
Y270805D01*
Y270684D01*
Y270563D01*
X226636D01*
Y270684D01*
Y270805D01*
Y270926D01*
Y271046D01*
Y271167D01*
Y271288D01*
Y271409D01*
Y271530D01*
X227603D01*
Y271409D01*
D02*
G37*
G36*
X216963Y283983D02*
Y283862D01*
Y283741D01*
Y283621D01*
Y283500D01*
Y283379D01*
Y283258D01*
Y283137D01*
Y283016D01*
Y282895D01*
Y282774D01*
Y282653D01*
Y282533D01*
Y282412D01*
Y282291D01*
Y282170D01*
Y282049D01*
Y281928D01*
Y281807D01*
Y281686D01*
Y281565D01*
Y281444D01*
Y281323D01*
Y281203D01*
Y281082D01*
Y280961D01*
Y280840D01*
Y280719D01*
Y280598D01*
Y280477D01*
Y280356D01*
Y280235D01*
Y280114D01*
Y279993D01*
Y279873D01*
Y279752D01*
Y279631D01*
Y279510D01*
Y279389D01*
Y279268D01*
Y279147D01*
Y279026D01*
Y278905D01*
Y278784D01*
Y278663D01*
Y278543D01*
Y278422D01*
Y278301D01*
Y278180D01*
Y278059D01*
Y277938D01*
Y277817D01*
Y277696D01*
Y277575D01*
Y277454D01*
Y277333D01*
X210192D01*
Y277454D01*
Y277575D01*
Y277696D01*
Y277817D01*
Y277938D01*
Y278059D01*
Y278180D01*
Y278301D01*
Y278422D01*
Y278543D01*
Y278663D01*
Y278784D01*
Y278905D01*
Y279026D01*
Y279147D01*
Y279268D01*
Y279389D01*
Y279510D01*
Y279631D01*
Y279752D01*
Y279873D01*
Y279993D01*
Y280114D01*
Y280235D01*
Y280356D01*
Y280477D01*
Y280598D01*
Y280719D01*
Y280840D01*
Y280961D01*
Y281082D01*
Y281203D01*
Y281323D01*
Y281444D01*
Y281565D01*
Y281686D01*
Y281807D01*
Y281928D01*
Y282049D01*
Y282170D01*
Y282291D01*
Y282412D01*
Y282533D01*
Y282653D01*
Y282774D01*
Y282895D01*
Y283016D01*
Y283137D01*
Y283258D01*
Y283379D01*
Y283500D01*
Y283621D01*
Y283741D01*
Y283862D01*
Y283983D01*
Y284104D01*
X216963D01*
Y283983D01*
D02*
G37*
G36*
X211160Y271409D02*
Y271288D01*
Y271167D01*
Y271046D01*
Y270926D01*
Y270805D01*
Y270684D01*
Y270563D01*
X210192D01*
Y270684D01*
Y270805D01*
Y270926D01*
Y271046D01*
Y271167D01*
Y271288D01*
Y271409D01*
Y271530D01*
X211160D01*
Y271409D01*
D02*
G37*
G36*
Y275278D02*
Y275157D01*
Y275036D01*
Y274915D01*
Y274795D01*
Y274674D01*
Y274553D01*
Y274432D01*
X210192D01*
Y274553D01*
Y274674D01*
Y274795D01*
Y274915D01*
Y275036D01*
Y275157D01*
Y275278D01*
Y275399D01*
X211160D01*
Y275278D01*
D02*
G37*
G36*
X212127Y276245D02*
Y276125D01*
Y276004D01*
Y275883D01*
Y275762D01*
Y275641D01*
Y275520D01*
Y275399D01*
X211160D01*
Y275520D01*
Y275641D01*
Y275762D01*
Y275883D01*
Y276004D01*
Y276125D01*
Y276245D01*
Y276366D01*
X212127D01*
Y276245D01*
D02*
G37*
G36*
X238243Y272376D02*
Y272255D01*
Y272135D01*
Y272014D01*
Y271893D01*
Y271772D01*
Y271651D01*
Y271530D01*
Y271409D01*
Y271288D01*
Y271167D01*
Y271046D01*
Y270926D01*
Y270805D01*
Y270684D01*
Y270563D01*
X237275D01*
Y270684D01*
Y270805D01*
Y270926D01*
Y271046D01*
Y271167D01*
Y271288D01*
Y271409D01*
Y271530D01*
Y271651D01*
Y271772D01*
Y271893D01*
Y272014D01*
Y272135D01*
Y272255D01*
Y272376D01*
Y272497D01*
X238243D01*
Y272376D01*
D02*
G37*
G36*
X225668Y283983D02*
Y283862D01*
Y283741D01*
Y283621D01*
Y283500D01*
Y283379D01*
Y283258D01*
Y283137D01*
Y283016D01*
Y282895D01*
Y282774D01*
Y282653D01*
Y282533D01*
Y282412D01*
Y282291D01*
Y282170D01*
X223734D01*
Y282049D01*
Y281928D01*
Y281807D01*
Y281686D01*
Y281565D01*
Y281444D01*
Y281323D01*
Y281203D01*
X226636D01*
Y281323D01*
Y281444D01*
Y281565D01*
Y281686D01*
Y281807D01*
Y281928D01*
Y282049D01*
Y282170D01*
X227603D01*
Y282049D01*
Y281928D01*
Y281807D01*
Y281686D01*
Y281565D01*
Y281444D01*
Y281323D01*
Y281203D01*
X228570D01*
Y281082D01*
Y280961D01*
Y280840D01*
Y280719D01*
Y280598D01*
Y280477D01*
Y280356D01*
Y280235D01*
X229537D01*
Y280114D01*
Y279993D01*
Y279873D01*
Y279752D01*
Y279631D01*
Y279510D01*
Y279389D01*
Y279268D01*
X230504D01*
Y279147D01*
Y279026D01*
Y278905D01*
Y278784D01*
Y278663D01*
Y278543D01*
Y278422D01*
Y278301D01*
Y278180D01*
Y278059D01*
Y277938D01*
Y277817D01*
Y277696D01*
Y277575D01*
Y277454D01*
Y277333D01*
X229537D01*
Y277454D01*
Y277575D01*
Y277696D01*
Y277817D01*
Y277938D01*
Y278059D01*
Y278180D01*
Y278301D01*
X228570D01*
Y278180D01*
Y278059D01*
Y277938D01*
Y277817D01*
Y277696D01*
Y277575D01*
Y277454D01*
Y277333D01*
X229537D01*
Y277213D01*
Y277092D01*
Y276971D01*
Y276850D01*
Y276729D01*
Y276608D01*
Y276487D01*
Y276366D01*
X232439D01*
Y276245D01*
Y276125D01*
Y276004D01*
Y275883D01*
Y275762D01*
Y275641D01*
Y275520D01*
Y275399D01*
X233406D01*
Y275278D01*
Y275157D01*
Y275036D01*
Y274915D01*
Y274795D01*
Y274674D01*
Y274553D01*
Y274432D01*
X234373D01*
Y274311D01*
Y274190D01*
Y274069D01*
Y273948D01*
Y273827D01*
Y273706D01*
Y273586D01*
Y273465D01*
X231472D01*
Y273586D01*
Y273706D01*
Y273827D01*
Y273948D01*
Y274069D01*
Y274190D01*
Y274311D01*
Y274432D01*
X229537D01*
Y274553D01*
Y274674D01*
Y274795D01*
Y274915D01*
Y275036D01*
Y275157D01*
Y275278D01*
Y275399D01*
X228570D01*
Y275520D01*
Y275641D01*
Y275762D01*
Y275883D01*
Y276004D01*
Y276125D01*
Y276245D01*
Y276366D01*
X226636D01*
Y276245D01*
Y276125D01*
Y276004D01*
Y275883D01*
Y275762D01*
Y275641D01*
Y275520D01*
Y275399D01*
X227603D01*
Y275278D01*
Y275157D01*
Y275036D01*
Y274915D01*
Y274795D01*
Y274674D01*
Y274553D01*
Y274432D01*
X228570D01*
Y274311D01*
Y274190D01*
Y274069D01*
Y273948D01*
Y273827D01*
Y273706D01*
Y273586D01*
Y273465D01*
X227603D01*
Y273586D01*
Y273706D01*
Y273827D01*
Y273948D01*
Y274069D01*
Y274190D01*
Y274311D01*
Y274432D01*
X226636D01*
Y274553D01*
Y274674D01*
Y274795D01*
Y274915D01*
Y275036D01*
Y275157D01*
Y275278D01*
Y275399D01*
X225668D01*
Y275278D01*
Y275157D01*
Y275036D01*
Y274915D01*
Y274795D01*
Y274674D01*
Y274553D01*
Y274432D01*
X226636D01*
Y274311D01*
Y274190D01*
Y274069D01*
Y273948D01*
Y273827D01*
Y273706D01*
Y273586D01*
Y273465D01*
X227603D01*
Y273344D01*
Y273223D01*
Y273102D01*
Y272981D01*
Y272860D01*
Y272739D01*
Y272618D01*
Y272497D01*
X229537D01*
Y272618D01*
Y272739D01*
Y272860D01*
Y272981D01*
Y273102D01*
Y273223D01*
Y273344D01*
Y273465D01*
X230504D01*
Y273344D01*
Y273223D01*
Y273102D01*
Y272981D01*
Y272860D01*
Y272739D01*
Y272618D01*
Y272497D01*
X232439D01*
Y272376D01*
Y272255D01*
Y272135D01*
Y272014D01*
Y271893D01*
Y271772D01*
Y271651D01*
Y271530D01*
X231472D01*
Y271409D01*
Y271288D01*
Y271167D01*
Y271046D01*
Y270926D01*
Y270805D01*
Y270684D01*
Y270563D01*
X234373D01*
Y270442D01*
Y270321D01*
Y270200D01*
Y270079D01*
Y269958D01*
Y269837D01*
Y269717D01*
Y269596D01*
X233406D01*
Y269475D01*
Y269354D01*
Y269233D01*
Y269112D01*
Y268991D01*
Y268870D01*
Y268749D01*
Y268628D01*
X234373D01*
Y268508D01*
Y268387D01*
Y268266D01*
Y268145D01*
Y268024D01*
Y267903D01*
Y267782D01*
Y267661D01*
X235341D01*
Y267540D01*
Y267419D01*
Y267298D01*
Y267178D01*
Y267057D01*
Y266936D01*
Y266815D01*
Y266694D01*
X236308D01*
Y266573D01*
Y266452D01*
Y266331D01*
Y266210D01*
Y266089D01*
Y265968D01*
Y265848D01*
Y265727D01*
X235341D01*
Y265848D01*
Y265968D01*
Y266089D01*
Y266210D01*
Y266331D01*
Y266452D01*
Y266573D01*
Y266694D01*
X234373D01*
Y266573D01*
Y266452D01*
Y266331D01*
Y266210D01*
Y266089D01*
Y265968D01*
Y265848D01*
Y265727D01*
X235341D01*
Y265606D01*
Y265485D01*
Y265364D01*
Y265243D01*
Y265122D01*
Y265001D01*
Y264880D01*
Y264759D01*
Y264638D01*
Y264518D01*
Y264397D01*
Y264276D01*
Y264155D01*
Y264034D01*
Y263913D01*
Y263792D01*
X230504D01*
Y263671D01*
Y263550D01*
Y263429D01*
Y263309D01*
Y263188D01*
Y263067D01*
Y262946D01*
Y262825D01*
Y262704D01*
Y262583D01*
Y262462D01*
Y262341D01*
Y262220D01*
Y262100D01*
Y261979D01*
Y261858D01*
X229537D01*
Y261979D01*
Y262100D01*
Y262220D01*
Y262341D01*
Y262462D01*
Y262583D01*
Y262704D01*
Y262825D01*
Y262946D01*
Y263067D01*
Y263188D01*
Y263309D01*
Y263429D01*
Y263550D01*
Y263671D01*
Y263792D01*
X227603D01*
Y263671D01*
Y263550D01*
Y263429D01*
Y263309D01*
Y263188D01*
Y263067D01*
Y262946D01*
Y262825D01*
X225668D01*
Y262704D01*
Y262583D01*
Y262462D01*
Y262341D01*
Y262220D01*
Y262100D01*
Y261979D01*
Y261858D01*
X224701D01*
Y261737D01*
Y261616D01*
Y261495D01*
Y261374D01*
Y261253D01*
Y261132D01*
Y261011D01*
Y260890D01*
X226636D01*
Y260770D01*
Y260649D01*
Y260528D01*
Y260407D01*
Y260286D01*
Y260165D01*
Y260044D01*
Y259923D01*
X229537D01*
Y260044D01*
Y260165D01*
Y260286D01*
Y260407D01*
Y260528D01*
Y260649D01*
Y260770D01*
Y260890D01*
X227603D01*
Y261011D01*
Y261132D01*
Y261253D01*
Y261374D01*
Y261495D01*
Y261616D01*
Y261737D01*
Y261858D01*
X229537D01*
Y261737D01*
Y261616D01*
Y261495D01*
Y261374D01*
Y261253D01*
Y261132D01*
Y261011D01*
Y260890D01*
X230504D01*
Y260770D01*
Y260649D01*
Y260528D01*
Y260407D01*
Y260286D01*
Y260165D01*
Y260044D01*
Y259923D01*
Y259802D01*
Y259681D01*
Y259560D01*
Y259440D01*
Y259319D01*
Y259198D01*
Y259077D01*
Y258956D01*
Y258835D01*
Y258714D01*
Y258593D01*
Y258472D01*
Y258351D01*
Y258230D01*
Y258110D01*
Y257989D01*
Y257868D01*
Y257747D01*
Y257626D01*
Y257505D01*
Y257384D01*
Y257263D01*
Y257142D01*
Y257021D01*
Y256901D01*
Y256780D01*
Y256659D01*
Y256538D01*
Y256417D01*
Y256296D01*
Y256175D01*
Y256054D01*
X229537D01*
Y256175D01*
Y256296D01*
Y256417D01*
Y256538D01*
Y256659D01*
Y256780D01*
Y256901D01*
Y257021D01*
Y257142D01*
Y257263D01*
Y257384D01*
Y257505D01*
Y257626D01*
Y257747D01*
Y257868D01*
Y257989D01*
X228570D01*
Y258110D01*
Y258230D01*
Y258351D01*
Y258472D01*
Y258593D01*
Y258714D01*
Y258835D01*
Y258956D01*
X226636D01*
Y259077D01*
Y259198D01*
Y259319D01*
Y259440D01*
Y259560D01*
Y259681D01*
Y259802D01*
Y259923D01*
X224701D01*
Y259802D01*
Y259681D01*
Y259560D01*
Y259440D01*
Y259319D01*
Y259198D01*
Y259077D01*
Y258956D01*
Y258835D01*
Y258714D01*
Y258593D01*
Y258472D01*
Y258351D01*
Y258230D01*
Y258110D01*
Y257989D01*
Y257868D01*
Y257747D01*
Y257626D01*
Y257505D01*
Y257384D01*
Y257263D01*
Y257142D01*
Y257021D01*
X225668D01*
Y256901D01*
Y256780D01*
Y256659D01*
Y256538D01*
Y256417D01*
Y256296D01*
Y256175D01*
Y256054D01*
X222767D01*
Y256175D01*
Y256296D01*
Y256417D01*
Y256538D01*
Y256659D01*
Y256780D01*
Y256901D01*
Y257021D01*
X221799D01*
Y257142D01*
Y257263D01*
Y257384D01*
Y257505D01*
Y257626D01*
Y257747D01*
Y257868D01*
Y257989D01*
Y258110D01*
Y258230D01*
Y258351D01*
Y258472D01*
Y258593D01*
Y258714D01*
Y258835D01*
Y258956D01*
Y259077D01*
Y259198D01*
Y259319D01*
Y259440D01*
Y259560D01*
Y259681D01*
Y259802D01*
Y259923D01*
X220832D01*
Y260044D01*
Y260165D01*
Y260286D01*
Y260407D01*
Y260528D01*
Y260649D01*
Y260770D01*
Y260890D01*
X221799D01*
Y261011D01*
Y261132D01*
Y261253D01*
Y261374D01*
Y261495D01*
Y261616D01*
Y261737D01*
Y261858D01*
X220832D01*
Y261979D01*
Y262100D01*
Y262220D01*
Y262341D01*
Y262462D01*
Y262583D01*
Y262704D01*
Y262825D01*
X219865D01*
Y262946D01*
Y263067D01*
Y263188D01*
Y263309D01*
Y263429D01*
Y263550D01*
Y263671D01*
Y263792D01*
X218898D01*
Y263671D01*
Y263550D01*
Y263429D01*
Y263309D01*
Y263188D01*
Y263067D01*
Y262946D01*
Y262825D01*
X219865D01*
Y262704D01*
Y262583D01*
Y262462D01*
Y262341D01*
Y262220D01*
Y262100D01*
Y261979D01*
Y261858D01*
X218898D01*
Y261737D01*
Y261616D01*
Y261495D01*
Y261374D01*
Y261253D01*
Y261132D01*
Y261011D01*
Y260890D01*
Y260770D01*
Y260649D01*
Y260528D01*
Y260407D01*
Y260286D01*
Y260165D01*
Y260044D01*
Y259923D01*
Y259802D01*
Y259681D01*
Y259560D01*
Y259440D01*
Y259319D01*
Y259198D01*
Y259077D01*
Y258956D01*
X217930D01*
Y258835D01*
Y258714D01*
Y258593D01*
Y258472D01*
Y258351D01*
Y258230D01*
Y258110D01*
Y257989D01*
X216963D01*
Y257868D01*
Y257747D01*
Y257626D01*
Y257505D01*
Y257384D01*
Y257263D01*
Y257142D01*
Y257021D01*
Y256901D01*
Y256780D01*
Y256659D01*
Y256538D01*
Y256417D01*
Y256296D01*
Y256175D01*
Y256054D01*
X215029D01*
Y256175D01*
Y256296D01*
Y256417D01*
Y256538D01*
Y256659D01*
Y256780D01*
Y256901D01*
Y257021D01*
X213094D01*
Y257142D01*
Y257263D01*
Y257384D01*
Y257505D01*
Y257626D01*
Y257747D01*
Y257868D01*
Y257989D01*
X212127D01*
Y257868D01*
Y257747D01*
Y257626D01*
Y257505D01*
Y257384D01*
Y257263D01*
Y257142D01*
Y257021D01*
X213094D01*
Y256901D01*
Y256780D01*
Y256659D01*
Y256538D01*
Y256417D01*
Y256296D01*
Y256175D01*
Y256054D01*
X212127D01*
Y256175D01*
Y256296D01*
Y256417D01*
Y256538D01*
Y256659D01*
Y256780D01*
Y256901D01*
Y257021D01*
X211160D01*
Y257142D01*
Y257263D01*
Y257384D01*
Y257505D01*
Y257626D01*
Y257747D01*
Y257868D01*
Y257989D01*
Y258110D01*
Y258230D01*
Y258351D01*
Y258472D01*
Y258593D01*
Y258714D01*
Y258835D01*
Y258956D01*
X210192D01*
Y259077D01*
Y259198D01*
Y259319D01*
Y259440D01*
Y259560D01*
Y259681D01*
Y259802D01*
Y259923D01*
X211160D01*
Y259802D01*
Y259681D01*
Y259560D01*
Y259440D01*
Y259319D01*
Y259198D01*
Y259077D01*
Y258956D01*
X212127D01*
Y259077D01*
Y259198D01*
Y259319D01*
Y259440D01*
Y259560D01*
Y259681D01*
Y259802D01*
Y259923D01*
Y260044D01*
Y260165D01*
Y260286D01*
Y260407D01*
Y260528D01*
Y260649D01*
Y260770D01*
Y260890D01*
X211160D01*
Y261011D01*
Y261132D01*
Y261253D01*
Y261374D01*
Y261495D01*
Y261616D01*
Y261737D01*
Y261858D01*
X212127D01*
Y261737D01*
Y261616D01*
Y261495D01*
Y261374D01*
Y261253D01*
Y261132D01*
Y261011D01*
Y260890D01*
X213094D01*
Y260770D01*
Y260649D01*
Y260528D01*
Y260407D01*
Y260286D01*
Y260165D01*
Y260044D01*
Y259923D01*
X214061D01*
Y259802D01*
Y259681D01*
Y259560D01*
Y259440D01*
Y259319D01*
Y259198D01*
Y259077D01*
Y258956D01*
X216963D01*
Y259077D01*
Y259198D01*
Y259319D01*
Y259440D01*
Y259560D01*
Y259681D01*
Y259802D01*
Y259923D01*
X214061D01*
Y260044D01*
Y260165D01*
Y260286D01*
Y260407D01*
Y260528D01*
Y260649D01*
Y260770D01*
Y260890D01*
Y261011D01*
Y261132D01*
Y261253D01*
Y261374D01*
Y261495D01*
Y261616D01*
Y261737D01*
Y261858D01*
X212127D01*
Y261979D01*
Y262100D01*
Y262220D01*
Y262341D01*
Y262462D01*
Y262583D01*
Y262704D01*
Y262825D01*
X210192D01*
Y262946D01*
Y263067D01*
Y263188D01*
Y263309D01*
Y263429D01*
Y263550D01*
Y263671D01*
Y263792D01*
Y263913D01*
Y264034D01*
Y264155D01*
Y264276D01*
Y264397D01*
Y264518D01*
Y264638D01*
Y264759D01*
X211160D01*
Y264880D01*
Y265001D01*
Y265122D01*
Y265243D01*
Y265364D01*
Y265485D01*
Y265606D01*
Y265727D01*
X212127D01*
Y265606D01*
Y265485D01*
Y265364D01*
Y265243D01*
Y265122D01*
Y265001D01*
Y264880D01*
Y264759D01*
X213094D01*
Y264638D01*
Y264518D01*
Y264397D01*
Y264276D01*
Y264155D01*
Y264034D01*
Y263913D01*
Y263792D01*
X214061D01*
Y263913D01*
Y264034D01*
Y264155D01*
Y264276D01*
Y264397D01*
Y264518D01*
Y264638D01*
Y264759D01*
X217930D01*
Y264880D01*
Y265001D01*
Y265122D01*
Y265243D01*
Y265364D01*
Y265485D01*
Y265606D01*
Y265727D01*
Y265848D01*
Y265968D01*
Y266089D01*
Y266210D01*
Y266331D01*
Y266452D01*
Y266573D01*
Y266694D01*
X215996D01*
Y266573D01*
Y266452D01*
Y266331D01*
Y266210D01*
Y266089D01*
Y265968D01*
Y265848D01*
Y265727D01*
X214061D01*
Y265848D01*
Y265968D01*
Y266089D01*
Y266210D01*
Y266331D01*
Y266452D01*
Y266573D01*
Y266694D01*
Y266815D01*
Y266936D01*
Y267057D01*
Y267178D01*
Y267298D01*
Y267419D01*
Y267540D01*
Y267661D01*
X213094D01*
Y267540D01*
Y267419D01*
Y267298D01*
Y267178D01*
Y267057D01*
Y266936D01*
Y266815D01*
Y266694D01*
Y266573D01*
Y266452D01*
Y266331D01*
Y266210D01*
Y266089D01*
Y265968D01*
Y265848D01*
Y265727D01*
X212127D01*
Y265848D01*
Y265968D01*
Y266089D01*
Y266210D01*
Y266331D01*
Y266452D01*
Y266573D01*
Y266694D01*
Y266815D01*
Y266936D01*
Y267057D01*
Y267178D01*
Y267298D01*
Y267419D01*
Y267540D01*
Y267661D01*
Y267782D01*
Y267903D01*
Y268024D01*
Y268145D01*
Y268266D01*
Y268387D01*
Y268508D01*
Y268628D01*
X211160D01*
Y268749D01*
Y268870D01*
Y268991D01*
Y269112D01*
Y269233D01*
Y269354D01*
Y269475D01*
Y269596D01*
X212127D01*
Y269475D01*
Y269354D01*
Y269233D01*
Y269112D01*
Y268991D01*
Y268870D01*
Y268749D01*
Y268628D01*
X214061D01*
Y268508D01*
Y268387D01*
Y268266D01*
Y268145D01*
Y268024D01*
Y267903D01*
Y267782D01*
Y267661D01*
X218898D01*
Y267782D01*
Y267903D01*
Y268024D01*
Y268145D01*
Y268266D01*
Y268387D01*
Y268508D01*
Y268628D01*
X217930D01*
Y268749D01*
Y268870D01*
Y268991D01*
Y269112D01*
Y269233D01*
Y269354D01*
Y269475D01*
Y269596D01*
X219865D01*
Y269475D01*
Y269354D01*
Y269233D01*
Y269112D01*
Y268991D01*
Y268870D01*
Y268749D01*
Y268628D01*
Y268508D01*
Y268387D01*
Y268266D01*
Y268145D01*
Y268024D01*
Y267903D01*
Y267782D01*
Y267661D01*
Y267540D01*
Y267419D01*
Y267298D01*
Y267178D01*
Y267057D01*
Y266936D01*
Y266815D01*
Y266694D01*
X221799D01*
Y266815D01*
Y266936D01*
Y267057D01*
Y267178D01*
Y267298D01*
Y267419D01*
Y267540D01*
Y267661D01*
X220832D01*
Y267782D01*
Y267903D01*
Y268024D01*
Y268145D01*
Y268266D01*
Y268387D01*
Y268508D01*
Y268628D01*
X221799D01*
Y268508D01*
Y268387D01*
Y268266D01*
Y268145D01*
Y268024D01*
Y267903D01*
Y267782D01*
Y267661D01*
X222767D01*
Y267540D01*
Y267419D01*
Y267298D01*
Y267178D01*
Y267057D01*
Y266936D01*
Y266815D01*
Y266694D01*
X223734D01*
Y266573D01*
Y266452D01*
Y266331D01*
Y266210D01*
Y266089D01*
Y265968D01*
Y265848D01*
Y265727D01*
Y265606D01*
Y265485D01*
Y265364D01*
Y265243D01*
Y265122D01*
Y265001D01*
Y264880D01*
Y264759D01*
X225668D01*
Y264638D01*
Y264518D01*
Y264397D01*
Y264276D01*
Y264155D01*
Y264034D01*
Y263913D01*
Y263792D01*
X226636D01*
Y263913D01*
Y264034D01*
Y264155D01*
Y264276D01*
Y264397D01*
Y264518D01*
Y264638D01*
Y264759D01*
X227603D01*
Y264880D01*
Y265001D01*
Y265122D01*
Y265243D01*
Y265364D01*
Y265485D01*
Y265606D01*
Y265727D01*
X228570D01*
Y265606D01*
Y265485D01*
Y265364D01*
Y265243D01*
Y265122D01*
Y265001D01*
Y264880D01*
Y264759D01*
X229537D01*
Y264880D01*
Y265001D01*
Y265122D01*
Y265243D01*
Y265364D01*
Y265485D01*
Y265606D01*
Y265727D01*
X228570D01*
Y265848D01*
Y265968D01*
Y266089D01*
Y266210D01*
Y266331D01*
Y266452D01*
Y266573D01*
Y266694D01*
X226636D01*
Y266815D01*
Y266936D01*
Y267057D01*
Y267178D01*
Y267298D01*
Y267419D01*
Y267540D01*
Y267661D01*
X229537D01*
Y267540D01*
Y267419D01*
Y267298D01*
Y267178D01*
Y267057D01*
Y266936D01*
Y266815D01*
Y266694D01*
X230504D01*
Y266573D01*
Y266452D01*
Y266331D01*
Y266210D01*
Y266089D01*
Y265968D01*
Y265848D01*
Y265727D01*
X231472D01*
Y265606D01*
Y265485D01*
Y265364D01*
Y265243D01*
Y265122D01*
Y265001D01*
Y264880D01*
Y264759D01*
X233406D01*
Y264880D01*
Y265001D01*
Y265122D01*
Y265243D01*
Y265364D01*
Y265485D01*
Y265606D01*
Y265727D01*
X231472D01*
Y265848D01*
Y265968D01*
Y266089D01*
Y266210D01*
Y266331D01*
Y266452D01*
Y266573D01*
Y266694D01*
X233406D01*
Y266815D01*
Y266936D01*
Y267057D01*
Y267178D01*
Y267298D01*
Y267419D01*
Y267540D01*
Y267661D01*
X230504D01*
Y267782D01*
Y267903D01*
Y268024D01*
Y268145D01*
Y268266D01*
Y268387D01*
Y268508D01*
Y268628D01*
X227603D01*
Y268749D01*
Y268870D01*
Y268991D01*
Y269112D01*
Y269233D01*
Y269354D01*
Y269475D01*
Y269596D01*
X229537D01*
Y269717D01*
Y269837D01*
Y269958D01*
Y270079D01*
Y270200D01*
Y270321D01*
Y270442D01*
Y270563D01*
X228570D01*
Y270684D01*
Y270805D01*
Y270926D01*
Y271046D01*
Y271167D01*
Y271288D01*
Y271409D01*
Y271530D01*
X227603D01*
Y271651D01*
Y271772D01*
Y271893D01*
Y272014D01*
Y272135D01*
Y272255D01*
Y272376D01*
Y272497D01*
X225668D01*
Y272618D01*
Y272739D01*
Y272860D01*
Y272981D01*
Y273102D01*
Y273223D01*
Y273344D01*
Y273465D01*
X224701D01*
Y273344D01*
Y273223D01*
Y273102D01*
Y272981D01*
Y272860D01*
Y272739D01*
Y272618D01*
Y272497D01*
X225668D01*
Y272376D01*
Y272255D01*
Y272135D01*
Y272014D01*
Y271893D01*
Y271772D01*
Y271651D01*
Y271530D01*
Y271409D01*
Y271288D01*
Y271167D01*
Y271046D01*
Y270926D01*
Y270805D01*
Y270684D01*
Y270563D01*
Y270442D01*
Y270321D01*
Y270200D01*
Y270079D01*
Y269958D01*
Y269837D01*
Y269717D01*
Y269596D01*
X226636D01*
Y269475D01*
Y269354D01*
Y269233D01*
Y269112D01*
Y268991D01*
Y268870D01*
Y268749D01*
Y268628D01*
X225668D01*
Y268749D01*
Y268870D01*
Y268991D01*
Y269112D01*
Y269233D01*
Y269354D01*
Y269475D01*
Y269596D01*
X224701D01*
Y269475D01*
Y269354D01*
Y269233D01*
Y269112D01*
Y268991D01*
Y268870D01*
Y268749D01*
Y268628D01*
X225668D01*
Y268508D01*
Y268387D01*
Y268266D01*
Y268145D01*
Y268024D01*
Y267903D01*
Y267782D01*
Y267661D01*
X224701D01*
Y267540D01*
Y267419D01*
Y267298D01*
Y267178D01*
Y267057D01*
Y266936D01*
Y266815D01*
Y266694D01*
X225668D01*
Y266573D01*
Y266452D01*
Y266331D01*
Y266210D01*
Y266089D01*
Y265968D01*
Y265848D01*
Y265727D01*
X224701D01*
Y265848D01*
Y265968D01*
Y266089D01*
Y266210D01*
Y266331D01*
Y266452D01*
Y266573D01*
Y266694D01*
X223734D01*
Y266815D01*
Y266936D01*
Y267057D01*
Y267178D01*
Y267298D01*
Y267419D01*
Y267540D01*
Y267661D01*
X222767D01*
Y267782D01*
Y267903D01*
Y268024D01*
Y268145D01*
Y268266D01*
Y268387D01*
Y268508D01*
Y268628D01*
X223734D01*
Y268749D01*
Y268870D01*
Y268991D01*
Y269112D01*
Y269233D01*
Y269354D01*
Y269475D01*
Y269596D01*
X220832D01*
Y269717D01*
Y269837D01*
Y269958D01*
Y270079D01*
Y270200D01*
Y270321D01*
Y270442D01*
Y270563D01*
X216963D01*
Y270442D01*
Y270321D01*
Y270200D01*
Y270079D01*
Y269958D01*
Y269837D01*
Y269717D01*
Y269596D01*
X215996D01*
Y269717D01*
Y269837D01*
Y269958D01*
Y270079D01*
Y270200D01*
Y270321D01*
Y270442D01*
Y270563D01*
X214061D01*
Y270684D01*
Y270805D01*
Y270926D01*
Y271046D01*
Y271167D01*
Y271288D01*
Y271409D01*
Y271530D01*
X212127D01*
Y271651D01*
Y271772D01*
Y271893D01*
Y272014D01*
Y272135D01*
Y272255D01*
Y272376D01*
Y272497D01*
X211160D01*
Y272618D01*
Y272739D01*
Y272860D01*
Y272981D01*
Y273102D01*
Y273223D01*
Y273344D01*
Y273465D01*
X212127D01*
Y273344D01*
Y273223D01*
Y273102D01*
Y272981D01*
Y272860D01*
Y272739D01*
Y272618D01*
Y272497D01*
X213094D01*
Y272618D01*
Y272739D01*
Y272860D01*
Y272981D01*
Y273102D01*
Y273223D01*
Y273344D01*
Y273465D01*
X214061D01*
Y273586D01*
Y273706D01*
Y273827D01*
Y273948D01*
Y274069D01*
Y274190D01*
Y274311D01*
Y274432D01*
Y274553D01*
Y274674D01*
Y274795D01*
Y274915D01*
Y275036D01*
Y275157D01*
Y275278D01*
Y275399D01*
X213094D01*
Y275520D01*
Y275641D01*
Y275762D01*
Y275883D01*
Y276004D01*
Y276125D01*
Y276245D01*
Y276366D01*
X214061D01*
Y276245D01*
Y276125D01*
Y276004D01*
Y275883D01*
Y275762D01*
Y275641D01*
Y275520D01*
Y275399D01*
X215029D01*
Y275278D01*
Y275157D01*
Y275036D01*
Y274915D01*
Y274795D01*
Y274674D01*
Y274553D01*
Y274432D01*
X215996D01*
Y274553D01*
Y274674D01*
Y274795D01*
Y274915D01*
Y275036D01*
Y275157D01*
Y275278D01*
Y275399D01*
X215029D01*
Y275520D01*
Y275641D01*
Y275762D01*
Y275883D01*
Y276004D01*
Y276125D01*
Y276245D01*
Y276366D01*
X215996D01*
Y276245D01*
Y276125D01*
Y276004D01*
Y275883D01*
Y275762D01*
Y275641D01*
Y275520D01*
Y275399D01*
X216963D01*
Y275520D01*
Y275641D01*
Y275762D01*
Y275883D01*
Y276004D01*
Y276125D01*
Y276245D01*
Y276366D01*
X217930D01*
Y276245D01*
Y276125D01*
Y276004D01*
Y275883D01*
Y275762D01*
Y275641D01*
Y275520D01*
Y275399D01*
Y275278D01*
Y275157D01*
Y275036D01*
Y274915D01*
Y274795D01*
Y274674D01*
Y274553D01*
Y274432D01*
X216963D01*
Y274311D01*
Y274190D01*
Y274069D01*
Y273948D01*
Y273827D01*
Y273706D01*
Y273586D01*
Y273465D01*
X220832D01*
Y273344D01*
Y273223D01*
Y273102D01*
Y272981D01*
Y272860D01*
Y272739D01*
Y272618D01*
Y272497D01*
X221799D01*
Y272376D01*
Y272255D01*
Y272135D01*
Y272014D01*
Y271893D01*
Y271772D01*
Y271651D01*
Y271530D01*
X222767D01*
Y271409D01*
Y271288D01*
Y271167D01*
Y271046D01*
Y270926D01*
Y270805D01*
Y270684D01*
Y270563D01*
X223734D01*
Y270684D01*
Y270805D01*
Y270926D01*
Y271046D01*
Y271167D01*
Y271288D01*
Y271409D01*
Y271530D01*
X222767D01*
Y271651D01*
Y271772D01*
Y271893D01*
Y272014D01*
Y272135D01*
Y272255D01*
Y272376D01*
Y272497D01*
X221799D01*
Y272618D01*
Y272739D01*
Y272860D01*
Y272981D01*
Y273102D01*
Y273223D01*
Y273344D01*
Y273465D01*
X220832D01*
Y273586D01*
Y273706D01*
Y273827D01*
Y273948D01*
Y274069D01*
Y274190D01*
Y274311D01*
Y274432D01*
X218898D01*
Y274553D01*
Y274674D01*
Y274795D01*
Y274915D01*
Y275036D01*
Y275157D01*
Y275278D01*
Y275399D01*
Y275520D01*
Y275641D01*
Y275762D01*
Y275883D01*
Y276004D01*
Y276125D01*
Y276245D01*
Y276366D01*
X217930D01*
Y276487D01*
Y276608D01*
Y276729D01*
Y276850D01*
Y276971D01*
Y277092D01*
Y277213D01*
Y277333D01*
Y277454D01*
Y277575D01*
Y277696D01*
Y277817D01*
Y277938D01*
Y278059D01*
Y278180D01*
Y278301D01*
Y278422D01*
Y278543D01*
Y278663D01*
Y278784D01*
Y278905D01*
Y279026D01*
Y279147D01*
Y279268D01*
Y279389D01*
Y279510D01*
Y279631D01*
Y279752D01*
Y279873D01*
Y279993D01*
Y280114D01*
Y280235D01*
Y280356D01*
Y280477D01*
Y280598D01*
Y280719D01*
Y280840D01*
Y280961D01*
Y281082D01*
Y281203D01*
Y281323D01*
Y281444D01*
Y281565D01*
Y281686D01*
Y281807D01*
Y281928D01*
Y282049D01*
Y282170D01*
X218898D01*
Y282049D01*
Y281928D01*
Y281807D01*
Y281686D01*
Y281565D01*
Y281444D01*
Y281323D01*
Y281203D01*
Y281082D01*
Y280961D01*
Y280840D01*
Y280719D01*
Y280598D01*
Y280477D01*
Y280356D01*
Y280235D01*
X220832D01*
Y280356D01*
Y280477D01*
Y280598D01*
Y280719D01*
Y280840D01*
Y280961D01*
Y281082D01*
Y281203D01*
X219865D01*
Y281323D01*
Y281444D01*
Y281565D01*
Y281686D01*
Y281807D01*
Y281928D01*
Y282049D01*
Y282170D01*
Y282291D01*
Y282412D01*
Y282533D01*
Y282653D01*
Y282774D01*
Y282895D01*
Y283016D01*
Y283137D01*
X217930D01*
Y283258D01*
Y283379D01*
Y283500D01*
Y283621D01*
Y283741D01*
Y283862D01*
Y283983D01*
Y284104D01*
X222767D01*
Y283983D01*
Y283862D01*
Y283741D01*
Y283621D01*
Y283500D01*
Y283379D01*
Y283258D01*
Y283137D01*
X224701D01*
Y283258D01*
Y283379D01*
Y283500D01*
Y283621D01*
Y283741D01*
Y283862D01*
Y283983D01*
Y284104D01*
X225668D01*
Y283983D01*
D02*
G37*
G36*
X238243D02*
Y283862D01*
Y283741D01*
Y283621D01*
Y283500D01*
Y283379D01*
Y283258D01*
Y283137D01*
Y283016D01*
Y282895D01*
Y282774D01*
Y282653D01*
Y282533D01*
Y282412D01*
Y282291D01*
Y282170D01*
Y282049D01*
Y281928D01*
Y281807D01*
Y281686D01*
Y281565D01*
Y281444D01*
Y281323D01*
Y281203D01*
Y281082D01*
Y280961D01*
Y280840D01*
Y280719D01*
Y280598D01*
Y280477D01*
Y280356D01*
Y280235D01*
Y280114D01*
Y279993D01*
Y279873D01*
Y279752D01*
Y279631D01*
Y279510D01*
Y279389D01*
Y279268D01*
Y279147D01*
Y279026D01*
Y278905D01*
Y278784D01*
Y278663D01*
Y278543D01*
Y278422D01*
Y278301D01*
Y278180D01*
Y278059D01*
Y277938D01*
Y277817D01*
Y277696D01*
Y277575D01*
Y277454D01*
Y277333D01*
X231472D01*
Y277454D01*
Y277575D01*
Y277696D01*
Y277817D01*
Y277938D01*
Y278059D01*
Y278180D01*
Y278301D01*
Y278422D01*
Y278543D01*
Y278663D01*
Y278784D01*
Y278905D01*
Y279026D01*
Y279147D01*
Y279268D01*
Y279389D01*
Y279510D01*
Y279631D01*
Y279752D01*
Y279873D01*
Y279993D01*
Y280114D01*
Y280235D01*
Y280356D01*
Y280477D01*
Y280598D01*
Y280719D01*
Y280840D01*
Y280961D01*
Y281082D01*
Y281203D01*
Y281323D01*
Y281444D01*
Y281565D01*
Y281686D01*
Y281807D01*
Y281928D01*
Y282049D01*
Y282170D01*
Y282291D01*
Y282412D01*
Y282533D01*
Y282653D01*
Y282774D01*
Y282895D01*
Y283016D01*
Y283137D01*
Y283258D01*
Y283379D01*
Y283500D01*
Y283621D01*
Y283741D01*
Y283862D01*
Y283983D01*
Y284104D01*
X238243D01*
Y283983D01*
D02*
G37*
G36*
X229537D02*
Y283862D01*
Y283741D01*
Y283621D01*
Y283500D01*
Y283379D01*
Y283258D01*
Y283137D01*
X230504D01*
Y283016D01*
Y282895D01*
Y282774D01*
Y282653D01*
Y282533D01*
Y282412D01*
Y282291D01*
Y282170D01*
X229537D01*
Y282049D01*
Y281928D01*
Y281807D01*
Y281686D01*
Y281565D01*
Y281444D01*
Y281323D01*
Y281203D01*
X230504D01*
Y281082D01*
Y280961D01*
Y280840D01*
Y280719D01*
Y280598D01*
Y280477D01*
Y280356D01*
Y280235D01*
X229537D01*
Y280356D01*
Y280477D01*
Y280598D01*
Y280719D01*
Y280840D01*
Y280961D01*
Y281082D01*
Y281203D01*
X228570D01*
Y281323D01*
Y281444D01*
Y281565D01*
Y281686D01*
Y281807D01*
Y281928D01*
Y282049D01*
Y282170D01*
X227603D01*
Y282291D01*
Y282412D01*
Y282533D01*
Y282653D01*
Y282774D01*
Y282895D01*
Y283016D01*
Y283137D01*
X226636D01*
Y283258D01*
Y283379D01*
Y283500D01*
Y283621D01*
Y283741D01*
Y283862D01*
Y283983D01*
Y284104D01*
X227603D01*
Y283983D01*
Y283862D01*
Y283741D01*
Y283621D01*
Y283500D01*
Y283379D01*
Y283258D01*
Y283137D01*
X228570D01*
Y283258D01*
Y283379D01*
Y283500D01*
Y283621D01*
Y283741D01*
Y283862D01*
Y283983D01*
Y284104D01*
X229537D01*
Y283983D01*
D02*
G37*
%LPC*%
G36*
X284264Y259563D02*
X284218D01*
X284120Y259557D01*
X284039Y259534D01*
X283964Y259506D01*
X283901Y259477D01*
X283849Y259442D01*
X283809Y259413D01*
X283786Y259390D01*
X283780Y259385D01*
X283722Y259315D01*
X283677Y259246D01*
X283648Y259172D01*
X283625Y259108D01*
X283613Y259050D01*
X283602Y258999D01*
Y258970D01*
Y258964D01*
Y258958D01*
X283607Y258872D01*
X283630Y258791D01*
X283653Y258716D01*
X283688Y258659D01*
X283717Y258607D01*
X283746Y258572D01*
X283769Y258549D01*
X283774Y258544D01*
X283843Y258486D01*
X283918Y258446D01*
X283993Y258417D01*
X284062Y258400D01*
X284126Y258388D01*
X284172Y258377D01*
X284218D01*
X284316Y258382D01*
X284402Y258405D01*
X284483Y258429D01*
X284546Y258463D01*
X284598Y258492D01*
X284638Y258521D01*
X284661Y258538D01*
X284667Y258544D01*
X284725Y258613D01*
X284765Y258688D01*
X284794Y258757D01*
X284811Y258826D01*
X284823Y258889D01*
X284834Y258935D01*
Y258970D01*
Y258981D01*
X284828Y259068D01*
X284805Y259143D01*
X284777Y259218D01*
X284748Y259275D01*
X284713Y259321D01*
X284690Y259362D01*
X284667Y259385D01*
X284661Y259390D01*
X284592Y259448D01*
X284517Y259488D01*
X284442Y259523D01*
X284373Y259540D01*
X284310Y259552D01*
X284264Y259563D01*
D02*
G37*
G36*
X297673Y259506D02*
X296481D01*
X296331Y259500D01*
X296204Y259477D01*
X296101Y259454D01*
X296014Y259419D01*
X295951Y259390D01*
X295899Y259362D01*
X295876Y259338D01*
X295865Y259333D01*
X295801Y259264D01*
X295749Y259189D01*
X295715Y259114D01*
X295692Y259045D01*
X295680Y258981D01*
X295669Y258935D01*
Y258901D01*
Y258895D01*
Y258889D01*
X295674Y258820D01*
X295686Y258757D01*
X295703Y258699D01*
X295721Y258653D01*
X295738Y258607D01*
X295755Y258578D01*
X295767Y258555D01*
X295773Y258549D01*
X295813Y258498D01*
X295859Y258452D01*
X295911Y258411D01*
X295957Y258377D01*
X295997Y258354D01*
X296032Y258336D01*
X296055Y258330D01*
X296066Y258325D01*
X296141Y258302D01*
X296228Y258284D01*
X296320Y258273D01*
X296406Y258267D01*
X296481Y258261D01*
X296544Y258256D01*
X297673D01*
Y259506D01*
D02*
G37*
G36*
X261886Y259483D02*
X260994D01*
X260873Y259471D01*
X260775Y259465D01*
X260694Y259454D01*
X260636Y259442D01*
X260596Y259436D01*
X260567Y259425D01*
X260562D01*
X260504Y259402D01*
X260452Y259373D01*
X260406Y259338D01*
X260371Y259310D01*
X260343Y259275D01*
X260320Y259252D01*
X260308Y259235D01*
X260302Y259229D01*
X260274Y259172D01*
X260250Y259114D01*
X260233Y259062D01*
X260222Y259010D01*
X260216Y258964D01*
X260210Y258930D01*
Y258901D01*
Y258895D01*
X260216Y258820D01*
X260227Y258757D01*
X260239Y258699D01*
X260256Y258653D01*
X260279Y258613D01*
X260291Y258584D01*
X260302Y258567D01*
X260308Y258561D01*
X260349Y258515D01*
X260395Y258474D01*
X260441Y258440D01*
X260487Y258417D01*
X260533Y258394D01*
X260567Y258382D01*
X260590Y258377D01*
X260596Y258371D01*
X260660Y258359D01*
X260729Y258348D01*
X260809Y258342D01*
X260890Y258336D01*
X260959Y258330D01*
X261886D01*
Y259483D01*
D02*
G37*
G36*
X237275Y275399D02*
X236308D01*
Y275278D01*
Y275157D01*
Y275036D01*
Y274915D01*
Y274795D01*
Y274674D01*
Y274553D01*
Y274432D01*
X237275D01*
Y274553D01*
Y274674D01*
Y274795D01*
Y274915D01*
Y275036D01*
Y275157D01*
Y275278D01*
Y275399D01*
D02*
G37*
G36*
X232439D02*
X231472D01*
Y275278D01*
Y275157D01*
Y275036D01*
Y274915D01*
Y274795D01*
Y274674D01*
Y274553D01*
Y274432D01*
X232439D01*
Y274553D01*
Y274674D01*
Y274795D01*
Y274915D01*
Y275036D01*
Y275157D01*
Y275278D01*
Y275399D01*
D02*
G37*
G36*
X237154Y283137D02*
X232439D01*
Y283016D01*
Y282895D01*
Y282774D01*
Y282653D01*
Y282533D01*
Y282412D01*
Y282291D01*
Y282170D01*
Y282049D01*
Y281928D01*
Y281807D01*
Y281686D01*
Y281565D01*
Y281444D01*
Y281323D01*
Y281203D01*
Y281082D01*
Y280961D01*
Y280840D01*
Y280719D01*
Y280598D01*
Y280477D01*
Y280356D01*
Y280235D01*
Y280114D01*
Y279993D01*
Y279873D01*
Y279752D01*
Y279631D01*
Y279510D01*
Y279389D01*
Y279268D01*
Y279147D01*
Y279026D01*
Y278905D01*
Y278784D01*
Y278663D01*
Y278543D01*
Y278422D01*
X237154D01*
Y278543D01*
Y278663D01*
Y278784D01*
Y278905D01*
Y279026D01*
Y279147D01*
Y279268D01*
Y279389D01*
Y279510D01*
Y279631D01*
Y279752D01*
Y279873D01*
Y279993D01*
Y280114D01*
Y280235D01*
Y280356D01*
Y280477D01*
Y280598D01*
Y280719D01*
Y280840D01*
Y280961D01*
Y281082D01*
Y281203D01*
Y281323D01*
Y281444D01*
Y281565D01*
Y281686D01*
Y281807D01*
Y281928D01*
Y282049D01*
Y282170D01*
Y282291D01*
Y282412D01*
Y282533D01*
Y282653D01*
Y282774D01*
Y282895D01*
Y283016D01*
Y283137D01*
D02*
G37*
G36*
X228570Y280235D02*
X227603D01*
Y280114D01*
Y279993D01*
Y279873D01*
Y279752D01*
Y279631D01*
Y279510D01*
Y279389D01*
Y279268D01*
X228570D01*
Y279389D01*
Y279510D01*
Y279631D01*
Y279752D01*
Y279873D01*
Y279993D01*
Y280114D01*
Y280235D01*
D02*
G37*
G36*
X270670Y259483D02*
X269593D01*
X269490Y259477D01*
X269409Y259471D01*
X269346Y259465D01*
X269300Y259459D01*
X269265Y259454D01*
X269248Y259448D01*
X269242D01*
X269173Y259419D01*
X269109Y259390D01*
X269058Y259350D01*
X269011Y259315D01*
X268971Y259281D01*
X268948Y259252D01*
X268931Y259229D01*
X268925Y259223D01*
X268885Y259160D01*
X268856Y259091D01*
X268833Y259022D01*
X268821Y258958D01*
X268810Y258901D01*
X268804Y258855D01*
Y258826D01*
Y258814D01*
X268816Y258699D01*
X268839Y258595D01*
X268867Y258509D01*
X268908Y258440D01*
X268948Y258382D01*
X268977Y258342D01*
X269000Y258313D01*
X269011Y258308D01*
X269052Y258279D01*
X269098Y258250D01*
X269202Y258204D01*
X269317Y258175D01*
X269432Y258152D01*
X269536Y258140D01*
X269576Y258135D01*
X269616D01*
X269651Y258129D01*
X270670D01*
Y259483D01*
D02*
G37*
G36*
X250269Y258561D02*
X250182D01*
X250125Y258549D01*
X250021Y258521D01*
X249929Y258474D01*
X249854Y258429D01*
X249790Y258382D01*
X249744Y258336D01*
X249715Y258308D01*
X249704Y258302D01*
Y258296D01*
X249664Y258244D01*
X249629Y258187D01*
X249577Y258054D01*
X249537Y257916D01*
X249514Y257783D01*
X249497Y257657D01*
X249491Y257605D01*
Y257559D01*
X249485Y257518D01*
Y257490D01*
Y257472D01*
Y257467D01*
Y257374D01*
X249497Y257288D01*
X249502Y257207D01*
X249520Y257133D01*
X249537Y257063D01*
X249554Y257000D01*
X249571Y256942D01*
X249589Y256896D01*
X249612Y256850D01*
X249629Y256810D01*
X249646Y256781D01*
X249664Y256752D01*
X249681Y256735D01*
X249687Y256718D01*
X249698Y256712D01*
Y256706D01*
X249739Y256660D01*
X249779Y256626D01*
X249871Y256562D01*
X249957Y256522D01*
X250038Y256487D01*
X250107Y256470D01*
X250165Y256464D01*
X250188Y256458D01*
X250217D01*
X250274Y256464D01*
X250326Y256470D01*
X250430Y256499D01*
X250516Y256539D01*
X250591Y256591D01*
X250654Y256637D01*
X250700Y256677D01*
X250729Y256706D01*
X250741Y256718D01*
X250781Y256770D01*
X250816Y256827D01*
X250868Y256948D01*
X250908Y257081D01*
X250931Y257207D01*
X250948Y257328D01*
X250954Y257374D01*
Y257420D01*
X250960Y257455D01*
Y257484D01*
Y257501D01*
Y257507D01*
Y257605D01*
X250948Y257697D01*
X250942Y257783D01*
X250925Y257864D01*
X250914Y257933D01*
X250896Y258002D01*
X250873Y258060D01*
X250856Y258112D01*
X250839Y258158D01*
X250816Y258198D01*
X250798Y258233D01*
X250787Y258261D01*
X250770Y258279D01*
X250764Y258296D01*
X250752Y258308D01*
X250712Y258354D01*
X250672Y258394D01*
X250585Y258452D01*
X250499Y258498D01*
X250418Y258532D01*
X250349Y258549D01*
X250291Y258555D01*
X250269Y258561D01*
D02*
G37*
G36*
X257826D02*
X257728D01*
X257670Y258549D01*
X257561Y258521D01*
X257463Y258474D01*
X257376Y258429D01*
X257313Y258382D01*
X257261Y258336D01*
X257232Y258308D01*
X257221Y258302D01*
Y258296D01*
X257140Y258187D01*
X257083Y258066D01*
X257042Y257933D01*
X257013Y257812D01*
X256996Y257697D01*
X256990Y257651D01*
Y257611D01*
X256985Y257570D01*
Y257547D01*
Y257530D01*
Y257524D01*
Y257426D01*
X256996Y257334D01*
X257008Y257248D01*
X257019Y257173D01*
X257036Y257098D01*
X257060Y257029D01*
X257077Y256971D01*
X257100Y256919D01*
X257123Y256873D01*
X257140Y256833D01*
X257163Y256798D01*
X257181Y256770D01*
X257192Y256747D01*
X257204Y256729D01*
X257215Y256723D01*
Y256718D01*
X257261Y256672D01*
X257307Y256631D01*
X257399Y256568D01*
X257497Y256522D01*
X257589Y256493D01*
X257670Y256470D01*
X257733Y256464D01*
X257756Y256458D01*
X257791D01*
X257854Y256464D01*
X257918Y256470D01*
X258027Y256499D01*
X258131Y256539D01*
X258211Y256591D01*
X258281Y256637D01*
X258332Y256677D01*
X258361Y256706D01*
X258373Y256718D01*
X258413Y256770D01*
X258448Y256827D01*
X258505Y256954D01*
X258540Y257086D01*
X258569Y257213D01*
X258586Y257328D01*
X258592Y257380D01*
Y257420D01*
X258597Y257455D01*
Y257484D01*
Y257501D01*
Y257507D01*
Y257605D01*
X258586Y257691D01*
X258574Y257778D01*
X258563Y257852D01*
X258546Y257927D01*
X258528Y257991D01*
X258505Y258048D01*
X258482Y258100D01*
X258465Y258146D01*
X258442Y258187D01*
X258425Y258221D01*
X258407Y258250D01*
X258396Y258267D01*
X258384Y258284D01*
X258373Y258296D01*
X258327Y258342D01*
X258281Y258382D01*
X258183Y258452D01*
X258085Y258498D01*
X257993Y258526D01*
X257912Y258549D01*
X257849Y258555D01*
X257826Y258561D01*
D02*
G37*
G36*
X226636Y280235D02*
X225668D01*
Y280114D01*
Y279993D01*
Y279873D01*
Y279752D01*
Y279631D01*
Y279510D01*
Y279389D01*
Y279268D01*
Y279147D01*
Y279026D01*
Y278905D01*
Y278784D01*
Y278663D01*
Y278543D01*
Y278422D01*
Y278301D01*
X226636D01*
Y278180D01*
Y278059D01*
Y277938D01*
Y277817D01*
Y277696D01*
Y277575D01*
Y277454D01*
Y277333D01*
X227603D01*
Y277454D01*
Y277575D01*
Y277696D01*
Y277817D01*
Y277938D01*
Y278059D01*
Y278180D01*
Y278301D01*
Y278422D01*
Y278543D01*
Y278663D01*
Y278784D01*
Y278905D01*
Y279026D01*
Y279147D01*
Y279268D01*
X226636D01*
Y279389D01*
Y279510D01*
Y279631D01*
Y279752D01*
Y279873D01*
Y279993D01*
Y280114D01*
Y280235D01*
D02*
G37*
G36*
X254214Y257518D02*
Y257346D01*
X254220Y257236D01*
X254226Y257144D01*
X254237Y257063D01*
X254249Y256994D01*
X254266Y256942D01*
X254277Y256908D01*
X254283Y256885D01*
X254289Y256879D01*
X254329Y256804D01*
X254381Y256741D01*
X254433Y256683D01*
X254479Y256643D01*
X254525Y256603D01*
X254565Y256579D01*
X254589Y256562D01*
X254600Y256556D01*
X254681Y256516D01*
X254761Y256487D01*
X254842Y256470D01*
X254911Y256458D01*
X254980Y256447D01*
X255026Y256441D01*
X255072D01*
X255170Y256447D01*
X255251Y256458D01*
X255326Y256482D01*
X255383Y256505D01*
X255429Y256522D01*
X255458Y256545D01*
X255481Y256556D01*
X255487Y256562D01*
X255533Y256614D01*
X255568Y256666D01*
X255591Y256718D01*
X255608Y256764D01*
X255620Y256810D01*
X255625Y256844D01*
Y256868D01*
Y256873D01*
X255620Y256919D01*
X255614Y256960D01*
X255591Y257029D01*
X255579Y257058D01*
X255573Y257075D01*
X255562Y257086D01*
Y257092D01*
X255504Y257161D01*
X255447Y257207D01*
X255424Y257225D01*
X255401Y257236D01*
X255389Y257248D01*
X255383D01*
X255331Y257265D01*
X255268Y257282D01*
X255136Y257311D01*
X255072Y257323D01*
X255020Y257334D01*
X254986Y257340D01*
X254974D01*
X254882Y257357D01*
X254796Y257369D01*
X254715Y257386D01*
X254640Y257397D01*
X254571Y257415D01*
X254514Y257432D01*
X254456Y257443D01*
X254404Y257455D01*
X254358Y257472D01*
X254324Y257484D01*
X254289Y257490D01*
X254260Y257501D01*
X254243Y257507D01*
X254226Y257513D01*
X254214Y257518D01*
D02*
G37*
G36*
X284258Y257997D02*
X284229D01*
X284108Y257985D01*
X283999Y257962D01*
X283901Y257927D01*
X283821Y257887D01*
X283757Y257841D01*
X283711Y257806D01*
X283682Y257783D01*
X283671Y257772D01*
X283596Y257685D01*
X283538Y257593D01*
X283498Y257501D01*
X283475Y257415D01*
X283458Y257334D01*
X283452Y257277D01*
X283446Y257253D01*
Y257236D01*
Y257225D01*
Y257219D01*
X283458Y257098D01*
X283481Y256994D01*
X283515Y256896D01*
X283556Y256821D01*
X283596Y256758D01*
X283630Y256712D01*
X283653Y256683D01*
X283665Y256672D01*
X283751Y256603D01*
X283838Y256551D01*
X283930Y256510D01*
X284016Y256487D01*
X284097Y256470D01*
X284155Y256464D01*
X284178Y256458D01*
X284212D01*
X284293Y256464D01*
X284368Y256476D01*
X284431Y256487D01*
X284494Y256510D01*
X284546Y256528D01*
X284581Y256539D01*
X284604Y256551D01*
X284615Y256556D01*
X284679Y256597D01*
X284736Y256643D01*
X284782Y256695D01*
X284823Y256741D01*
X284852Y256781D01*
X284875Y256816D01*
X284886Y256839D01*
X284892Y256844D01*
X284921Y256914D01*
X284944Y256983D01*
X284961Y257052D01*
X284973Y257109D01*
X284978Y257161D01*
X284984Y257196D01*
Y257225D01*
Y257230D01*
X284973Y257346D01*
X284949Y257455D01*
X284915Y257547D01*
X284875Y257628D01*
X284840Y257691D01*
X284805Y257737D01*
X284782Y257766D01*
X284771Y257778D01*
X284684Y257852D01*
X284598Y257904D01*
X284506Y257945D01*
X284419Y257968D01*
X284345Y257985D01*
X284281Y257991D01*
X284258Y257997D01*
D02*
G37*
G36*
X261886Y257887D02*
X260890D01*
X260775Y257875D01*
X260683Y257870D01*
X260602Y257858D01*
X260544Y257847D01*
X260498Y257835D01*
X260475Y257829D01*
X260464Y257824D01*
X260395Y257795D01*
X260337Y257760D01*
X260285Y257726D01*
X260245Y257685D01*
X260210Y257651D01*
X260181Y257628D01*
X260170Y257605D01*
X260164Y257599D01*
X260124Y257541D01*
X260095Y257478D01*
X260078Y257415D01*
X260061Y257357D01*
X260055Y257311D01*
X260049Y257271D01*
Y257248D01*
Y257236D01*
X260055Y257167D01*
X260061Y257109D01*
X260072Y257052D01*
X260084Y257006D01*
X260101Y256965D01*
X260112Y256937D01*
X260118Y256919D01*
X260124Y256914D01*
X260153Y256868D01*
X260187Y256821D01*
X260216Y256787D01*
X260250Y256758D01*
X260279Y256729D01*
X260297Y256712D01*
X260314Y256706D01*
X260320Y256700D01*
X260412Y256654D01*
X260504Y256626D01*
X260544Y256614D01*
X260579Y256608D01*
X260602Y256603D01*
X260608D01*
X260648Y256597D01*
X260700Y256591D01*
X260815Y256585D01*
X261886D01*
Y257887D01*
D02*
G37*
G36*
X221799Y283137D02*
X220832D01*
Y283016D01*
Y282895D01*
Y282774D01*
Y282653D01*
Y282533D01*
Y282412D01*
Y282291D01*
Y282170D01*
Y282049D01*
Y281928D01*
Y281807D01*
Y281686D01*
Y281565D01*
Y281444D01*
Y281323D01*
Y281203D01*
X221799D01*
Y281082D01*
Y280961D01*
Y280840D01*
Y280719D01*
Y280598D01*
Y280477D01*
Y280356D01*
Y280235D01*
X222767D01*
Y280114D01*
Y279993D01*
Y279873D01*
Y279752D01*
Y279631D01*
Y279510D01*
Y279389D01*
Y279268D01*
X223734D01*
Y279147D01*
Y279026D01*
Y278905D01*
Y278784D01*
Y278663D01*
Y278543D01*
Y278422D01*
Y278301D01*
X224701D01*
Y278180D01*
Y278059D01*
Y277938D01*
Y277817D01*
Y277696D01*
Y277575D01*
Y277454D01*
Y277333D01*
Y277213D01*
Y277092D01*
Y276971D01*
Y276850D01*
Y276729D01*
Y276608D01*
Y276487D01*
Y276366D01*
X225668D01*
Y276487D01*
Y276608D01*
Y276729D01*
Y276850D01*
Y276971D01*
Y277092D01*
Y277213D01*
Y277333D01*
Y277454D01*
Y277575D01*
Y277696D01*
Y277817D01*
Y277938D01*
Y278059D01*
Y278180D01*
Y278301D01*
X224701D01*
Y278422D01*
Y278543D01*
Y278663D01*
Y278784D01*
Y278905D01*
Y279026D01*
Y279147D01*
Y279268D01*
Y279389D01*
Y279510D01*
Y279631D01*
Y279752D01*
Y279873D01*
Y279993D01*
Y280114D01*
Y280235D01*
X223734D01*
Y280356D01*
Y280477D01*
Y280598D01*
Y280719D01*
Y280840D01*
Y280961D01*
Y281082D01*
Y281203D01*
X222767D01*
Y281323D01*
Y281444D01*
Y281565D01*
Y281686D01*
Y281807D01*
Y281928D01*
Y282049D01*
Y282170D01*
X221799D01*
Y282291D01*
Y282412D01*
Y282533D01*
Y282653D01*
Y282774D01*
Y282895D01*
Y283016D01*
Y283137D01*
D02*
G37*
G36*
X222767Y279268D02*
X220832D01*
Y279147D01*
Y279026D01*
Y278905D01*
Y278784D01*
Y278663D01*
Y278543D01*
Y278422D01*
Y278301D01*
Y278180D01*
Y278059D01*
Y277938D01*
Y277817D01*
Y277696D01*
Y277575D01*
Y277454D01*
Y277333D01*
X219865D01*
Y277454D01*
Y277575D01*
Y277696D01*
Y277817D01*
Y277938D01*
Y278059D01*
Y278180D01*
Y278301D01*
Y278422D01*
Y278543D01*
Y278663D01*
Y278784D01*
Y278905D01*
Y279026D01*
Y279147D01*
Y279268D01*
X218898D01*
Y279147D01*
Y279026D01*
Y278905D01*
Y278784D01*
Y278663D01*
Y278543D01*
Y278422D01*
Y278301D01*
Y278180D01*
Y278059D01*
Y277938D01*
Y277817D01*
Y277696D01*
Y277575D01*
Y277454D01*
Y277333D01*
X219865D01*
Y277213D01*
Y277092D01*
Y276971D01*
Y276850D01*
Y276729D01*
Y276608D01*
Y276487D01*
Y276366D01*
Y276245D01*
Y276125D01*
Y276004D01*
Y275883D01*
Y275762D01*
Y275641D01*
Y275520D01*
Y275399D01*
X220832D01*
Y275520D01*
Y275641D01*
Y275762D01*
Y275883D01*
Y276004D01*
Y276125D01*
Y276245D01*
Y276366D01*
X221799D01*
Y276245D01*
Y276125D01*
Y276004D01*
Y275883D01*
Y275762D01*
Y275641D01*
Y275520D01*
Y275399D01*
X223734D01*
Y275278D01*
Y275157D01*
Y275036D01*
Y274915D01*
Y274795D01*
Y274674D01*
Y274553D01*
Y274432D01*
X224701D01*
Y274553D01*
Y274674D01*
Y274795D01*
Y274915D01*
Y275036D01*
Y275157D01*
Y275278D01*
Y275399D01*
Y275520D01*
Y275641D01*
Y275762D01*
Y275883D01*
Y276004D01*
Y276125D01*
Y276245D01*
Y276366D01*
X221799D01*
Y276487D01*
Y276608D01*
Y276729D01*
Y276850D01*
Y276971D01*
Y277092D01*
Y277213D01*
Y277333D01*
Y277454D01*
Y277575D01*
Y277696D01*
Y277817D01*
Y277938D01*
Y278059D01*
Y278180D01*
Y278301D01*
X222767D01*
Y278180D01*
Y278059D01*
Y277938D01*
Y277817D01*
Y277696D01*
Y277575D01*
Y277454D01*
Y277333D01*
X223734D01*
Y277454D01*
Y277575D01*
Y277696D01*
Y277817D01*
Y277938D01*
Y278059D01*
Y278180D01*
Y278301D01*
X222767D01*
Y278422D01*
Y278543D01*
Y278663D01*
Y278784D01*
Y278905D01*
Y279026D01*
Y279147D01*
Y279268D01*
D02*
G37*
G36*
X215875Y283137D02*
X211160D01*
Y283016D01*
Y282895D01*
Y282774D01*
Y282653D01*
Y282533D01*
Y282412D01*
Y282291D01*
Y282170D01*
Y282049D01*
Y281928D01*
Y281807D01*
Y281686D01*
Y281565D01*
Y281444D01*
Y281323D01*
Y281203D01*
Y281082D01*
Y280961D01*
Y280840D01*
Y280719D01*
Y280598D01*
Y280477D01*
Y280356D01*
Y280235D01*
Y280114D01*
Y279993D01*
Y279873D01*
Y279752D01*
Y279631D01*
Y279510D01*
Y279389D01*
Y279268D01*
Y279147D01*
Y279026D01*
Y278905D01*
Y278784D01*
Y278663D01*
Y278543D01*
Y278422D01*
X215875D01*
Y278543D01*
Y278663D01*
Y278784D01*
Y278905D01*
Y279026D01*
Y279147D01*
Y279268D01*
Y279389D01*
Y279510D01*
Y279631D01*
Y279752D01*
Y279873D01*
Y279993D01*
Y280114D01*
Y280235D01*
Y280356D01*
Y280477D01*
Y280598D01*
Y280719D01*
Y280840D01*
Y280961D01*
Y281082D01*
Y281203D01*
Y281323D01*
Y281444D01*
Y281565D01*
Y281686D01*
Y281807D01*
Y281928D01*
Y282049D01*
Y282170D01*
Y282291D01*
Y282412D01*
Y282533D01*
Y282653D01*
Y282774D01*
Y282895D01*
Y283016D01*
Y283137D01*
D02*
G37*
G36*
X329473Y275433D02*
X328262D01*
Y275260D01*
Y275087D01*
X328089D01*
Y274914D01*
X327917D01*
Y274741D01*
X327744D01*
Y274568D01*
Y274395D01*
X327571D01*
Y274222D01*
X327398D01*
Y274049D01*
X327225D01*
Y273876D01*
Y273703D01*
X327052D01*
Y273531D01*
X326879D01*
Y273358D01*
X326706D01*
Y273184D01*
Y273011D01*
X326533D01*
Y272839D01*
X326360D01*
Y272666D01*
X326187D01*
Y272493D01*
Y272320D01*
X326014D01*
Y272493D01*
Y272666D01*
Y272839D01*
Y273011D01*
Y273184D01*
Y273358D01*
Y273531D01*
Y273703D01*
Y273876D01*
Y274049D01*
Y274222D01*
Y274395D01*
Y274568D01*
Y274741D01*
Y274914D01*
Y275087D01*
Y275260D01*
X325841D01*
Y275433D01*
X324803D01*
Y275260D01*
Y275087D01*
Y274914D01*
Y274741D01*
Y274568D01*
Y274395D01*
Y274222D01*
Y274049D01*
Y273876D01*
Y273703D01*
Y273531D01*
Y273358D01*
Y273184D01*
Y273011D01*
Y272839D01*
Y272666D01*
Y272493D01*
Y272320D01*
Y272147D01*
Y271974D01*
Y271801D01*
Y271628D01*
Y271455D01*
Y271282D01*
Y271109D01*
Y270936D01*
Y270763D01*
Y270590D01*
Y270417D01*
Y270244D01*
Y270071D01*
Y269898D01*
X326014D01*
Y270071D01*
X326187D01*
Y270244D01*
Y270417D01*
X326360D01*
Y270590D01*
X326533D01*
Y270763D01*
X326706D01*
Y270936D01*
Y271109D01*
X326879D01*
Y271282D01*
X327052D01*
Y271455D01*
Y271628D01*
X327225D01*
Y271801D01*
X327398D01*
Y271974D01*
X327571D01*
Y272147D01*
Y272320D01*
X327744D01*
Y272493D01*
X327917D01*
Y272666D01*
X328089D01*
Y272839D01*
X328262D01*
Y272666D01*
Y272493D01*
Y272320D01*
Y272147D01*
Y271974D01*
Y271801D01*
Y271628D01*
Y271455D01*
Y271282D01*
Y271109D01*
Y270936D01*
Y270763D01*
Y270590D01*
Y270417D01*
Y270244D01*
Y270071D01*
Y269898D01*
X329473D01*
Y270071D01*
Y270244D01*
Y270417D01*
Y270590D01*
Y270763D01*
Y270936D01*
Y271109D01*
Y271282D01*
Y271455D01*
Y271628D01*
Y271801D01*
Y271974D01*
Y272147D01*
Y272320D01*
Y272493D01*
Y272666D01*
Y272839D01*
Y273011D01*
Y273184D01*
Y273358D01*
Y273531D01*
Y273703D01*
Y273876D01*
Y274049D01*
Y274222D01*
Y274395D01*
Y274568D01*
Y274741D01*
Y274914D01*
Y275087D01*
Y275260D01*
Y275433D01*
D02*
G37*
G36*
X335873D02*
X334662D01*
Y275260D01*
Y275087D01*
Y274914D01*
Y274741D01*
Y274568D01*
Y274395D01*
Y274222D01*
Y274049D01*
Y273876D01*
Y273703D01*
Y273531D01*
Y273358D01*
Y273184D01*
Y273011D01*
Y272839D01*
Y272666D01*
Y272493D01*
Y272320D01*
Y272147D01*
Y271974D01*
Y271801D01*
Y271628D01*
Y271455D01*
Y271282D01*
X332414D01*
Y271109D01*
X332241D01*
Y270936D01*
Y270763D01*
Y270590D01*
Y270417D01*
Y270244D01*
Y270071D01*
Y269898D01*
X335873D01*
Y270071D01*
Y270244D01*
Y270417D01*
Y270590D01*
Y270763D01*
Y270936D01*
Y271109D01*
Y271282D01*
Y271455D01*
Y271628D01*
Y271801D01*
Y271974D01*
Y272147D01*
Y272320D01*
Y272493D01*
Y272666D01*
Y272839D01*
Y273011D01*
Y273184D01*
Y273358D01*
Y273531D01*
Y273703D01*
Y273876D01*
Y274049D01*
Y274222D01*
Y274395D01*
Y274568D01*
Y274741D01*
Y274914D01*
Y275087D01*
Y275260D01*
Y275433D01*
D02*
G37*
G36*
X324803Y267823D02*
X323938D01*
Y267650D01*
X323765D01*
Y267823D01*
X322901D01*
Y267650D01*
Y267477D01*
Y267304D01*
Y267131D01*
Y266958D01*
Y266785D01*
Y266612D01*
Y266439D01*
Y266266D01*
Y266093D01*
Y265920D01*
Y265747D01*
Y265574D01*
Y265401D01*
Y265228D01*
Y265055D01*
Y264882D01*
Y264709D01*
Y264536D01*
X323074D01*
Y264363D01*
X323247D01*
Y264190D01*
X323419D01*
Y264017D01*
X324976D01*
Y264190D01*
X325322D01*
Y264363D01*
Y264536D01*
Y264709D01*
X325149D01*
Y264882D01*
X324630D01*
Y264709D01*
X323938D01*
Y264882D01*
X323765D01*
Y265055D01*
Y265228D01*
Y265401D01*
X323938D01*
Y265228D01*
X324976D01*
Y265401D01*
X325149D01*
Y265574D01*
X325322D01*
Y265747D01*
X325495D01*
Y265920D01*
Y266093D01*
Y266266D01*
X325668D01*
Y266439D01*
Y266612D01*
Y266785D01*
X325495D01*
Y266958D01*
Y267131D01*
Y267304D01*
X325322D01*
Y267477D01*
X325149D01*
Y267650D01*
X324803D01*
Y267823D01*
D02*
G37*
G36*
X335873Y268687D02*
X333105D01*
Y268514D01*
Y268341D01*
Y268168D01*
Y267996D01*
Y267823D01*
X333970D01*
Y267650D01*
Y267477D01*
Y267304D01*
Y267131D01*
Y266958D01*
Y266785D01*
Y266612D01*
Y266439D01*
Y266266D01*
Y266093D01*
Y265920D01*
Y265747D01*
Y265574D01*
Y265401D01*
Y265228D01*
X334143D01*
Y265055D01*
X334835D01*
Y265228D01*
X335008D01*
Y265401D01*
Y265574D01*
Y265747D01*
Y265920D01*
Y266093D01*
Y266266D01*
Y266439D01*
Y266612D01*
Y266785D01*
Y266958D01*
Y267131D01*
Y267304D01*
Y267477D01*
Y267650D01*
Y267823D01*
X335873D01*
Y267996D01*
Y268168D01*
Y268341D01*
Y268514D01*
Y268687D01*
D02*
G37*
G36*
X321863Y267823D02*
X320825D01*
Y267650D01*
X320479D01*
Y267477D01*
X320306D01*
Y267304D01*
X320479D01*
Y267131D01*
X320652D01*
Y266958D01*
X320998D01*
Y267131D01*
X321690D01*
Y266958D01*
X321517D01*
Y266785D01*
X321171D01*
Y266612D01*
X320652D01*
Y266439D01*
X320479D01*
Y266266D01*
X320306D01*
Y266093D01*
Y265920D01*
Y265747D01*
Y265574D01*
X320479D01*
Y265401D01*
Y265228D01*
X320825D01*
Y265055D01*
X322209D01*
Y265228D01*
X322382D01*
Y265401D01*
X322555D01*
Y265574D01*
Y265747D01*
X322382D01*
Y265920D01*
X321863D01*
Y265747D01*
X321171D01*
Y265920D01*
X321344D01*
Y266093D01*
X321863D01*
Y266266D01*
X322209D01*
Y266439D01*
X322382D01*
Y266612D01*
Y266785D01*
X322555D01*
Y266958D01*
Y267131D01*
X322382D01*
Y267304D01*
Y267477D01*
X322209D01*
Y267650D01*
X321863D01*
Y267823D01*
D02*
G37*
G36*
X329646D02*
X328954D01*
Y267650D01*
Y267477D01*
Y267304D01*
Y267131D01*
Y266958D01*
Y266785D01*
Y266612D01*
Y266439D01*
Y266266D01*
Y266093D01*
Y265920D01*
Y265747D01*
Y265574D01*
Y265401D01*
Y265228D01*
Y265055D01*
X329819D01*
Y265228D01*
Y265401D01*
Y265574D01*
Y265747D01*
Y265920D01*
Y266093D01*
Y266266D01*
Y266439D01*
Y266612D01*
Y266785D01*
Y266958D01*
Y267131D01*
Y267304D01*
Y267477D01*
Y267650D01*
X329646D01*
Y267823D01*
D02*
G37*
G36*
X328435D02*
X327571D01*
Y267650D01*
X327225D01*
Y267823D01*
X326360D01*
Y267650D01*
X326187D01*
Y267477D01*
X326014D01*
Y267304D01*
Y267131D01*
Y266958D01*
X325841D01*
Y266785D01*
Y266612D01*
Y266439D01*
Y266266D01*
Y266093D01*
Y265920D01*
Y265747D01*
Y265574D01*
Y265401D01*
Y265228D01*
X326014D01*
Y265055D01*
X326706D01*
Y265228D01*
Y265401D01*
Y265574D01*
Y265747D01*
Y265920D01*
Y266093D01*
Y266266D01*
Y266439D01*
Y266612D01*
X326879D01*
Y266785D01*
Y266958D01*
X327398D01*
Y266785D01*
X327571D01*
Y266612D01*
Y266439D01*
Y266266D01*
Y266093D01*
Y265920D01*
Y265747D01*
Y265574D01*
Y265401D01*
Y265228D01*
Y265055D01*
X328435D01*
Y265228D01*
Y265401D01*
Y265574D01*
Y265747D01*
Y265920D01*
Y266093D01*
Y266266D01*
Y266439D01*
Y266612D01*
Y266785D01*
Y266958D01*
Y267131D01*
Y267304D01*
Y267477D01*
Y267650D01*
Y267823D01*
D02*
G37*
G36*
X232439Y269596D02*
X231472D01*
Y269475D01*
Y269354D01*
Y269233D01*
Y269112D01*
Y268991D01*
Y268870D01*
Y268749D01*
Y268628D01*
X232439D01*
Y268749D01*
Y268870D01*
Y268991D01*
Y269112D01*
Y269233D01*
Y269354D01*
Y269475D01*
Y269596D01*
D02*
G37*
G36*
X323938Y275433D02*
X320479D01*
Y275260D01*
X320306D01*
Y275087D01*
Y274914D01*
Y274741D01*
Y274568D01*
Y274395D01*
Y274222D01*
X320479D01*
Y274049D01*
X322728D01*
Y273876D01*
Y273703D01*
Y273531D01*
Y273358D01*
X320479D01*
Y273184D01*
X320306D01*
Y273011D01*
Y272839D01*
Y272666D01*
Y272493D01*
Y272320D01*
Y272147D01*
Y271974D01*
X322728D01*
Y271801D01*
Y271628D01*
Y271455D01*
Y271282D01*
X320479D01*
Y271109D01*
X320306D01*
Y270936D01*
Y270763D01*
Y270590D01*
Y270417D01*
Y270244D01*
Y270071D01*
Y269898D01*
X323938D01*
Y270071D01*
Y270244D01*
Y270417D01*
Y270590D01*
Y270763D01*
Y270936D01*
Y271109D01*
Y271282D01*
Y271455D01*
Y271628D01*
Y271801D01*
Y271974D01*
Y272147D01*
Y272320D01*
Y272493D01*
Y272666D01*
Y272839D01*
Y273011D01*
Y273184D01*
Y273358D01*
Y273531D01*
Y273703D01*
Y273876D01*
Y274049D01*
Y274222D01*
Y274395D01*
Y274568D01*
Y274741D01*
Y274914D01*
Y275087D01*
Y275260D01*
Y275433D01*
D02*
G37*
G36*
X331376D02*
X330338D01*
Y275260D01*
Y275087D01*
Y274914D01*
Y274741D01*
Y274568D01*
Y274395D01*
Y274222D01*
Y274049D01*
Y273876D01*
Y273703D01*
Y273531D01*
Y273358D01*
Y273184D01*
Y273011D01*
Y272839D01*
Y272666D01*
Y272493D01*
Y272320D01*
Y272147D01*
Y271974D01*
Y271801D01*
Y271628D01*
Y271455D01*
Y271282D01*
Y271109D01*
Y270936D01*
Y270763D01*
Y270590D01*
Y270417D01*
Y270244D01*
Y270071D01*
Y269898D01*
X331549D01*
Y270071D01*
Y270244D01*
Y270417D01*
Y270590D01*
Y270763D01*
Y270936D01*
Y271109D01*
Y271282D01*
Y271455D01*
Y271628D01*
Y271801D01*
Y271974D01*
Y272147D01*
Y272320D01*
Y272493D01*
Y272666D01*
Y272839D01*
Y273011D01*
Y273184D01*
Y273358D01*
Y273531D01*
Y273703D01*
Y273876D01*
Y274049D01*
Y274222D01*
Y274395D01*
Y274568D01*
Y274741D01*
Y274914D01*
Y275087D01*
Y275260D01*
X331376D01*
Y275433D01*
D02*
G37*
G36*
X332760Y268687D02*
X331895D01*
Y268514D01*
Y268341D01*
Y268168D01*
Y267996D01*
Y267823D01*
Y267650D01*
X331549D01*
Y267823D01*
X330684D01*
Y267650D01*
X330511D01*
Y267477D01*
X330338D01*
Y267304D01*
Y267131D01*
Y266958D01*
X330165D01*
Y266785D01*
Y266612D01*
Y266439D01*
Y266266D01*
Y266093D01*
Y265920D01*
Y265747D01*
Y265574D01*
Y265401D01*
Y265228D01*
X330338D01*
Y265055D01*
X331030D01*
Y265228D01*
Y265401D01*
Y265574D01*
Y265747D01*
Y265920D01*
Y266093D01*
Y266266D01*
Y266439D01*
Y266612D01*
X331203D01*
Y266785D01*
Y266958D01*
X331895D01*
Y266785D01*
Y266612D01*
Y266439D01*
Y266266D01*
Y266093D01*
Y265920D01*
Y265747D01*
Y265574D01*
Y265401D01*
Y265228D01*
Y265055D01*
X332760D01*
Y265228D01*
Y265401D01*
Y265574D01*
Y265747D01*
Y265920D01*
Y266093D01*
Y266266D01*
Y266439D01*
Y266612D01*
Y266785D01*
Y266958D01*
Y267131D01*
Y267304D01*
Y267477D01*
Y267650D01*
Y267823D01*
Y267996D01*
Y268168D01*
Y268341D01*
Y268514D01*
Y268687D01*
D02*
G37*
G36*
X329646Y269033D02*
X329127D01*
Y268860D01*
X328954D01*
Y268687D01*
X328781D01*
Y268514D01*
Y268341D01*
X328954D01*
Y268168D01*
X329127D01*
Y267996D01*
X329646D01*
Y268168D01*
X329819D01*
Y268341D01*
Y268514D01*
Y268687D01*
Y268860D01*
X329646D01*
Y269033D01*
D02*
G37*
G36*
X237154Y261858D02*
X232439D01*
Y261737D01*
Y261616D01*
Y261495D01*
Y261374D01*
Y261253D01*
Y261132D01*
Y261011D01*
Y260890D01*
Y260770D01*
Y260649D01*
Y260528D01*
Y260407D01*
Y260286D01*
Y260165D01*
Y260044D01*
Y259923D01*
Y259802D01*
Y259681D01*
Y259560D01*
Y259440D01*
Y259319D01*
Y259198D01*
Y259077D01*
Y258956D01*
Y258835D01*
Y258714D01*
Y258593D01*
Y258472D01*
Y258351D01*
Y258230D01*
Y258110D01*
Y257989D01*
Y257868D01*
Y257747D01*
Y257626D01*
Y257505D01*
Y257384D01*
Y257263D01*
Y257142D01*
X237154D01*
Y257263D01*
Y257384D01*
Y257505D01*
Y257626D01*
Y257747D01*
Y257868D01*
Y257989D01*
Y258110D01*
Y258230D01*
Y258351D01*
Y258472D01*
Y258593D01*
Y258714D01*
Y258835D01*
Y258956D01*
Y259077D01*
Y259198D01*
Y259319D01*
Y259440D01*
Y259560D01*
Y259681D01*
Y259802D01*
Y259923D01*
Y260044D01*
Y260165D01*
Y260286D01*
Y260407D01*
Y260528D01*
Y260649D01*
Y260770D01*
Y260890D01*
Y261011D01*
Y261132D01*
Y261253D01*
Y261374D01*
Y261495D01*
Y261616D01*
Y261737D01*
Y261858D01*
D02*
G37*
G36*
X220832Y272497D02*
X218898D01*
Y272376D01*
Y272255D01*
Y272135D01*
Y272014D01*
Y271893D01*
Y271772D01*
Y271651D01*
Y271530D01*
X220832D01*
Y271409D01*
Y271288D01*
Y271167D01*
Y271046D01*
Y270926D01*
Y270805D01*
Y270684D01*
Y270563D01*
X221799D01*
Y270684D01*
Y270805D01*
Y270926D01*
Y271046D01*
Y271167D01*
Y271288D01*
Y271409D01*
Y271530D01*
X220832D01*
Y271651D01*
Y271772D01*
Y271893D01*
Y272014D01*
Y272135D01*
Y272255D01*
Y272376D01*
Y272497D01*
D02*
G37*
G36*
X217930D02*
X214061D01*
Y272376D01*
Y272255D01*
Y272135D01*
Y272014D01*
Y271893D01*
Y271772D01*
Y271651D01*
Y271530D01*
X217930D01*
Y271651D01*
Y271772D01*
Y271893D01*
Y272014D01*
Y272135D01*
Y272255D01*
Y272376D01*
Y272497D01*
D02*
G37*
G36*
X224701D02*
X223734D01*
Y272376D01*
Y272255D01*
Y272135D01*
Y272014D01*
Y271893D01*
Y271772D01*
Y271651D01*
Y271530D01*
X224701D01*
Y271651D01*
Y271772D01*
Y271893D01*
Y272014D01*
Y272135D01*
Y272255D01*
Y272376D01*
Y272497D01*
D02*
G37*
G36*
X215996Y257989D02*
X215029D01*
Y257868D01*
Y257747D01*
Y257626D01*
Y257505D01*
Y257384D01*
Y257263D01*
Y257142D01*
Y257021D01*
X215996D01*
Y257142D01*
Y257263D01*
Y257384D01*
Y257505D01*
Y257626D01*
Y257747D01*
Y257868D01*
Y257989D01*
D02*
G37*
G36*
X223734Y259923D02*
X222767D01*
Y259802D01*
Y259681D01*
Y259560D01*
Y259440D01*
Y259319D01*
Y259198D01*
Y259077D01*
Y258956D01*
X223734D01*
Y259077D01*
Y259198D01*
Y259319D01*
Y259440D01*
Y259560D01*
Y259681D01*
Y259802D01*
Y259923D01*
D02*
G37*
G36*
X222767Y262825D02*
X221799D01*
Y262704D01*
Y262583D01*
Y262462D01*
Y262341D01*
Y262220D01*
Y262100D01*
Y261979D01*
Y261858D01*
X222767D01*
Y261737D01*
Y261616D01*
Y261495D01*
Y261374D01*
Y261253D01*
Y261132D01*
Y261011D01*
Y260890D01*
X223734D01*
Y261011D01*
Y261132D01*
Y261253D01*
Y261374D01*
Y261495D01*
Y261616D01*
Y261737D01*
Y261858D01*
X222767D01*
Y261979D01*
Y262100D01*
Y262220D01*
Y262341D01*
Y262462D01*
Y262583D01*
Y262704D01*
Y262825D01*
D02*
G37*
G36*
X219865Y266694D02*
X218898D01*
Y266573D01*
Y266452D01*
Y266331D01*
Y266210D01*
Y266089D01*
Y265968D01*
Y265848D01*
Y265727D01*
X219865D01*
Y265606D01*
Y265485D01*
Y265364D01*
Y265243D01*
Y265122D01*
Y265001D01*
Y264880D01*
Y264759D01*
X221799D01*
Y264638D01*
Y264518D01*
Y264397D01*
Y264276D01*
Y264155D01*
Y264034D01*
Y263913D01*
Y263792D01*
X222767D01*
Y263671D01*
Y263550D01*
Y263429D01*
Y263309D01*
Y263188D01*
Y263067D01*
Y262946D01*
Y262825D01*
X224701D01*
Y262946D01*
Y263067D01*
Y263188D01*
Y263309D01*
Y263429D01*
Y263550D01*
Y263671D01*
Y263792D01*
X223734D01*
Y263913D01*
Y264034D01*
Y264155D01*
Y264276D01*
Y264397D01*
Y264518D01*
Y264638D01*
Y264759D01*
X222767D01*
Y264880D01*
Y265001D01*
Y265122D01*
Y265243D01*
Y265364D01*
Y265485D01*
Y265606D01*
Y265727D01*
X219865D01*
Y265848D01*
Y265968D01*
Y266089D01*
Y266210D01*
Y266331D01*
Y266452D01*
Y266573D01*
Y266694D01*
D02*
G37*
G36*
X217930Y263792D02*
X215029D01*
Y263671D01*
Y263550D01*
Y263429D01*
Y263309D01*
Y263188D01*
Y263067D01*
Y262946D01*
Y262825D01*
Y262704D01*
Y262583D01*
Y262462D01*
Y262341D01*
Y262220D01*
Y262100D01*
Y261979D01*
Y261858D01*
Y261737D01*
Y261616D01*
Y261495D01*
Y261374D01*
Y261253D01*
Y261132D01*
Y261011D01*
Y260890D01*
X217930D01*
Y261011D01*
Y261132D01*
Y261253D01*
Y261374D01*
Y261495D01*
Y261616D01*
Y261737D01*
Y261858D01*
Y261979D01*
Y262100D01*
Y262220D01*
Y262341D01*
Y262462D01*
Y262583D01*
Y262704D01*
Y262825D01*
Y262946D01*
Y263067D01*
Y263188D01*
Y263309D01*
Y263429D01*
Y263550D01*
Y263671D01*
Y263792D01*
D02*
G37*
%LPD*%
G36*
X236308Y282049D02*
Y281928D01*
Y281807D01*
Y281686D01*
Y281565D01*
Y281444D01*
Y281323D01*
Y281203D01*
Y281082D01*
Y280961D01*
Y280840D01*
Y280719D01*
Y280598D01*
Y280477D01*
Y280356D01*
Y280235D01*
Y280114D01*
Y279993D01*
Y279873D01*
Y279752D01*
Y279631D01*
Y279510D01*
Y279389D01*
Y279268D01*
X233406D01*
Y279389D01*
Y279510D01*
Y279631D01*
Y279752D01*
Y279873D01*
Y279993D01*
Y280114D01*
Y280235D01*
Y280356D01*
Y280477D01*
Y280598D01*
Y280719D01*
Y280840D01*
Y280961D01*
Y281082D01*
Y281203D01*
Y281323D01*
Y281444D01*
Y281565D01*
Y281686D01*
Y281807D01*
Y281928D01*
Y282049D01*
Y282170D01*
X236308D01*
Y282049D01*
D02*
G37*
G36*
X216963Y262704D02*
Y262583D01*
Y262462D01*
Y262341D01*
Y262220D01*
Y262100D01*
Y261979D01*
Y261858D01*
X215996D01*
Y261979D01*
Y262100D01*
Y262220D01*
Y262341D01*
Y262462D01*
Y262583D01*
Y262704D01*
Y262825D01*
X216963D01*
Y262704D01*
D02*
G37*
G36*
X236308Y260770D02*
Y260649D01*
Y260528D01*
Y260407D01*
Y260286D01*
Y260165D01*
Y260044D01*
Y259923D01*
Y259802D01*
Y259681D01*
Y259560D01*
Y259440D01*
Y259319D01*
Y259198D01*
Y259077D01*
Y258956D01*
Y258835D01*
Y258714D01*
Y258593D01*
Y258472D01*
Y258351D01*
Y258230D01*
Y258110D01*
Y257989D01*
X233406D01*
Y258110D01*
Y258230D01*
Y258351D01*
Y258472D01*
Y258593D01*
Y258714D01*
Y258835D01*
Y258956D01*
Y259077D01*
Y259198D01*
Y259319D01*
Y259440D01*
Y259560D01*
Y259681D01*
Y259802D01*
Y259923D01*
Y260044D01*
Y260165D01*
Y260286D01*
Y260407D01*
Y260528D01*
Y260649D01*
Y260770D01*
Y260890D01*
X236308D01*
Y260770D01*
D02*
G37*
G36*
X324457Y266785D02*
X324630D01*
Y266612D01*
Y266439D01*
Y266266D01*
X324457D01*
Y266093D01*
X323938D01*
Y266266D01*
X323765D01*
Y266439D01*
Y266612D01*
Y266785D01*
X323938D01*
Y266958D01*
X324457D01*
Y266785D01*
D02*
G37*
G36*
X215029Y282049D02*
Y281928D01*
Y281807D01*
Y281686D01*
Y281565D01*
Y281444D01*
Y281323D01*
Y281203D01*
Y281082D01*
Y280961D01*
Y280840D01*
Y280719D01*
Y280598D01*
Y280477D01*
Y280356D01*
Y280235D01*
Y280114D01*
Y279993D01*
Y279873D01*
Y279752D01*
Y279631D01*
Y279510D01*
Y279389D01*
Y279268D01*
X212127D01*
Y279389D01*
Y279510D01*
Y279631D01*
Y279752D01*
Y279873D01*
Y279993D01*
Y280114D01*
Y280235D01*
Y280356D01*
Y280477D01*
Y280598D01*
Y280719D01*
Y280840D01*
Y280961D01*
Y281082D01*
Y281203D01*
Y281323D01*
Y281444D01*
Y281565D01*
Y281686D01*
Y281807D01*
Y281928D01*
Y282049D01*
Y282170D01*
X215029D01*
Y282049D01*
D02*
G37*
M02*
