M48
;Layer_Color=6321
;FILE_FORMAT=2:5
INCH,LZ
;TYPE=PLATED
T1F00S00C0.01575
T2F00S00C0.03543
%
T01
X032559Y0244331
X0318898Y0257716
X0320472Y0262047
X0313779Y0270315
X0314567Y028252
X0318504Y0284095
X0320472Y0280551
X0310236Y028252
X0305512Y0282913
X0301969Y0281339
X0299606Y0284095
X0294488Y0281339
X029252Y0278189
X0296063Y0275433
X0299213Y0272677
X030315Y0268347
X0305118Y0262047
X0302362Y0258898
X0296063Y0261653
X0308661Y0264409
X0311811Y0266772
X0307087Y0275433
X027441Y0288032
X0264567Y0288819
X0259842Y0285669
X0257087Y0280157
X026063Y0270315
X0259842Y0262441
X0257087Y0259685
X0260236Y0254961
X0266142Y0251811
X0272835
X0238189Y0252205
X0206299Y0250236
X0203543Y0265197
X0199213Y0290394
T02
X032Y024
X033
Y03
X032
X031
X03
X029
X028
X027
X026
X025
X024
X023
X022
X021
X02
Y028
Y027
Y026
Y025
Y024
X021
X022
X023
X024
X025
X026
X027
X028
X029
X03
X031
M30
