G04*
G04 #@! TF.GenerationSoftware,Altium Limited,CircuitStudio,1.5.1 (13)*
G04*
G04 Layer_Color=7318015*
%FSLAX25Y25*%
%MOIN*%
G70*
G01*
G75*
%ADD10R,0.06693X0.03937*%
%ADD11R,0.07874X0.04921*%
%ADD12R,0.05118X0.05906*%
%ADD13R,0.05512X0.01575*%
%ADD14R,0.01575X0.03937*%
%ADD15R,0.03150X0.05512*%
%ADD16R,0.01575X0.05512*%
%ADD17R,0.07087X0.02165*%
%ADD18R,0.04331X0.03937*%
D10*
X212189Y267559D02*
D03*
Y252598D02*
D03*
X238992Y267559D02*
D03*
Y252598D02*
D03*
D11*
X251969Y252205D02*
D03*
Y267165D02*
D03*
D12*
X274130Y289114D02*
D03*
X266650D02*
D03*
D13*
X287008Y286457D02*
D03*
Y253386D02*
D03*
Y256142D02*
D03*
Y258898D02*
D03*
Y261654D02*
D03*
Y280945D02*
D03*
Y283701D02*
D03*
Y272677D02*
D03*
Y275433D02*
D03*
Y278189D02*
D03*
Y264409D02*
D03*
Y267165D02*
D03*
Y269921D02*
D03*
D14*
X331299Y258504D02*
D03*
X325787D02*
D03*
D15*
X333465Y250236D02*
D03*
Y289606D02*
D03*
D16*
X329921Y250236D02*
D03*
X327165D02*
D03*
X324410D02*
D03*
X321654D02*
D03*
X318898D02*
D03*
X316142D02*
D03*
X313386D02*
D03*
X310630D02*
D03*
X307874D02*
D03*
X305118D02*
D03*
X302362D02*
D03*
X299606D02*
D03*
X296850D02*
D03*
X294094D02*
D03*
X316142Y289606D02*
D03*
X318898D02*
D03*
X321654D02*
D03*
X307874D02*
D03*
X310630D02*
D03*
X313386D02*
D03*
X299606D02*
D03*
X302362D02*
D03*
X305118D02*
D03*
X296850D02*
D03*
D17*
X249803Y281831D02*
D03*
Y278484D02*
D03*
X223425D02*
D03*
Y281831D02*
D03*
D18*
X272736Y258504D02*
D03*
X266043D02*
D03*
X266043Y265886D02*
D03*
X272736D02*
D03*
X266043Y280551D02*
D03*
X272736D02*
D03*
X266043Y273268D02*
D03*
X272736D02*
D03*
X266043Y251122D02*
D03*
X272736D02*
D03*
M02*
